<svg width="585" height="253" viewBox="0 0 585 253" fill="none" xmlns="http://www.w3.org/2000/svg">
<g clip-path="url(#clip0_1296_2136)">
<rect width="585" height="253" rx="5.02608" fill="white"/>
<path d="M0 6.02608C0 3.25025 2.25025 1 5.02608 1L579.974 1C582.75 1 585 3.25025 585 6.02608V26L0 26L0 6.02608Z" fill="#047BD5"/>
<path d="M25.7744 13.7256H27.6543C27.6042 14.391 27.4196 14.9811 27.1006 15.4961C26.7816 16.0065 26.3372 16.4076 25.7676 16.6992C25.1979 16.9909 24.5075 17.1367 23.6963 17.1367C23.0719 17.1367 22.5091 17.0273 22.0078 16.8086C21.5111 16.5853 21.085 16.2686 20.7295 15.8584C20.3786 15.4437 20.1097 14.9469 19.9229 14.3682C19.736 13.7848 19.6426 13.1309 19.6426 12.4062V11.6475C19.6426 10.9229 19.7383 10.2689 19.9297 9.68555C20.1211 9.10221 20.3945 8.60547 20.75 8.19531C21.11 7.7806 21.5407 7.46159 22.042 7.23828C22.5479 7.01497 23.113 6.90332 23.7373 6.90332C24.5485 6.90332 25.2344 7.05371 25.7949 7.35449C26.3555 7.65072 26.7907 8.05859 27.1006 8.57812C27.4105 9.09766 27.5973 9.69466 27.6611 10.3691H25.7812C25.7448 9.94987 25.6536 9.5944 25.5078 9.30273C25.3665 9.01107 25.1523 8.79004 24.8652 8.63965C24.5827 8.4847 24.2067 8.40723 23.7373 8.40723C23.3727 8.40723 23.0514 8.47559 22.7734 8.6123C22.5 8.74902 22.2721 8.9541 22.0898 9.22754C21.9076 9.49642 21.7708 9.83366 21.6797 10.2393C21.5885 10.6403 21.543 11.1051 21.543 11.6338V12.4062C21.543 12.9121 21.584 13.3656 21.666 13.7666C21.748 14.1676 21.8757 14.5072 22.0488 14.7852C22.222 15.0632 22.4453 15.2751 22.7188 15.4209C22.9922 15.5667 23.318 15.6396 23.6963 15.6396C24.1566 15.6396 24.5303 15.5667 24.8174 15.4209C25.109 15.2751 25.3301 15.0609 25.4805 14.7783C25.6354 14.4958 25.7334 14.1449 25.7744 13.7256ZM32.2686 10.8887L30.0127 17H28.1807L31.3594 9.03613H32.5898L32.2686 10.8887ZM34.415 17L32.1318 10.8818L31.8105 9.03613H33.0547L36.2402 17H34.415ZM34.3398 14.04V15.3594H29.8623V14.04H34.3398ZM42.5361 15.5781V17H38.2158V15.5781H42.5361ZM38.8242 9.03613V17H37.0127V9.03613H38.8242ZM49.0439 15.5781V17H44.7236V15.5781H49.0439ZM45.332 9.03613V17H43.5205V9.03613H45.332Z" fill="white"/>
<line x1="39.3141" y1="39" x2="39.3141" y2="234" stroke="#CBCBCB" stroke-width="0.62826"/>
<line x1="570" y1="234.314" x2="39.0015" y2="234.314" stroke="#CBCBCB" stroke-width="0.62826"/>
<path d="M9.57967 137.785L9.57966 137.196C9.86189 137.227 10.1145 137.308 10.3374 137.438C10.5603 137.569 10.7372 137.754 10.8681 137.994C10.9969 138.233 11.0614 138.532 11.0614 138.889C11.0614 139.151 11.0123 139.389 10.9141 139.604C10.8159 139.817 10.6769 140 10.4969 140.153C10.3149 140.307 10.0971 140.425 9.84349 140.509C9.58785 140.591 9.30357 140.632 8.99067 140.632L8.54586 140.632C8.23295 140.632 7.94971 140.591 7.69611 140.509C7.44047 140.425 7.22164 140.306 7.03963 140.15C6.85761 139.993 6.71752 139.804 6.61936 139.583C6.52119 139.362 6.47211 139.113 6.47211 138.837C6.47211 138.5 6.53551 138.215 6.6623 137.981C6.7891 137.748 6.96498 137.567 7.18994 137.438C7.41286 137.308 7.67157 137.227 7.96607 137.196L7.96607 137.785C7.75746 137.814 7.57852 137.867 7.42922 137.945C7.27788 138.022 7.16131 138.133 7.07951 138.276C6.9977 138.419 6.9568 138.606 6.9568 138.837C6.9568 139.036 6.99464 139.211 7.0703 139.362C7.14597 139.511 7.25334 139.637 7.39241 139.739C7.53148 139.839 7.69816 139.915 7.89244 139.966C8.08673 140.017 8.30249 140.043 8.53972 140.043L8.99067 140.043C9.2095 140.043 9.41503 140.02 9.60727 139.975C9.79952 139.928 9.96824 139.858 10.1134 139.764C10.2586 139.67 10.3732 139.55 10.457 139.405C10.5388 139.26 10.5797 139.088 10.5797 138.889C10.5797 138.638 10.5398 138.437 10.4601 138.288C10.3803 138.139 10.2658 138.026 10.1165 137.951C9.96721 137.873 9.78827 137.818 9.57967 137.785ZM9.3772 136.625L9.30664 136.625C9.06736 136.625 8.84547 136.591 8.64096 136.521C8.4344 136.452 8.25545 136.351 8.10411 136.221C7.95073 136.09 7.83211 135.931 7.74826 135.745C7.66237 135.559 7.61942 135.35 7.61942 135.119C7.61942 134.886 7.66237 134.676 7.74826 134.49C7.83211 134.302 7.95073 134.143 8.10411 134.012C8.25545 133.879 8.4344 133.778 8.64096 133.708C8.84547 133.639 9.06736 133.604 9.30664 133.604L9.3772 133.604C9.61648 133.604 9.83837 133.639 10.0429 133.708C10.2474 133.778 10.4263 133.879 10.5797 134.012C10.7311 134.143 10.8497 134.301 10.9356 134.487C11.0194 134.671 11.0614 134.88 11.0614 135.113C11.0614 135.346 11.0194 135.556 10.9356 135.742C10.8497 135.928 10.7311 136.088 10.5797 136.221C10.4263 136.351 10.2474 136.452 10.0429 136.521C9.83837 136.591 9.61648 136.625 9.3772 136.625ZM9.30664 136.058L9.3772 136.058C9.54285 136.058 9.6993 136.039 9.84655 136C9.99176 135.961 10.1206 135.903 10.2331 135.825C10.3456 135.745 10.4345 135.646 10.5 135.527C10.5634 135.409 10.5951 135.271 10.5951 135.113C10.5951 134.958 10.5634 134.822 10.5 134.705C10.4345 134.587 10.3456 134.488 10.2331 134.411C10.1206 134.333 9.99176 134.275 9.84655 134.236C9.6993 134.195 9.54285 134.174 9.3772 134.174L9.30664 134.174C9.14303 134.174 8.98863 134.195 8.84342 134.236C8.69617 134.275 8.56631 134.334 8.45383 134.414C8.3393 134.491 8.24932 134.59 8.18387 134.708C8.11843 134.825 8.08571 134.962 8.08571 135.119C8.08571 135.275 8.11843 135.412 8.18387 135.53C8.24932 135.647 8.3393 135.745 8.45383 135.825C8.56631 135.903 8.69617 135.961 8.84342 136C8.98863 136.039 9.14303 136.058 9.30664 136.058ZM10.2331 130.861L7.68077 130.861L7.68077 130.291L11 130.291L11 130.834L10.2331 130.861ZM9.53365 130.754L9.52751 130.518C9.74839 130.518 9.9529 130.541 10.141 130.588C10.3272 130.633 10.4887 130.707 10.6257 130.809C10.7628 130.911 10.8701 131.045 10.9478 131.211C11.0235 131.377 11.0614 131.578 11.0614 131.815C11.0614 131.977 11.0378 132.125 10.9908 132.26C10.9438 132.393 10.8712 132.508 10.773 132.604C10.6748 132.7 10.547 132.775 10.3895 132.828C10.2321 132.879 10.0429 132.904 9.82201 132.904L7.68077 132.904L7.68077 132.337L9.82815 132.337C9.97744 132.337 10.1012 132.321 10.1993 132.288C10.2955 132.253 10.3721 132.207 10.4294 132.15C10.4846 132.09 10.5235 132.025 10.546 131.953C10.5685 131.88 10.5797 131.804 10.5797 131.726C10.5797 131.485 10.5337 131.294 10.4417 131.153C10.3476 131.012 10.2218 130.91 10.0644 130.849C9.90484 130.786 9.72794 130.754 9.53365 130.754ZM8.38941 128.858L11 128.858L11 129.426L7.68077 129.426L7.68077 128.889L8.38941 128.858ZM9.21461 128.993L9.20541 129.229C8.9784 129.227 8.76878 129.194 8.57653 129.128C8.38225 129.063 8.21353 128.971 8.07037 128.852C7.92721 128.733 7.81677 128.592 7.73906 128.429C7.6593 128.263 7.61942 128.08 7.61942 127.88C7.61942 127.716 7.64191 127.569 7.68691 127.438C7.72985 127.307 7.79939 127.195 7.89551 127.103C7.99163 127.009 8.11638 126.938 8.26977 126.889C8.4211 126.84 8.60619 126.815 8.82502 126.815L11 126.815L11 127.386L8.81888 127.386C8.64505 127.386 8.50598 127.411 8.40168 127.462C8.29533 127.513 8.21864 127.588 8.1716 127.686C8.12252 127.784 8.09798 127.905 8.09798 128.048C8.09798 128.189 8.12763 128.318 8.18694 128.435C8.24625 128.549 8.32805 128.649 8.43235 128.732C8.53665 128.814 8.65629 128.879 8.79127 128.926C8.9242 128.971 9.06532 128.993 9.21461 128.993ZM7.68077 124.563L8.11638 124.563L8.11638 126.358L7.68077 126.358L7.68077 124.563ZM6.87397 125.751L6.87397 125.183L10.1779 125.183C10.2903 125.183 10.3752 125.166 10.4325 125.131C10.4897 125.096 10.5276 125.051 10.546 124.996C10.5644 124.941 10.5736 124.881 10.5736 124.818C10.5736 124.771 10.5695 124.722 10.5613 124.671C10.5511 124.618 10.5429 124.578 10.5368 124.551L11 124.548C11.0143 124.593 11.0276 124.652 11.0399 124.726C11.0542 124.798 11.0614 124.884 11.0614 124.987C11.0614 125.126 11.0337 125.254 10.9785 125.37C10.9233 125.487 10.8313 125.58 10.7024 125.649C10.5715 125.717 10.3957 125.751 10.1748 125.751L6.87397 125.751ZM10.1196 121.965C10.0378 121.965 9.9621 121.983 9.89257 122.02C9.82099 122.055 9.75657 122.128 9.6993 122.238C9.64 122.346 9.58887 122.51 9.54592 122.729C9.50706 122.913 9.46105 123.08 9.40787 123.229C9.3547 123.376 9.29028 123.502 9.21461 123.606C9.13894 123.709 9.04998 123.787 8.94772 123.842C8.84547 123.898 8.72583 123.925 8.5888 123.925C8.45792 123.925 8.33419 123.897 8.21762 123.839C8.10104 123.78 7.99777 123.697 7.90778 123.591C7.81779 123.483 7.74724 123.353 7.69611 123.201C7.64498 123.05 7.61942 122.881 7.61942 122.695C7.61942 122.429 7.66646 122.202 7.76053 122.014C7.85461 121.826 7.98038 121.682 8.13786 121.582C8.29328 121.481 8.4661 121.431 8.65629 121.431L8.65629 121.999C8.56426 121.999 8.4753 122.026 8.38941 122.082C8.30147 122.135 8.22886 122.214 8.1716 122.318C8.11434 122.42 8.08571 122.546 8.08571 122.695C8.08571 122.853 8.11025 122.98 8.15933 123.079C8.20637 123.175 8.2667 123.245 8.34032 123.29C8.41395 123.333 8.49166 123.355 8.57347 123.355C8.63482 123.355 8.69004 123.344 8.73912 123.324C8.78616 123.302 8.83013 123.263 8.87103 123.207C8.90989 123.152 8.9467 123.075 8.98147 122.974C9.01623 122.874 9.051 122.746 9.08577 122.591C9.14712 122.319 9.22075 122.095 9.30664 121.919C9.39254 121.743 9.49786 121.612 9.62261 121.526C9.74736 121.44 9.8987 121.398 10.0766 121.398C10.2218 121.398 10.3548 121.428 10.4754 121.49C10.5961 121.549 10.7004 121.636 10.7883 121.75C10.8742 121.863 10.9417 121.998 10.9908 122.155C11.0378 122.311 11.0614 122.486 11.0614 122.68C11.0614 122.972 11.0092 123.22 10.9049 123.422C10.8006 123.625 10.6656 123.778 10.5 123.882C10.3343 123.987 10.1595 124.039 9.97539 124.039L9.97539 123.468C10.1308 123.46 10.2546 123.415 10.3466 123.333C10.4366 123.251 10.501 123.151 10.5398 123.033C10.5767 122.914 10.5951 122.796 10.5951 122.68C10.5951 122.524 10.5746 122.395 10.5337 122.29C10.4928 122.184 10.4366 122.103 10.365 122.048C10.2934 121.993 10.2116 121.965 10.1196 121.965Z" fill="#3D3D3D"/>
<path d="M29.1992 226.406V227H25.4766V226.48L27.3398 224.406C27.569 224.151 27.7461 223.935 27.8711 223.758C27.9987 223.578 28.0872 223.418 28.1367 223.277C28.1888 223.134 28.2148 222.988 28.2148 222.84C28.2148 222.652 28.1758 222.483 28.0977 222.332C28.0221 222.178 27.9102 222.056 27.7617 221.965C27.6133 221.874 27.4336 221.828 27.2227 221.828C26.9701 221.828 26.7591 221.878 26.5898 221.977C26.4232 222.073 26.2982 222.208 26.2148 222.383C26.1315 222.557 26.0898 222.758 26.0898 222.984H25.3672C25.3672 222.664 25.4375 222.371 25.5781 222.105C25.7188 221.84 25.9271 221.629 26.2031 221.473C26.4792 221.314 26.819 221.234 27.2227 221.234C27.582 221.234 27.8893 221.298 28.1445 221.426C28.3997 221.551 28.5951 221.728 28.7305 221.957C28.8685 222.184 28.9375 222.449 28.9375 222.754C28.9375 222.921 28.9089 223.09 28.8516 223.262C28.7969 223.431 28.7201 223.6 28.6211 223.77C28.5247 223.939 28.4115 224.105 28.2812 224.27C28.1536 224.434 28.0169 224.595 27.8711 224.754L26.3477 226.406H29.1992ZM33.543 223.703V224.57C33.543 225.036 33.5013 225.43 33.418 225.75C33.3346 226.07 33.2148 226.328 33.0586 226.523C32.9023 226.719 32.7135 226.861 32.4922 226.949C32.2734 227.035 32.026 227.078 31.75 227.078C31.5312 227.078 31.3294 227.051 31.1445 226.996C30.9596 226.941 30.793 226.854 30.6445 226.734C30.4987 226.612 30.3737 226.453 30.2695 226.258C30.1654 226.062 30.0859 225.826 30.0312 225.547C29.9766 225.268 29.9492 224.943 29.9492 224.57V223.703C29.9492 223.237 29.9909 222.846 30.0742 222.531C30.1602 222.216 30.2812 221.964 30.4375 221.773C30.5938 221.581 30.7812 221.443 31 221.359C31.2214 221.276 31.4688 221.234 31.7422 221.234C31.9635 221.234 32.1667 221.262 32.3516 221.316C32.5391 221.368 32.7057 221.453 32.8516 221.57C32.9974 221.685 33.1211 221.839 33.2227 222.031C33.3268 222.221 33.4062 222.454 33.4609 222.73C33.5156 223.007 33.543 223.331 33.543 223.703ZM32.8164 224.688V223.582C32.8164 223.327 32.8008 223.103 32.7695 222.91C32.7409 222.715 32.6979 222.548 32.6406 222.41C32.5833 222.272 32.5104 222.16 32.4219 222.074C32.3359 221.988 32.2357 221.926 32.1211 221.887C32.0091 221.845 31.8828 221.824 31.7422 221.824C31.5703 221.824 31.418 221.857 31.2852 221.922C31.1523 221.984 31.0404 222.085 30.9492 222.223C30.8607 222.361 30.793 222.542 30.7461 222.766C30.6992 222.99 30.6758 223.262 30.6758 223.582V224.688C30.6758 224.943 30.6901 225.168 30.7188 225.363C30.75 225.559 30.7956 225.728 30.8555 225.871C30.9154 226.012 30.9883 226.128 31.0742 226.219C31.1602 226.31 31.2591 226.378 31.3711 226.422C31.4857 226.464 31.612 226.484 31.75 226.484C31.9271 226.484 32.082 226.451 32.2148 226.383C32.3477 226.315 32.4583 226.21 32.5469 226.066C32.638 225.921 32.7057 225.734 32.75 225.508C32.7943 225.279 32.8164 225.005 32.8164 224.688Z" fill="#3D3D3D"/>
<path d="M29.3164 204.086V204.68H25.207V204.254L27.7539 200.312H28.3438L27.7109 201.453L26.0273 204.086H29.3164ZM28.5234 200.312V206H27.8008V200.312H28.5234ZM33.543 202.703V203.57C33.543 204.036 33.5013 204.43 33.418 204.75C33.3346 205.07 33.2148 205.328 33.0586 205.523C32.9023 205.719 32.7135 205.861 32.4922 205.949C32.2734 206.035 32.026 206.078 31.75 206.078C31.5312 206.078 31.3294 206.051 31.1445 205.996C30.9596 205.941 30.793 205.854 30.6445 205.734C30.4987 205.612 30.3737 205.453 30.2695 205.258C30.1654 205.062 30.0859 204.826 30.0312 204.547C29.9766 204.268 29.9492 203.943 29.9492 203.57V202.703C29.9492 202.237 29.9909 201.846 30.0742 201.531C30.1602 201.216 30.2812 200.964 30.4375 200.773C30.5938 200.581 30.7812 200.443 31 200.359C31.2214 200.276 31.4688 200.234 31.7422 200.234C31.9635 200.234 32.1667 200.262 32.3516 200.316C32.5391 200.368 32.7057 200.453 32.8516 200.57C32.9974 200.685 33.1211 200.839 33.2227 201.031C33.3268 201.221 33.4062 201.454 33.4609 201.73C33.5156 202.007 33.543 202.331 33.543 202.703ZM32.8164 203.688V202.582C32.8164 202.327 32.8008 202.103 32.7695 201.91C32.7409 201.715 32.6979 201.548 32.6406 201.41C32.5833 201.272 32.5104 201.16 32.4219 201.074C32.3359 200.988 32.2357 200.926 32.1211 200.887C32.0091 200.845 31.8828 200.824 31.7422 200.824C31.5703 200.824 31.418 200.857 31.2852 200.922C31.1523 200.984 31.0404 201.085 30.9492 201.223C30.8607 201.361 30.793 201.542 30.7461 201.766C30.6992 201.99 30.6758 202.262 30.6758 202.582V203.688C30.6758 203.943 30.6901 204.168 30.7188 204.363C30.75 204.559 30.7956 204.728 30.8555 204.871C30.9154 205.012 30.9883 205.128 31.0742 205.219C31.1602 205.31 31.2591 205.378 31.3711 205.422C31.4857 205.464 31.612 205.484 31.75 205.484C31.9271 205.484 32.082 205.451 32.2148 205.383C32.3477 205.315 32.4583 205.21 32.5469 205.066C32.638 204.921 32.7057 204.734 32.75 204.508C32.7943 204.279 32.8164 204.005 32.8164 203.688Z" fill="#3D3D3D"/>
<path d="M28.2461 179.305H28.3086V179.918H28.2461C27.8633 179.918 27.543 179.98 27.2852 180.105C27.0273 180.228 26.8229 180.393 26.6719 180.602C26.5208 180.807 26.4115 181.039 26.3438 181.297C26.2786 181.555 26.2461 181.816 26.2461 182.082V182.918C26.2461 183.171 26.276 183.395 26.3359 183.59C26.3958 183.783 26.4779 183.945 26.582 184.078C26.6862 184.211 26.8034 184.311 26.9336 184.379C27.0664 184.447 27.2044 184.48 27.3477 184.48C27.5143 184.48 27.6628 184.449 27.793 184.387C27.9232 184.322 28.0326 184.232 28.1211 184.117C28.2122 184 28.2812 183.862 28.3281 183.703C28.375 183.544 28.3984 183.37 28.3984 183.18C28.3984 183.01 28.3776 182.848 28.3359 182.691C28.2943 182.533 28.2305 182.392 28.1445 182.27C28.0586 182.145 27.9505 182.047 27.8203 181.977C27.6927 181.904 27.5404 181.867 27.3633 181.867C27.1628 181.867 26.9753 181.917 26.8008 182.016C26.6289 182.112 26.487 182.24 26.375 182.398C26.2656 182.555 26.2031 182.725 26.1875 182.91L25.8047 182.906C25.8411 182.615 25.9089 182.366 26.0078 182.16C26.1094 181.952 26.2344 181.783 26.3828 181.652C26.5339 181.52 26.7018 181.423 26.8867 181.363C27.0742 181.301 27.2721 181.27 27.4805 181.27C27.7643 181.27 28.0091 181.323 28.2148 181.43C28.4206 181.536 28.5898 181.68 28.7227 181.859C28.8555 182.036 28.9531 182.237 29.0156 182.461C29.0807 182.682 29.1133 182.91 29.1133 183.145C29.1133 183.413 29.0755 183.664 29 183.898C28.9245 184.133 28.8112 184.339 28.6602 184.516C28.5117 184.693 28.3281 184.831 28.1094 184.93C27.8906 185.029 27.6367 185.078 27.3477 185.078C27.0404 185.078 26.7721 185.016 26.543 184.891C26.3138 184.763 26.1237 184.594 25.9727 184.383C25.8216 184.172 25.7083 183.938 25.6328 183.68C25.5573 183.422 25.5195 183.16 25.5195 182.895V182.555C25.5195 182.154 25.5599 181.76 25.6406 181.375C25.7214 180.99 25.8607 180.641 26.0586 180.328C26.2591 180.016 26.5365 179.767 26.8906 179.582C27.2448 179.397 27.6966 179.305 28.2461 179.305ZM33.543 181.703V182.57C33.543 183.036 33.5013 183.43 33.418 183.75C33.3346 184.07 33.2148 184.328 33.0586 184.523C32.9023 184.719 32.7135 184.861 32.4922 184.949C32.2734 185.035 32.026 185.078 31.75 185.078C31.5312 185.078 31.3294 185.051 31.1445 184.996C30.9596 184.941 30.793 184.854 30.6445 184.734C30.4987 184.612 30.3737 184.453 30.2695 184.258C30.1654 184.062 30.0859 183.826 30.0312 183.547C29.9766 183.268 29.9492 182.943 29.9492 182.57V181.703C29.9492 181.237 29.9909 180.846 30.0742 180.531C30.1602 180.216 30.2812 179.964 30.4375 179.773C30.5938 179.581 30.7812 179.443 31 179.359C31.2214 179.276 31.4688 179.234 31.7422 179.234C31.9635 179.234 32.1667 179.262 32.3516 179.316C32.5391 179.368 32.7057 179.453 32.8516 179.57C32.9974 179.685 33.1211 179.839 33.2227 180.031C33.3268 180.221 33.4062 180.454 33.4609 180.73C33.5156 181.007 33.543 181.331 33.543 181.703ZM32.8164 182.688V181.582C32.8164 181.327 32.8008 181.103 32.7695 180.91C32.7409 180.715 32.6979 180.548 32.6406 180.41C32.5833 180.272 32.5104 180.16 32.4219 180.074C32.3359 179.988 32.2357 179.926 32.1211 179.887C32.0091 179.845 31.8828 179.824 31.7422 179.824C31.5703 179.824 31.418 179.857 31.2852 179.922C31.1523 179.984 31.0404 180.085 30.9492 180.223C30.8607 180.361 30.793 180.542 30.7461 180.766C30.6992 180.99 30.6758 181.262 30.6758 181.582V182.688C30.6758 182.943 30.6901 183.168 30.7188 183.363C30.75 183.559 30.7956 183.728 30.8555 183.871C30.9154 184.012 30.9883 184.128 31.0742 184.219C31.1602 184.31 31.2591 184.378 31.3711 184.422C31.4857 184.464 31.612 184.484 31.75 184.484C31.9271 184.484 32.082 184.451 32.2148 184.383C32.3477 184.315 32.4583 184.21 32.5469 184.066C32.638 183.921 32.7057 183.734 32.75 183.508C32.7943 183.279 32.8164 183.005 32.8164 182.688Z" fill="#3D3D3D"/>
<path d="M29.0586 162.461C29.0586 162.807 28.9779 163.102 28.8164 163.344C28.6576 163.583 28.4414 163.766 28.168 163.891C27.8971 164.016 27.5911 164.078 27.25 164.078C26.9089 164.078 26.6016 164.016 26.3281 163.891C26.0547 163.766 25.8385 163.583 25.6797 163.344C25.5208 163.102 25.4414 162.807 25.4414 162.461C25.4414 162.234 25.4844 162.027 25.5703 161.84C25.6589 161.65 25.7826 161.484 25.9414 161.344C26.1029 161.203 26.293 161.095 26.5117 161.02C26.7331 160.941 26.9766 160.902 27.2422 160.902C27.5911 160.902 27.9023 160.97 28.1758 161.105C28.4492 161.238 28.6641 161.422 28.8203 161.656C28.9792 161.891 29.0586 162.159 29.0586 162.461ZM28.332 162.445C28.332 162.234 28.2865 162.048 28.1953 161.887C28.1042 161.723 27.9766 161.595 27.8125 161.504C27.6484 161.413 27.4583 161.367 27.2422 161.367C27.0208 161.367 26.8294 161.413 26.668 161.504C26.5091 161.595 26.3854 161.723 26.2969 161.887C26.2083 162.048 26.1641 162.234 26.1641 162.445C26.1641 162.664 26.207 162.852 26.293 163.008C26.3815 163.161 26.5065 163.28 26.668 163.363C26.832 163.444 27.026 163.484 27.25 163.484C27.474 163.484 27.6667 163.444 27.8281 163.363C27.9896 163.28 28.1133 163.161 28.1992 163.008C28.2878 162.852 28.332 162.664 28.332 162.445ZM28.9258 159.793C28.9258 160.069 28.8529 160.318 28.707 160.539C28.5612 160.76 28.362 160.935 28.1094 161.062C27.8568 161.19 27.5703 161.254 27.25 161.254C26.9245 161.254 26.6341 161.19 26.3789 161.062C26.1263 160.935 25.9284 160.76 25.7852 160.539C25.6419 160.318 25.5703 160.069 25.5703 159.793C25.5703 159.462 25.6419 159.181 25.7852 158.949C25.931 158.717 26.1302 158.54 26.3828 158.418C26.6354 158.296 26.9232 158.234 27.2461 158.234C27.5716 158.234 27.8607 158.296 28.1133 158.418C28.3659 158.54 28.5638 158.717 28.707 158.949C28.8529 159.181 28.9258 159.462 28.9258 159.793ZM28.2031 159.805C28.2031 159.615 28.1628 159.447 28.082 159.301C28.0013 159.155 27.8893 159.04 27.7461 158.957C27.6029 158.871 27.4362 158.828 27.2461 158.828C27.056 158.828 26.8893 158.868 26.7461 158.949C26.6055 159.027 26.4948 159.139 26.4141 159.285C26.3359 159.431 26.2969 159.604 26.2969 159.805C26.2969 160 26.3359 160.171 26.4141 160.316C26.4948 160.462 26.6068 160.576 26.75 160.656C26.8932 160.737 27.0599 160.777 27.25 160.777C27.4401 160.777 27.6055 160.737 27.7461 160.656C27.8893 160.576 28.0013 160.462 28.082 160.316C28.1628 160.171 28.2031 160 28.2031 159.805ZM33.543 160.703V161.57C33.543 162.036 33.5013 162.43 33.418 162.75C33.3346 163.07 33.2148 163.328 33.0586 163.523C32.9023 163.719 32.7135 163.861 32.4922 163.949C32.2734 164.035 32.026 164.078 31.75 164.078C31.5312 164.078 31.3294 164.051 31.1445 163.996C30.9596 163.941 30.793 163.854 30.6445 163.734C30.4987 163.612 30.3737 163.453 30.2695 163.258C30.1654 163.062 30.0859 162.826 30.0312 162.547C29.9766 162.268 29.9492 161.943 29.9492 161.57V160.703C29.9492 160.237 29.9909 159.846 30.0742 159.531C30.1602 159.216 30.2812 158.964 30.4375 158.773C30.5938 158.581 30.7812 158.443 31 158.359C31.2214 158.276 31.4688 158.234 31.7422 158.234C31.9635 158.234 32.1667 158.262 32.3516 158.316C32.5391 158.368 32.7057 158.453 32.8516 158.57C32.9974 158.685 33.1211 158.839 33.2227 159.031C33.3268 159.221 33.4062 159.454 33.4609 159.73C33.5156 160.007 33.543 160.331 33.543 160.703ZM32.8164 161.688V160.582C32.8164 160.327 32.8008 160.103 32.7695 159.91C32.7409 159.715 32.6979 159.548 32.6406 159.41C32.5833 159.272 32.5104 159.16 32.4219 159.074C32.3359 158.988 32.2357 158.926 32.1211 158.887C32.0091 158.845 31.8828 158.824 31.7422 158.824C31.5703 158.824 31.418 158.857 31.2852 158.922C31.1523 158.984 31.0404 159.085 30.9492 159.223C30.8607 159.361 30.793 159.542 30.7461 159.766C30.6992 159.99 30.6758 160.262 30.6758 160.582V161.688C30.6758 161.943 30.6901 162.168 30.7188 162.363C30.75 162.559 30.7956 162.728 30.8555 162.871C30.9154 163.012 30.9883 163.128 31.0742 163.219C31.1602 163.31 31.2591 163.378 31.3711 163.422C31.4857 163.464 31.612 163.484 31.75 163.484C31.9271 163.484 32.082 163.451 32.2148 163.383C32.3477 163.315 32.4583 163.21 32.5469 163.066C32.638 162.921 32.7057 162.734 32.75 162.508C32.7943 162.279 32.8164 162.005 32.8164 161.688Z" fill="#3D3D3D"/>
<path d="M24.8477 137.281V143H24.125V138.184L22.668 138.715V138.062L24.7344 137.281H24.8477ZM30.543 139.703V140.57C30.543 141.036 30.5013 141.43 30.418 141.75C30.3346 142.07 30.2148 142.328 30.0586 142.523C29.9023 142.719 29.7135 142.861 29.4922 142.949C29.2734 143.035 29.026 143.078 28.75 143.078C28.5312 143.078 28.3294 143.051 28.1445 142.996C27.9596 142.941 27.793 142.854 27.6445 142.734C27.4987 142.612 27.3737 142.453 27.2695 142.258C27.1654 142.062 27.0859 141.826 27.0312 141.547C26.9766 141.268 26.9492 140.943 26.9492 140.57V139.703C26.9492 139.237 26.9909 138.846 27.0742 138.531C27.1602 138.216 27.2812 137.964 27.4375 137.773C27.5938 137.581 27.7812 137.443 28 137.359C28.2214 137.276 28.4688 137.234 28.7422 137.234C28.9635 137.234 29.1667 137.262 29.3516 137.316C29.5391 137.368 29.7057 137.453 29.8516 137.57C29.9974 137.685 30.1211 137.839 30.2227 138.031C30.3268 138.221 30.4062 138.454 30.4609 138.73C30.5156 139.007 30.543 139.331 30.543 139.703ZM29.8164 140.688V139.582C29.8164 139.327 29.8008 139.103 29.7695 138.91C29.7409 138.715 29.6979 138.548 29.6406 138.41C29.5833 138.272 29.5104 138.16 29.4219 138.074C29.3359 137.988 29.2357 137.926 29.1211 137.887C29.0091 137.845 28.8828 137.824 28.7422 137.824C28.5703 137.824 28.418 137.857 28.2852 137.922C28.1523 137.984 28.0404 138.085 27.9492 138.223C27.8607 138.361 27.793 138.542 27.7461 138.766C27.6992 138.99 27.6758 139.262 27.6758 139.582V140.688C27.6758 140.943 27.6901 141.168 27.7188 141.363C27.75 141.559 27.7956 141.728 27.8555 141.871C27.9154 142.012 27.9883 142.128 28.0742 142.219C28.1602 142.31 28.2591 142.378 28.3711 142.422C28.4857 142.464 28.612 142.484 28.75 142.484C28.9271 142.484 29.082 142.451 29.2148 142.383C29.3477 142.315 29.4583 142.21 29.5469 142.066C29.638 141.921 29.7057 141.734 29.75 141.508C29.7943 141.279 29.8164 141.005 29.8164 140.688ZM35.043 139.703V140.57C35.043 141.036 35.0013 141.43 34.918 141.75C34.8346 142.07 34.7148 142.328 34.5586 142.523C34.4023 142.719 34.2135 142.861 33.9922 142.949C33.7734 143.035 33.526 143.078 33.25 143.078C33.0312 143.078 32.8294 143.051 32.6445 142.996C32.4596 142.941 32.293 142.854 32.1445 142.734C31.9987 142.612 31.8737 142.453 31.7695 142.258C31.6654 142.062 31.5859 141.826 31.5312 141.547C31.4766 141.268 31.4492 140.943 31.4492 140.57V139.703C31.4492 139.237 31.4909 138.846 31.5742 138.531C31.6602 138.216 31.7812 137.964 31.9375 137.773C32.0938 137.581 32.2812 137.443 32.5 137.359C32.7214 137.276 32.9688 137.234 33.2422 137.234C33.4635 137.234 33.6667 137.262 33.8516 137.316C34.0391 137.368 34.2057 137.453 34.3516 137.57C34.4974 137.685 34.6211 137.839 34.7227 138.031C34.8268 138.221 34.9062 138.454 34.9609 138.73C35.0156 139.007 35.043 139.331 35.043 139.703ZM34.3164 140.688V139.582C34.3164 139.327 34.3008 139.103 34.2695 138.91C34.2409 138.715 34.1979 138.548 34.1406 138.41C34.0833 138.272 34.0104 138.16 33.9219 138.074C33.8359 137.988 33.7357 137.926 33.6211 137.887C33.5091 137.845 33.3828 137.824 33.2422 137.824C33.0703 137.824 32.918 137.857 32.7852 137.922C32.6523 137.984 32.5404 138.085 32.4492 138.223C32.3607 138.361 32.293 138.542 32.2461 138.766C32.1992 138.99 32.1758 139.262 32.1758 139.582V140.688C32.1758 140.943 32.1901 141.168 32.2188 141.363C32.25 141.559 32.2956 141.728 32.3555 141.871C32.4154 142.012 32.4883 142.128 32.5742 142.219C32.6602 142.31 32.7591 142.378 32.8711 142.422C32.9857 142.464 33.112 142.484 33.25 142.484C33.4271 142.484 33.582 142.451 33.7148 142.383C33.8477 142.315 33.9583 142.21 34.0469 142.066C34.138 141.921 34.2057 141.734 34.25 141.508C34.2943 141.279 34.3164 141.005 34.3164 140.688Z" fill="#3D3D3D"/>
<path d="M24.8477 116.281V122H24.125V117.184L22.668 117.715V117.062L24.7344 116.281H24.8477ZM30.6992 121.406V122H26.9766V121.48L28.8398 119.406C29.069 119.151 29.2461 118.935 29.3711 118.758C29.4987 118.578 29.5872 118.418 29.6367 118.277C29.6888 118.134 29.7148 117.988 29.7148 117.84C29.7148 117.652 29.6758 117.483 29.5977 117.332C29.5221 117.178 29.4102 117.056 29.2617 116.965C29.1133 116.874 28.9336 116.828 28.7227 116.828C28.4701 116.828 28.2591 116.878 28.0898 116.977C27.9232 117.073 27.7982 117.208 27.7148 117.383C27.6315 117.557 27.5898 117.758 27.5898 117.984H26.8672C26.8672 117.664 26.9375 117.371 27.0781 117.105C27.2188 116.84 27.4271 116.629 27.7031 116.473C27.9792 116.314 28.319 116.234 28.7227 116.234C29.082 116.234 29.3893 116.298 29.6445 116.426C29.8997 116.551 30.0951 116.728 30.2305 116.957C30.3685 117.184 30.4375 117.449 30.4375 117.754C30.4375 117.921 30.4089 118.09 30.3516 118.262C30.2969 118.431 30.2201 118.6 30.1211 118.77C30.0247 118.939 29.9115 119.105 29.7812 119.27C29.6536 119.434 29.5169 119.595 29.3711 119.754L27.8477 121.406H30.6992ZM35.043 118.703V119.57C35.043 120.036 35.0013 120.43 34.918 120.75C34.8346 121.07 34.7148 121.328 34.5586 121.523C34.4023 121.719 34.2135 121.861 33.9922 121.949C33.7734 122.035 33.526 122.078 33.25 122.078C33.0312 122.078 32.8294 122.051 32.6445 121.996C32.4596 121.941 32.293 121.854 32.1445 121.734C31.9987 121.612 31.8737 121.453 31.7695 121.258C31.6654 121.062 31.5859 120.826 31.5312 120.547C31.4766 120.268 31.4492 119.943 31.4492 119.57V118.703C31.4492 118.237 31.4909 117.846 31.5742 117.531C31.6602 117.216 31.7812 116.964 31.9375 116.773C32.0938 116.581 32.2812 116.443 32.5 116.359C32.7214 116.276 32.9688 116.234 33.2422 116.234C33.4635 116.234 33.6667 116.262 33.8516 116.316C34.0391 116.368 34.2057 116.453 34.3516 116.57C34.4974 116.685 34.6211 116.839 34.7227 117.031C34.8268 117.221 34.9062 117.454 34.9609 117.73C35.0156 118.007 35.043 118.331 35.043 118.703ZM34.3164 119.688V118.582C34.3164 118.327 34.3008 118.103 34.2695 117.91C34.2409 117.715 34.1979 117.548 34.1406 117.41C34.0833 117.272 34.0104 117.16 33.9219 117.074C33.8359 116.988 33.7357 116.926 33.6211 116.887C33.5091 116.845 33.3828 116.824 33.2422 116.824C33.0703 116.824 32.918 116.857 32.7852 116.922C32.6523 116.984 32.5404 117.085 32.4492 117.223C32.3607 117.361 32.293 117.542 32.2461 117.766C32.1992 117.99 32.1758 118.262 32.1758 118.582V119.688C32.1758 119.943 32.1901 120.168 32.2188 120.363C32.25 120.559 32.2956 120.728 32.3555 120.871C32.4154 121.012 32.4883 121.128 32.5742 121.219C32.6602 121.31 32.7591 121.378 32.8711 121.422C32.9857 121.464 33.112 121.484 33.25 121.484C33.4271 121.484 33.582 121.451 33.7148 121.383C33.8477 121.315 33.9583 121.21 34.0469 121.066C34.138 120.921 34.2057 120.734 34.25 120.508C34.2943 120.279 34.3164 120.005 34.3164 119.688Z" fill="#3D3D3D"/>
<path d="M24.8477 95.2812V101H24.125V96.1836L22.668 96.7148V96.0625L24.7344 95.2812H24.8477ZM30.8164 99.0859V99.6797H26.707V99.2539L29.2539 95.3125H29.8438L29.2109 96.4531L27.5273 99.0859H30.8164ZM30.0234 95.3125V101H29.3008V95.3125H30.0234ZM35.043 97.7031V98.5703C35.043 99.0365 35.0013 99.4297 34.918 99.75C34.8346 100.07 34.7148 100.328 34.5586 100.523C34.4023 100.719 34.2135 100.861 33.9922 100.949C33.7734 101.035 33.526 101.078 33.25 101.078C33.0312 101.078 32.8294 101.051 32.6445 100.996C32.4596 100.941 32.293 100.854 32.1445 100.734C31.9987 100.612 31.8737 100.453 31.7695 100.258C31.6654 100.062 31.5859 99.8255 31.5312 99.5469C31.4766 99.2682 31.4492 98.9427 31.4492 98.5703V97.7031C31.4492 97.237 31.4909 96.8464 31.5742 96.5312C31.6602 96.2161 31.7812 95.9635 31.9375 95.7734C32.0938 95.5807 32.2812 95.4427 32.5 95.3594C32.7214 95.276 32.9688 95.2344 33.2422 95.2344C33.4635 95.2344 33.6667 95.2617 33.8516 95.3164C34.0391 95.3685 34.2057 95.4531 34.3516 95.5703C34.4974 95.6849 34.6211 95.8385 34.7227 96.0312C34.8268 96.2214 34.9062 96.4544 34.9609 96.7305C35.0156 97.0065 35.043 97.3307 35.043 97.7031ZM34.3164 98.6875V97.582C34.3164 97.3268 34.3008 97.1029 34.2695 96.9102C34.2409 96.7148 34.1979 96.5482 34.1406 96.4102C34.0833 96.2721 34.0104 96.1602 33.9219 96.0742C33.8359 95.9883 33.7357 95.9258 33.6211 95.8867C33.5091 95.8451 33.3828 95.8242 33.2422 95.8242C33.0703 95.8242 32.918 95.8568 32.7852 95.9219C32.6523 95.9844 32.5404 96.0846 32.4492 96.2227C32.3607 96.3607 32.293 96.5417 32.2461 96.7656C32.1992 96.9896 32.1758 97.2617 32.1758 97.582V98.6875C32.1758 98.9427 32.1901 99.168 32.2188 99.3633C32.25 99.5586 32.2956 99.7279 32.3555 99.8711C32.4154 100.012 32.4883 100.128 32.5742 100.219C32.6602 100.31 32.7591 100.378 32.8711 100.422C32.9857 100.464 33.112 100.484 33.25 100.484C33.4271 100.484 33.582 100.451 33.7148 100.383C33.8477 100.315 33.9583 100.21 34.0469 100.066C34.138 99.9206 34.2057 99.7344 34.25 99.5078C34.2943 99.2786 34.3164 99.0052 34.3164 98.6875Z" fill="#3D3D3D"/>
<path d="M24.8477 74.2812V80H24.125V75.1836L22.668 75.7148V75.0625L24.7344 74.2812H24.8477ZM29.7461 74.3047H29.8086V74.918H29.7461C29.3633 74.918 29.043 74.9805 28.7852 75.1055C28.5273 75.2279 28.3229 75.3932 28.1719 75.6016C28.0208 75.8073 27.9115 76.0391 27.8438 76.2969C27.7786 76.5547 27.7461 76.8164 27.7461 77.082V77.918C27.7461 78.1706 27.776 78.3945 27.8359 78.5898C27.8958 78.7826 27.9779 78.9453 28.082 79.0781C28.1862 79.2109 28.3034 79.3112 28.4336 79.3789C28.5664 79.4466 28.7044 79.4805 28.8477 79.4805C29.0143 79.4805 29.1628 79.4492 29.293 79.3867C29.4232 79.3216 29.5326 79.2318 29.6211 79.1172C29.7122 79 29.7812 78.862 29.8281 78.7031C29.875 78.5443 29.8984 78.3698 29.8984 78.1797C29.8984 78.0104 29.8776 77.8477 29.8359 77.6914C29.7943 77.5326 29.7305 77.3919 29.6445 77.2695C29.5586 77.1445 29.4505 77.0469 29.3203 76.9766C29.1927 76.9036 29.0404 76.8672 28.8633 76.8672C28.6628 76.8672 28.4753 76.9167 28.3008 77.0156C28.1289 77.112 27.987 77.2396 27.875 77.3984C27.7656 77.5547 27.7031 77.7253 27.6875 77.9102L27.3047 77.9062C27.3411 77.6146 27.4089 77.3659 27.5078 77.1602C27.6094 76.9518 27.7344 76.7826 27.8828 76.6523C28.0339 76.5195 28.2018 76.4232 28.3867 76.3633C28.5742 76.3008 28.7721 76.2695 28.9805 76.2695C29.2643 76.2695 29.5091 76.3229 29.7148 76.4297C29.9206 76.5365 30.0898 76.6797 30.2227 76.8594C30.3555 77.0365 30.4531 77.237 30.5156 77.4609C30.5807 77.6823 30.6133 77.9102 30.6133 78.1445C30.6133 78.4128 30.5755 78.6641 30.5 78.8984C30.4245 79.1328 30.3112 79.3385 30.1602 79.5156C30.0117 79.6927 29.8281 79.8307 29.6094 79.9297C29.3906 80.0286 29.1367 80.0781 28.8477 80.0781C28.5404 80.0781 28.2721 80.0156 28.043 79.8906C27.8138 79.763 27.6237 79.5938 27.4727 79.3828C27.3216 79.1719 27.2083 78.9375 27.1328 78.6797C27.0573 78.4219 27.0195 78.1602 27.0195 77.8945V77.5547C27.0195 77.1536 27.0599 76.7604 27.1406 76.375C27.2214 75.9896 27.3607 75.6406 27.5586 75.3281C27.7591 75.0156 28.0365 74.7669 28.3906 74.582C28.7448 74.3971 29.1966 74.3047 29.7461 74.3047ZM35.043 76.7031V77.5703C35.043 78.0365 35.0013 78.4297 34.918 78.75C34.8346 79.0703 34.7148 79.3281 34.5586 79.5234C34.4023 79.7188 34.2135 79.8607 33.9922 79.9492C33.7734 80.0352 33.526 80.0781 33.25 80.0781C33.0312 80.0781 32.8294 80.0508 32.6445 79.9961C32.4596 79.9414 32.293 79.8542 32.1445 79.7344C31.9987 79.612 31.8737 79.4531 31.7695 79.2578C31.6654 79.0625 31.5859 78.8255 31.5312 78.5469C31.4766 78.2682 31.4492 77.9427 31.4492 77.5703V76.7031C31.4492 76.237 31.4909 75.8464 31.5742 75.5312C31.6602 75.2161 31.7812 74.9635 31.9375 74.7734C32.0938 74.5807 32.2812 74.4427 32.5 74.3594C32.7214 74.276 32.9688 74.2344 33.2422 74.2344C33.4635 74.2344 33.6667 74.2617 33.8516 74.3164C34.0391 74.3685 34.2057 74.4531 34.3516 74.5703C34.4974 74.6849 34.6211 74.8385 34.7227 75.0312C34.8268 75.2214 34.9062 75.4544 34.9609 75.7305C35.0156 76.0065 35.043 76.3307 35.043 76.7031ZM34.3164 77.6875V76.582C34.3164 76.3268 34.3008 76.1029 34.2695 75.9102C34.2409 75.7148 34.1979 75.5482 34.1406 75.4102C34.0833 75.2721 34.0104 75.1602 33.9219 75.0742C33.8359 74.9883 33.7357 74.9258 33.6211 74.8867C33.5091 74.8451 33.3828 74.8242 33.2422 74.8242C33.0703 74.8242 32.918 74.8568 32.7852 74.9219C32.6523 74.9844 32.5404 75.0846 32.4492 75.2227C32.3607 75.3607 32.293 75.5417 32.2461 75.7656C32.1992 75.9896 32.1758 76.2617 32.1758 76.582V77.6875C32.1758 77.9427 32.1901 78.168 32.2188 78.3633C32.25 78.5586 32.2956 78.7279 32.3555 78.8711C32.4154 79.0117 32.4883 79.1276 32.5742 79.2188C32.6602 79.3099 32.7591 79.3776 32.8711 79.4219C32.9857 79.4635 33.112 79.4844 33.25 79.4844C33.4271 79.4844 33.582 79.4505 33.7148 79.3828C33.8477 79.3151 33.9583 79.2096 34.0469 79.0664C34.138 78.9206 34.2057 78.7344 34.25 78.5078C34.2943 78.2786 34.3164 78.0052 34.3164 77.6875Z" fill="#3D3D3D"/>
<path d="M24.8477 53.2812V59H24.125V54.1836L22.668 54.7148V54.0625L24.7344 53.2812H24.8477ZM30.5586 57.4609C30.5586 57.8073 30.4779 58.1016 30.3164 58.3438C30.1576 58.5833 29.9414 58.7656 29.668 58.8906C29.3971 59.0156 29.0911 59.0781 28.75 59.0781C28.4089 59.0781 28.1016 59.0156 27.8281 58.8906C27.5547 58.7656 27.3385 58.5833 27.1797 58.3438C27.0208 58.1016 26.9414 57.8073 26.9414 57.4609C26.9414 57.2344 26.9844 57.0273 27.0703 56.8398C27.1589 56.6497 27.2826 56.4844 27.4414 56.3438C27.6029 56.2031 27.793 56.0951 28.0117 56.0195C28.2331 55.9414 28.4766 55.9023 28.7422 55.9023C29.0911 55.9023 29.4023 55.9701 29.6758 56.1055C29.9492 56.2383 30.1641 56.4219 30.3203 56.6562C30.4792 56.8906 30.5586 57.1589 30.5586 57.4609ZM29.832 57.4453C29.832 57.2344 29.7865 57.0482 29.6953 56.8867C29.6042 56.7227 29.4766 56.5951 29.3125 56.5039C29.1484 56.4128 28.9583 56.3672 28.7422 56.3672C28.5208 56.3672 28.3294 56.4128 28.168 56.5039C28.0091 56.5951 27.8854 56.7227 27.7969 56.8867C27.7083 57.0482 27.6641 57.2344 27.6641 57.4453C27.6641 57.6641 27.707 57.8516 27.793 58.0078C27.8815 58.1615 28.0065 58.2799 28.168 58.3633C28.332 58.444 28.526 58.4844 28.75 58.4844C28.974 58.4844 29.1667 58.444 29.3281 58.3633C29.4896 58.2799 29.6133 58.1615 29.6992 58.0078C29.7878 57.8516 29.832 57.6641 29.832 57.4453ZM30.4258 54.793C30.4258 55.069 30.3529 55.3177 30.207 55.5391C30.0612 55.7604 29.862 55.9349 29.6094 56.0625C29.3568 56.1901 29.0703 56.2539 28.75 56.2539C28.4245 56.2539 28.1341 56.1901 27.8789 56.0625C27.6263 55.9349 27.4284 55.7604 27.2852 55.5391C27.1419 55.3177 27.0703 55.069 27.0703 54.793C27.0703 54.4622 27.1419 54.181 27.2852 53.9492C27.431 53.7174 27.6302 53.5404 27.8828 53.418C28.1354 53.2956 28.4232 53.2344 28.7461 53.2344C29.0716 53.2344 29.3607 53.2956 29.6133 53.418C29.8659 53.5404 30.0638 53.7174 30.207 53.9492C30.3529 54.181 30.4258 54.4622 30.4258 54.793ZM29.7031 54.8047C29.7031 54.6146 29.6628 54.4466 29.582 54.3008C29.5013 54.1549 29.3893 54.0404 29.2461 53.957C29.1029 53.8711 28.9362 53.8281 28.7461 53.8281C28.556 53.8281 28.3893 53.8685 28.2461 53.9492C28.1055 54.0273 27.9948 54.1393 27.9141 54.2852C27.8359 54.431 27.7969 54.6042 27.7969 54.8047C27.7969 55 27.8359 55.1706 27.9141 55.3164C27.9948 55.4622 28.1068 55.5755 28.25 55.6562C28.3932 55.737 28.5599 55.7773 28.75 55.7773C28.9401 55.7773 29.1055 55.737 29.2461 55.6562C29.3893 55.5755 29.5013 55.4622 29.582 55.3164C29.6628 55.1706 29.7031 55 29.7031 54.8047ZM35.043 55.7031V56.5703C35.043 57.0365 35.0013 57.4297 34.918 57.75C34.8346 58.0703 34.7148 58.3281 34.5586 58.5234C34.4023 58.7188 34.2135 58.8607 33.9922 58.9492C33.7734 59.0352 33.526 59.0781 33.25 59.0781C33.0312 59.0781 32.8294 59.0508 32.6445 58.9961C32.4596 58.9414 32.293 58.8542 32.1445 58.7344C31.9987 58.612 31.8737 58.4531 31.7695 58.2578C31.6654 58.0625 31.5859 57.8255 31.5312 57.5469C31.4766 57.2682 31.4492 56.9427 31.4492 56.5703V55.7031C31.4492 55.237 31.4909 54.8464 31.5742 54.5312C31.6602 54.2161 31.7812 53.9635 31.9375 53.7734C32.0938 53.5807 32.2812 53.4427 32.5 53.3594C32.7214 53.276 32.9688 53.2344 33.2422 53.2344C33.4635 53.2344 33.6667 53.2617 33.8516 53.3164C34.0391 53.3685 34.2057 53.4531 34.3516 53.5703C34.4974 53.6849 34.6211 53.8385 34.7227 54.0312C34.8268 54.2214 34.9062 54.4544 34.9609 54.7305C35.0156 55.0065 35.043 55.3307 35.043 55.7031ZM34.3164 56.6875V55.582C34.3164 55.3268 34.3008 55.1029 34.2695 54.9102C34.2409 54.7148 34.1979 54.5482 34.1406 54.4102C34.0833 54.2721 34.0104 54.1602 33.9219 54.0742C33.8359 53.9883 33.7357 53.9258 33.6211 53.8867C33.5091 53.8451 33.3828 53.8242 33.2422 53.8242C33.0703 53.8242 32.918 53.8568 32.7852 53.9219C32.6523 53.9844 32.5404 54.0846 32.4492 54.2227C32.3607 54.3607 32.293 54.5417 32.2461 54.7656C32.1992 54.9896 32.1758 55.2617 32.1758 55.582V56.6875C32.1758 56.9427 32.1901 57.168 32.2188 57.3633C32.25 57.5586 32.2956 57.7279 32.3555 57.8711C32.4154 58.0117 32.4883 58.1276 32.5742 58.2188C32.6602 58.3099 32.7591 58.3776 32.8711 58.4219C32.9857 58.4635 33.112 58.4844 33.25 58.4844C33.4271 58.4844 33.582 58.4505 33.7148 58.3828C33.8477 58.3151 33.9583 58.2096 34.0469 58.0664C34.138 57.9206 34.2057 57.7344 34.25 57.5078C34.2943 57.2786 34.3164 57.0052 34.3164 56.6875Z" fill="#3D3D3D"/>
<path d="M26.1992 37.4062V38H22.4766V37.4805L24.3398 35.4062C24.569 35.151 24.7461 34.9349 24.8711 34.7578C24.9987 34.5781 25.0872 34.418 25.1367 34.2773C25.1888 34.1341 25.2148 33.9883 25.2148 33.8398C25.2148 33.6523 25.1758 33.4831 25.0977 33.332C25.0221 33.1784 24.9102 33.056 24.7617 32.9648C24.6133 32.8737 24.4336 32.8281 24.2227 32.8281C23.9701 32.8281 23.7591 32.8776 23.5898 32.9766C23.4232 33.0729 23.2982 33.2083 23.2148 33.3828C23.1315 33.5573 23.0898 33.7578 23.0898 33.9844H22.3672C22.3672 33.6641 22.4375 33.3711 22.5781 33.1055C22.7188 32.8398 22.9271 32.6289 23.2031 32.4727C23.4792 32.3138 23.819 32.2344 24.2227 32.2344C24.582 32.2344 24.8893 32.2982 25.1445 32.4258C25.3997 32.5508 25.5951 32.7279 25.7305 32.957C25.8685 33.1836 25.9375 33.4492 25.9375 33.7539C25.9375 33.9206 25.9089 34.0898 25.8516 34.2617C25.7969 34.431 25.7201 34.6003 25.6211 34.7695C25.5247 34.9388 25.4115 35.1055 25.2812 35.2695C25.1536 35.4336 25.0169 35.5951 24.8711 35.7539L23.3477 37.4062H26.1992ZM30.543 34.7031V35.5703C30.543 36.0365 30.5013 36.4297 30.418 36.75C30.3346 37.0703 30.2148 37.3281 30.0586 37.5234C29.9023 37.7188 29.7135 37.8607 29.4922 37.9492C29.2734 38.0352 29.026 38.0781 28.75 38.0781C28.5312 38.0781 28.3294 38.0508 28.1445 37.9961C27.9596 37.9414 27.793 37.8542 27.6445 37.7344C27.4987 37.612 27.3737 37.4531 27.2695 37.2578C27.1654 37.0625 27.0859 36.8255 27.0312 36.5469C26.9766 36.2682 26.9492 35.9427 26.9492 35.5703V34.7031C26.9492 34.237 26.9909 33.8464 27.0742 33.5312C27.1602 33.2161 27.2812 32.9635 27.4375 32.7734C27.5938 32.5807 27.7812 32.4427 28 32.3594C28.2214 32.276 28.4688 32.2344 28.7422 32.2344C28.9635 32.2344 29.1667 32.2617 29.3516 32.3164C29.5391 32.3685 29.7057 32.4531 29.8516 32.5703C29.9974 32.6849 30.1211 32.8385 30.2227 33.0312C30.3268 33.2214 30.4062 33.4544 30.4609 33.7305C30.5156 34.0065 30.543 34.3307 30.543 34.7031ZM29.8164 35.6875V34.582C29.8164 34.3268 29.8008 34.1029 29.7695 33.9102C29.7409 33.7148 29.6979 33.5482 29.6406 33.4102C29.5833 33.2721 29.5104 33.1602 29.4219 33.0742C29.3359 32.9883 29.2357 32.9258 29.1211 32.8867C29.0091 32.8451 28.8828 32.8242 28.7422 32.8242C28.5703 32.8242 28.418 32.8568 28.2852 32.9219C28.1523 32.9844 28.0404 33.0846 27.9492 33.2227C27.8607 33.3607 27.793 33.5417 27.7461 33.7656C27.6992 33.9896 27.6758 34.2617 27.6758 34.582V35.6875C27.6758 35.9427 27.6901 36.168 27.7188 36.3633C27.75 36.5586 27.7956 36.7279 27.8555 36.8711C27.9154 37.0117 27.9883 37.1276 28.0742 37.2188C28.1602 37.3099 28.2591 37.3776 28.3711 37.4219C28.4857 37.4635 28.612 37.4844 28.75 37.4844C28.9271 37.4844 29.082 37.4505 29.2148 37.3828C29.3477 37.3151 29.4583 37.2096 29.5469 37.0664C29.638 36.9206 29.7057 36.7344 29.75 36.5078C29.7943 36.2786 29.8164 36.0052 29.8164 35.6875ZM35.043 34.7031V35.5703C35.043 36.0365 35.0013 36.4297 34.918 36.75C34.8346 37.0703 34.7148 37.3281 34.5586 37.5234C34.4023 37.7188 34.2135 37.8607 33.9922 37.9492C33.7734 38.0352 33.526 38.0781 33.25 38.0781C33.0312 38.0781 32.8294 38.0508 32.6445 37.9961C32.4596 37.9414 32.293 37.8542 32.1445 37.7344C31.9987 37.612 31.8737 37.4531 31.7695 37.2578C31.6654 37.0625 31.5859 36.8255 31.5312 36.5469C31.4766 36.2682 31.4492 35.9427 31.4492 35.5703V34.7031C31.4492 34.237 31.4909 33.8464 31.5742 33.5312C31.6602 33.2161 31.7812 32.9635 31.9375 32.7734C32.0938 32.5807 32.2812 32.4427 32.5 32.3594C32.7214 32.276 32.9688 32.2344 33.2422 32.2344C33.4635 32.2344 33.6667 32.2617 33.8516 32.3164C34.0391 32.3685 34.2057 32.4531 34.3516 32.5703C34.4974 32.6849 34.6211 32.8385 34.7227 33.0312C34.8268 33.2214 34.9062 33.4544 34.9609 33.7305C35.0156 34.0065 35.043 34.3307 35.043 34.7031ZM34.3164 35.6875V34.582C34.3164 34.3268 34.3008 34.1029 34.2695 33.9102C34.2409 33.7148 34.1979 33.5482 34.1406 33.4102C34.0833 33.2721 34.0104 33.1602 33.9219 33.0742C33.8359 32.9883 33.7357 32.9258 33.6211 32.8867C33.5091 32.8451 33.3828 32.8242 33.2422 32.8242C33.0703 32.8242 32.918 32.8568 32.7852 32.9219C32.6523 32.9844 32.5404 33.0846 32.4492 33.2227C32.3607 33.3607 32.293 33.5417 32.2461 33.7656C32.1992 33.9896 32.1758 34.2617 32.1758 34.582V35.6875C32.1758 35.9427 32.1901 36.168 32.2188 36.3633C32.25 36.5586 32.2956 36.7279 32.3555 36.8711C32.4154 37.0117 32.4883 37.1276 32.5742 37.2188C32.6602 37.3099 32.7591 37.3776 32.8711 37.4219C32.9857 37.4635 33.112 37.4844 33.25 37.4844C33.4271 37.4844 33.582 37.4505 33.7148 37.3828C33.8477 37.3151 33.9583 37.2096 34.0469 37.0664C34.138 36.9206 34.2057 36.7344 34.25 36.5078C34.2943 36.2786 34.3164 36.0052 34.3164 35.6875Z" fill="#3D3D3D"/>
<line x1="533.801" y1="37" x2="549.801" y2="37" stroke="#34B53A"/>
<path d="M552.83 35.0185H553.341L554.646 38.2644L555.947 35.0185H556.462L554.843 39H554.443L552.83 35.0185ZM552.663 35.0185H553.115L553.188 37.4468V39H552.663V35.0185ZM556.174 35.0185H556.626V39H556.101V37.4468L556.174 35.0185ZM560.618 36.8835V37.135C560.618 37.434 560.581 37.702 560.506 37.939C560.431 38.176 560.324 38.3774 560.183 38.5433C560.043 38.7092 559.874 38.8359 559.677 38.9234C559.482 39.0109 559.264 39.0547 559.021 39.0547C558.786 39.0547 558.57 39.0109 558.373 38.9234C558.178 38.8359 558.008 38.7092 557.864 38.5433C557.722 38.3774 557.612 38.176 557.534 37.939C557.455 37.702 557.416 37.434 557.416 37.135V36.8835C557.416 36.5845 557.454 36.3174 557.531 36.0822C557.609 35.8453 557.719 35.6438 557.862 35.4779C558.004 35.3102 558.172 35.1826 558.368 35.0951C558.564 35.0076 558.78 34.9638 559.016 34.9638C559.258 34.9638 559.477 35.0076 559.672 35.0951C559.869 35.1826 560.037 35.3102 560.178 35.4779C560.32 35.6438 560.428 35.8453 560.503 36.0822C560.58 36.3174 560.618 36.5845 560.618 36.8835ZM560.096 37.135V36.878C560.096 36.641 560.071 36.4314 560.022 36.2491C559.975 36.0668 559.904 35.9136 559.811 35.7897C559.718 35.6657 559.604 35.5718 559.47 35.508C559.336 35.4442 559.185 35.4123 559.016 35.4123C558.852 35.4123 558.703 35.4442 558.57 35.508C558.439 35.5718 558.326 35.6657 558.231 35.7897C558.138 35.9136 558.066 36.0668 558.015 36.2491C557.964 36.4314 557.938 36.641 557.938 36.878V37.135C557.938 37.3739 557.964 37.5853 558.015 37.7695C558.066 37.9518 558.139 38.1058 558.234 38.2316C558.33 38.3556 558.444 38.4494 558.575 38.5133C558.708 38.5771 558.857 38.609 559.021 38.609C559.192 38.609 559.345 38.5771 559.478 38.5133C559.611 38.4494 559.723 38.3556 559.814 38.2316C559.907 38.1058 559.977 37.9518 560.025 37.7695C560.072 37.5853 560.096 37.3739 560.096 37.135ZM562.803 35.0185V39H562.283V35.0185H562.803ZM564.083 35.0185V35.4506H561.006V35.0185H564.083ZM567.662 36.8835V37.135C567.662 37.434 567.625 37.702 567.55 37.939C567.475 38.176 567.368 38.3774 567.227 38.5433C567.087 38.7092 566.918 38.8359 566.722 38.9234C566.527 39.0109 566.308 39.0547 566.065 39.0547C565.83 39.0547 565.614 39.0109 565.417 38.9234C565.222 38.8359 565.053 38.7092 564.909 38.5433C564.766 38.3774 564.656 38.176 564.578 37.939C564.499 37.702 564.46 37.434 564.46 37.135V36.8835C564.46 36.5845 564.498 36.3174 564.575 36.0822C564.653 35.8453 564.764 35.6438 564.906 35.4779C565.048 35.3102 565.217 35.1826 565.412 35.0951C565.609 35.0076 565.825 34.9638 566.06 34.9638C566.302 34.9638 566.521 35.0076 566.716 35.0951C566.913 35.1826 567.082 35.3102 567.222 35.4779C567.364 35.6438 567.473 35.8453 567.547 36.0822C567.624 36.3174 567.662 36.5845 567.662 36.8835ZM567.14 37.135V36.878C567.14 36.641 567.115 36.4314 567.066 36.2491C567.019 36.0668 566.949 35.9136 566.856 35.7897C566.763 35.6657 566.649 35.5718 566.514 35.508C566.381 35.4442 566.229 35.4123 566.06 35.4123C565.896 35.4123 565.747 35.4442 565.614 35.508C565.483 35.5718 565.37 35.6657 565.275 35.7897C565.182 35.9136 565.11 36.0668 565.059 36.2491C565.008 36.4314 564.982 36.641 564.982 36.878V37.135C564.982 37.3739 565.008 37.5853 565.059 37.7695C565.11 37.9518 565.183 38.1058 565.278 38.2316C565.374 38.3556 565.488 38.4494 565.62 38.5133C565.753 38.5771 565.901 38.609 566.065 38.609C566.237 38.609 566.389 38.5771 566.522 38.5133C566.655 38.4494 566.767 38.3556 566.858 38.2316C566.951 38.1058 567.021 37.9518 567.069 37.7695C567.116 37.5853 567.14 37.3739 567.14 37.135ZM568.453 35.0185H569.771C570.07 35.0185 570.322 35.0641 570.528 35.1552C570.736 35.2464 570.894 35.3813 571.001 35.5599C571.111 35.7368 571.165 35.9546 571.165 36.2135C571.165 36.3958 571.128 36.5626 571.053 36.7139C570.98 36.8634 570.874 36.991 570.736 37.0968C570.599 37.2007 570.435 37.2782 570.244 37.3292L570.096 37.3866H568.857L568.852 36.9573H569.787C569.977 36.9573 570.134 36.9245 570.26 36.8589C570.386 36.7914 570.481 36.7012 570.544 36.5881C570.608 36.4751 570.64 36.3502 570.64 36.2135C570.64 36.0604 570.61 35.9264 570.55 35.8115C570.49 35.6967 570.395 35.6083 570.266 35.5463C570.138 35.4825 569.973 35.4506 569.771 35.4506H568.98V39H568.453V35.0185ZM570.78 39L569.812 37.1952L570.361 37.1925L571.343 38.9672V39H570.78Z" fill="#3D3D3D"/>
<line x1="482.4" y1="37" x2="498.4" y2="37" stroke="#4339F2"/>
<path d="M503.863 36.7303V37.1597H501.709V36.7303H503.863ZM501.791 35.0185V39H501.263V35.0185H501.791ZM504.323 35.0185V39H503.798V35.0185H504.323ZM507.79 38.5707V39H505.682V38.5707H507.79ZM505.789 35.0185V39H505.261V35.0185H505.789ZM507.511 36.7303V37.1597H505.682V36.7303H507.511ZM507.763 35.0185V35.4506H505.682V35.0185H507.763ZM509.918 35.3713L508.6 39H508.061L509.579 35.0185H509.926L509.918 35.3713ZM511.022 39L509.702 35.3713L509.694 35.0185H510.041L511.564 39H511.022ZM510.954 37.5261V37.9581H508.717V37.5261H510.954ZM514.512 38.5707V39H512.521V38.5707H514.512ZM512.625 35.0185V39H512.097V35.0185H512.625ZM515.833 35.0185V39H515.313V35.0185H515.833ZM517.112 35.0185V35.4506H514.036V35.0185H517.112ZM520.304 36.7303V37.1597H518.149V36.7303H520.304ZM518.231 35.0185V39H517.703V35.0185H518.231ZM520.763 35.0185V39H520.238V35.0185H520.763Z" fill="#3D3D3D"/>
<line x1="441" y1="37" x2="457" y2="37" stroke="#FFB200"/>
<path d="M462.277 38.5707V39H460.286V38.5707H462.277ZM460.39 35.0185V39H459.863V35.0185H460.39ZM463.448 35.0185V39H462.92V35.0185H463.448ZM464.935 35.0185V39H464.407V35.0185H464.935ZM466.603 36.8096V37.2417H464.82V36.8096H466.603ZM466.874 35.0185V35.4506H464.82V35.0185H466.874ZM470.032 38.5707V39H467.924V38.5707H470.032ZM468.031 35.0185V39H467.503V35.0185H468.031ZM469.753 36.7303V37.1597H467.924V36.7303H469.753ZM470.005 35.0185V35.4506H467.924V35.0185H470.005Z" fill="#3D3D3D"/>
<path d="M40.1914 241.395H40.2656C40.6823 241.395 41.0208 241.336 41.2812 241.219C41.5417 241.102 41.7422 240.944 41.8828 240.746C42.0234 240.548 42.1198 240.326 42.1719 240.078C42.224 239.828 42.25 239.572 42.25 239.309V238.438C42.25 238.18 42.2201 237.951 42.1602 237.75C42.1029 237.549 42.0221 237.382 41.918 237.246C41.8164 237.111 41.7005 237.008 41.5703 236.938C41.4401 236.867 41.3021 236.832 41.1562 236.832C40.9896 236.832 40.8398 236.866 40.707 236.934C40.5768 236.999 40.4661 237.091 40.375 237.211C40.2865 237.331 40.2188 237.471 40.1719 237.633C40.125 237.794 40.1016 237.97 40.1016 238.16C40.1016 238.329 40.1224 238.493 40.1641 238.652C40.2057 238.811 40.2695 238.954 40.3555 239.082C40.4414 239.21 40.5482 239.311 40.6758 239.387C40.806 239.46 40.9583 239.496 41.1328 239.496C41.2943 239.496 41.4453 239.465 41.5859 239.402C41.7292 239.337 41.8555 239.25 41.9648 239.141C42.0768 239.029 42.1654 238.902 42.2305 238.762C42.2982 238.621 42.3372 238.474 42.3477 238.32H42.6914C42.6914 238.536 42.6484 238.75 42.5625 238.961C42.4792 239.169 42.362 239.359 42.2109 239.531C42.0599 239.703 41.8828 239.841 41.6797 239.945C41.4766 240.047 41.2552 240.098 41.0156 240.098C40.7344 240.098 40.4909 240.043 40.2852 239.934C40.0794 239.824 39.9102 239.678 39.7773 239.496C39.6471 239.314 39.5495 239.111 39.4844 238.887C39.4219 238.66 39.3906 238.431 39.3906 238.199C39.3906 237.928 39.4284 237.674 39.5039 237.438C39.5794 237.201 39.6914 236.992 39.8398 236.812C39.9883 236.63 40.1719 236.488 40.3906 236.387C40.612 236.285 40.8672 236.234 41.1562 236.234C41.4818 236.234 41.7591 236.299 41.9883 236.43C42.2174 236.56 42.4036 236.734 42.5469 236.953C42.6927 237.172 42.7995 237.418 42.8672 237.691C42.9349 237.965 42.9688 238.246 42.9688 238.535V238.797C42.9688 239.091 42.9492 239.391 42.9102 239.695C42.8737 239.997 42.8021 240.286 42.6953 240.562C42.5911 240.839 42.4388 241.086 42.2383 241.305C42.0378 241.521 41.776 241.693 41.4531 241.82C41.1328 241.945 40.737 242.008 40.2656 242.008H40.1914V241.395ZM48.25 236.816L46.3672 242H45.5977L47.7656 236.312H48.2617L48.25 236.816ZM49.8281 242L47.9414 236.816L47.9297 236.312H48.4258L50.6016 242H49.8281ZM49.7305 239.895V240.512H46.5352V239.895H49.7305ZM51.6016 236.312H52.332L54.1953 240.949L56.0547 236.312H56.7891L54.4766 242H53.9062L51.6016 236.312ZM51.3633 236.312H52.0078L52.1133 239.781V242H51.3633V236.312ZM56.3789 236.312H57.0234V242H56.2734V239.781L56.3789 236.312Z" fill="#3D3D3D"/>
<path d="M96.8477 236.281V242H96.125V237.184L94.668 237.715V237.062L96.7344 236.281H96.8477ZM102.543 238.703V239.57C102.543 240.036 102.501 240.43 102.418 240.75C102.335 241.07 102.215 241.328 102.059 241.523C101.902 241.719 101.714 241.861 101.492 241.949C101.273 242.035 101.026 242.078 100.75 242.078C100.531 242.078 100.329 242.051 100.145 241.996C99.9596 241.941 99.793 241.854 99.6445 241.734C99.4987 241.612 99.3737 241.453 99.2695 241.258C99.1654 241.062 99.0859 240.826 99.0312 240.547C98.9766 240.268 98.9492 239.943 98.9492 239.57V238.703C98.9492 238.237 98.9909 237.846 99.0742 237.531C99.1602 237.216 99.2812 236.964 99.4375 236.773C99.5938 236.581 99.7812 236.443 100 236.359C100.221 236.276 100.469 236.234 100.742 236.234C100.964 236.234 101.167 236.262 101.352 236.316C101.539 236.368 101.706 236.453 101.852 236.57C101.997 236.685 102.121 236.839 102.223 237.031C102.327 237.221 102.406 237.454 102.461 237.73C102.516 238.007 102.543 238.331 102.543 238.703ZM101.816 239.688V238.582C101.816 238.327 101.801 238.103 101.77 237.91C101.741 237.715 101.698 237.548 101.641 237.41C101.583 237.272 101.51 237.16 101.422 237.074C101.336 236.988 101.236 236.926 101.121 236.887C101.009 236.845 100.883 236.824 100.742 236.824C100.57 236.824 100.418 236.857 100.285 236.922C100.152 236.984 100.04 237.085 99.9492 237.223C99.8607 237.361 99.793 237.542 99.7461 237.766C99.6992 237.99 99.6758 238.262 99.6758 238.582V239.688C99.6758 239.943 99.6901 240.168 99.7188 240.363C99.75 240.559 99.7956 240.728 99.8555 240.871C99.9154 241.012 99.9883 241.128 100.074 241.219C100.16 241.31 100.259 241.378 100.371 241.422C100.486 241.464 100.612 241.484 100.75 241.484C100.927 241.484 101.082 241.451 101.215 241.383C101.348 241.315 101.458 241.21 101.547 241.066C101.638 240.921 101.706 240.734 101.75 240.508C101.794 240.279 101.816 240.005 101.816 239.688ZM107.75 236.816L105.867 242H105.098L107.266 236.312H107.762L107.75 236.816ZM109.328 242L107.441 236.816L107.43 236.312H107.926L110.102 242H109.328ZM109.23 239.895V240.512H106.035V239.895H109.23ZM111.102 236.312H111.832L113.695 240.949L115.555 236.312H116.289L113.977 242H113.406L111.102 236.312ZM110.863 236.312H111.508L111.613 239.781V242H110.863V236.312ZM115.879 236.312H116.523V242H115.773V239.781L115.879 236.312Z" fill="#3D3D3D"/>
<path d="M156.848 236.281V242H156.125V237.184L154.668 237.715V237.062L156.734 236.281H156.848ZM161.348 236.281V242H160.625V237.184L159.168 237.715V237.062L161.234 236.281H161.348ZM167.75 236.816L165.867 242H165.098L167.266 236.312H167.762L167.75 236.816ZM169.328 242L167.441 236.816L167.43 236.312H167.926L170.102 242H169.328ZM169.23 239.895V240.512H166.035V239.895H169.23ZM171.102 236.312H171.832L173.695 240.949L175.555 236.312H176.289L173.977 242H173.406L171.102 236.312ZM170.863 236.312H171.508L171.613 239.781V242H170.863V236.312ZM175.879 236.312H176.523V242H175.773V239.781L175.879 236.312Z" fill="#3D3D3D"/>
<path d="M216.848 236.281V242H216.125V237.184L214.668 237.715V237.062L216.734 236.281H216.848ZM222.699 241.406V242H218.977V241.48L220.84 239.406C221.069 239.151 221.246 238.935 221.371 238.758C221.499 238.578 221.587 238.418 221.637 238.277C221.689 238.134 221.715 237.988 221.715 237.84C221.715 237.652 221.676 237.483 221.598 237.332C221.522 237.178 221.41 237.056 221.262 236.965C221.113 236.874 220.934 236.828 220.723 236.828C220.47 236.828 220.259 236.878 220.09 236.977C219.923 237.073 219.798 237.208 219.715 237.383C219.632 237.557 219.59 237.758 219.59 237.984H218.867C218.867 237.664 218.938 237.371 219.078 237.105C219.219 236.84 219.427 236.629 219.703 236.473C219.979 236.314 220.319 236.234 220.723 236.234C221.082 236.234 221.389 236.298 221.645 236.426C221.9 236.551 222.095 236.728 222.23 236.957C222.368 237.184 222.438 237.449 222.438 237.754C222.438 237.921 222.409 238.09 222.352 238.262C222.297 238.431 222.22 238.6 222.121 238.77C222.025 238.939 221.911 239.105 221.781 239.27C221.654 239.434 221.517 239.595 221.371 239.754L219.848 241.406H222.699ZM227.742 239.77H226.223V239.156H227.742C228.036 239.156 228.275 239.109 228.457 239.016C228.639 238.922 228.772 238.792 228.855 238.625C228.941 238.458 228.984 238.268 228.984 238.055C228.984 237.859 228.941 237.676 228.855 237.504C228.772 237.332 228.639 237.194 228.457 237.09C228.275 236.983 228.036 236.93 227.742 236.93H226.398V242H225.645V236.312H227.742C228.172 236.312 228.535 236.387 228.832 236.535C229.129 236.684 229.354 236.889 229.508 237.152C229.661 237.413 229.738 237.711 229.738 238.047C229.738 238.411 229.661 238.723 229.508 238.98C229.354 239.238 229.129 239.435 228.832 239.57C228.535 239.703 228.172 239.77 227.742 239.77ZM230.93 236.312H231.66L233.523 240.949L235.383 236.312H236.117L233.805 242H233.234L230.93 236.312ZM230.691 236.312H231.336L231.441 239.781V242H230.691V236.312ZM235.707 236.312H236.352V242H235.602V239.781L235.707 236.312Z" fill="#3D3D3D"/>
<path d="M276.848 236.281V242H276.125V237.184L274.668 237.715V237.062L276.734 236.281H276.848ZM283.242 239.77H281.723V239.156H283.242C283.536 239.156 283.775 239.109 283.957 239.016C284.139 238.922 284.272 238.792 284.355 238.625C284.441 238.458 284.484 238.268 284.484 238.055C284.484 237.859 284.441 237.676 284.355 237.504C284.272 237.332 284.139 237.194 283.957 237.09C283.775 236.983 283.536 236.93 283.242 236.93H281.898V242H281.145V236.312H283.242C283.672 236.312 284.035 236.387 284.332 236.535C284.629 236.684 284.854 236.889 285.008 237.152C285.161 237.413 285.238 237.711 285.238 238.047C285.238 238.411 285.161 238.723 285.008 238.98C284.854 239.238 284.629 239.435 284.332 239.57C284.035 239.703 283.672 239.77 283.242 239.77ZM286.43 236.312H287.16L289.023 240.949L290.883 236.312H291.617L289.305 242H288.734L286.43 236.312ZM286.191 236.312H286.836L286.941 239.781V242H286.191V236.312ZM291.207 236.312H291.852V242H291.102V239.781L291.207 236.312Z" fill="#3D3D3D"/>
<path d="M334.199 241.406V242H330.477V241.48L332.34 239.406C332.569 239.151 332.746 238.935 332.871 238.758C332.999 238.578 333.087 238.418 333.137 238.277C333.189 238.134 333.215 237.988 333.215 237.84C333.215 237.652 333.176 237.483 333.098 237.332C333.022 237.178 332.91 237.056 332.762 236.965C332.613 236.874 332.434 236.828 332.223 236.828C331.97 236.828 331.759 236.878 331.59 236.977C331.423 237.073 331.298 237.208 331.215 237.383C331.132 237.557 331.09 237.758 331.09 237.984H330.367C330.367 237.664 330.438 237.371 330.578 237.105C330.719 236.84 330.927 236.629 331.203 236.473C331.479 236.314 331.819 236.234 332.223 236.234C332.582 236.234 332.889 236.298 333.145 236.426C333.4 236.551 333.595 236.728 333.73 236.957C333.868 237.184 333.938 237.449 333.938 237.754C333.938 237.921 333.909 238.09 333.852 238.262C333.797 238.431 333.72 238.6 333.621 238.77C333.525 238.939 333.411 239.105 333.281 239.27C333.154 239.434 333.017 239.595 332.871 239.754L331.348 241.406H334.199ZM339.242 239.77H337.723V239.156H339.242C339.536 239.156 339.775 239.109 339.957 239.016C340.139 238.922 340.272 238.792 340.355 238.625C340.441 238.458 340.484 238.268 340.484 238.055C340.484 237.859 340.441 237.676 340.355 237.504C340.272 237.332 340.139 237.194 339.957 237.09C339.775 236.983 339.536 236.93 339.242 236.93H337.898V242H337.145V236.312H339.242C339.672 236.312 340.035 236.387 340.332 236.535C340.629 236.684 340.854 236.889 341.008 237.152C341.161 237.413 341.238 237.711 341.238 238.047C341.238 238.411 341.161 238.723 341.008 238.98C340.854 239.238 340.629 239.435 340.332 239.57C340.035 239.703 339.672 239.77 339.242 239.77ZM342.43 236.312H343.16L345.023 240.949L346.883 236.312H347.617L345.305 242H344.734L342.43 236.312ZM342.191 236.312H342.836L342.941 239.781V242H342.191V236.312ZM347.207 236.312H347.852V242H347.102V239.781L347.207 236.312Z" fill="#3D3D3D"/>
<path d="M386.527 238.801H387.043C387.296 238.801 387.504 238.759 387.668 238.676C387.835 238.59 387.958 238.474 388.039 238.328C388.122 238.18 388.164 238.013 388.164 237.828C388.164 237.609 388.128 237.426 388.055 237.277C387.982 237.129 387.872 237.017 387.727 236.941C387.581 236.866 387.396 236.828 387.172 236.828C386.969 236.828 386.789 236.868 386.633 236.949C386.479 237.027 386.358 237.139 386.27 237.285C386.184 237.431 386.141 237.603 386.141 237.801H385.418C385.418 237.512 385.491 237.249 385.637 237.012C385.783 236.775 385.987 236.586 386.25 236.445C386.516 236.305 386.823 236.234 387.172 236.234C387.516 236.234 387.816 236.296 388.074 236.418C388.332 236.538 388.533 236.717 388.676 236.957C388.819 237.194 388.891 237.49 388.891 237.844C388.891 237.987 388.857 238.141 388.789 238.305C388.724 238.466 388.621 238.617 388.48 238.758C388.342 238.898 388.163 239.014 387.941 239.105C387.72 239.194 387.454 239.238 387.145 239.238H386.527V238.801ZM386.527 239.395V238.961H387.145C387.507 238.961 387.806 239.004 388.043 239.09C388.28 239.176 388.466 239.29 388.602 239.434C388.74 239.577 388.836 239.734 388.891 239.906C388.948 240.076 388.977 240.245 388.977 240.414C388.977 240.68 388.931 240.915 388.84 241.121C388.751 241.327 388.625 241.501 388.461 241.645C388.299 241.788 388.109 241.896 387.891 241.969C387.672 242.042 387.434 242.078 387.176 242.078C386.928 242.078 386.695 242.043 386.477 241.973C386.26 241.902 386.069 241.801 385.902 241.668C385.736 241.533 385.605 241.367 385.512 241.172C385.418 240.974 385.371 240.749 385.371 240.496H386.094C386.094 240.694 386.137 240.867 386.223 241.016C386.311 241.164 386.436 241.28 386.598 241.363C386.762 241.444 386.954 241.484 387.176 241.484C387.397 241.484 387.587 241.447 387.746 241.371C387.908 241.293 388.031 241.176 388.117 241.02C388.206 240.863 388.25 240.667 388.25 240.43C388.25 240.193 388.201 239.999 388.102 239.848C388.003 239.694 387.862 239.581 387.68 239.508C387.5 239.432 387.288 239.395 387.043 239.395H386.527ZM394.242 239.77H392.723V239.156H394.242C394.536 239.156 394.775 239.109 394.957 239.016C395.139 238.922 395.272 238.792 395.355 238.625C395.441 238.458 395.484 238.268 395.484 238.055C395.484 237.859 395.441 237.676 395.355 237.504C395.272 237.332 395.139 237.194 394.957 237.09C394.775 236.983 394.536 236.93 394.242 236.93H392.898V242H392.145V236.312H394.242C394.672 236.312 395.035 236.387 395.332 236.535C395.629 236.684 395.854 236.889 396.008 237.152C396.161 237.413 396.238 237.711 396.238 238.047C396.238 238.411 396.161 238.723 396.008 238.98C395.854 239.238 395.629 239.435 395.332 239.57C395.035 239.703 394.672 239.77 394.242 239.77ZM397.43 236.312H398.16L400.023 240.949L401.883 236.312H402.617L400.305 242H399.734L397.43 236.312ZM397.191 236.312H397.836L397.941 239.781V242H397.191V236.312ZM402.207 236.312H402.852V242H402.102V239.781L402.207 236.312Z" fill="#3D3D3D"/>
<path d="M444.316 240.086V240.68H440.207V240.254L442.754 236.312H443.344L442.711 237.453L441.027 240.086H444.316ZM443.523 236.312V242H442.801V236.312H443.523ZM449.242 239.77H447.723V239.156H449.242C449.536 239.156 449.775 239.109 449.957 239.016C450.139 238.922 450.272 238.792 450.355 238.625C450.441 238.458 450.484 238.268 450.484 238.055C450.484 237.859 450.441 237.676 450.355 237.504C450.272 237.332 450.139 237.194 449.957 237.09C449.775 236.983 449.536 236.93 449.242 236.93H447.898V242H447.145V236.312H449.242C449.672 236.312 450.035 236.387 450.332 236.535C450.629 236.684 450.854 236.889 451.008 237.152C451.161 237.413 451.238 237.711 451.238 238.047C451.238 238.411 451.161 238.723 451.008 238.98C450.854 239.238 450.629 239.435 450.332 239.57C450.035 239.703 449.672 239.77 449.242 239.77ZM452.43 236.312H453.16L455.023 240.949L456.883 236.312H457.617L455.305 242H454.734L452.43 236.312ZM452.191 236.312H452.836L452.941 239.781V242H452.191V236.312ZM457.207 236.312H457.852V242H457.102V239.781L457.207 236.312Z" fill="#3D3D3D"/>
<path d="M555.246 236.305H555.309V236.918H555.246C554.863 236.918 554.543 236.98 554.285 237.105C554.027 237.228 553.823 237.393 553.672 237.602C553.521 237.807 553.411 238.039 553.344 238.297C553.279 238.555 553.246 238.816 553.246 239.082V239.918C553.246 240.171 553.276 240.395 553.336 240.59C553.396 240.783 553.478 240.945 553.582 241.078C553.686 241.211 553.803 241.311 553.934 241.379C554.066 241.447 554.204 241.48 554.348 241.48C554.514 241.48 554.663 241.449 554.793 241.387C554.923 241.322 555.033 241.232 555.121 241.117C555.212 241 555.281 240.862 555.328 240.703C555.375 240.544 555.398 240.37 555.398 240.18C555.398 240.01 555.378 239.848 555.336 239.691C555.294 239.533 555.23 239.392 555.145 239.27C555.059 239.145 554.951 239.047 554.82 238.977C554.693 238.904 554.54 238.867 554.363 238.867C554.163 238.867 553.975 238.917 553.801 239.016C553.629 239.112 553.487 239.24 553.375 239.398C553.266 239.555 553.203 239.725 553.188 239.91L552.805 239.906C552.841 239.615 552.909 239.366 553.008 239.16C553.109 238.952 553.234 238.783 553.383 238.652C553.534 238.52 553.702 238.423 553.887 238.363C554.074 238.301 554.272 238.27 554.48 238.27C554.764 238.27 555.009 238.323 555.215 238.43C555.421 238.536 555.59 238.68 555.723 238.859C555.855 239.036 555.953 239.237 556.016 239.461C556.081 239.682 556.113 239.91 556.113 240.145C556.113 240.413 556.076 240.664 556 240.898C555.924 241.133 555.811 241.339 555.66 241.516C555.512 241.693 555.328 241.831 555.109 241.93C554.891 242.029 554.637 242.078 554.348 242.078C554.04 242.078 553.772 242.016 553.543 241.891C553.314 241.763 553.124 241.594 552.973 241.383C552.822 241.172 552.708 240.938 552.633 240.68C552.557 240.422 552.52 240.16 552.52 239.895V239.555C552.52 239.154 552.56 238.76 552.641 238.375C552.721 237.99 552.861 237.641 553.059 237.328C553.259 237.016 553.536 236.767 553.891 236.582C554.245 236.397 554.697 236.305 555.246 236.305ZM561.242 239.77H559.723V239.156H561.242C561.536 239.156 561.775 239.109 561.957 239.016C562.139 238.922 562.272 238.792 562.355 238.625C562.441 238.458 562.484 238.268 562.484 238.055C562.484 237.859 562.441 237.676 562.355 237.504C562.272 237.332 562.139 237.194 561.957 237.09C561.775 236.983 561.536 236.93 561.242 236.93H559.898V242H559.145V236.312H561.242C561.672 236.312 562.035 236.387 562.332 236.535C562.629 236.684 562.854 236.889 563.008 237.152C563.161 237.413 563.238 237.711 563.238 238.047C563.238 238.411 563.161 238.723 563.008 238.98C562.854 239.238 562.629 239.435 562.332 239.57C562.035 239.703 561.672 239.77 561.242 239.77ZM564.43 236.312H565.16L567.023 240.949L568.883 236.312H569.617L567.305 242H566.734L564.43 236.312ZM564.191 236.312H564.836L564.941 239.781V242H564.191V236.312ZM569.207 236.312H569.852V242H569.102V239.781L569.207 236.312Z" fill="#3D3D3D"/>
<path d="M497.387 239.293L496.809 239.145L497.094 236.312H500.012V236.98H497.707L497.535 238.527C497.639 238.467 497.771 238.411 497.93 238.359C498.091 238.307 498.276 238.281 498.484 238.281C498.747 238.281 498.983 238.327 499.191 238.418C499.4 238.507 499.577 238.634 499.723 238.801C499.871 238.967 499.984 239.168 500.062 239.402C500.141 239.637 500.18 239.898 500.18 240.188C500.18 240.461 500.142 240.712 500.066 240.941C499.993 241.171 499.883 241.371 499.734 241.543C499.586 241.712 499.398 241.844 499.172 241.938C498.948 242.031 498.684 242.078 498.379 242.078C498.15 242.078 497.932 242.047 497.727 241.984C497.523 241.919 497.341 241.822 497.18 241.691C497.021 241.559 496.891 241.395 496.789 241.199C496.69 241.001 496.628 240.77 496.602 240.504H497.289C497.32 240.717 497.383 240.897 497.477 241.043C497.57 241.189 497.693 241.299 497.844 241.375C497.997 241.448 498.176 241.484 498.379 241.484C498.551 241.484 498.703 241.454 498.836 241.395C498.969 241.335 499.081 241.249 499.172 241.137C499.263 241.025 499.332 240.889 499.379 240.73C499.428 240.572 499.453 240.393 499.453 240.195C499.453 240.016 499.428 239.849 499.379 239.695C499.329 239.542 499.255 239.408 499.156 239.293C499.06 239.178 498.941 239.09 498.801 239.027C498.66 238.962 498.499 238.93 498.316 238.93C498.074 238.93 497.891 238.962 497.766 239.027C497.643 239.092 497.517 239.181 497.387 239.293ZM505.242 239.77H503.723V239.156H505.242C505.536 239.156 505.775 239.109 505.957 239.016C506.139 238.922 506.272 238.792 506.355 238.625C506.441 238.458 506.484 238.268 506.484 238.055C506.484 237.859 506.441 237.676 506.355 237.504C506.272 237.332 506.139 237.194 505.957 237.09C505.775 236.983 505.536 236.93 505.242 236.93H503.898V242H503.145V236.312H505.242C505.672 236.312 506.035 236.387 506.332 236.535C506.629 236.684 506.854 236.889 507.008 237.152C507.161 237.413 507.238 237.711 507.238 238.047C507.238 238.411 507.161 238.723 507.008 238.98C506.854 239.238 506.629 239.435 506.332 239.57C506.035 239.703 505.672 239.77 505.242 239.77ZM508.43 236.312H509.16L511.023 240.949L512.883 236.312H513.617L511.305 242H510.734L508.43 236.312ZM508.191 236.312H508.836L508.941 239.781V242H508.191V236.312ZM513.207 236.312H513.852V242H513.102V239.781L513.207 236.312Z" fill="#3D3D3D"/>
<path d="M41 233L85.2027 214.504H129.405H172.994L217.402 187.409L261.195 203.796L305.602 137.924L349.383 149.45L393.598 165.668L438.002 138.155L482.209 98.3367L525.593 111.154L570 74" stroke="#4339F2" stroke-width="2.46" stroke-linecap="round"/>
<path d="M41 233L84.9912 213.84L129.303 194.54L173.19 175.425L216.992 161.16L261.604 118.44L305.695 114.253L349.396 108.84L393.575 117.418L437.801 126.92L482.088 102.039L526.002 88.52L570 45" stroke="#FFB200" stroke-width="2.46" stroke-linecap="round"/>
<path d="M41 233L160.92 208.122L282.887 143.924L396.668 193.538L570 65" stroke="#34B53A" stroke-width="2.46" stroke-linecap="round"/>
</g>
<defs>
<clipPath id="clip0_1296_2136">
<rect width="585" height="253" rx="5.02608" fill="white"/>
</clipPath>
</defs>
</svg>
