<svg width="585" height="133" viewBox="0 0 585 133" fill="none" xmlns="http://www.w3.org/2000/svg">
<rect width="585" height="133" rx="8" fill="white"/>
<path d="M0 8C0 3.58172 3.58172 0 8 0H577C581.418 0 585 3.58172 585 8V25H0V8Z" fill="#047BD5"/>
<path d="M20.9298 7.39123V17H19.2865V7.39123H20.9298ZM23.9457 7.39123V8.71111H16.297V7.39123H23.9457ZM31.2447 12.9743V13.3439C31.2447 13.9291 31.1611 14.4526 30.9939 14.9146C30.8267 15.3765 30.5891 15.7725 30.2812 16.1025C29.9776 16.428 29.6124 16.6766 29.1857 16.8482C28.7589 17.0198 28.2881 17.1056 27.7734 17.1056C27.2586 17.1056 26.7879 17.0198 26.3611 16.8482C25.9343 16.6766 25.5648 16.428 25.2524 16.1025C24.94 15.7725 24.6981 15.3765 24.5265 14.9146C24.3593 14.4526 24.2757 13.9291 24.2757 13.3439V12.9743C24.2757 12.3892 24.3593 11.8656 24.5265 11.4037C24.6981 10.9417 24.9378 10.5458 25.2458 10.2158C25.5538 9.88581 25.9211 9.63503 26.3479 9.46345C26.7747 9.29186 27.2454 9.20607 27.7602 9.20607C28.2793 9.20607 28.7501 9.29186 29.1725 9.46345C29.5992 9.63503 29.9666 9.88581 30.2746 10.2158C30.5869 10.5458 30.8267 10.9417 30.9939 11.4037C31.1611 11.8656 31.2447 12.3892 31.2447 12.9743ZM29.6542 13.3439V12.9611C29.6542 12.5608 29.6124 12.2066 29.5288 11.8986C29.4452 11.5907 29.3199 11.3311 29.1527 11.1199C28.9899 10.9087 28.7919 10.7481 28.5587 10.6381C28.3255 10.5282 28.0594 10.4732 27.7602 10.4732C27.4654 10.4732 27.1992 10.5282 26.9617 10.6381C26.7285 10.7481 26.5305 10.9087 26.3677 11.1199C26.2093 11.3311 26.0861 11.5907 25.9981 11.8986C25.9145 12.2066 25.8728 12.5608 25.8728 12.9611V13.3439C25.8728 13.7399 25.9145 14.094 25.9981 14.4064C26.0861 14.7144 26.2115 14.9762 26.3743 15.1918C26.5415 15.4029 26.7417 15.5657 26.9749 15.6801C27.2124 15.7901 27.4786 15.8451 27.7734 15.8451C28.0726 15.8451 28.3365 15.7901 28.5653 15.6801C28.7985 15.5657 28.9965 15.4029 29.1593 15.1918C29.3221 14.9762 29.4452 14.7144 29.5288 14.4064C29.6124 14.094 29.6542 13.7399 29.6542 13.3439ZM35.7323 14.2876H33.6073V13.0205H35.7323C36.0755 13.0205 36.3548 12.9699 36.5704 12.8688C36.7904 12.7676 36.951 12.6312 37.0522 12.4596C37.1578 12.2836 37.2106 12.0856 37.2106 11.8656C37.2106 11.6369 37.1578 11.4257 37.0522 11.2321C36.951 11.0385 36.7904 10.8823 36.5704 10.7635C36.3548 10.6403 36.0755 10.5788 35.7323 10.5788H34.1418V17H32.5514V9.31166H35.7323C36.379 9.31166 36.9312 9.42165 37.3888 9.64163C37.8463 9.86161 38.1939 10.163 38.4315 10.5458C38.6735 10.9241 38.7944 11.3597 38.7944 11.8524C38.7944 12.222 38.7262 12.5564 38.5899 12.8556C38.4535 13.1547 38.2533 13.4121 37.9893 13.6277C37.7253 13.8389 37.4042 14.0017 37.0258 14.116C36.6474 14.2304 36.2163 14.2876 35.7323 14.2876ZM45.0045 12.5322L43.7374 12.222L44.2588 7.39123H49.4393V8.73751H45.5787L45.3147 11.0935C45.4643 11.0055 45.671 10.9197 45.935 10.8361C46.199 10.7481 46.5004 10.7041 46.8391 10.7041C47.2923 10.7041 47.6971 10.7789 48.0534 10.9285C48.4142 11.0737 48.72 11.2871 48.9708 11.5687C49.2215 11.8458 49.4129 12.1846 49.5449 12.585C49.6769 12.9809 49.7429 13.4275 49.7429 13.9247C49.7429 14.369 49.6769 14.7848 49.5449 15.172C49.4173 15.5591 49.2237 15.9001 48.9642 16.1949C48.7046 16.4896 48.3768 16.7206 47.9808 16.8878C47.5893 17.0506 47.1251 17.132 46.5884 17.132C46.188 17.132 45.803 17.0748 45.4335 16.9604C45.0683 16.8416 44.7405 16.6678 44.4502 16.439C44.1598 16.2059 43.9266 15.9199 43.7506 15.5811C43.5746 15.238 43.4734 14.8442 43.447 14.3998H45.0045C45.0441 14.7122 45.1299 14.9784 45.2619 15.1984C45.3983 15.4139 45.5787 15.5789 45.803 15.6933C46.0274 15.8077 46.287 15.8649 46.5818 15.8649C46.8501 15.8649 47.0811 15.8187 47.2747 15.7263C47.4683 15.6295 47.6289 15.4931 47.7565 15.3171C47.8885 15.1368 47.9852 14.9256 48.0468 14.6836C48.1128 14.4416 48.1458 14.1732 48.1458 13.8785C48.1458 13.5969 48.1084 13.3395 48.0336 13.1063C47.9633 12.8732 47.8555 12.6708 47.7103 12.4992C47.5695 12.3276 47.3913 12.1956 47.1757 12.1032C46.9601 12.0064 46.7116 11.958 46.43 11.958C46.0516 11.958 45.7612 12.013 45.5589 12.123C45.3609 12.233 45.1761 12.3694 45.0045 12.5322ZM57.4246 17H55.3722L55.3854 15.6867H57.4246C58.0186 15.6867 58.5157 15.5569 58.9161 15.2973C59.3209 15.0378 59.6244 14.666 59.8268 14.182C60.0336 13.6981 60.137 13.1217 60.137 12.453V11.9316C60.137 11.4125 60.0776 10.9527 59.9588 10.5524C59.8444 10.152 59.6728 9.81542 59.4441 9.54264C59.2197 9.26986 58.9425 9.06308 58.6125 8.92229C58.287 8.78151 57.9108 8.71111 57.484 8.71111H55.3326V7.39123H57.484C58.122 7.39123 58.7049 7.49902 59.2329 7.7146C59.7608 7.92578 60.2162 8.23155 60.599 8.63192C60.9861 9.03229 61.2831 9.51184 61.4899 10.0706C61.6967 10.6293 61.8001 11.2541 61.8001 11.9448V12.453C61.8001 13.1437 61.6967 13.7685 61.4899 14.3272C61.2831 14.886 60.9861 15.3655 60.599 15.7659C60.2118 16.1619 59.7498 16.4676 59.2131 16.6832C58.6807 16.8944 58.0846 17 57.4246 17ZM56.2895 7.39123V17H54.6331V7.39123H56.2895ZM64.9678 9.31166V17H63.3707V9.31166H64.9678ZM70.9601 14.9872C70.9601 14.842 70.9337 14.7122 70.8809 14.5978C70.8325 14.4834 70.7467 14.38 70.6235 14.2876C70.5047 14.1908 70.3397 14.1006 70.1285 14.0171C69.9218 13.9335 69.66 13.8543 69.3432 13.7795C68.8857 13.6695 68.4809 13.5463 68.1289 13.4099C67.7813 13.2691 67.4888 13.1063 67.2512 12.9216C67.0136 12.7368 66.8332 12.519 66.71 12.2682C66.5912 12.0174 66.5319 11.7249 66.5319 11.3905C66.5319 11.0693 66.6022 10.7767 66.743 10.5128C66.8838 10.2444 67.084 10.0134 67.3436 9.81982C67.6032 9.62183 67.9111 9.47005 68.2675 9.36446C68.6239 9.25887 69.0154 9.20607 69.4422 9.20607C70.0625 9.20607 70.6015 9.30726 71.0591 9.50964C71.5166 9.71203 71.8708 9.9914 72.1216 10.3478C72.3768 10.6997 72.5043 11.1089 72.5043 11.5753H70.9139C70.9139 11.3553 70.8567 11.1573 70.7423 10.9813C70.6323 10.8053 70.4695 10.6645 70.2539 10.559C70.0384 10.4534 69.7678 10.4006 69.4422 10.4006C69.1298 10.4006 68.8725 10.4468 68.6701 10.5392C68.4677 10.6271 68.3159 10.7437 68.2147 10.8889C68.1179 11.0297 68.0695 11.1837 68.0695 11.3509C68.0695 11.4829 68.0981 11.6017 68.1553 11.7073C68.2169 11.8128 68.3137 11.9096 68.4457 11.9976C68.5777 12.0856 68.7493 12.1692 68.9604 12.2484C69.1716 12.3276 69.429 12.4046 69.7326 12.4794C70.1857 12.585 70.5861 12.7104 70.9337 12.8556C71.2812 13.0007 71.5716 13.1723 71.8048 13.3703C72.038 13.5639 72.2118 13.7927 72.3262 14.0567C72.4449 14.3162 72.5043 14.6132 72.5043 14.9476C72.5043 15.2863 72.4339 15.5899 72.2932 15.8583C72.1524 16.1223 71.95 16.3467 71.686 16.5314C71.4264 16.7162 71.1141 16.8592 70.7489 16.9604C70.3837 17.0572 69.9768 17.1056 69.528 17.1056C69.132 17.1056 68.7383 17.0572 68.3467 16.9604C67.9595 16.8636 67.6098 16.714 67.2974 16.5116C66.985 16.3093 66.7342 16.0519 66.5451 15.7395C66.3603 15.4227 66.2679 15.051 66.2679 14.6242H67.8649C67.8649 14.853 67.9045 15.051 67.9837 15.2182C68.0673 15.3809 68.1839 15.5151 68.3335 15.6207C68.4875 15.7219 68.6701 15.7967 68.8813 15.8451C69.0924 15.8935 69.3256 15.9177 69.5808 15.9177C69.902 15.9177 70.1637 15.8759 70.3661 15.7923C70.5729 15.7043 70.7225 15.5899 70.8149 15.4491C70.9117 15.3083 70.9601 15.1544 70.9601 14.9872ZM76.9392 14.2876H74.8141V13.0205H76.9392C77.2823 13.0205 77.5617 12.9699 77.7773 12.8688C77.9973 12.7676 78.1579 12.6312 78.259 12.4596C78.3646 12.2836 78.4174 12.0856 78.4174 11.8656C78.4174 11.6369 78.3646 11.4257 78.259 11.2321C78.1579 11.0385 77.9973 10.8823 77.7773 10.7635C77.5617 10.6403 77.2823 10.5788 76.9392 10.5788H75.3487V17H73.7582V9.31166H76.9392C77.5859 9.31166 78.1381 9.42165 78.5956 9.64163C79.0532 9.86161 79.4007 10.163 79.6383 10.5458C79.8803 10.9241 80.0013 11.3597 80.0013 11.8524C80.0013 12.222 79.9331 12.5564 79.7967 12.8556C79.6603 13.1547 79.4601 13.4121 79.1962 13.6277C78.9322 13.8389 78.611 14.0017 78.2326 14.116C77.8543 14.2304 77.4231 14.2876 76.9392 14.2876ZM87.9338 12.9743V13.3439C87.9338 13.9291 87.8502 14.4526 87.683 14.9146C87.5159 15.3765 87.2783 15.7725 86.9703 16.1025C86.6667 16.428 86.3016 16.6766 85.8748 16.8482C85.448 17.0198 84.9773 17.1056 84.4625 17.1056C83.9478 17.1056 83.477 17.0198 83.0502 16.8482C82.6235 16.6766 82.2539 16.428 81.9415 16.1025C81.6292 15.7725 81.3872 15.3765 81.2156 14.9146C81.0484 14.4526 80.9648 13.9291 80.9648 13.3439V12.9743C80.9648 12.3892 81.0484 11.8656 81.2156 11.4037C81.3872 10.9417 81.627 10.5458 81.9349 10.2158C82.2429 9.88581 82.6103 9.63503 83.037 9.46345C83.4638 9.29186 83.9346 9.20607 84.4493 9.20607C84.9685 9.20607 85.4392 9.29186 85.8616 9.46345C86.2884 9.63503 86.6557 9.88581 86.9637 10.2158C87.2761 10.5458 87.5159 10.9417 87.683 11.4037C87.8502 11.8656 87.9338 12.3892 87.9338 12.9743ZM86.3434 13.3439V12.9611C86.3434 12.5608 86.3016 12.2066 86.218 11.8986C86.1344 11.5907 86.009 11.3311 85.8418 11.1199C85.679 10.9087 85.481 10.7481 85.2478 10.6381C85.0147 10.5282 84.7485 10.4732 84.4493 10.4732C84.1545 10.4732 83.8884 10.5282 83.6508 10.6381C83.4176 10.7481 83.2196 10.9087 83.0568 11.1199C82.8984 11.3311 82.7753 11.5907 82.6873 11.8986C82.6037 12.2066 82.5619 12.5608 82.5619 12.9611V13.3439C82.5619 13.7399 82.6037 14.094 82.6873 14.4064C82.7753 14.7144 82.9006 14.9762 83.0634 15.1918C83.2306 15.4029 83.4308 15.5657 83.664 15.6801C83.9016 15.7901 84.1677 15.8451 84.4625 15.8451C84.7617 15.8451 85.0257 15.7901 85.2544 15.6801C85.4876 15.5657 85.6856 15.4029 85.8484 15.1918C86.0112 14.9762 86.1344 14.7144 86.218 14.4064C86.3016 14.094 86.3434 13.7399 86.3434 13.3439ZM93.5697 14.9872C93.5697 14.842 93.5433 14.7122 93.4905 14.5978C93.4421 14.4834 93.3563 14.38 93.2332 14.2876C93.1144 14.1908 92.9494 14.1006 92.7382 14.0171C92.5314 13.9335 92.2696 13.8543 91.9529 13.7795C91.4953 13.6695 91.0905 13.5463 90.7386 13.4099C90.391 13.2691 90.0984 13.1063 89.8608 12.9216C89.6233 12.7368 89.4429 12.519 89.3197 12.2682C89.2009 12.0174 89.1415 11.7249 89.1415 11.3905C89.1415 11.0693 89.2119 10.7767 89.3527 10.5128C89.4935 10.2444 89.6937 10.0134 89.9532 9.81982C90.2128 9.62183 90.5208 9.47005 90.8772 9.36446C91.2335 9.25887 91.6251 9.20607 92.0519 9.20607C92.6722 9.20607 93.2112 9.30726 93.6687 9.50964C94.1263 9.71203 94.4805 9.9914 94.7312 10.3478C94.9864 10.6997 95.114 11.1089 95.114 11.5753H93.5235C93.5235 11.3553 93.4663 11.1573 93.3519 10.9813C93.242 10.8053 93.0792 10.6645 92.8636 10.559C92.648 10.4534 92.3774 10.4006 92.0519 10.4006C91.7395 10.4006 91.4821 10.4468 91.2797 10.5392C91.0773 10.6271 90.9256 10.7437 90.8244 10.8889C90.7276 11.0297 90.6792 11.1837 90.6792 11.3509C90.6792 11.4829 90.7078 11.6017 90.765 11.7073C90.8266 11.8128 90.9234 11.9096 91.0553 11.9976C91.1873 12.0856 91.3589 12.1692 91.5701 12.2484C91.7813 12.3276 92.0387 12.4046 92.3422 12.4794C92.7954 12.585 93.1958 12.7104 93.5433 12.8556C93.8909 13.0007 94.1813 13.1723 94.4145 13.3703C94.6476 13.5639 94.8214 13.7927 94.9358 14.0567C95.0546 14.3162 95.114 14.6132 95.114 14.9476C95.114 15.2863 95.0436 15.5899 94.9028 15.8583C94.762 16.1223 94.5596 16.3467 94.2957 16.5314C94.0361 16.7162 93.7237 16.8592 93.3585 16.9604C92.9934 17.0572 92.5864 17.1056 92.1377 17.1056C91.7417 17.1056 91.3479 17.0572 90.9564 16.9604C90.5692 16.8636 90.2194 16.714 89.907 16.5116C89.5947 16.3093 89.3439 16.0519 89.1547 15.7395C88.9699 15.4227 88.8775 15.051 88.8775 14.6242H90.4746C90.4746 14.853 90.5142 15.051 90.5934 15.2182C90.677 15.3809 90.7936 15.5151 90.9432 15.6207C91.0971 15.7219 91.2797 15.7967 91.4909 15.8451C91.7021 15.8935 91.9353 15.9177 92.1904 15.9177C92.5116 15.9177 92.7734 15.8759 92.9758 15.7923C93.1826 15.7043 93.3322 15.5899 93.4245 15.4491C93.5213 15.3083 93.5697 15.1544 93.5697 14.9872ZM98.0705 9.31166V17H96.4735V9.31166H98.0705ZM103.317 9.31166V17H101.727V9.31166H103.317ZM105.878 9.31166V10.5788H99.199V9.31166H105.878ZM108.616 9.31166V17H107.019V9.31166H108.616ZM116.985 12.9743V13.3439C116.985 13.9291 116.901 14.4526 116.734 14.9146C116.567 15.3765 116.329 15.7725 116.021 16.1025C115.717 16.428 115.352 16.6766 114.925 16.8482C114.499 17.0198 114.028 17.1056 113.513 17.1056C112.998 17.1056 112.528 17.0198 112.101 16.8482C111.674 16.6766 111.305 16.428 110.992 16.1025C110.68 15.7725 110.438 15.3765 110.266 14.9146C110.099 14.4526 110.016 13.9291 110.016 13.3439V12.9743C110.016 12.3892 110.099 11.8656 110.266 11.4037C110.438 10.9417 110.678 10.5458 110.986 10.2158C111.294 9.88581 111.661 9.63503 112.088 9.46345C112.514 9.29186 112.985 9.20607 113.5 9.20607C114.019 9.20607 114.49 9.29186 114.912 9.46345C115.339 9.63503 115.706 9.88581 116.014 10.2158C116.327 10.5458 116.567 10.9417 116.734 11.4037C116.901 11.8656 116.985 12.3892 116.985 12.9743ZM115.394 13.3439V12.9611C115.394 12.5608 115.352 12.2066 115.269 11.8986C115.185 11.5907 115.06 11.3311 114.892 11.1199C114.73 10.9087 114.532 10.7481 114.299 10.6381C114.065 10.5282 113.799 10.4732 113.5 10.4732C113.205 10.4732 112.939 10.5282 112.701 10.6381C112.468 10.7481 112.27 10.9087 112.108 11.1199C111.949 11.3311 111.826 11.5907 111.738 11.8986C111.654 12.2066 111.613 12.5608 111.613 12.9611V13.3439C111.613 13.7399 111.654 14.094 111.738 14.4064C111.826 14.7144 111.951 14.9762 112.114 15.1918C112.281 15.4029 112.481 15.5657 112.715 15.6801C112.952 15.7901 113.218 15.8451 113.513 15.8451C113.812 15.8451 114.076 15.7901 114.305 15.6801C114.538 15.5657 114.736 15.4029 114.899 15.1918C115.062 14.9762 115.185 14.7144 115.269 14.4064C115.352 14.094 115.394 13.7399 115.394 13.3439ZM124.95 9.31166V17H123.353L119.882 11.7007V17H118.291V9.31166H119.882L123.353 14.611V9.31166H124.95Z" fill="white"/>
<g clip-path="url(#clip0_1296_2078)">
<path fill-rule="evenodd" clip-rule="evenodd" d="M179.164 34.0251C196.774 33.3431 211.461 46.7806 212.794 63.9061C212.9 65.2731 211.83 66.4459 210.458 66.4459C209.23 66.4459 208.22 65.4966 208.125 64.2727C206.974 49.4852 194.188 37.9112 178.936 38.7237C165.423 39.4429 153.443 51.4226 152.724 64.9356C151.912 80.187 163.485 92.9739 178.273 94.1242C179.497 94.2195 180.446 95.2297 180.446 96.4576C180.446 97.8594 179.304 98.9017 177.906 98.793C160.781 97.4607 147.344 82.774 148.026 65.1641C148.678 48.3249 162.324 34.6777 179.164 34.0251Z" fill="#E4E2FF"/>
<path fill-rule="evenodd" clip-rule="evenodd" d="M181.637 98.7756C164.027 99.4577 149.34 86.0202 148.007 68.8947C147.901 67.5276 148.971 66.3549 150.343 66.3549C151.571 66.3549 152.581 67.3042 152.676 68.5281C153.826 83.3155 166.613 94.8895 181.865 94.0771C195.378 93.3579 207.357 81.3782 208.077 67.8651C208.889 52.6138 197.315 39.8269 182.528 38.6766C181.304 38.5813 180.354 37.5711 180.354 36.3432C180.354 34.9413 181.497 33.8991 182.895 34.0078C200.02 35.3401 213.457 50.0268 212.775 67.6367C212.123 84.4759 198.476 98.1231 181.637 98.7756Z" fill="#4339F2"/>
<path fill-rule="evenodd" clip-rule="evenodd" d="M180.4 80.7634C188.332 80.7634 194.763 74.3329 194.763 66.4005C194.763 58.4681 188.332 52.0376 180.4 52.0376C172.468 52.0376 166.037 58.4681 166.037 66.4005C166.037 74.3329 172.468 80.7634 180.4 80.7634Z" fill="#4339F2"/>
<path d="M176.14 69.7241V68.6953H173.561V68.0781L176.015 64.5802H176.912V68.0193H177.632V68.6953H176.912V69.7241H176.14ZM174.406 68.0193H176.184V65.44L174.406 68.0193ZM178.734 69.7241L180.726 65.2489H178.051V64.5802H181.527V65.146L179.55 69.7241H178.734ZM183.292 67.0346C183.061 67.0346 182.853 66.9831 182.667 66.8803C182.486 66.7774 182.341 66.6329 182.234 66.4467C182.126 66.2557 182.072 66.0278 182.072 65.7633C182.072 65.5037 182.126 65.2808 182.234 65.0946C182.341 64.9035 182.488 64.7566 182.674 64.6537C182.861 64.5508 183.069 64.4994 183.299 64.4994C183.524 64.4994 183.728 64.5508 183.909 64.6537C184.095 64.7566 184.242 64.9035 184.35 65.0946C184.458 65.2808 184.512 65.5037 184.512 65.7633C184.512 66.0278 184.458 66.2557 184.35 66.4467C184.242 66.6329 184.095 66.7774 183.909 66.8803C183.728 66.9831 183.522 67.0346 183.292 67.0346ZM182.924 69.7241L185.871 64.5802H186.635L183.696 69.7241H182.924ZM183.292 66.4761C183.448 66.4761 183.583 66.4173 183.696 66.2997C183.813 66.1773 183.872 65.9985 183.872 65.7633C183.872 65.5282 183.816 65.3518 183.703 65.2342C183.591 65.1117 183.453 65.0505 183.292 65.0505C183.135 65.0505 182.998 65.1117 182.88 65.2342C182.763 65.3518 182.704 65.5282 182.704 65.7633C182.704 65.9985 182.76 66.1773 182.873 66.2997C182.99 66.4173 183.13 66.4761 183.292 66.4761ZM186.312 69.8123C186.082 69.8123 185.873 69.7609 185.687 69.658C185.506 69.5551 185.362 69.4106 185.254 69.2244C185.146 69.0334 185.092 68.8056 185.092 68.541C185.092 68.2814 185.146 68.056 185.254 67.865C185.362 67.6739 185.508 67.5269 185.695 67.4241C185.881 67.3212 186.089 67.2697 186.319 67.2697C186.545 67.2697 186.748 67.3212 186.929 67.4241C187.115 67.5269 187.262 67.6739 187.37 67.865C187.478 68.056 187.532 68.2814 187.532 68.541C187.532 68.8056 187.478 69.0334 187.37 69.2244C187.262 69.4106 187.115 69.5551 186.929 69.658C186.748 69.7609 186.542 69.8123 186.312 69.8123ZM186.312 69.2465C186.469 69.2465 186.603 69.1877 186.716 69.0701C186.834 68.9525 186.892 68.7762 186.892 68.541C186.892 68.3059 186.836 68.1295 186.723 68.0119C186.611 67.8895 186.474 67.8282 186.312 67.8282C186.155 67.8282 186.018 67.8895 185.9 68.0119C185.783 68.1295 185.724 68.3059 185.724 68.541C185.724 68.7762 185.78 68.9525 185.893 69.0701C186.011 69.1877 186.15 69.2465 186.312 69.2465Z" fill="white"/>
</g>
<g clip-path="url(#clip1_1296_2078)">
<path fill-rule="evenodd" clip-rule="evenodd" d="M404.562 34.0251C422.172 33.3431 436.86 46.7806 438.192 63.9061C438.298 65.2731 437.228 66.4459 435.857 66.4459C434.629 66.4459 433.618 65.4966 433.523 64.2727C432.373 49.4852 419.586 37.9112 404.335 38.7237C390.822 39.4429 378.842 51.4226 378.122 64.9356C377.31 80.187 388.884 92.9739 403.671 94.1242C404.895 94.2195 405.845 95.2297 405.845 96.4576C405.845 97.8594 404.702 98.9017 403.305 98.793C386.179 97.4607 372.742 82.774 373.424 65.1641C374.076 48.3249 387.723 34.6777 404.562 34.0251Z" fill="#FFF5DD"/>
<path fill-rule="evenodd" clip-rule="evenodd" d="M407.036 98.7756C389.425 99.4577 374.738 86.0202 373.406 68.8947C373.3 67.5276 374.37 66.3549 375.741 66.3549C376.969 66.3549 377.979 67.3042 378.074 68.5281C379.225 83.3155 392.012 94.8895 407.263 94.0771C420.776 93.3579 432.756 81.3782 433.475 67.8651C434.287 52.6138 422.714 39.8269 407.926 38.6766C406.702 38.5813 405.753 37.5711 405.753 36.3432C405.753 34.9413 406.895 33.8991 408.293 34.0078C425.418 35.3401 438.856 50.0268 438.174 67.6367C437.522 84.4759 423.875 98.1231 407.036 98.7756Z" fill="#FFB200"/>
<path fill-rule="evenodd" clip-rule="evenodd" d="M405.798 80.7634C413.731 80.7634 420.161 74.3329 420.161 66.4005C420.161 58.4681 413.731 52.0376 405.798 52.0376C397.866 52.0376 391.436 58.4681 391.436 66.4005C391.436 74.3329 397.866 80.7634 405.798 80.7634Z" fill="#FFB200"/>
<path d="M401.54 69.7241V68.6953H398.961V68.0781L401.415 64.5802H402.312V68.0193H403.032V68.6953H402.312V69.7241H401.54ZM399.806 68.0193H401.584V65.44L399.806 68.0193ZM404.135 69.7241L406.126 65.2489H403.451V64.5802H406.927V65.146L404.95 69.7241H404.135ZM408.692 67.0346C408.462 67.0346 408.254 66.9831 408.067 66.8803C407.886 66.7774 407.742 66.6329 407.634 66.4467C407.526 66.2557 407.472 66.0278 407.472 65.7633C407.472 65.5037 407.526 65.2808 407.634 65.0946C407.742 64.9035 407.889 64.7566 408.075 64.6537C408.261 64.5508 408.469 64.4994 408.699 64.4994C408.925 64.4994 409.128 64.5508 409.309 64.6537C409.496 64.7566 409.642 64.9035 409.75 65.0946C409.858 65.2808 409.912 65.5037 409.912 65.7633C409.912 66.0278 409.858 66.2557 409.75 66.4467C409.642 66.6329 409.496 66.7774 409.309 66.8803C409.128 66.9831 408.922 67.0346 408.692 67.0346ZM408.325 69.7241L411.271 64.5802H412.036L409.096 69.7241H408.325ZM408.692 66.4761C408.849 66.4761 408.984 66.4173 409.096 66.2997C409.214 66.1773 409.273 65.9985 409.273 65.7633C409.273 65.5282 409.216 65.3518 409.104 65.2342C408.991 65.1117 408.854 65.0505 408.692 65.0505C408.535 65.0505 408.398 65.1117 408.281 65.2342C408.163 65.3518 408.104 65.5282 408.104 65.7633C408.104 65.9985 408.161 66.1773 408.273 66.2997C408.391 66.4173 408.53 66.4761 408.692 66.4761ZM411.712 69.8123C411.482 69.8123 411.274 69.7609 411.088 69.658C410.906 69.5551 410.762 69.4106 410.654 69.2244C410.546 69.0334 410.492 68.8056 410.492 68.541C410.492 68.2814 410.546 68.056 410.654 67.865C410.762 67.6739 410.909 67.5269 411.095 67.4241C411.281 67.3212 411.489 67.2697 411.72 67.2697C411.945 67.2697 412.148 67.3212 412.33 67.4241C412.516 67.5269 412.663 67.6739 412.77 67.865C412.878 68.056 412.932 68.2814 412.932 68.541C412.932 68.8056 412.878 69.0334 412.77 69.2244C412.663 69.4106 412.516 69.5551 412.33 69.658C412.148 69.7609 411.943 69.8123 411.712 69.8123ZM411.712 69.2465C411.869 69.2465 412.004 69.1877 412.116 69.0701C412.234 68.9525 412.293 68.7762 412.293 68.541C412.293 68.3059 412.236 68.1295 412.124 68.0119C412.011 67.8895 411.874 67.8282 411.712 67.8282C411.556 67.8282 411.418 67.8895 411.301 68.0119C411.183 68.1295 411.124 68.3059 411.124 68.541C411.124 68.7762 411.181 68.9525 411.293 69.0701C411.411 69.1877 411.551 69.2465 411.712 69.2465Z" fill="white"/>
</g>
<g clip-path="url(#clip2_1296_2078)">
<path fill-rule="evenodd" clip-rule="evenodd" d="M517.164 34.0251C534.774 33.3431 549.461 46.7806 550.794 63.9061C550.9 65.2731 549.83 66.4459 548.458 66.4459C547.23 66.4459 546.22 65.4966 546.125 64.2727C544.974 49.4852 532.188 37.9112 516.936 38.7237C503.423 39.4429 491.443 51.4226 490.724 64.9356C489.912 80.187 501.485 92.9739 516.273 94.1242C517.497 94.2195 518.446 95.2297 518.446 96.4576C518.446 97.8594 517.304 98.9017 515.906 98.793C498.781 97.4607 485.344 82.774 486.026 65.1641C486.678 48.3249 500.324 34.6777 517.164 34.0251Z" fill="#FFECFD"/>
<path fill-rule="evenodd" clip-rule="evenodd" d="M519.637 98.7756C502.027 99.4577 487.34 86.0202 486.007 68.8947C485.901 67.5276 486.971 66.3549 488.343 66.3549C489.571 66.3549 490.581 67.3042 490.676 68.5281C491.826 83.3155 504.613 94.8895 519.865 94.0771C533.378 93.3579 545.357 81.3782 546.077 67.8651C546.889 52.6138 535.315 39.8269 520.528 38.6766C519.304 38.5813 518.354 37.5711 518.354 36.3432C518.354 34.9413 519.497 33.8991 520.895 34.0078C538.02 35.3401 551.457 50.0268 550.775 67.6367C550.123 84.4759 536.476 98.1231 519.637 98.7756Z" fill="#FE5CEE"/>
<path fill-rule="evenodd" clip-rule="evenodd" d="M518.4 80.7634C526.332 80.7634 532.763 74.3329 532.763 66.4005C532.763 58.4681 526.332 52.0376 518.4 52.0376C510.468 52.0376 504.037 58.4681 504.037 66.4005C504.037 74.3329 510.468 80.7634 518.4 80.7634Z" fill="#FE5CEE"/>
<path d="M514.14 69.7241V68.6953H511.561V68.0781L514.015 64.5802H514.912V68.0193H515.632V68.6953H514.912V69.7241H514.14ZM512.406 68.0193H514.184V65.44L512.406 68.0193ZM516.734 69.7241L518.726 65.2489H516.051V64.5802H519.527V65.146L517.55 69.7241H516.734ZM521.292 67.0346C521.061 67.0346 520.853 66.9831 520.667 66.8803C520.486 66.7774 520.341 66.6329 520.234 66.4467C520.126 66.2557 520.072 66.0278 520.072 65.7633C520.072 65.5037 520.126 65.2808 520.234 65.0946C520.341 64.9035 520.488 64.7566 520.674 64.6537C520.861 64.5508 521.069 64.4994 521.299 64.4994C521.524 64.4994 521.728 64.5508 521.909 64.6537C522.095 64.7566 522.242 64.9035 522.35 65.0946C522.458 65.2808 522.512 65.5037 522.512 65.7633C522.512 66.0278 522.458 66.2557 522.35 66.4467C522.242 66.6329 522.095 66.7774 521.909 66.8803C521.728 66.9831 521.522 67.0346 521.292 67.0346ZM520.924 69.7241L523.871 64.5802H524.635L521.696 69.7241H520.924ZM521.292 66.4761C521.448 66.4761 521.583 66.4173 521.696 66.2997C521.813 66.1773 521.872 65.9985 521.872 65.7633C521.872 65.5282 521.816 65.3518 521.703 65.2342C521.591 65.1117 521.453 65.0505 521.292 65.0505C521.135 65.0505 520.998 65.1117 520.88 65.2342C520.763 65.3518 520.704 65.5282 520.704 65.7633C520.704 65.9985 520.76 66.1773 520.873 66.2997C520.99 66.4173 521.13 66.4761 521.292 66.4761ZM524.312 69.8123C524.082 69.8123 523.873 69.7609 523.687 69.658C523.506 69.5551 523.362 69.4106 523.254 69.2244C523.146 69.0334 523.092 68.8056 523.092 68.541C523.092 68.2814 523.146 68.056 523.254 67.865C523.362 67.6739 523.508 67.5269 523.695 67.4241C523.881 67.3212 524.089 67.2697 524.319 67.2697C524.545 67.2697 524.748 67.3212 524.929 67.4241C525.115 67.5269 525.262 67.6739 525.37 67.865C525.478 68.056 525.532 68.2814 525.532 68.541C525.532 68.8056 525.478 69.0334 525.37 69.2244C525.262 69.4106 525.115 69.5551 524.929 69.658C524.748 69.7609 524.542 69.8123 524.312 69.8123ZM524.312 69.2465C524.469 69.2465 524.603 69.1877 524.716 69.0701C524.834 68.9525 524.892 68.7762 524.892 68.541C524.892 68.3059 524.836 68.1295 524.723 68.0119C524.611 67.8895 524.474 67.8282 524.312 67.8282C524.155 67.8282 524.018 67.8895 523.9 68.0119C523.783 68.1295 523.724 68.3059 523.724 68.541C523.724 68.7762 523.78 68.9525 523.893 69.0701C524.011 69.1877 524.15 69.2465 524.312 69.2465Z" fill="white"/>
</g>
<g clip-path="url(#clip3_1296_2078)">
<path fill-rule="evenodd" clip-rule="evenodd" d="M291.763 34.0251C309.373 33.3431 324.061 46.7806 325.393 63.9061C325.499 65.2731 324.429 66.4459 323.058 66.4459C321.83 66.4459 320.82 65.4966 320.724 64.2727C319.574 49.4852 306.787 37.9112 291.536 38.7237C278.023 39.4429 266.043 51.4226 265.323 64.9356C264.511 80.187 276.085 92.9739 290.872 94.1242C292.096 94.2195 293.046 95.2297 293.046 96.4576C293.046 97.8594 291.903 98.9017 290.506 98.793C273.381 97.4607 259.943 82.774 260.625 65.1641C261.277 48.3249 274.924 34.6777 291.763 34.0251Z" fill="#E1FFE3"/>
<path fill-rule="evenodd" clip-rule="evenodd" d="M294.237 98.7756C276.627 99.4577 261.939 86.0202 260.607 68.8947C260.501 67.5276 261.571 66.3549 262.942 66.3549C264.17 66.3549 265.18 67.3042 265.276 68.5281C266.426 83.3155 279.213 94.8895 294.464 94.0771C307.977 93.3579 319.957 81.3782 320.677 67.8651C321.489 52.6138 309.915 39.8269 295.128 38.6766C293.904 38.5813 292.954 37.5711 292.954 36.3432C292.954 34.9413 294.097 33.8991 295.494 34.0078C312.619 35.3401 326.057 50.0268 325.375 67.6367C324.723 84.4759 311.076 98.1231 294.237 98.7756Z" fill="#34B53A"/>
<path fill-rule="evenodd" clip-rule="evenodd" d="M293 80.7634C300.932 80.7634 307.362 74.3329 307.362 66.4005C307.362 58.4681 300.932 52.0376 293 52.0376C285.067 52.0376 278.637 58.4681 278.637 66.4005C278.637 74.3329 285.067 80.7634 293 80.7634Z" fill="#34B53A"/>
<path d="M288.74 69.7241V68.6953H286.16V68.0781L288.615 64.5802H289.511V68.0193H290.231V68.6953H289.511V69.7241H288.74ZM287.005 68.0193H288.784V65.44L287.005 68.0193ZM291.334 69.7241L293.325 65.2489H290.651V64.5802H294.126V65.146L292.15 69.7241H291.334ZM295.891 67.0346C295.661 67.0346 295.453 66.9831 295.267 66.8803C295.085 66.7774 294.941 66.6329 294.833 66.4467C294.725 66.2557 294.671 66.0278 294.671 65.7633C294.671 65.5037 294.725 65.2808 294.833 65.0946C294.941 64.9035 295.088 64.7566 295.274 64.6537C295.46 64.5508 295.668 64.4994 295.899 64.4994C296.124 64.4994 296.327 64.5508 296.509 64.6537C296.695 64.7566 296.842 64.9035 296.949 65.0946C297.057 65.2808 297.111 65.5037 297.111 65.7633C297.111 66.0278 297.057 66.2557 296.949 66.4467C296.842 66.6329 296.695 66.7774 296.509 66.8803C296.327 66.9831 296.122 67.0346 295.891 67.0346ZM295.524 69.7241L298.471 64.5802H299.235L296.295 69.7241H295.524ZM295.891 66.4761C296.048 66.4761 296.183 66.4173 296.295 66.2997C296.413 66.1773 296.472 65.9985 296.472 65.7633C296.472 65.5282 296.415 65.3518 296.303 65.2342C296.19 65.1117 296.053 65.0505 295.891 65.0505C295.735 65.0505 295.597 65.1117 295.48 65.2342C295.362 65.3518 295.303 65.5282 295.303 65.7633C295.303 65.9985 295.36 66.1773 295.472 66.2997C295.59 66.4173 295.73 66.4761 295.891 66.4761ZM298.912 69.8123C298.681 69.8123 298.473 69.7609 298.287 69.658C298.106 69.5551 297.961 69.4106 297.853 69.2244C297.746 69.0334 297.692 68.8056 297.692 68.541C297.692 68.2814 297.746 68.056 297.853 67.865C297.961 67.6739 298.108 67.5269 298.294 67.4241C298.48 67.3212 298.689 67.2697 298.919 67.2697C299.144 67.2697 299.348 67.3212 299.529 67.4241C299.715 67.5269 299.862 67.6739 299.97 67.865C300.077 68.056 300.131 68.2814 300.131 68.541C300.131 68.8056 300.077 69.0334 299.97 69.2244C299.862 69.4106 299.715 69.5551 299.529 69.658C299.348 69.7609 299.142 69.8123 298.912 69.8123ZM298.912 69.2465C299.068 69.2465 299.203 69.1877 299.316 69.0701C299.433 68.9525 299.492 68.7762 299.492 68.541C299.492 68.3059 299.436 68.1295 299.323 68.0119C299.21 67.8895 299.073 67.8282 298.912 67.8282C298.755 67.8282 298.618 67.8895 298.5 68.0119C298.382 68.1295 298.324 68.3059 298.324 68.541C298.324 68.7762 298.38 68.9525 298.493 69.0701C298.61 69.1877 298.75 69.2465 298.912 69.2465Z" fill="white"/>
</g>
<g clip-path="url(#clip4_1296_2078)">
<path fill-rule="evenodd" clip-rule="evenodd" d="M66.1636 34.0251C83.7738 33.3431 98.4613 46.7806 99.7935 63.9061C99.8996 65.2731 98.8295 66.4459 97.4581 66.4459C96.2302 66.4459 95.2201 65.4966 95.1247 64.2727C93.9744 49.4852 81.1875 37.9112 65.9362 38.7237C52.4231 39.4429 40.4434 51.4226 39.7239 64.9356C38.9117 80.187 50.4854 92.9739 65.2729 94.1242C66.4968 94.2195 67.4464 95.2297 67.4464 96.4576C67.4464 97.8594 66.3038 98.9017 64.9063 98.793C47.7811 97.4607 34.3436 82.774 35.0256 65.1641C35.6776 48.3249 49.3244 34.6777 66.1636 34.0251Z" fill="#FFE5D3"/>
<path fill-rule="evenodd" clip-rule="evenodd" d="M68.6372 98.7756C51.027 99.4577 36.3395 86.0202 35.0073 68.8947C34.9012 67.5276 35.9713 66.3549 37.3427 66.3549C38.5706 66.3549 39.5807 67.3042 39.6761 68.5281C40.8264 83.3155 53.6132 94.8895 68.8646 94.0771C82.3777 93.3579 94.3574 81.3782 95.0769 67.8651C95.889 52.6138 84.3154 39.8269 69.5279 38.6766C68.304 38.5813 67.3544 37.5711 67.3544 36.3432C67.3544 34.9413 68.497 33.8991 69.8945 34.0078C87.0197 35.3401 100.457 50.0268 99.7751 67.6367C99.1232 84.4759 85.4764 98.1231 68.6372 98.7756Z" fill="#FF3A29"/>
<path fill-rule="evenodd" clip-rule="evenodd" d="M67.4 80.7634C75.3324 80.7634 81.7629 74.3329 81.7629 66.4005C81.7629 58.4681 75.3324 52.0376 67.4 52.0376C59.4676 52.0376 53.0371 58.4681 53.0371 66.4005C53.0371 74.3329 59.4676 80.7634 67.4 80.7634Z" fill="#FF3A29"/>
<path d="M63.14 69.7241V68.6953H60.5607V68.0781L63.0151 64.5802H63.9116V68.0193H64.6317V68.6953H63.9116V69.7241H63.14ZM61.4058 68.0193H63.1841V65.44L61.4058 68.0193ZM65.7343 69.7241L67.7258 65.2489H65.0509V64.5802H68.5267V65.146L66.55 69.7241H65.7343ZM70.2917 67.0346C70.0614 67.0346 69.8532 66.9831 69.6671 66.8803C69.4858 66.7774 69.3413 66.6329 69.2335 66.4467C69.1257 66.2557 69.0719 66.0278 69.0719 65.7633C69.0719 65.5037 69.1257 65.2808 69.2335 65.0946C69.3413 64.9035 69.4883 64.7566 69.6744 64.6537C69.8606 64.5508 70.0688 64.4994 70.299 64.4994C70.5244 64.4994 70.7277 64.5508 70.909 64.6537C71.0951 64.7566 71.2421 64.9035 71.3499 65.0946C71.4577 65.2808 71.5115 65.5037 71.5115 65.7633C71.5115 66.0278 71.4577 66.2557 71.3499 66.4467C71.2421 66.6329 71.0951 66.7774 70.909 66.8803C70.7277 66.9831 70.5219 67.0346 70.2917 67.0346ZM69.9243 69.7241L72.871 64.5802H73.6352L70.6959 69.7241H69.9243ZM70.2917 66.4761C70.4485 66.4761 70.5832 66.4173 70.6959 66.2997C70.8134 66.1773 70.8722 65.9985 70.8722 65.7633C70.8722 65.5282 70.8159 65.3518 70.7032 65.2342C70.5905 65.1117 70.4534 65.0505 70.2917 65.0505C70.1349 65.0505 69.9978 65.1117 69.8802 65.2342C69.7626 65.3518 69.7038 65.5282 69.7038 65.7633C69.7038 65.9985 69.7602 66.1773 69.8728 66.2997C69.9904 66.4173 70.13 66.4761 70.2917 66.4761ZM73.3119 69.8123C73.0817 69.8123 72.8735 69.7609 72.6873 69.658C72.506 69.5551 72.3615 69.4106 72.2537 69.2244C72.146 69.0334 72.0921 68.8056 72.0921 68.541C72.0921 68.2814 72.146 68.056 72.2537 67.865C72.3615 67.6739 72.5085 67.5269 72.6946 67.4241C72.8808 67.3212 73.089 67.2697 73.3193 67.2697C73.5446 67.2697 73.7479 67.3212 73.9292 67.4241C74.1153 67.5269 74.2623 67.6739 74.3701 67.865C74.4779 68.056 74.5318 68.2814 74.5318 68.541C74.5318 68.8056 74.4779 69.0334 74.3701 69.2244C74.2623 69.4106 74.1153 69.5551 73.9292 69.658C73.7479 69.7609 73.5422 69.8123 73.3119 69.8123ZM73.3119 69.2465C73.4687 69.2465 73.6034 69.1877 73.7161 69.0701C73.8337 68.9525 73.8924 68.7762 73.8924 68.541C73.8924 68.3059 73.8361 68.1295 73.7234 68.0119C73.6107 67.8895 73.4736 67.8282 73.3119 67.8282C73.1551 67.8282 73.018 67.8895 72.9004 68.0119C72.7828 68.1295 72.724 68.3059 72.724 68.541C72.724 68.7762 72.7804 68.9525 72.893 69.0701C73.0106 69.1877 73.1502 69.2465 73.3119 69.2465Z" fill="white"/>
</g>
<path d="M45.6789 117.049H46.9025C46.8388 117.636 46.6709 118.16 46.399 118.623C46.1271 119.087 45.7426 119.454 45.2455 119.726C44.7484 119.994 44.1281 120.127 43.3846 120.127C42.8408 120.127 42.3458 120.025 41.8997 119.822C41.4578 119.618 41.0776 119.329 40.7589 118.955C40.4403 118.577 40.1939 118.124 40.0197 117.597C39.8497 117.066 39.7648 116.476 39.7648 115.826V114.902C39.7648 114.252 39.8497 113.663 40.0197 113.136C40.1939 112.605 40.4424 112.151 40.7653 111.772C41.0925 111.394 41.4855 111.103 41.9443 110.899C42.4032 110.695 42.9194 110.593 43.4929 110.593C44.194 110.593 44.7867 110.725 45.271 110.989C45.7553 111.252 46.1314 111.617 46.399 112.085C46.6709 112.548 46.8388 113.085 46.9025 113.697H45.6789C45.6194 113.264 45.5089 112.892 45.3475 112.582C45.186 112.267 44.9566 112.025 44.6592 111.855C44.3618 111.685 43.973 111.6 43.4929 111.6C43.0808 111.6 42.7176 111.679 42.4032 111.836C42.093 111.993 41.8317 112.216 41.6193 112.505C41.4111 112.794 41.2539 113.141 41.1477 113.544C41.0415 113.948 40.9884 114.396 40.9884 114.889V115.826C40.9884 116.28 41.0351 116.707 41.1286 117.107C41.2263 117.506 41.3729 117.857 41.5683 118.158C41.7637 118.46 42.0123 118.698 42.3139 118.872C42.6156 119.042 42.9725 119.127 43.3846 119.127C43.9072 119.127 44.3236 119.044 44.6337 118.878C44.9439 118.713 45.1775 118.475 45.3347 118.165C45.4962 117.854 45.6109 117.483 45.6789 117.049ZM52.4661 118.821V115.271C52.4661 114.999 52.4109 114.764 52.3004 114.564C52.1942 114.36 52.0327 114.203 51.816 114.092C51.5994 113.982 51.3317 113.927 51.0131 113.927C50.7156 113.927 50.4544 113.978 50.2292 114.08C50.0082 114.181 49.8341 114.315 49.7066 114.481C49.5834 114.647 49.5218 114.825 49.5218 115.016H48.3428C48.3428 114.77 48.4065 114.526 48.534 114.283C48.6614 114.041 48.8441 113.822 49.082 113.627C49.3242 113.427 49.6131 113.27 49.9488 113.155C50.2887 113.036 50.6668 112.977 51.0832 112.977C51.5845 112.977 52.0264 113.062 52.4087 113.232C52.7954 113.402 53.097 113.659 53.3137 114.003C53.5346 114.343 53.6451 114.77 53.6451 115.284V118.496C53.6451 118.725 53.6642 118.97 53.7024 119.229C53.7449 119.488 53.8065 119.711 53.8873 119.898V120H52.6573C52.5978 119.864 52.5511 119.683 52.5171 119.458C52.4831 119.229 52.4661 119.016 52.4661 118.821ZM52.67 115.819L52.6828 116.648H51.491C51.1554 116.648 50.8559 116.675 50.5924 116.731C50.329 116.782 50.1081 116.86 49.9296 116.966C49.7512 117.073 49.6152 117.207 49.5218 117.368C49.4283 117.525 49.3816 117.71 49.3816 117.922C49.3816 118.139 49.4304 118.337 49.5281 118.515C49.6259 118.694 49.7724 118.836 49.9679 118.942C50.1676 119.044 50.4119 119.095 50.7008 119.095C51.0619 119.095 51.3806 119.019 51.6567 118.866C51.9329 118.713 52.1517 118.526 52.3131 118.305C52.4788 118.084 52.5681 117.869 52.5808 117.661L53.0843 118.228C53.0545 118.407 52.9738 118.604 52.8421 118.821C52.7104 119.038 52.5341 119.246 52.3131 119.446C52.0965 119.641 51.8373 119.805 51.5356 119.936C51.2382 120.064 50.9026 120.127 50.5287 120.127C50.0614 120.127 49.6514 120.036 49.2987 119.853C48.9503 119.671 48.6784 119.426 48.483 119.121C48.2918 118.81 48.1962 118.464 48.1962 118.082C48.1962 117.712 48.2684 117.387 48.4129 117.107C48.5573 116.822 48.7655 116.586 49.0374 116.399C49.3093 116.208 49.6365 116.064 50.0189 115.966C50.4012 115.868 50.8282 115.819 51.2998 115.819H52.67ZM56.7806 110.211V120H55.5952V110.211H56.7806ZM59.9543 110.211V120H58.769V110.211H59.9543ZM61.8407 110.211H63.0261V118.662L62.9241 120H61.8407V110.211ZM67.6847 116.495V116.629C67.6847 117.13 67.6253 117.595 67.5063 118.024C67.3873 118.449 67.2131 118.819 66.9837 119.133C66.7543 119.448 66.4739 119.692 66.1425 119.866C65.8111 120.04 65.4308 120.127 65.0017 120.127C64.5641 120.127 64.1796 120.053 63.8482 119.904C63.5211 119.751 63.2449 119.533 63.0197 119.248C62.7946 118.963 62.614 118.619 62.478 118.216C62.3463 117.812 62.255 117.357 62.204 116.852V116.265C62.255 115.756 62.3463 115.299 62.478 114.895C62.614 114.492 62.7946 114.147 63.0197 113.863C63.2449 113.574 63.5211 113.355 63.8482 113.206C64.1754 113.053 64.5556 112.977 64.989 112.977C65.4223 112.977 65.8068 113.062 66.1425 113.232C66.4781 113.398 66.7585 113.636 66.9837 113.946C67.2131 114.256 67.3873 114.628 67.5063 115.061C67.6253 115.49 67.6847 115.968 67.6847 116.495ZM66.4994 116.629V116.495C66.4994 116.151 66.4675 115.828 66.4038 115.526C66.34 115.22 66.2381 114.953 66.0979 114.723C65.9577 114.49 65.7729 114.307 65.5434 114.175C65.314 114.039 65.0315 113.971 64.6958 113.971C64.3984 113.971 64.1392 114.022 63.9183 114.124C63.7016 114.226 63.5168 114.364 63.3639 114.538C63.2109 114.708 63.0856 114.904 62.9879 115.125C62.8944 115.341 62.8243 115.567 62.7776 115.8V117.336C62.8455 117.634 62.956 117.92 63.109 118.196C63.2662 118.468 63.4743 118.691 63.7335 118.866C63.9969 119.04 64.3219 119.127 64.7086 119.127C65.0272 119.127 65.2991 119.063 65.5243 118.936C65.7537 118.804 65.9385 118.623 66.0788 118.394C66.2232 118.165 66.3294 117.899 66.3974 117.597C66.4654 117.296 66.4994 116.973 66.4994 116.629ZM73.242 118.821V115.271C73.242 114.999 73.1867 114.764 73.0763 114.564C72.9701 114.36 72.8086 114.203 72.5919 114.092C72.3753 113.982 72.1076 113.927 71.7889 113.927C71.4915 113.927 71.2302 113.978 71.0051 114.08C70.7841 114.181 70.6099 114.315 70.4825 114.481C70.3593 114.647 70.2977 114.825 70.2977 115.016H69.1187C69.1187 114.77 69.1824 114.526 69.3099 114.283C69.4373 114.041 69.62 113.822 69.8579 113.627C70.1001 113.427 70.389 113.27 70.7247 113.155C71.0645 113.036 71.4427 112.977 71.859 112.977C72.3604 112.977 72.8022 113.062 73.1846 113.232C73.5712 113.402 73.8729 113.659 74.0896 114.003C74.3105 114.343 74.421 114.77 74.421 115.284V118.496C74.421 118.725 74.4401 118.97 74.4783 119.229C74.5208 119.488 74.5824 119.711 74.6631 119.898V120H73.4332C73.3737 119.864 73.3269 119.683 73.293 119.458C73.259 119.229 73.242 119.016 73.242 118.821ZM73.4459 115.819L73.4587 116.648H72.2669C71.9313 116.648 71.6317 116.675 71.3683 116.731C71.1049 116.782 70.884 116.86 70.7055 116.966C70.5271 117.073 70.3911 117.207 70.2977 117.368C70.2042 117.525 70.1575 117.71 70.1575 117.922C70.1575 118.139 70.2063 118.337 70.304 118.515C70.4018 118.694 70.5483 118.836 70.7438 118.942C70.9435 119.044 71.1878 119.095 71.4767 119.095C71.8378 119.095 72.1564 119.019 72.4326 118.866C72.7088 118.713 72.9276 118.526 73.089 118.305C73.2547 118.084 73.3439 117.869 73.3567 117.661L73.8602 118.228C73.8304 118.407 73.7497 118.604 73.618 118.821C73.4863 119.038 73.31 119.246 73.089 119.446C72.8723 119.641 72.6132 119.805 72.3115 119.936C72.0141 120.064 71.6785 120.127 71.3046 120.127C70.8372 120.127 70.4272 120.036 70.0746 119.853C69.7262 119.671 69.4543 119.426 69.2589 119.121C69.0677 118.81 68.9721 118.464 68.9721 118.082C68.9721 117.712 69.0443 117.387 69.1888 117.107C69.3332 116.822 69.5414 116.586 69.8133 116.399C70.0852 116.208 70.4124 116.064 70.7948 115.966C71.1771 115.868 71.6041 115.819 72.0757 115.819H73.4459ZM79.035 119.159C79.3154 119.159 79.5746 119.101 79.8125 118.987C80.0504 118.872 80.2459 118.715 80.3988 118.515C80.5518 118.311 80.6389 118.08 80.6601 117.82H81.7818C81.7605 118.228 81.6224 118.609 81.3675 118.961C81.1168 119.31 80.7876 119.592 80.3797 119.809C79.9718 120.021 79.5236 120.127 79.035 120.127C78.5167 120.127 78.0642 120.036 77.6776 119.853C77.2952 119.671 76.9765 119.42 76.7216 119.101C76.4709 118.783 76.2819 118.417 76.1544 118.005C76.0312 117.589 75.9696 117.149 75.9696 116.686V116.418C75.9696 115.955 76.0312 115.518 76.1544 115.106C76.2819 114.689 76.4709 114.322 76.7216 114.003C76.9765 113.684 77.2952 113.434 77.6776 113.251C78.0642 113.068 78.5167 112.977 79.035 112.977C79.5746 112.977 80.0462 113.087 80.4498 113.308C80.8534 113.525 81.17 113.822 81.3994 114.201C81.6331 114.574 81.7605 114.999 81.7818 115.475H80.6601C80.6389 115.191 80.5581 114.933 80.4179 114.704C80.282 114.475 80.095 114.292 79.8571 114.156C79.6234 114.016 79.3494 113.946 79.035 113.946C78.6739 113.946 78.3701 114.018 78.1237 114.162C77.8815 114.303 77.6882 114.494 77.5437 114.736C77.4035 114.974 77.3016 115.239 77.2378 115.533C77.1783 115.821 77.1486 116.117 77.1486 116.418V116.686C77.1486 116.988 77.1783 117.285 77.2378 117.578C77.2973 117.871 77.3972 118.137 77.5374 118.375C77.6818 118.613 77.8751 118.804 78.1173 118.948C78.3637 119.089 78.6696 119.159 79.035 119.159ZM84.2927 110.211V120H83.1073V110.211H84.2927ZM88.5052 113.104L85.4972 116.323L83.8147 118.069L83.7191 116.814L84.9236 115.373L87.065 113.104H88.5052ZM87.4282 120L84.9682 116.712L85.58 115.66L88.8175 120H87.4282ZM93.7375 118.171C93.7375 118.001 93.6992 117.844 93.6227 117.699C93.5505 117.551 93.3997 117.417 93.1703 117.298C92.9451 117.175 92.6052 117.068 92.1506 116.979C91.7682 116.898 91.4219 116.803 91.1118 116.692C90.8059 116.582 90.5446 116.448 90.3279 116.291C90.1155 116.134 89.9519 115.949 89.8372 115.736C89.7225 115.524 89.6651 115.276 89.6651 114.991C89.6651 114.719 89.7246 114.462 89.8436 114.22C89.9668 113.978 90.1388 113.763 90.3598 113.576C90.585 113.389 90.8547 113.243 91.1691 113.136C91.4835 113.03 91.8341 112.977 92.2207 112.977C92.773 112.977 93.2446 113.075 93.6355 113.27C94.0264 113.466 94.3259 113.727 94.5341 114.054C94.7423 114.377 94.8463 114.736 94.8463 115.131H93.6673C93.6673 114.94 93.61 114.755 93.4953 114.577C93.3848 114.394 93.2212 114.243 93.0046 114.124C92.7921 114.005 92.5308 113.946 92.2207 113.946C91.8935 113.946 91.628 113.997 91.4241 114.099C91.2244 114.196 91.0778 114.322 90.9843 114.475C90.8951 114.628 90.8505 114.789 90.8505 114.959C90.8505 115.086 90.8717 115.201 90.9142 115.303C90.961 115.401 91.0417 115.492 91.1564 115.577C91.2711 115.658 91.4326 115.734 91.6407 115.807C91.8489 115.879 92.1145 115.951 92.4374 116.023C93.0024 116.151 93.4677 116.304 93.833 116.482C94.1984 116.661 94.4703 116.879 94.6488 117.139C94.8272 117.398 94.9165 117.712 94.9165 118.082C94.9165 118.383 94.8527 118.66 94.7253 118.91C94.6021 119.161 94.4215 119.378 94.1836 119.56C93.9499 119.739 93.6695 119.879 93.3423 119.981C93.0194 120.079 92.6562 120.127 92.2525 120.127C91.645 120.127 91.1309 120.019 90.7103 119.802C90.2897 119.586 89.971 119.305 89.7543 118.961C89.5377 118.617 89.4293 118.254 89.4293 117.871H90.6147C90.6317 118.194 90.7252 118.451 90.8951 118.643C91.0651 118.829 91.2732 118.963 91.5197 119.044C91.7661 119.121 92.0104 119.159 92.2525 119.159C92.5754 119.159 92.8452 119.116 93.0619 119.031C93.2828 118.946 93.4507 118.829 93.5654 118.681C93.6801 118.532 93.7375 118.362 93.7375 118.171Z" fill="#292B3F"/>
<path d="M140.512 111.543L137.44 120H136.185L139.722 110.721H140.531L140.512 111.543ZM143.087 120L140.009 111.543L139.989 110.721H140.799L144.349 120H143.087ZM142.927 116.565V117.572H137.714V116.565H142.927ZM146.592 114.43V122.651H145.407V113.104H146.49L146.592 114.43ZM151.238 116.495V116.629C151.238 117.13 151.178 117.595 151.059 118.024C150.94 118.449 150.766 118.819 150.537 119.133C150.312 119.448 150.033 119.692 149.702 119.866C149.37 120.04 148.99 120.127 148.561 120.127C148.124 120.127 147.737 120.055 147.401 119.911C147.066 119.766 146.781 119.556 146.547 119.28C146.314 119.004 146.127 118.672 145.986 118.286C145.85 117.899 145.757 117.464 145.706 116.979V116.265C145.757 115.756 145.853 115.299 145.993 114.895C146.133 114.492 146.318 114.147 146.547 113.863C146.781 113.574 147.063 113.355 147.395 113.206C147.726 113.053 148.109 112.977 148.542 112.977C148.975 112.977 149.36 113.062 149.696 113.232C150.031 113.398 150.314 113.636 150.543 113.946C150.773 114.256 150.945 114.628 151.059 115.061C151.178 115.49 151.238 115.968 151.238 116.495ZM150.052 116.629V116.495C150.052 116.151 150.016 115.828 149.944 115.526C149.872 115.22 149.759 114.953 149.606 114.723C149.458 114.49 149.266 114.307 149.033 114.175C148.799 114.039 148.521 113.971 148.198 113.971C147.9 113.971 147.641 114.022 147.42 114.124C147.204 114.226 147.019 114.364 146.866 114.538C146.713 114.708 146.588 114.904 146.49 115.125C146.396 115.341 146.326 115.567 146.28 115.8V117.451C146.365 117.748 146.484 118.029 146.636 118.292C146.789 118.551 146.993 118.762 147.248 118.923C147.503 119.08 147.824 119.159 148.211 119.159C148.529 119.159 148.803 119.093 149.033 118.961C149.266 118.825 149.458 118.64 149.606 118.407C149.759 118.173 149.872 117.905 149.944 117.604C150.016 117.298 150.052 116.973 150.052 116.629ZM153.921 114.43V122.651H152.735V113.104H153.819L153.921 114.43ZM158.567 116.495V116.629C158.567 117.13 158.507 117.595 158.388 118.024C158.269 118.449 158.095 118.819 157.866 119.133C157.64 119.448 157.362 119.692 157.031 119.866C156.699 120.04 156.319 120.127 155.89 120.127C155.452 120.127 155.066 120.055 154.73 119.911C154.395 119.766 154.11 119.556 153.876 119.28C153.643 119.004 153.456 118.672 153.315 118.286C153.179 117.899 153.086 117.464 153.035 116.979V116.265C153.086 115.756 153.182 115.299 153.322 114.895C153.462 114.492 153.647 114.147 153.876 113.863C154.11 113.574 154.392 113.355 154.724 113.206C155.055 113.053 155.438 112.977 155.871 112.977C156.304 112.977 156.689 113.062 157.024 113.232C157.36 113.398 157.643 113.636 157.872 113.946C158.101 114.256 158.274 114.628 158.388 115.061C158.507 115.49 158.567 115.968 158.567 116.495ZM157.381 116.629V116.495C157.381 116.151 157.345 115.828 157.273 115.526C157.201 115.22 157.088 114.953 156.935 114.723C156.787 114.49 156.595 114.307 156.362 114.175C156.128 114.039 155.85 113.971 155.527 113.971C155.229 113.971 154.97 114.022 154.749 114.124C154.533 114.226 154.348 114.364 154.195 114.538C154.042 114.708 153.917 114.904 153.819 115.125C153.725 115.341 153.655 115.567 153.609 115.8V117.451C153.693 117.748 153.812 118.029 153.965 118.292C154.118 118.551 154.322 118.762 154.577 118.923C154.832 119.08 155.153 119.159 155.54 119.159C155.858 119.159 156.132 119.093 156.362 118.961C156.595 118.825 156.787 118.64 156.935 118.407C157.088 118.173 157.201 117.905 157.273 117.604C157.345 117.298 157.381 116.973 157.381 116.629ZM159.758 116.629V116.482C159.758 115.985 159.831 115.524 159.975 115.099C160.12 114.67 160.328 114.298 160.6 113.984C160.872 113.665 161.201 113.419 161.587 113.245C161.974 113.066 162.407 112.977 162.888 112.977C163.372 112.977 163.807 113.066 164.194 113.245C164.585 113.419 164.916 113.665 165.188 113.984C165.464 114.298 165.675 114.67 165.819 115.099C165.964 115.524 166.036 115.985 166.036 116.482V116.629C166.036 117.126 165.964 117.587 165.819 118.012C165.675 118.436 165.464 118.808 165.188 119.127C164.916 119.441 164.587 119.688 164.2 119.866C163.818 120.04 163.385 120.127 162.9 120.127C162.416 120.127 161.98 120.04 161.594 119.866C161.207 119.688 160.876 119.441 160.6 119.127C160.328 118.808 160.12 118.436 159.975 118.012C159.831 117.587 159.758 117.126 159.758 116.629ZM160.937 116.482V116.629C160.937 116.973 160.978 117.298 161.059 117.604C161.139 117.905 161.26 118.173 161.422 118.407C161.587 118.64 161.794 118.825 162.04 118.961C162.286 119.093 162.573 119.159 162.9 119.159C163.223 119.159 163.506 119.093 163.748 118.961C163.994 118.825 164.198 118.64 164.36 118.407C164.521 118.173 164.642 117.905 164.723 117.604C164.808 117.298 164.85 116.973 164.85 116.629V116.482C164.85 116.142 164.808 115.821 164.723 115.52C164.642 115.214 164.519 114.944 164.353 114.71C164.192 114.473 163.988 114.286 163.742 114.15C163.499 114.014 163.215 113.946 162.888 113.946C162.565 113.946 162.28 114.014 162.034 114.15C161.791 114.286 161.587 114.473 161.422 114.71C161.26 114.944 161.139 115.214 161.059 115.52C160.978 115.821 160.937 116.142 160.937 116.482ZM168.795 113.104V120H167.61V113.104H168.795ZM167.521 111.275C167.521 111.084 167.578 110.923 167.693 110.791C167.812 110.659 167.986 110.593 168.215 110.593C168.441 110.593 168.613 110.659 168.732 110.791C168.855 110.923 168.916 111.084 168.916 111.275C168.916 111.458 168.855 111.615 168.732 111.747C168.613 111.874 168.441 111.938 168.215 111.938C167.986 111.938 167.812 111.874 167.693 111.747C167.578 111.615 167.521 111.458 167.521 111.275ZM171.867 114.577V120H170.688V113.104H171.803L171.867 114.577ZM171.587 116.291L171.096 116.272C171.1 115.8 171.17 115.365 171.306 114.965C171.442 114.562 171.633 114.211 171.88 113.914C172.126 113.616 172.419 113.387 172.759 113.226C173.103 113.06 173.484 112.977 173.9 112.977C174.24 112.977 174.546 113.024 174.818 113.117C175.09 113.206 175.321 113.351 175.512 113.551C175.708 113.75 175.857 114.009 175.959 114.328C176.06 114.642 176.111 115.027 176.111 115.482V120H174.926V115.469C174.926 115.108 174.873 114.819 174.767 114.602C174.661 114.381 174.505 114.222 174.302 114.124C174.098 114.022 173.847 113.971 173.55 113.971C173.256 113.971 172.989 114.033 172.747 114.156C172.509 114.279 172.303 114.449 172.128 114.666C171.958 114.883 171.825 115.131 171.727 115.411C171.633 115.688 171.587 115.981 171.587 116.291ZM180.789 113.104V114.009H177.061V113.104H180.789ZM178.323 111.428H179.502V118.292C179.502 118.526 179.538 118.702 179.61 118.821C179.682 118.94 179.776 119.019 179.891 119.057C180.005 119.095 180.129 119.114 180.26 119.114C180.358 119.114 180.46 119.106 180.566 119.089C180.677 119.067 180.76 119.05 180.815 119.038L180.821 120C180.728 120.03 180.604 120.057 180.451 120.083C180.303 120.113 180.122 120.127 179.91 120.127C179.621 120.127 179.355 120.07 179.113 119.955C178.871 119.841 178.678 119.649 178.533 119.382C178.393 119.11 178.323 118.745 178.323 118.286V111.428ZM183.345 114.475V120H182.159V113.104H183.281L183.345 114.475ZM183.103 116.291L182.555 116.272C182.559 115.8 182.62 115.365 182.739 114.965C182.858 114.562 183.035 114.211 183.268 113.914C183.502 113.616 183.793 113.387 184.141 113.226C184.49 113.06 184.893 112.977 185.352 112.977C185.675 112.977 185.973 113.024 186.245 113.117C186.516 113.206 186.752 113.349 186.952 113.544C187.152 113.74 187.307 113.99 187.417 114.296C187.528 114.602 187.583 114.972 187.583 115.405V120H186.404V115.462C186.404 115.101 186.342 114.812 186.219 114.596C186.1 114.379 185.93 114.222 185.709 114.124C185.488 114.022 185.229 113.971 184.932 113.971C184.583 113.971 184.292 114.033 184.059 114.156C183.825 114.279 183.638 114.449 183.498 114.666C183.358 114.883 183.256 115.131 183.192 115.411C183.132 115.688 183.103 115.981 183.103 116.291ZM187.57 115.641L186.78 115.883C186.784 115.505 186.846 115.142 186.965 114.793C187.088 114.445 187.264 114.135 187.494 113.863C187.727 113.591 188.014 113.376 188.354 113.219C188.694 113.058 189.083 112.977 189.52 112.977C189.89 112.977 190.217 113.026 190.502 113.124C190.791 113.221 191.033 113.372 191.228 113.576C191.428 113.776 191.579 114.033 191.681 114.347C191.783 114.662 191.834 115.035 191.834 115.469V120H190.648V115.456C190.648 115.069 190.587 114.77 190.463 114.557C190.344 114.341 190.175 114.19 189.954 114.105C189.737 114.016 189.478 113.971 189.176 113.971C188.917 113.971 188.687 114.016 188.488 114.105C188.288 114.194 188.12 114.317 187.984 114.475C187.848 114.628 187.744 114.804 187.672 115.004C187.604 115.203 187.57 115.416 187.57 115.641ZM196.479 120.127C195.999 120.127 195.564 120.047 195.173 119.885C194.786 119.72 194.453 119.488 194.172 119.191C193.896 118.893 193.684 118.541 193.535 118.133C193.386 117.725 193.312 117.279 193.312 116.794V116.527C193.312 115.966 193.395 115.467 193.561 115.029C193.726 114.587 193.952 114.213 194.236 113.907C194.521 113.602 194.844 113.37 195.205 113.213C195.566 113.056 195.94 112.977 196.327 112.977C196.819 112.977 197.244 113.062 197.601 113.232C197.962 113.402 198.258 113.64 198.487 113.946C198.716 114.247 198.886 114.604 198.997 115.016C199.107 115.424 199.163 115.87 199.163 116.355V116.884H194.013V115.921H197.984V115.832C197.967 115.526 197.903 115.229 197.792 114.94C197.686 114.651 197.516 114.413 197.282 114.226C197.049 114.039 196.73 113.946 196.327 113.946C196.059 113.946 195.812 114.003 195.587 114.118C195.362 114.228 195.169 114.394 195.007 114.615C194.846 114.836 194.721 115.106 194.631 115.424C194.542 115.743 194.498 116.11 194.498 116.527V116.794C194.498 117.122 194.542 117.43 194.631 117.718C194.725 118.003 194.859 118.254 195.033 118.47C195.211 118.687 195.426 118.857 195.677 118.98C195.931 119.104 196.22 119.165 196.543 119.165C196.96 119.165 197.312 119.08 197.601 118.91C197.89 118.74 198.143 118.513 198.36 118.228L199.073 118.796C198.925 119.021 198.736 119.235 198.506 119.439C198.277 119.643 197.994 119.809 197.658 119.936C197.327 120.064 196.934 120.127 196.479 120.127ZM201.718 114.577V120H200.539V113.104H201.654L201.718 114.577ZM201.438 116.291L200.947 116.272C200.951 115.8 201.021 115.365 201.157 114.965C201.293 114.562 201.484 114.211 201.731 113.914C201.977 113.616 202.27 113.387 202.61 113.226C202.954 113.06 203.335 112.977 203.751 112.977C204.091 112.977 204.397 113.024 204.669 113.117C204.941 113.206 205.172 113.351 205.363 113.551C205.559 113.75 205.708 114.009 205.81 114.328C205.911 114.642 205.962 115.027 205.962 115.482V120H204.777V115.469C204.777 115.108 204.724 114.819 204.618 114.602C204.512 114.381 204.356 114.222 204.153 114.124C203.949 114.022 203.698 113.971 203.401 113.971C203.107 113.971 202.84 114.033 202.598 114.156C202.36 114.279 202.154 114.449 201.979 114.666C201.809 114.883 201.676 115.131 201.578 115.411C201.484 115.688 201.438 115.981 201.438 116.291ZM210.64 113.104V114.009H206.912V113.104H210.64ZM208.174 111.428H209.353V118.292C209.353 118.526 209.389 118.702 209.461 118.821C209.533 118.94 209.627 119.019 209.742 119.057C209.856 119.095 209.98 119.114 210.111 119.114C210.209 119.114 210.311 119.106 210.417 119.089C210.528 119.067 210.611 119.05 210.666 119.038L210.672 120C210.579 120.03 210.455 120.057 210.302 120.083C210.154 120.113 209.973 120.127 209.761 120.127C209.472 120.127 209.206 120.07 208.964 119.955C208.722 119.841 208.529 119.649 208.384 119.382C208.244 119.11 208.174 118.745 208.174 118.286V111.428ZM216.669 110.721V120H215.439V110.721H216.669ZM220.557 114.895V115.902H216.401V114.895H220.557ZM221.188 110.721V111.728H216.401V110.721H221.188ZM223.756 113.104V120H222.57V113.104H223.756ZM222.481 111.275C222.481 111.084 222.539 110.923 222.653 110.791C222.772 110.659 222.946 110.593 223.176 110.593C223.401 110.593 223.573 110.659 223.692 110.791C223.815 110.923 223.877 111.084 223.877 111.275C223.877 111.458 223.815 111.615 223.692 111.747C223.573 111.874 223.401 111.938 223.176 111.938C222.946 111.938 222.772 111.874 222.653 111.747C222.539 111.615 222.481 111.458 222.481 111.275ZM226.445 113.104L227.956 115.615L229.485 113.104H230.868L228.612 116.508L230.938 120H229.574L227.981 117.413L226.388 120H225.018L227.337 116.508L225.088 113.104H226.445Z" fill="#292B3F"/>
<path d="M272.077 110.721H275.149C275.846 110.721 276.434 110.827 276.914 111.04C277.398 111.252 277.766 111.566 278.017 111.983C278.272 112.395 278.399 112.903 278.399 113.506C278.399 113.931 278.312 114.32 278.138 114.672C277.968 115.021 277.721 115.318 277.398 115.564C277.08 115.807 276.697 115.987 276.251 116.106L275.907 116.24H273.02L273.007 115.239H275.187C275.629 115.239 275.996 115.163 276.29 115.01C276.583 114.853 276.804 114.642 276.952 114.379C277.101 114.116 277.175 113.825 277.175 113.506C277.175 113.149 277.105 112.837 276.965 112.569C276.825 112.301 276.604 112.095 276.302 111.951C276.005 111.802 275.62 111.728 275.149 111.728H273.307V120H272.077V110.721ZM277.5 120L275.244 115.794L276.525 115.787L278.813 119.924V120H277.5ZM281.222 113.104V120H280.037V113.104H281.222ZM279.948 111.275C279.948 111.084 280.005 110.923 280.12 110.791C280.239 110.659 280.413 110.593 280.642 110.593C280.867 110.593 281.04 110.659 281.159 110.791C281.282 110.923 281.343 111.084 281.343 111.275C281.343 111.458 281.282 111.615 281.159 111.747C281.04 111.874 280.867 111.938 280.642 111.938C280.413 111.938 280.239 111.874 280.12 111.747C280.005 111.615 279.948 111.458 279.948 111.275ZM284.294 114.577V120H283.115V113.104H284.23L284.294 114.577ZM284.014 116.291L283.523 116.272C283.527 115.8 283.597 115.365 283.733 114.965C283.869 114.562 284.06 114.211 284.307 113.914C284.553 113.616 284.846 113.387 285.186 113.226C285.53 113.06 285.911 112.977 286.327 112.977C286.667 112.977 286.973 113.024 287.245 113.117C287.517 113.206 287.748 113.351 287.939 113.551C288.135 113.75 288.283 114.009 288.385 114.328C288.487 114.642 288.538 115.027 288.538 115.482V120H287.353V115.469C287.353 115.108 287.3 114.819 287.194 114.602C287.088 114.381 286.932 114.222 286.728 114.124C286.525 114.022 286.274 113.971 285.976 113.971C285.683 113.971 285.416 114.033 285.173 114.156C284.936 114.279 284.73 114.449 284.555 114.666C284.385 114.883 284.252 115.131 284.154 115.411C284.06 115.688 284.014 115.981 284.014 116.291ZM294.797 113.104H295.867V119.853C295.867 120.461 295.744 120.979 295.498 121.408C295.251 121.838 294.907 122.163 294.465 122.383C294.028 122.609 293.522 122.721 292.949 122.721C292.711 122.721 292.43 122.683 292.107 122.607C291.789 122.534 291.474 122.409 291.164 122.231C290.858 122.056 290.601 121.821 290.393 121.523L291.011 120.822C291.3 121.171 291.602 121.413 291.916 121.549C292.235 121.685 292.549 121.753 292.859 121.753C293.233 121.753 293.556 121.682 293.828 121.542C294.1 121.402 294.31 121.194 294.459 120.918C294.612 120.646 294.688 120.31 294.688 119.911V114.621L294.797 113.104ZM290.049 116.629V116.495C290.049 115.968 290.11 115.49 290.234 115.061C290.361 114.628 290.542 114.256 290.775 113.946C291.013 113.636 291.3 113.398 291.636 113.232C291.971 113.062 292.349 112.977 292.77 112.977C293.203 112.977 293.582 113.053 293.904 113.206C294.232 113.355 294.508 113.574 294.733 113.863C294.962 114.147 295.143 114.492 295.275 114.895C295.406 115.299 295.498 115.756 295.549 116.265V116.852C295.502 117.357 295.411 117.812 295.275 118.216C295.143 118.619 294.962 118.963 294.733 119.248C294.508 119.533 294.232 119.751 293.904 119.904C293.577 120.053 293.195 120.127 292.757 120.127C292.345 120.127 291.971 120.04 291.636 119.866C291.304 119.692 291.02 119.448 290.782 119.133C290.544 118.819 290.361 118.449 290.234 118.024C290.11 117.595 290.049 117.13 290.049 116.629ZM291.228 116.495V116.629C291.228 116.973 291.262 117.296 291.33 117.597C291.402 117.899 291.51 118.165 291.655 118.394C291.804 118.623 291.993 118.804 292.222 118.936C292.451 119.063 292.725 119.127 293.044 119.127C293.435 119.127 293.758 119.044 294.013 118.878C294.268 118.713 294.47 118.494 294.618 118.222C294.771 117.95 294.89 117.655 294.975 117.336V115.8C294.928 115.567 294.856 115.341 294.758 115.125C294.665 114.904 294.542 114.708 294.389 114.538C294.24 114.364 294.055 114.226 293.834 114.124C293.613 114.022 293.354 113.971 293.057 113.971C292.734 113.971 292.456 114.039 292.222 114.175C291.993 114.307 291.804 114.49 291.655 114.723C291.51 114.953 291.402 115.22 291.33 115.526C291.262 115.828 291.228 116.151 291.228 116.495ZM298.939 113.104V120H297.754V113.104H298.939ZM297.665 111.275C297.665 111.084 297.722 110.923 297.837 110.791C297.956 110.659 298.13 110.593 298.359 110.593C298.584 110.593 298.756 110.659 298.875 110.791C298.999 110.923 299.06 111.084 299.06 111.275C299.06 111.458 298.999 111.615 298.875 111.747C298.756 111.874 298.584 111.938 298.359 111.938C298.13 111.938 297.956 111.874 297.837 111.747C297.722 111.615 297.665 111.458 297.665 111.275ZM302.011 114.577V120H300.832V113.104H301.947L302.011 114.577ZM301.73 116.291L301.24 116.272C301.244 115.8 301.314 115.365 301.45 114.965C301.586 114.562 301.777 114.211 302.024 113.914C302.27 113.616 302.563 113.387 302.903 113.226C303.247 113.06 303.627 112.977 304.044 112.977C304.384 112.977 304.69 113.024 304.962 113.117C305.233 113.206 305.465 113.351 305.656 113.551C305.852 113.75 306 114.009 306.102 114.328C306.204 114.642 306.255 115.027 306.255 115.482V120H305.07V115.469C305.07 115.108 305.017 114.819 304.911 114.602C304.804 114.381 304.649 114.222 304.445 114.124C304.241 114.022 303.991 113.971 303.693 113.971C303.4 113.971 303.133 114.033 302.89 114.156C302.652 114.279 302.446 114.449 302.272 114.666C302.102 114.883 301.968 115.131 301.871 115.411C301.777 115.688 301.73 115.981 301.73 116.291ZM312.514 113.104H313.584V119.853C313.584 120.461 313.461 120.979 313.215 121.408C312.968 121.838 312.624 122.163 312.182 122.383C311.745 122.609 311.239 122.721 310.665 122.721C310.427 122.721 310.147 122.683 309.824 122.607C309.505 122.534 309.191 122.409 308.881 122.231C308.575 122.056 308.318 121.821 308.11 121.523L308.728 120.822C309.017 121.171 309.319 121.413 309.633 121.549C309.952 121.685 310.266 121.753 310.576 121.753C310.95 121.753 311.273 121.682 311.545 121.542C311.817 121.402 312.027 121.194 312.176 120.918C312.329 120.646 312.405 120.31 312.405 119.911V114.621L312.514 113.104ZM307.766 116.629V116.495C307.766 115.968 307.827 115.49 307.95 115.061C308.078 114.628 308.259 114.256 308.492 113.946C308.73 113.636 309.017 113.398 309.353 113.232C309.688 113.062 310.066 112.977 310.487 112.977C310.92 112.977 311.298 113.053 311.621 113.206C311.948 113.355 312.225 113.574 312.45 113.863C312.679 114.147 312.86 114.492 312.992 114.895C313.123 115.299 313.215 115.756 313.266 116.265V116.852C313.219 117.357 313.127 117.812 312.992 118.216C312.86 118.619 312.679 118.963 312.45 119.248C312.225 119.533 311.948 119.751 311.621 119.904C311.294 120.053 310.912 120.127 310.474 120.127C310.062 120.127 309.688 120.04 309.353 119.866C309.021 119.692 308.736 119.448 308.499 119.133C308.261 118.819 308.078 118.449 307.95 118.024C307.827 117.595 307.766 117.13 307.766 116.629ZM308.945 116.495V116.629C308.945 116.973 308.979 117.296 309.047 117.597C309.119 117.899 309.227 118.165 309.372 118.394C309.52 118.623 309.709 118.804 309.939 118.936C310.168 119.063 310.442 119.127 310.761 119.127C311.152 119.127 311.475 119.044 311.73 118.878C311.985 118.713 312.186 118.494 312.335 118.222C312.488 117.95 312.607 117.655 312.692 117.336V115.8C312.645 115.567 312.573 115.341 312.475 115.125C312.382 114.904 312.259 114.708 312.106 114.538C311.957 114.364 311.772 114.226 311.551 114.124C311.33 114.022 311.071 113.971 310.774 113.971C310.451 113.971 310.173 114.039 309.939 114.175C309.709 114.307 309.52 114.49 309.372 114.723C309.227 114.953 309.119 115.22 309.047 115.526C308.979 115.828 308.945 116.151 308.945 116.495Z" fill="#292B3F"/>
<path d="M372.215 110.721V120H370.978L366.307 112.843V120H365.077V110.721H366.307L370.998 117.897V110.721H372.215ZM373.904 116.629V116.482C373.904 115.985 373.976 115.524 374.12 115.099C374.265 114.67 374.473 114.298 374.745 113.984C375.017 113.665 375.346 113.419 375.733 113.245C376.119 113.066 376.553 112.977 377.033 112.977C377.517 112.977 377.953 113.066 378.339 113.245C378.73 113.419 379.061 113.665 379.333 113.984C379.61 114.298 379.82 114.67 379.964 115.099C380.109 115.524 380.181 115.985 380.181 116.482V116.629C380.181 117.126 380.109 117.587 379.964 118.012C379.82 118.436 379.61 118.808 379.333 119.127C379.061 119.441 378.732 119.688 378.346 119.866C377.963 120.04 377.53 120.127 377.045 120.127C376.561 120.127 376.126 120.04 375.739 119.866C375.352 119.688 375.021 119.441 374.745 119.127C374.473 118.808 374.265 118.436 374.12 118.012C373.976 117.587 373.904 117.126 373.904 116.629ZM375.083 116.482V116.629C375.083 116.973 375.123 117.298 375.204 117.604C375.284 117.905 375.405 118.173 375.567 118.407C375.733 118.64 375.939 118.825 376.185 118.961C376.432 119.093 376.718 119.159 377.045 119.159C377.368 119.159 377.651 119.093 377.893 118.961C378.139 118.825 378.343 118.64 378.505 118.407C378.666 118.173 378.787 117.905 378.868 117.604C378.953 117.298 378.996 116.973 378.996 116.629V116.482C378.996 116.142 378.953 115.821 378.868 115.52C378.787 115.214 378.664 114.944 378.499 114.71C378.337 114.473 378.133 114.286 377.887 114.15C377.645 114.014 377.36 113.946 377.033 113.946C376.71 113.946 376.425 114.014 376.179 114.15C375.937 114.286 375.733 114.473 375.567 114.71C375.405 114.944 375.284 115.214 375.204 115.52C375.123 115.821 375.083 116.142 375.083 116.482ZM384.546 113.104V114.009H380.818V113.104H384.546ZM382.08 111.428H383.259V118.292C383.259 118.526 383.295 118.702 383.367 118.821C383.44 118.94 383.533 119.019 383.648 119.057C383.763 119.095 383.886 119.114 384.018 119.114C384.115 119.114 384.217 119.106 384.323 119.089C384.434 119.067 384.517 119.05 384.572 119.038L384.578 120C384.485 120.03 384.362 120.057 384.209 120.083C384.06 120.113 383.879 120.127 383.667 120.127C383.378 120.127 383.113 120.07 382.87 119.955C382.628 119.841 382.435 119.649 382.29 119.382C382.15 119.11 382.08 118.745 382.08 118.286V111.428ZM388.383 115.571V116.539H385.273V115.571H388.383ZM391.034 110.721V120H389.804V110.721H391.034ZM394.272 114.577V120H393.093V113.104H394.208L394.272 114.577ZM393.991 116.291L393.5 116.272C393.505 115.8 393.575 115.365 393.711 114.965C393.847 114.562 394.038 114.211 394.284 113.914C394.531 113.616 394.824 113.387 395.164 113.226C395.508 113.06 395.888 112.977 396.305 112.977C396.644 112.977 396.95 113.024 397.222 113.117C397.494 113.206 397.726 113.351 397.917 113.551C398.112 113.75 398.261 114.009 398.363 114.328C398.465 114.642 398.516 115.027 398.516 115.482V120H397.331V115.469C397.331 115.108 397.278 114.819 397.171 114.602C397.065 114.381 396.91 114.222 396.706 114.124C396.502 114.022 396.251 113.971 395.954 113.971C395.661 113.971 395.393 114.033 395.151 114.156C394.913 114.279 394.707 114.449 394.533 114.666C394.363 114.883 394.229 115.131 394.131 115.411C394.038 115.688 393.991 115.981 393.991 116.291ZM403.194 113.104V114.009H399.466V113.104H403.194ZM400.727 111.428H401.906V118.292C401.906 118.526 401.943 118.702 402.015 118.821C402.087 118.94 402.18 119.019 402.295 119.057C402.41 119.095 402.533 119.114 402.665 119.114C402.763 119.114 402.865 119.106 402.971 119.089C403.081 119.067 403.164 119.05 403.219 119.038L403.226 120C403.132 120.03 403.009 120.057 402.856 120.083C402.707 120.113 402.527 120.127 402.314 120.127C402.025 120.127 401.76 120.07 401.518 119.955C401.276 119.841 401.082 119.649 400.938 119.382C400.798 119.11 400.727 118.745 400.727 118.286V111.428ZM407.438 120.127C406.958 120.127 406.523 120.047 406.132 119.885C405.745 119.72 405.412 119.488 405.131 119.191C404.855 118.893 404.643 118.541 404.494 118.133C404.345 117.725 404.271 117.279 404.271 116.794V116.527C404.271 115.966 404.354 115.467 404.519 115.029C404.685 114.587 404.91 114.213 405.195 113.907C405.48 113.602 405.802 113.37 406.164 113.213C406.525 113.056 406.899 112.977 407.285 112.977C407.778 112.977 408.203 113.062 408.56 113.232C408.921 113.402 409.216 113.64 409.446 113.946C409.675 114.247 409.845 114.604 409.955 115.016C410.066 115.424 410.121 115.87 410.121 116.355V116.884H404.972V115.921H408.942V115.832C408.925 115.526 408.861 115.229 408.751 114.94C408.645 114.651 408.475 114.413 408.241 114.226C408.007 114.039 407.689 113.946 407.285 113.946C407.018 113.946 406.771 114.003 406.546 114.118C406.321 114.228 406.127 114.394 405.966 114.615C405.805 114.836 405.679 115.106 405.59 115.424C405.501 115.743 405.456 116.11 405.456 116.527V116.794C405.456 117.122 405.501 117.43 405.59 117.718C405.683 118.003 405.817 118.254 405.992 118.47C406.17 118.687 406.385 118.857 406.635 118.98C406.89 119.104 407.179 119.165 407.502 119.165C407.918 119.165 408.271 119.08 408.56 118.91C408.849 118.74 409.102 118.513 409.318 118.228L410.032 118.796C409.883 119.021 409.694 119.235 409.465 119.439C409.235 119.643 408.953 119.809 408.617 119.936C408.286 120.064 407.893 120.127 407.438 120.127ZM412.677 114.188V120H411.498V113.104H412.645L412.677 114.188ZM414.831 113.066L414.824 114.162C414.727 114.141 414.633 114.128 414.544 114.124C414.459 114.116 414.361 114.111 414.251 114.111C413.979 114.111 413.739 114.154 413.531 114.239C413.323 114.324 413.146 114.443 413.002 114.596C412.857 114.749 412.743 114.931 412.658 115.144C412.577 115.352 412.524 115.581 412.498 115.832L412.167 116.023C412.167 115.607 412.207 115.216 412.288 114.851C412.373 114.485 412.503 114.162 412.677 113.882C412.851 113.597 413.072 113.376 413.34 113.219C413.611 113.058 413.934 112.977 414.308 112.977C414.393 112.977 414.491 112.988 414.601 113.009C414.712 113.026 414.788 113.045 414.831 113.066ZM418.655 120.127C418.175 120.127 417.739 120.047 417.348 119.885C416.962 119.72 416.628 119.488 416.348 119.191C416.071 118.893 415.859 118.541 415.71 118.133C415.562 117.725 415.487 117.279 415.487 116.794V116.527C415.487 115.966 415.57 115.467 415.736 115.029C415.901 114.587 416.127 114.213 416.411 113.907C416.696 113.602 417.019 113.37 417.38 113.213C417.741 113.056 418.115 112.977 418.502 112.977C418.994 112.977 419.419 113.062 419.776 113.232C420.137 113.402 420.433 113.64 420.662 113.946C420.892 114.247 421.061 114.604 421.172 115.016C421.282 115.424 421.338 115.87 421.338 116.355V116.884H416.188V115.921H420.159V115.832C420.142 115.526 420.078 115.229 419.967 114.94C419.861 114.651 419.691 114.413 419.458 114.226C419.224 114.039 418.905 113.946 418.502 113.946C418.234 113.946 417.988 114.003 417.762 114.118C417.537 114.228 417.344 114.394 417.182 114.615C417.021 114.836 416.896 115.106 416.806 115.424C416.717 115.743 416.673 116.11 416.673 116.527V116.794C416.673 117.122 416.717 117.43 416.806 117.718C416.9 118.003 417.034 118.254 417.208 118.47C417.386 118.687 417.601 118.857 417.852 118.98C418.107 119.104 418.395 119.165 418.718 119.165C419.135 119.165 419.487 119.08 419.776 118.91C420.065 118.74 420.318 118.513 420.535 118.228L421.248 118.796C421.1 119.021 420.911 119.235 420.681 119.439C420.452 119.643 420.169 119.809 419.834 119.936C419.502 120.064 419.109 120.127 418.655 120.127ZM426.729 118.171C426.729 118.001 426.691 117.844 426.614 117.699C426.542 117.551 426.391 117.417 426.162 117.298C425.937 117.175 425.597 117.068 425.142 116.979C424.76 116.898 424.414 116.803 424.103 116.692C423.798 116.582 423.536 116.448 423.32 116.291C423.107 116.134 422.944 115.949 422.829 115.736C422.714 115.524 422.657 115.276 422.657 114.991C422.657 114.719 422.716 114.462 422.835 114.22C422.958 113.978 423.131 113.763 423.351 113.576C423.577 113.389 423.846 113.243 424.161 113.136C424.475 113.03 424.826 112.977 425.212 112.977C425.765 112.977 426.236 113.075 426.627 113.27C427.018 113.466 427.318 113.727 427.526 114.054C427.734 114.377 427.838 114.736 427.838 115.131H426.659C426.659 114.94 426.602 114.755 426.487 114.577C426.377 114.394 426.213 114.243 425.996 114.124C425.784 114.005 425.523 113.946 425.212 113.946C424.885 113.946 424.62 113.997 424.416 114.099C424.216 114.196 424.07 114.322 423.976 114.475C423.887 114.628 423.842 114.789 423.842 114.959C423.842 115.086 423.863 115.201 423.906 115.303C423.953 115.401 424.033 115.492 424.148 115.577C424.263 115.658 424.424 115.734 424.632 115.807C424.841 115.879 425.106 115.951 425.429 116.023C425.994 116.151 426.459 116.304 426.825 116.482C427.19 116.661 427.462 116.879 427.64 117.139C427.819 117.398 427.908 117.712 427.908 118.082C427.908 118.383 427.844 118.66 427.717 118.91C427.594 119.161 427.413 119.378 427.175 119.56C426.942 119.739 426.661 119.879 426.334 119.981C426.011 120.079 425.648 120.127 425.244 120.127C424.637 120.127 424.123 120.019 423.702 119.802C423.281 119.586 422.963 119.305 422.746 118.961C422.529 118.617 422.421 118.254 422.421 117.871H423.606C423.623 118.194 423.717 118.451 423.887 118.643C424.057 118.829 424.265 118.963 424.511 119.044C424.758 119.121 425.002 119.159 425.244 119.159C425.567 119.159 425.837 119.116 426.054 119.031C426.275 118.946 426.442 118.829 426.557 118.681C426.672 118.532 426.729 118.362 426.729 118.171ZM432.344 113.104V114.009H428.616V113.104H432.344ZM429.877 111.428H431.056V118.292C431.056 118.526 431.093 118.702 431.165 118.821C431.237 118.94 431.33 119.019 431.445 119.057C431.56 119.095 431.683 119.114 431.815 119.114C431.913 119.114 432.014 119.106 432.121 119.089C432.231 119.067 432.314 119.05 432.369 119.038L432.376 120C432.282 120.03 432.159 120.057 432.006 120.083C431.857 120.113 431.677 120.127 431.464 120.127C431.175 120.127 430.91 120.07 430.668 119.955C430.425 119.841 430.232 119.649 430.088 119.382C429.948 119.11 429.877 118.745 429.877 118.286V111.428ZM436.588 120.127C436.108 120.127 435.673 120.047 435.282 119.885C434.895 119.72 434.562 119.488 434.281 119.191C434.005 118.893 433.793 118.541 433.644 118.133C433.495 117.725 433.421 117.279 433.421 116.794V116.527C433.421 115.966 433.504 115.467 433.669 115.029C433.835 114.587 434.06 114.213 434.345 113.907C434.63 113.602 434.952 113.37 435.314 113.213C435.675 113.056 436.049 112.977 436.435 112.977C436.928 112.977 437.353 113.062 437.71 113.232C438.071 113.402 438.366 113.64 438.596 113.946C438.825 114.247 438.995 114.604 439.105 115.016C439.216 115.424 439.271 115.87 439.271 116.355V116.884H434.122V115.921H438.092V115.832C438.075 115.526 438.011 115.229 437.901 114.94C437.795 114.651 437.625 114.413 437.391 114.226C437.157 114.039 436.839 113.946 436.435 113.946C436.168 113.946 435.921 114.003 435.696 114.118C435.471 114.228 435.277 114.394 435.116 114.615C434.955 114.836 434.829 115.106 434.74 115.424C434.651 115.743 434.606 116.11 434.606 116.527V116.794C434.606 117.122 434.651 117.43 434.74 117.718C434.833 118.003 434.967 118.254 435.141 118.47C435.32 118.687 435.534 118.857 435.785 118.98C436.04 119.104 436.329 119.165 436.652 119.165C437.068 119.165 437.421 119.08 437.71 118.91C437.999 118.74 438.251 118.513 438.468 118.228L439.182 118.796C439.033 119.021 438.844 119.235 438.615 119.439C438.385 119.643 438.103 119.809 437.767 119.936C437.436 120.064 437.043 120.127 436.588 120.127ZM444.994 118.662V110.211H446.179V120H445.096L444.994 118.662ZM440.355 116.629V116.495C440.355 115.968 440.418 115.49 440.546 115.061C440.677 114.628 440.862 114.256 441.1 113.946C441.342 113.636 441.629 113.398 441.961 113.232C442.296 113.062 442.67 112.977 443.082 112.977C443.516 112.977 443.894 113.053 444.217 113.206C444.544 113.355 444.82 113.574 445.045 113.863C445.275 114.147 445.455 114.492 445.587 114.895C445.718 115.299 445.81 115.756 445.861 116.265V116.852C445.814 117.357 445.723 117.812 445.587 118.216C445.455 118.619 445.275 118.963 445.045 119.248C444.82 119.533 444.544 119.751 444.217 119.904C443.889 120.053 443.507 120.127 443.069 120.127C442.666 120.127 442.296 120.04 441.961 119.866C441.629 119.692 441.342 119.448 441.1 119.133C440.862 118.819 440.677 118.449 440.546 118.024C440.418 117.595 440.355 117.13 440.355 116.629ZM441.54 116.495V116.629C441.54 116.973 441.574 117.296 441.642 117.597C441.714 117.899 441.825 118.165 441.973 118.394C442.122 118.623 442.311 118.804 442.54 118.936C442.77 119.063 443.044 119.127 443.363 119.127C443.753 119.127 444.074 119.044 444.325 118.878C444.58 118.713 444.784 118.494 444.937 118.222C445.09 117.95 445.209 117.655 445.294 117.336V115.8C445.243 115.567 445.168 115.341 445.071 115.125C444.977 114.904 444.854 114.708 444.701 114.538C444.552 114.364 444.367 114.226 444.146 114.124C443.93 114.022 443.673 113.971 443.375 113.971C443.052 113.971 442.774 114.039 442.54 114.175C442.311 114.307 442.122 114.49 441.973 114.723C441.825 114.953 441.714 115.22 441.642 115.526C441.574 115.828 441.54 116.151 441.54 116.495Z" fill="#292B3F"/>
<path d="M510.072 118.592L512.806 110.721H514.138L510.703 120H509.754L510.072 118.592ZM507.517 110.721L510.225 118.592L510.563 120H509.613L506.185 110.721H507.517ZM516.49 113.104V120H515.305V113.104H516.49ZM515.215 111.275C515.215 111.084 515.273 110.923 515.387 110.791C515.506 110.659 515.681 110.593 515.91 110.593C516.135 110.593 516.307 110.659 516.426 110.791C516.549 110.923 516.611 111.084 516.611 111.275C516.611 111.458 516.549 111.615 516.426 111.747C516.307 111.874 516.135 111.938 515.91 111.938C515.681 111.938 515.506 111.874 515.387 111.747C515.273 111.615 515.215 111.458 515.215 111.275ZM522.398 118.171C522.398 118.001 522.359 117.844 522.283 117.699C522.211 117.551 522.06 117.417 521.83 117.298C521.605 117.175 521.265 117.068 520.811 116.979C520.428 116.898 520.082 116.803 519.772 116.692C519.466 116.582 519.205 116.448 518.988 116.291C518.776 116.134 518.612 115.949 518.497 115.736C518.383 115.524 518.325 115.276 518.325 114.991C518.325 114.719 518.385 114.462 518.504 114.22C518.627 113.978 518.799 113.763 519.02 113.576C519.245 113.389 519.515 113.243 519.829 113.136C520.144 113.03 520.494 112.977 520.881 112.977C521.433 112.977 521.905 113.075 522.296 113.27C522.687 113.466 522.986 113.727 523.194 114.054C523.402 114.377 523.507 114.736 523.507 115.131H522.328C522.328 114.94 522.27 114.755 522.155 114.577C522.045 114.394 521.881 114.243 521.665 114.124C521.452 114.005 521.191 113.946 520.881 113.946C520.554 113.946 520.288 113.997 520.084 114.099C519.885 114.196 519.738 114.322 519.645 114.475C519.555 114.628 519.511 114.789 519.511 114.959C519.511 115.086 519.532 115.201 519.574 115.303C519.621 115.401 519.702 115.492 519.817 115.577C519.931 115.658 520.093 115.734 520.301 115.807C520.509 115.879 520.775 115.951 521.098 116.023C521.663 116.151 522.128 116.304 522.493 116.482C522.859 116.661 523.131 116.879 523.309 117.139C523.487 117.398 523.577 117.712 523.577 118.082C523.577 118.383 523.513 118.66 523.385 118.91C523.262 119.161 523.082 119.378 522.844 119.56C522.61 119.739 522.33 119.879 522.003 119.981C521.68 120.079 521.316 120.127 520.913 120.127C520.305 120.127 519.791 120.019 519.37 119.802C518.95 119.586 518.631 119.305 518.415 118.961C518.198 118.617 518.09 118.254 518.09 117.871H519.275C519.292 118.194 519.385 118.451 519.555 118.643C519.725 118.829 519.933 118.963 520.18 119.044C520.426 119.121 520.671 119.159 520.913 119.159C521.236 119.159 521.505 119.116 521.722 119.031C521.943 118.946 522.111 118.829 522.226 118.681C522.34 118.532 522.398 118.362 522.398 118.171ZM526.406 113.104V120H525.221V113.104H526.406ZM525.132 111.275C525.132 111.084 525.189 110.923 525.304 110.791C525.423 110.659 525.597 110.593 525.826 110.593C526.051 110.593 526.224 110.659 526.343 110.791C526.466 110.923 526.527 111.084 526.527 111.275C526.527 111.458 526.466 111.615 526.343 111.747C526.224 111.874 526.051 111.938 525.826 111.938C525.597 111.938 525.423 111.874 525.304 111.747C525.189 111.615 525.132 111.458 525.132 111.275ZM531.186 113.104V114.009H527.458V113.104H531.186ZM528.72 111.428H529.899V118.292C529.899 118.526 529.935 118.702 530.007 118.821C530.079 118.94 530.173 119.019 530.287 119.057C530.402 119.095 530.525 119.114 530.657 119.114C530.755 119.114 530.857 119.106 530.963 119.089C531.073 119.067 531.156 119.05 531.211 119.038L531.218 120C531.124 120.03 531.001 120.057 530.848 120.083C530.7 120.113 530.519 120.127 530.307 120.127C530.018 120.127 529.752 120.07 529.51 119.955C529.268 119.841 529.074 119.649 528.93 119.382C528.79 119.11 528.72 118.745 528.72 118.286V111.428Z" fill="#292B3F"/>
<defs>
<clipPath id="clip0_1296_2078">
<rect width="64.8" height="65.134" fill="white" transform="translate(148 34)"/>
</clipPath>
<clipPath id="clip1_1296_2078">
<rect width="64.8" height="65.134" fill="white" transform="translate(373.398 34)"/>
</clipPath>
<clipPath id="clip2_1296_2078">
<rect width="64.8" height="65.134" fill="white" transform="translate(486 34)"/>
</clipPath>
<clipPath id="clip3_1296_2078">
<rect width="64.8" height="65.134" fill="white" transform="translate(260.6 34)"/>
</clipPath>
<clipPath id="clip4_1296_2078">
<rect width="64.8" height="65.134" fill="white" transform="translate(35 34)"/>
</clipPath>
</defs>
</svg>
