<svg width="291" height="265" viewBox="0 0 291 265" fill="none" xmlns="http://www.w3.org/2000/svg">
<rect width="291" height="265" rx="8.69173" fill="white"/>
<path d="M137 57C153.28 57 169.31 61.0151 183.668 68.6898C198.026 76.3644 210.27 87.4616 219.315 100.998C228.36 114.535 233.927 130.094 235.523 146.296C237.119 162.498 234.694 178.844 228.464 193.885C222.233 208.927 212.39 222.199 199.805 232.528C187.22 242.856 172.282 249.921 156.314 253.097C140.346 256.274 123.841 255.463 108.262 250.737C92.6821 246.011 78.5085 237.515 66.9964 226.003L101.998 191.002C107.754 196.758 114.841 201.005 122.631 203.368C130.421 205.731 138.673 206.137 146.657 204.549C154.641 202.96 162.11 199.428 168.402 194.264C174.695 189.1 179.617 182.463 182.732 174.943C185.847 167.422 187.059 159.249 186.261 151.148C185.463 143.047 182.68 135.268 178.157 128.499C173.635 121.731 167.513 116.182 160.334 112.345C153.155 108.507 145.14 106.5 137 106.5V57Z" fill="#5FA2E0"/>
<path opacity="0.5" d="M38.2283 149.28C39.9207 124.405 50.9372 101.083 69.0764 83.9768C87.2156 66.8702 111.142 57.2379 136.074 57.0047L136.537 106.502C124.071 106.619 112.108 111.435 103.038 119.989C93.9685 128.542 88.4603 140.202 87.6141 152.64L38.2283 149.28Z" fill="#FAE154"/>
<path opacity="0.8" d="M66.9968 226.004C57.0073 216.014 49.2715 204.002 44.3091 190.776C39.3467 177.549 37.2726 163.413 38.2262 149.318L87.6132 152.659C87.1364 159.706 88.1734 166.774 90.6546 173.388C93.1359 180.001 97.0037 186.007 101.998 191.002L66.9968 226.004Z" fill="#FF5446"/>
<path d="M0 8.69173C0 3.89142 3.89142 0 8.69173 0H282.308C287.109 0 291 3.89142 291 8.69173V25H0V8.69173Z" fill="#047BD5"/>
<path d="M17.7557 7.67152L14.885 16H13.1493L16.7658 6.39123H17.8745L17.7557 7.67152ZM20.1579 16L17.2805 7.67152L17.1552 6.39123H18.2705L21.9001 16H20.1579ZM20.0193 12.4363V13.7496H14.7926V12.4363H20.0193ZM25.9588 13.2876H23.8338V12.0205H25.9588C26.302 12.0205 26.5813 11.9699 26.7969 11.8688C27.0169 11.7676 27.1775 11.6312 27.2787 11.4596C27.3843 11.2836 27.4371 11.0856 27.4371 10.8656C27.4371 10.6369 27.3843 10.4257 27.2787 10.2321C27.1775 10.0385 27.0169 9.88233 26.7969 9.76354C26.5813 9.64035 26.302 9.57875 25.9588 9.57875H24.3683V16H22.7779V8.31166H25.9588C26.6055 8.31166 27.1577 8.42165 27.6153 8.64163C28.0728 8.86161 28.4204 9.16299 28.658 9.54576C28.8999 9.92412 29.0209 10.3597 29.0209 10.8524C29.0209 11.222 28.9527 11.5564 28.8164 11.8556C28.68 12.1547 28.4798 12.4121 28.2158 12.6277C27.9518 12.8389 27.6307 13.0017 27.2523 13.116C26.8739 13.2304 26.4428 13.2876 25.9588 13.2876ZM33.4294 13.2876H31.3043V12.0205H33.4294C33.7725 12.0205 34.0519 11.9699 34.2675 11.8688C34.4875 11.7676 34.6481 11.6312 34.7492 11.4596C34.8548 11.2836 34.9076 11.0856 34.9076 10.8656C34.9076 10.6369 34.8548 10.4257 34.7492 10.2321C34.6481 10.0385 34.4875 9.88233 34.2675 9.76354C34.0519 9.64035 33.7725 9.57875 33.4294 9.57875H31.8389V16H30.2484V8.31166H33.4294C34.0761 8.31166 34.6283 8.42165 35.0858 8.64163C35.5434 8.86161 35.8909 9.16299 36.1285 9.54576C36.3705 9.92412 36.4915 10.3597 36.4915 10.8524C36.4915 11.222 36.4233 11.5564 36.2869 11.8556C36.1505 12.1547 35.9503 12.4121 35.6864 12.6277C35.4224 12.8389 35.1012 13.0017 34.7228 13.116C34.3445 13.2304 33.9133 13.2876 33.4294 13.2876ZM44.424 11.9743V12.3439C44.424 12.9291 44.3404 13.4526 44.1732 13.9146C44.006 14.3765 43.7685 14.7725 43.4605 15.1025C43.1569 15.428 42.7918 15.6766 42.365 15.8482C41.9382 16.0198 41.4675 16.1056 40.9527 16.1056C40.438 16.1056 39.9672 16.0198 39.5404 15.8482C39.1137 15.6766 38.7441 15.428 38.4317 15.1025C38.1194 14.7725 37.8774 14.3765 37.7058 13.9146C37.5386 13.4526 37.455 12.9291 37.455 12.3439V11.9743C37.455 11.3892 37.5386 10.8656 37.7058 10.4037C37.8774 9.94172 38.1172 9.54576 38.4251 9.21578C38.7331 8.88581 39.1005 8.63503 39.5272 8.46345C39.954 8.29186 40.4248 8.20607 40.9395 8.20607C41.4587 8.20607 41.9294 8.29186 42.3518 8.46345C42.7786 8.63503 43.1459 8.88581 43.4539 9.21578C43.7663 9.54576 44.006 9.94172 44.1732 10.4037C44.3404 10.8656 44.424 11.3892 44.424 11.9743ZM42.8335 12.3439V11.9611C42.8335 11.5608 42.7918 11.2066 42.7082 10.8986C42.6246 10.5907 42.4992 10.3311 42.332 10.1199C42.1692 9.90872 41.9712 9.74814 41.738 9.63815C41.5049 9.52816 41.2387 9.47316 40.9395 9.47316C40.6447 9.47316 40.3786 9.52816 40.141 9.63815C39.9078 9.74814 39.7098 9.90872 39.547 10.1199C39.3886 10.3311 39.2655 10.5907 39.1775 10.8986C39.0939 11.2066 39.0521 11.5608 39.0521 11.9611V12.3439C39.0521 12.7399 39.0939 13.094 39.1775 13.4064C39.2655 13.7144 39.3908 13.9762 39.5536 14.1918C39.7208 14.4029 39.921 14.5657 40.1542 14.6801C40.3918 14.7901 40.6579 14.8451 40.9527 14.8451C41.2519 14.8451 41.5159 14.7901 41.7446 14.6801C41.9778 14.5657 42.1758 14.4029 42.3386 14.1918C42.5014 13.9762 42.6246 13.7144 42.7082 13.4064C42.7918 13.094 42.8335 12.7399 42.8335 12.3439ZM47.4334 8.31166V16H45.8363V8.31166H47.4334ZM55.7552 8.31166V16H54.1582L50.6869 10.7007V16H49.0964V8.31166H50.6869L54.1582 13.611V8.31166H55.7552ZM60.8896 8.31166V16H59.2991V8.31166H60.8896ZM63.4502 8.31166V9.57875H56.7715V8.31166H63.4502ZM69.977 14.7395V16H65.5752V14.7395H69.977ZM66.0767 8.31166V16H64.4863V8.31166H66.0767ZM69.4095 11.3936V12.6541H65.5752V11.3936H69.4095ZM69.9638 8.31166V9.57875H65.5752V8.31166H69.9638ZM73.5209 16H71.7259L71.7391 14.7395H73.5209C74.0269 14.7395 74.4404 14.6471 74.7616 14.4623C75.0828 14.2731 75.3182 14.0004 75.4677 13.644C75.6217 13.2876 75.6987 12.8543 75.6987 12.3439V11.9611C75.6987 11.5784 75.6547 11.2396 75.5667 10.9448C75.4831 10.6457 75.3533 10.3949 75.1774 10.1925C75.0014 9.99012 74.777 9.83833 74.5042 9.73714C74.2358 9.63155 73.9169 9.57875 73.5473 9.57875H71.6929V8.31166H73.5473C74.0973 8.31166 74.601 8.39965 75.0586 8.57564C75.5205 8.75162 75.9165 9.0024 76.2465 9.32797C76.5808 9.64915 76.8382 10.0341 77.0186 10.4829C77.2034 10.9316 77.2958 11.4288 77.2958 11.9743V12.3439C77.2958 13.0699 77.1352 13.7078 76.814 14.2577C76.4973 14.8077 76.0551 15.2367 75.4875 15.5446C74.9244 15.8482 74.2688 16 73.5209 16ZM72.6234 8.31166V16H71.0329V8.31166H72.6234ZM83.816 6.39123V16H82.1596V6.39123H83.816ZM87.7361 10.5951V11.9084H83.3937V10.5951H87.7361ZM88.2838 6.39123V7.71111H83.3937V6.39123H88.2838ZM91.1084 8.31166V16H89.5113V8.31166H91.1084ZM94.0253 8.31166L95.6158 10.991L97.2261 8.31166H99.0871L96.6123 12.1261L99.2323 16H97.3383L95.6422 13.2678L93.9792 16H92.1181L94.6655 12.1261L92.1841 8.31166H94.0253ZM106.61 14.007L108.544 8.31166H110.227L107.323 16H106.142L106.61 14.007ZM104.466 8.31166L106.379 13.9938L106.861 16H105.673L102.776 8.31166H104.466ZM115.394 13.9872C115.394 13.842 115.368 13.7122 115.315 13.5978C115.267 13.4834 115.181 13.38 115.058 13.2876C114.939 13.1908 114.774 13.1006 114.563 13.0171C114.356 12.9335 114.094 12.8543 113.777 12.7795C113.32 12.6695 112.915 12.5463 112.563 12.4099C112.216 12.2691 111.923 12.1063 111.685 11.9216C111.448 11.7368 111.267 11.519 111.144 11.2682C111.025 11.0174 110.966 10.7249 110.966 10.3905C110.966 10.0693 111.036 9.77674 111.177 9.51276C111.318 9.24438 111.518 9.0134 111.778 8.81982C112.037 8.62183 112.345 8.47005 112.702 8.36446C113.058 8.25887 113.45 8.20607 113.876 8.20607C114.497 8.20607 115.036 8.30726 115.493 8.50964C115.951 8.71203 116.305 8.9914 116.556 9.34777C116.811 9.69974 116.939 10.1089 116.939 10.5753H115.348C115.348 10.3553 115.291 10.1573 115.177 9.98132C115.067 9.80533 114.904 9.66454 114.688 9.55895C114.473 9.45336 114.202 9.40057 113.876 9.40057C113.564 9.40057 113.307 9.44676 113.104 9.53916C112.902 9.62715 112.75 9.74374 112.649 9.88893C112.552 10.0297 112.504 10.1837 112.504 10.3509C112.504 10.4829 112.532 10.6017 112.59 10.7073C112.651 10.8128 112.748 10.9096 112.88 10.9976C113.012 11.0856 113.183 11.1692 113.395 11.2484C113.606 11.3276 113.863 11.4046 114.167 11.4794C114.62 11.585 115.02 11.7104 115.368 11.8556C115.715 12.0007 116.006 12.1723 116.239 12.3703C116.472 12.5639 116.646 12.7927 116.76 13.0567C116.879 13.3162 116.939 13.6132 116.939 13.9476C116.939 14.2863 116.868 14.5899 116.727 14.8583C116.587 15.1223 116.384 15.3467 116.12 15.5314C115.861 15.7162 115.548 15.8592 115.183 15.9604C114.818 16.0572 114.411 16.1056 113.962 16.1056C113.566 16.1056 113.172 16.0572 112.781 15.9604C112.394 15.8636 112.044 15.714 111.732 15.5116C111.419 15.3093 111.168 15.0519 110.979 14.7395C110.795 14.4227 110.702 14.051 110.702 13.6242H112.299C112.299 13.853 112.339 14.051 112.418 14.2182C112.502 14.3809 112.618 14.5151 112.768 14.6207C112.922 14.7219 113.104 14.7967 113.315 14.8451C113.527 14.8935 113.76 14.9177 114.015 14.9177C114.336 14.9177 114.598 14.8759 114.8 14.7923C115.007 14.7043 115.157 14.5899 115.249 14.4491C115.346 14.3083 115.394 14.1544 115.394 13.9872ZM125.049 14.2446L127.577 6.39123H129.405L125.96 16H124.726L125.049 14.2446ZM122.713 6.39123L125.221 14.2446L125.564 16H124.323L120.892 6.39123H122.713ZM131.985 8.31166V16H130.388V8.31166H131.985ZM137.978 13.9872C137.978 13.842 137.951 13.7122 137.898 13.5978C137.85 13.4834 137.764 13.38 137.641 13.2876C137.522 13.1908 137.357 13.1006 137.146 13.0171C136.939 12.9335 136.677 12.8543 136.361 12.7795C135.903 12.6695 135.498 12.5463 135.146 12.4099C134.799 12.2691 134.506 12.1063 134.269 11.9216C134.031 11.7368 133.851 11.519 133.728 11.2682C133.609 11.0174 133.549 10.7249 133.549 10.3905C133.549 10.0693 133.62 9.77674 133.761 9.51276C133.901 9.24438 134.101 9.0134 134.361 8.81982C134.621 8.62183 134.929 8.47005 135.285 8.36446C135.641 8.25887 136.033 8.20607 136.46 8.20607C137.08 8.20607 137.619 8.30726 138.077 8.50964C138.534 8.71203 138.888 8.9914 139.139 9.34777C139.394 9.69974 139.522 10.1089 139.522 10.5753H137.931C137.931 10.3553 137.874 10.1573 137.76 9.98132C137.65 9.80533 137.487 9.66454 137.271 9.55895C137.056 9.45336 136.785 9.40057 136.46 9.40057C136.147 9.40057 135.89 9.44676 135.688 9.53916C135.485 9.62715 135.333 9.74374 135.232 9.88893C135.135 10.0297 135.087 10.1837 135.087 10.3509C135.087 10.4829 135.116 10.6017 135.173 10.7073C135.234 10.8128 135.331 10.9096 135.463 10.9976C135.595 11.0856 135.767 11.1692 135.978 11.2484C136.189 11.3276 136.446 11.4046 136.75 11.4794C137.203 11.585 137.604 11.7104 137.951 11.8556C138.299 12.0007 138.589 12.1723 138.822 12.3703C139.055 12.5639 139.229 12.7927 139.344 13.0567C139.462 13.3162 139.522 13.6132 139.522 13.9476C139.522 14.2863 139.451 14.5899 139.311 14.8583C139.17 15.1223 138.967 15.3467 138.703 15.5314C138.444 15.7162 138.132 15.8592 137.766 15.9604C137.401 16.0572 136.994 16.1056 136.545 16.1056C136.15 16.1056 135.756 16.0572 135.364 15.9604C134.977 15.8636 134.627 15.714 134.315 15.5116C134.003 15.3093 133.752 15.0519 133.563 14.7395C133.378 14.4227 133.285 14.051 133.285 13.6242H134.882C134.882 13.853 134.922 14.051 135.001 14.2182C135.085 14.3809 135.201 14.5151 135.351 14.6207C135.505 14.7219 135.688 14.7967 135.899 14.8451C136.11 14.8935 136.343 14.9177 136.598 14.9177C136.919 14.9177 137.181 14.8759 137.384 14.7923C137.59 14.7043 137.74 14.5899 137.832 14.4491C137.929 14.3083 137.978 14.1544 137.978 13.9872ZM142.478 8.31166V16H140.881V8.31166H142.478ZM147.725 8.31166V16H146.134V8.31166H147.725ZM150.286 8.31166V9.57875H143.607V8.31166H150.286ZM159.94 13.5252C159.94 13.3272 159.91 13.1512 159.848 12.9973C159.791 12.8433 159.688 12.7025 159.538 12.5749C159.388 12.4473 159.177 12.3241 158.904 12.2053C158.636 12.0821 158.293 11.9567 157.875 11.8292C157.417 11.6884 156.995 11.5322 156.608 11.3606C156.225 11.1846 155.891 10.9822 155.605 10.7535C155.319 10.5203 155.096 10.2541 154.938 9.95492C154.78 9.65135 154.701 9.30158 154.701 8.90561C154.701 8.51404 154.782 8.15767 154.945 7.8365C155.112 7.51533 155.347 7.23815 155.651 7.00497C155.959 6.76739 156.322 6.58481 156.74 6.45722C157.158 6.32523 157.62 6.25924 158.126 6.25924C158.838 6.25924 159.452 6.39123 159.967 6.6552C160.486 6.91918 160.884 7.27335 161.161 7.71771C161.443 8.16207 161.584 8.65263 161.584 9.18939H159.94C159.94 8.87261 159.872 8.59324 159.736 8.35126C159.604 8.10488 159.402 7.9113 159.129 7.77051C158.86 7.62972 158.519 7.55933 158.106 7.55933C157.714 7.55933 157.389 7.61872 157.129 7.73751C156.87 7.8563 156.676 8.01689 156.548 8.21927C156.421 8.42165 156.357 8.65043 156.357 8.90561C156.357 9.08599 156.399 9.25098 156.482 9.40057C156.566 9.54576 156.694 9.68214 156.865 9.80973C157.037 9.93292 157.252 10.0495 157.512 10.1595C157.771 10.2695 158.077 10.3751 158.429 10.4763C158.962 10.6347 159.426 10.8106 159.822 11.0042C160.218 11.1934 160.548 11.409 160.812 11.651C161.076 11.893 161.274 12.1679 161.406 12.4759C161.538 12.7795 161.604 13.1248 161.604 13.512C161.604 13.9168 161.522 14.2819 161.359 14.6075C161.197 14.9287 160.963 15.2037 160.66 15.4324C160.361 15.6568 160 15.8306 159.578 15.9538C159.16 16.0726 158.693 16.132 158.178 16.132C157.716 16.132 157.261 16.0704 156.812 15.9472C156.368 15.824 155.963 15.637 155.598 15.3863C155.233 15.1311 154.943 14.8143 154.727 14.4359C154.511 14.0532 154.404 13.6066 154.404 13.0962H156.06C156.06 13.4086 156.113 13.6748 156.218 13.8948C156.328 14.1148 156.48 14.2951 156.674 14.4359C156.867 14.5723 157.092 14.6735 157.347 14.7395C157.606 14.8055 157.884 14.8385 158.178 14.8385C158.566 14.8385 158.889 14.7835 159.149 14.6735C159.413 14.5635 159.611 14.4095 159.742 14.2116C159.874 14.0136 159.94 13.7848 159.94 13.5252ZM166.454 8.31166V16H164.864V8.31166H166.454ZM169.015 8.31166V9.57875H162.336V8.31166H169.015ZM173.245 9.88893L170.935 16H169.325L172.42 8.31166H173.489L173.245 9.88893ZM175.377 16L173.054 9.87573L172.809 8.31166H173.898L176.987 16H175.377ZM175.278 13.149V14.3435H170.882V13.149H175.278ZM180.986 8.31166V16H179.396V8.31166H180.986ZM183.547 8.31166V9.57875H176.868V8.31166H183.547ZM189.176 8.31166H190.773V13.38C190.773 13.9696 190.637 14.4689 190.364 14.8781C190.091 15.2829 189.719 15.5886 189.249 15.7954C188.778 16.0022 188.241 16.1056 187.638 16.1056C187.027 16.1056 186.483 16.0022 186.008 15.7954C185.537 15.5886 185.168 15.2829 184.9 14.8781C184.631 14.4689 184.497 13.9696 184.497 13.38V8.31166H186.081V13.38C186.081 13.7188 186.142 13.9982 186.266 14.2182C186.393 14.4337 186.574 14.5921 186.807 14.6933C187.04 14.7945 187.317 14.8451 187.638 14.8451C187.959 14.8451 188.234 14.7945 188.463 14.6933C188.692 14.5921 188.868 14.4337 188.991 14.2182C189.114 13.9982 189.176 13.7188 189.176 13.38V8.31166ZM196.567 13.9872C196.567 13.842 196.541 13.7122 196.488 13.5978C196.44 13.4834 196.354 13.38 196.231 13.2876C196.112 13.1908 195.947 13.1006 195.736 13.0171C195.529 12.9335 195.267 12.8543 194.95 12.7795C194.493 12.6695 194.088 12.5463 193.736 12.4099C193.389 12.2691 193.096 12.1063 192.858 11.9216C192.621 11.7368 192.44 11.519 192.317 11.2682C192.199 11.0174 192.139 10.7249 192.139 10.3905C192.139 10.0693 192.21 9.77674 192.35 9.51276C192.491 9.24438 192.691 9.0134 192.951 8.81982C193.21 8.62183 193.518 8.47005 193.875 8.36446C194.231 8.25887 194.623 8.20607 195.049 8.20607C195.67 8.20607 196.209 8.30726 196.666 8.50964C197.124 8.71203 197.478 8.9914 197.729 9.34777C197.984 9.69974 198.112 10.1089 198.112 10.5753H196.521C196.521 10.3553 196.464 10.1573 196.35 9.98132C196.24 9.80533 196.077 9.66454 195.861 9.55895C195.646 9.45336 195.375 9.40057 195.049 9.40057C194.737 9.40057 194.48 9.44676 194.277 9.53916C194.075 9.62715 193.923 9.74374 193.822 9.88893C193.725 10.0297 193.677 10.1837 193.677 10.3509C193.677 10.4829 193.705 10.6017 193.763 10.7073C193.824 10.8128 193.921 10.9096 194.053 10.9976C194.185 11.0856 194.357 11.1692 194.568 11.2484C194.779 11.3276 195.036 11.4046 195.34 11.4794C195.793 11.585 196.193 11.7104 196.541 11.8556C196.888 12.0007 197.179 12.1723 197.412 12.3703C197.645 12.5639 197.819 12.7927 197.933 13.0567C198.052 13.3162 198.112 13.6132 198.112 13.9476C198.112 14.2863 198.041 14.5899 197.9 14.8583C197.76 15.1223 197.557 15.3467 197.293 15.5314C197.034 15.7162 196.721 15.8592 196.356 15.9604C195.991 16.0572 195.584 16.1056 195.135 16.1056C194.739 16.1056 194.346 16.0572 193.954 15.9604C193.567 15.8636 193.217 15.714 192.905 15.5116C192.592 15.3093 192.341 15.0519 192.152 14.7395C191.968 14.4227 191.875 14.051 191.875 13.6242H193.472C193.472 13.853 193.512 14.051 193.591 14.2182C193.675 14.3809 193.791 14.5151 193.941 14.6207C194.095 14.7219 194.277 14.7967 194.489 14.8451C194.7 14.8935 194.933 14.9177 195.188 14.9177C195.509 14.9177 195.771 14.8759 195.973 14.7923C196.18 14.7043 196.33 14.5899 196.422 14.4491C196.519 14.3083 196.567 14.1544 196.567 13.9872Z" fill="white"/>
<ellipse cx="49.0004" cy="41.0004" rx="7.00043" ry="7.00042" fill="#5FA2E0"/>
<path d="M63.4936 41.2416H61.7277L61.7182 40.4999H63.3213C63.5861 40.4999 63.8174 40.4552 64.0152 40.3659C64.213 40.2765 64.3661 40.1489 64.4746 39.983C64.5862 39.8139 64.6421 39.613 64.6421 39.3801C64.6421 39.1248 64.5926 38.9175 64.4937 38.758C64.398 38.5953 64.2497 38.4772 64.0487 38.4038C63.8509 38.3273 63.5988 38.289 63.2926 38.289H61.9335V44.5005H61.0099V37.5329H63.2926C63.6499 37.5329 63.9689 37.5696 64.2497 37.6429C64.5304 37.7131 64.7681 37.8248 64.9627 37.9779C65.1605 38.1279 65.3104 38.3193 65.4125 38.5522C65.5146 38.7851 65.5657 39.0642 65.5657 39.3896C65.5657 39.6768 65.4923 39.9368 65.3455 40.1697C65.1988 40.3994 64.9946 40.5876 64.733 40.7343C64.4746 40.8811 64.1715 40.9752 63.8238 41.0167L63.4936 41.2416ZM63.4505 44.5005H61.364L61.8856 43.7492H63.4505C63.744 43.7492 63.9928 43.6981 64.197 43.596C64.4044 43.4939 64.5623 43.3504 64.6708 43.1653C64.7792 42.9771 64.8335 42.7554 64.8335 42.5002C64.8335 42.2418 64.7872 42.0184 64.6947 41.8302C64.6022 41.642 64.457 41.4968 64.2592 41.3947C64.0614 41.2926 63.8062 41.2416 63.4936 41.2416H62.1776L62.1871 40.4999H63.9865L64.1827 40.7678C64.5176 40.7966 64.8016 40.8923 65.0345 41.055C65.2674 41.2145 65.4444 41.4187 65.5657 41.6675C65.6901 41.9163 65.7523 42.1907 65.7523 42.4906C65.7523 42.9245 65.6566 43.2914 65.4652 43.5913C65.2769 43.888 65.0105 44.1145 64.666 44.2708C64.3214 44.4239 63.9163 44.5005 63.4505 44.5005ZM66.7477 41.969V41.8589C66.7477 41.4857 66.8019 41.1395 66.9104 40.8205C67.0188 40.4983 67.1752 40.2191 67.3793 39.983C67.5835 39.7438 67.8308 39.5587 68.1211 39.4279C68.4114 39.2939 68.7368 39.2269 69.0973 39.2269C69.461 39.2269 69.788 39.2939 70.0783 39.4279C70.3718 39.5587 70.6207 39.7438 70.8249 39.983C71.0322 40.2191 71.1901 40.4983 71.2986 40.8205C71.4071 41.1395 71.4613 41.4857 71.4613 41.8589V41.969C71.4613 42.3423 71.4071 42.6884 71.2986 43.0074C71.1901 43.3265 71.0322 43.6056 70.8249 43.8449C70.6207 44.081 70.3734 44.266 70.0831 44.4C69.796 44.5308 69.4706 44.5962 69.1069 44.5962C68.7432 44.5962 68.4162 44.5308 68.1259 44.4C67.8355 44.266 67.5867 44.081 67.3793 43.8449C67.1752 43.6056 67.0188 43.3265 66.9104 43.0074C66.8019 42.6884 66.7477 42.3423 66.7477 41.969ZM67.633 41.8589V41.969C67.633 42.2274 67.6633 42.4715 67.7239 42.7012C67.7845 42.9277 67.8754 43.1287 67.9967 43.3041C68.1211 43.4796 68.2758 43.6184 68.4608 43.7205C68.6459 43.8194 68.8612 43.8688 69.1069 43.8688C69.3493 43.8688 69.5615 43.8194 69.7433 43.7205C69.9284 43.6184 70.0815 43.4796 70.2027 43.3041C70.324 43.1287 70.4149 42.9277 70.4755 42.7012C70.5393 42.4715 70.5712 42.2274 70.5712 41.969V41.8589C70.5712 41.6037 70.5393 41.3628 70.4755 41.1363C70.4149 40.9066 70.3224 40.704 70.198 40.5286C70.0767 40.3499 69.9236 40.2095 69.7386 40.1075C69.5567 40.0054 69.343 39.9543 69.0973 39.9543C68.8548 39.9543 68.6411 40.0054 68.4561 40.1075C68.2742 40.2095 68.1211 40.3499 67.9967 40.5286C67.8754 40.704 67.7845 40.9066 67.7239 41.1363C67.6633 41.3628 67.633 41.6037 67.633 41.8589ZM72.3371 41.969V41.8589C72.3371 41.4857 72.3913 41.1395 72.4998 40.8205C72.6082 40.4983 72.7646 40.2191 72.9687 39.983C73.1729 39.7438 73.4202 39.5587 73.7105 39.4279C74.0008 39.2939 74.3262 39.2269 74.6867 39.2269C75.0504 39.2269 75.3774 39.2939 75.6677 39.4279C75.9612 39.5587 76.2101 39.7438 76.4143 39.983C76.6216 40.2191 76.7795 40.4983 76.888 40.8205C76.9965 41.1395 77.0507 41.4857 77.0507 41.8589V41.969C77.0507 42.3423 76.9965 42.6884 76.888 43.0074C76.7795 43.3265 76.6216 43.6056 76.4143 43.8449C76.2101 44.081 75.9628 44.266 75.6725 44.4C75.3854 44.5308 75.06 44.5962 74.6963 44.5962C74.3326 44.5962 74.0056 44.5308 73.7153 44.4C73.4249 44.266 73.1761 44.081 72.9687 43.8449C72.7646 43.6056 72.6082 43.3265 72.4998 43.0074C72.3913 42.6884 72.3371 42.3423 72.3371 41.969ZM73.2224 41.8589V41.969C73.2224 42.2274 73.2527 42.4715 73.3133 42.7012C73.3739 42.9277 73.4648 43.1287 73.5861 43.3041C73.7105 43.4796 73.8652 43.6184 74.0502 43.7205C74.2353 43.8194 74.4506 43.8688 74.6963 43.8688C74.9387 43.8688 75.1509 43.8194 75.3327 43.7205C75.5178 43.6184 75.6709 43.4796 75.7921 43.3041C75.9134 43.1287 76.0043 42.9277 76.0649 42.7012C76.1287 42.4715 76.1606 42.2274 76.1606 41.969V41.8589C76.1606 41.6037 76.1287 41.3628 76.0649 41.1363C76.0043 40.9066 75.9118 40.704 75.7874 40.5286C75.6661 40.3499 75.513 40.2095 75.328 40.1075C75.1461 40.0054 74.9324 39.9543 74.6867 39.9543C74.4442 39.9543 74.2305 40.0054 74.0455 40.1075C73.8636 40.2095 73.7105 40.3499 73.5861 40.5286C73.4648 40.704 73.3739 40.9066 73.3133 41.1363C73.2527 41.3628 73.2224 41.6037 73.2224 41.8589ZM79.051 37.15V44.5005H78.1609V37.15H79.051ZM82.2142 39.3226L79.9555 41.7393L78.6921 43.0505L78.6203 42.1078L79.5248 41.0263L81.1327 39.3226H82.2142ZM81.4055 44.5005L79.5583 42.0312L80.0177 41.2416L82.4487 44.5005H81.4055ZM85.1812 44.5962C84.8207 44.5962 84.4937 44.5356 84.2002 44.4144C83.9099 44.2899 83.6594 44.1161 83.4489 43.8927C83.2415 43.6694 83.082 43.4046 82.9703 43.0984C82.8587 42.7921 82.8028 42.4571 82.8028 42.0934V41.8924C82.8028 41.4713 82.865 41.0964 82.9895 40.7678C83.1139 40.4361 83.283 40.1553 83.4967 39.9256C83.7105 39.6959 83.9529 39.522 84.2241 39.404C84.4953 39.2859 84.776 39.2269 85.0663 39.2269C85.4364 39.2269 85.7554 39.2907 86.0234 39.4183C86.2946 39.546 86.5163 39.7246 86.6886 39.9543C86.8609 40.1808 86.9885 40.4488 87.0714 40.7583C87.1544 41.0645 87.1959 41.3995 87.1959 41.7632V42.1604H83.3292V41.4378H86.3106V41.3708C86.2978 41.1411 86.2499 40.9178 86.167 40.7008C86.0872 40.4839 85.9596 40.3052 85.7842 40.1649C85.6087 40.0245 85.3694 39.9543 85.0663 39.9543C84.8653 39.9543 84.6803 39.9974 84.5112 40.0835C84.3421 40.1665 84.197 40.2909 84.0758 40.4568C83.9545 40.6227 83.8604 40.8253 83.7934 41.0645C83.7264 41.3038 83.6929 41.5798 83.6929 41.8924V42.0934C83.6929 42.3391 83.7264 42.5704 83.7934 42.7873C83.8636 43.001 83.9641 43.1893 84.0949 43.352C84.2289 43.5147 84.39 43.6423 84.5782 43.7348C84.7696 43.8273 84.9866 43.8736 85.229 43.8736C85.5417 43.8736 85.8065 43.8098 86.0234 43.6822C86.2404 43.5546 86.4302 43.3839 86.5929 43.1701L87.1289 43.596C87.0172 43.7651 86.8752 43.9262 86.703 44.0794C86.5307 44.2325 86.3185 44.3569 86.0665 44.4526C85.8177 44.5483 85.5226 44.5962 85.1812 44.5962ZM91.4932 43.4955V37.15H92.3833V44.5005H91.5698L91.4932 43.4955ZM88.0094 41.969V41.8685C88.0094 41.4729 88.0572 41.114 88.1529 40.7918C88.2518 40.4664 88.3906 40.1872 88.5693 39.9543C88.7511 39.7214 88.9665 39.5428 89.2153 39.4183C89.4673 39.2907 89.7481 39.2269 90.0576 39.2269C90.383 39.2269 90.6669 39.2844 90.9094 39.3992C91.155 39.5109 91.3624 39.6752 91.5315 39.8921C91.7037 40.1059 91.8393 40.3643 91.9382 40.6673C92.0371 40.9704 92.1057 41.3134 92.144 41.6962V42.1365C92.1089 42.5161 92.0403 42.8575 91.9382 43.1606C91.8393 43.4636 91.7037 43.7221 91.5315 43.9358C91.3624 44.1496 91.155 44.3139 90.9094 44.4287C90.6637 44.5404 90.3766 44.5962 90.048 44.5962C89.7449 44.5962 89.4673 44.5308 89.2153 44.4C88.9665 44.2692 88.7511 44.0857 88.5693 43.8497C88.3906 43.6136 88.2518 43.336 88.1529 43.017C88.0572 42.6948 88.0094 42.3454 88.0094 41.969ZM88.8995 41.8685V41.969C88.8995 42.2274 88.925 42.4699 88.976 42.6964C89.0303 42.9229 89.1132 43.1223 89.2249 43.2946C89.3365 43.4668 89.4785 43.6024 89.6508 43.7013C89.8231 43.797 90.0288 43.8449 90.2681 43.8449C90.5616 43.8449 90.8025 43.7827 90.9907 43.6583C91.1821 43.5338 91.3353 43.3695 91.4501 43.1653C91.565 42.9612 91.6543 42.7394 91.7181 42.5002V41.3469C91.6798 41.1714 91.624 41.0023 91.5506 40.8396C91.4804 40.6737 91.3879 40.527 91.2731 40.3994C91.1614 40.2686 91.0226 40.1649 90.8567 40.0883C90.694 40.0117 90.501 39.9735 90.2777 39.9735C90.0352 39.9735 89.8263 40.0245 89.6508 40.1266C89.4785 40.2255 89.3365 40.3627 89.2249 40.5381C89.1132 40.7104 89.0303 40.9114 88.976 41.1411C88.925 41.3676 88.8995 41.6101 88.8995 41.8685Z" fill="#3D3D3D"/>
<ellipse cx="128.202" cy="41.0004" rx="7.00043" ry="7.00042" fill="#FAE154"/>
<path d="M142.46 43.4429L144.513 37.5329H145.513L142.934 44.5005H142.221L142.46 43.4429ZM140.541 37.5329L142.575 43.4429L142.829 44.5005H142.116L139.541 37.5329H140.541ZM147.279 39.3226V44.5005H146.389V39.3226H147.279ZM146.322 37.9492C146.322 37.8057 146.365 37.6844 146.451 37.5855C146.541 37.4866 146.671 37.4372 146.844 37.4372C147.013 37.4372 147.142 37.4866 147.231 37.5855C147.324 37.6844 147.37 37.8057 147.37 37.9492C147.37 38.0864 147.324 38.2044 147.231 38.3033C147.142 38.399 147.013 38.4469 146.844 38.4469C146.671 38.4469 146.541 38.399 146.451 38.3033C146.365 38.2044 146.322 38.0864 146.322 37.9492ZM151.715 43.1271C151.715 42.9995 151.687 42.8814 151.629 42.7729C151.575 42.6613 151.462 42.5608 151.289 42.4715C151.12 42.3789 150.865 42.2992 150.524 42.2322C150.237 42.1716 149.977 42.0998 149.744 42.0168C149.514 41.9339 149.318 41.8334 149.155 41.7154C148.996 41.5973 148.873 41.4585 148.787 41.299C148.7 41.1395 148.657 40.9529 148.657 40.7391C148.657 40.535 148.702 40.3419 148.791 40.1601C148.884 39.9782 149.013 39.8171 149.179 39.6768C149.348 39.5364 149.551 39.4263 149.787 39.3466C150.023 39.2668 150.286 39.2269 150.576 39.2269C150.991 39.2269 151.345 39.3003 151.639 39.4471C151.932 39.5938 152.157 39.79 152.313 40.0357C152.47 40.2781 152.548 40.5477 152.548 40.8444H151.663C151.663 40.7008 151.62 40.5621 151.533 40.4281C151.45 40.2909 151.328 40.1776 151.165 40.0883C151.005 39.999 150.809 39.9543 150.576 39.9543C150.331 39.9543 150.131 39.9926 149.978 40.0692C149.828 40.1425 149.718 40.2367 149.648 40.3515C149.581 40.4664 149.547 40.5876 149.547 40.7152C149.547 40.8109 149.563 40.897 149.595 40.9736C149.63 41.047 149.691 41.1156 149.777 41.1794C149.863 41.24 149.985 41.2974 150.141 41.3517C150.297 41.4059 150.497 41.4601 150.739 41.5144C151.163 41.6101 151.513 41.7249 151.787 41.8589C152.061 41.9929 152.266 42.1572 152.4 42.3518C152.534 42.5464 152.601 42.7825 152.601 43.0601C152.601 43.2866 152.553 43.4939 152.457 43.6822C152.365 43.8704 152.229 44.0331 152.05 44.1703C151.875 44.3043 151.664 44.4096 151.419 44.4861C151.176 44.5595 150.903 44.5962 150.6 44.5962C150.144 44.5962 149.758 44.5148 149.442 44.3521C149.126 44.1894 148.887 43.9789 148.724 43.7205C148.562 43.462 148.48 43.1893 148.48 42.9022H149.37C149.383 43.1446 149.453 43.3376 149.581 43.4812C149.709 43.6216 149.865 43.7221 150.05 43.7827C150.235 43.8401 150.418 43.8688 150.6 43.8688C150.843 43.8688 151.045 43.8369 151.208 43.7731C151.374 43.7093 151.5 43.6216 151.586 43.5099C151.672 43.3982 151.715 43.2706 151.715 43.1271ZM154.725 39.3226V44.5005H153.835V39.3226H154.725ZM153.768 37.9492C153.768 37.8057 153.811 37.6844 153.897 37.5855C153.987 37.4866 154.118 37.4372 154.29 37.4372C154.459 37.4372 154.588 37.4866 154.677 37.5855C154.77 37.6844 154.816 37.8057 154.816 37.9492C154.816 38.0864 154.77 38.2044 154.677 38.3033C154.588 38.399 154.459 38.4469 154.29 38.4469C154.118 38.4469 153.987 38.399 153.897 38.3033C153.811 38.2044 153.768 38.0864 153.768 37.9492ZM158.314 39.3226V40.0022H155.515V39.3226H158.314ZM156.462 38.0641H157.348V43.218C157.348 43.3935 157.375 43.5259 157.429 43.6152C157.483 43.7045 157.554 43.7635 157.64 43.7922C157.726 43.821 157.818 43.8353 157.917 43.8353C157.991 43.8353 158.067 43.8289 158.147 43.8162C158.23 43.8002 158.292 43.7875 158.334 43.7779L158.338 44.5005C158.268 44.5228 158.176 44.5436 158.061 44.5627C157.949 44.585 157.814 44.5962 157.654 44.5962C157.437 44.5962 157.238 44.5531 157.056 44.467C156.874 44.3809 156.729 44.2373 156.62 44.0363C156.515 43.8321 156.462 43.5578 156.462 43.2132V38.0641ZM161.502 44.5962C161.141 44.5962 160.814 44.5356 160.521 44.4144C160.23 44.2899 159.98 44.1161 159.769 43.8927C159.562 43.6694 159.402 43.4046 159.291 43.0984C159.179 42.7921 159.123 42.4571 159.123 42.0934V41.8924C159.123 41.4713 159.185 41.0964 159.31 40.7678C159.434 40.4361 159.603 40.1553 159.817 39.9256C160.031 39.6959 160.273 39.522 160.544 39.404C160.816 39.2859 161.096 39.2269 161.387 39.2269C161.757 39.2269 162.076 39.2907 162.344 39.4183C162.615 39.546 162.837 39.7246 163.009 39.9543C163.181 40.1808 163.309 40.4488 163.392 40.7583C163.475 41.0645 163.516 41.3995 163.516 41.7632V42.1604H159.65V41.4378H162.631V41.3708C162.618 41.1411 162.57 40.9178 162.487 40.7008C162.408 40.4839 162.28 40.3052 162.104 40.1649C161.929 40.0245 161.69 39.9543 161.387 39.9543C161.186 39.9543 161.001 39.9974 160.832 40.0835C160.662 40.1665 160.517 40.2909 160.396 40.4568C160.275 40.6227 160.181 40.8253 160.114 41.0645C160.047 41.3038 160.013 41.5798 160.013 41.8924V42.0934C160.013 42.3391 160.047 42.5704 160.114 42.7873C160.184 43.001 160.284 43.1893 160.415 43.352C160.549 43.5147 160.71 43.6423 160.899 43.7348C161.09 43.8273 161.307 43.8736 161.549 43.8736C161.862 43.8736 162.127 43.8098 162.344 43.6822C162.561 43.5546 162.751 43.3839 162.913 43.1701L163.449 43.596C163.338 43.7651 163.196 43.9262 163.023 44.0794C162.851 44.2325 162.639 44.3569 162.387 44.4526C162.138 44.5483 161.843 44.5962 161.502 44.5962ZM167.814 43.4955V37.15H168.704V44.5005H167.89L167.814 43.4955ZM164.33 41.969V41.8685C164.33 41.4729 164.378 41.114 164.473 40.7918C164.572 40.4664 164.711 40.1872 164.89 39.9543C165.071 39.7214 165.287 39.5428 165.536 39.4183C165.788 39.2907 166.068 39.2269 166.378 39.2269C166.703 39.2269 166.987 39.2844 167.23 39.3992C167.475 39.5109 167.683 39.6752 167.852 39.8921C168.024 40.1059 168.16 40.3643 168.259 40.6673C168.357 40.9704 168.426 41.3134 168.464 41.6962V42.1365C168.429 42.5161 168.361 42.8575 168.259 43.1606C168.16 43.4636 168.024 43.7221 167.852 43.9358C167.683 44.1496 167.475 44.3139 167.23 44.4287C166.984 44.5404 166.697 44.5962 166.368 44.5962C166.065 44.5962 165.788 44.5308 165.536 44.4C165.287 44.2692 165.071 44.0857 164.89 43.8497C164.711 43.6136 164.572 43.336 164.473 43.017C164.378 42.6948 164.33 42.3454 164.33 41.969ZM165.22 41.8685V41.969C165.22 42.2274 165.245 42.4699 165.296 42.6964C165.351 42.9229 165.434 43.1223 165.545 43.2946C165.657 43.4668 165.799 43.6024 165.971 43.7013C166.143 43.797 166.349 43.8449 166.588 43.8449C166.882 43.8449 167.123 43.7827 167.311 43.6583C167.502 43.5338 167.656 43.3695 167.77 43.1653C167.885 42.9612 167.975 42.7394 168.038 42.5002V41.3469C168 41.1714 167.944 41.0023 167.871 40.8396C167.801 40.6737 167.708 40.527 167.593 40.3994C167.482 40.2686 167.343 40.1649 167.177 40.0883C167.014 40.0117 166.821 39.9735 166.598 39.9735C166.356 39.9735 166.147 40.0245 165.971 40.1266C165.799 40.2255 165.657 40.3627 165.545 40.5381C165.434 40.7104 165.351 40.9114 165.296 41.1411C165.245 41.3676 165.22 41.6101 165.22 41.8685Z" fill="#3D3D3D"/>
<ellipse cx="205.403" cy="41.0004" rx="7.00043" ry="7.00042" fill="#FF776B"/>
<path d="M222.772 37.5329V44.5005H221.844L218.336 39.1264V44.5005H217.412V37.5329H218.336L221.858 42.9213V37.5329H222.772ZM224.04 41.969V41.8589C224.04 41.4857 224.094 41.1395 224.203 40.8205C224.311 40.4983 224.468 40.2191 224.672 39.983C224.876 39.7438 225.123 39.5587 225.414 39.4279C225.704 39.2939 226.029 39.2269 226.39 39.2269C226.753 39.2269 227.08 39.2939 227.371 39.4279C227.664 39.5587 227.913 39.7438 228.117 39.983C228.325 40.2191 228.483 40.4983 228.591 40.8205C228.7 41.1395 228.754 41.4857 228.754 41.8589V41.969C228.754 42.3423 228.7 42.6884 228.591 43.0074C228.483 43.3265 228.325 43.6056 228.117 43.8449C227.913 44.081 227.666 44.266 227.376 44.4C227.088 44.5308 226.763 44.5962 226.399 44.5962C226.036 44.5962 225.709 44.5308 225.418 44.4C225.128 44.266 224.879 44.081 224.672 43.8449C224.468 43.6056 224.311 43.3265 224.203 43.0074C224.094 42.6884 224.04 42.3423 224.04 41.969ZM224.925 41.8589V41.969C224.925 42.2274 224.956 42.4715 225.016 42.7012C225.077 42.9277 225.168 43.1287 225.289 43.3041C225.414 43.4796 225.568 43.6184 225.753 43.7205C225.938 43.8194 226.154 43.8688 226.399 43.8688C226.642 43.8688 226.854 43.8194 227.036 43.7205C227.221 43.6184 227.374 43.4796 227.495 43.3041C227.616 43.1287 227.707 42.9277 227.768 42.7012C227.832 42.4715 227.864 42.2274 227.864 41.969V41.8589C227.864 41.6037 227.832 41.3628 227.768 41.1363C227.707 40.9066 227.615 40.704 227.49 40.5286C227.369 40.3499 227.216 40.2095 227.031 40.1075C226.849 40.0054 226.635 39.9543 226.39 39.9543C226.147 39.9543 225.934 40.0054 225.748 40.1075C225.567 40.2095 225.414 40.3499 225.289 40.5286C225.168 40.704 225.077 40.9066 225.016 41.1363C224.956 41.3628 224.925 41.6037 224.925 41.8589ZM232.032 39.3226V40.0022H229.232V39.3226H232.032ZM230.18 38.0641H231.065V43.218C231.065 43.3935 231.092 43.5259 231.146 43.6152C231.201 43.7045 231.271 43.7635 231.357 43.7922C231.443 43.821 231.536 43.8353 231.635 43.8353C231.708 43.8353 231.785 43.8289 231.864 43.8162C231.947 43.8002 232.009 43.7875 232.051 43.7779L232.056 44.5005C231.986 44.5228 231.893 44.5436 231.778 44.5627C231.666 44.585 231.531 44.5962 231.371 44.5962C231.154 44.5962 230.955 44.5531 230.773 44.467C230.591 44.3809 230.446 44.2373 230.338 44.0363C230.232 43.8321 230.18 43.5578 230.18 43.2132V38.0641ZM237.884 43.4429L239.937 37.5329H240.937L238.358 44.5005H237.645L237.884 43.4429ZM235.965 37.5329L237.999 43.4429L238.253 44.5005H237.54L234.965 37.5329H235.965ZM242.703 39.3226V44.5005H241.813V39.3226H242.703ZM241.746 37.9492C241.746 37.8057 241.789 37.6844 241.875 37.5855C241.965 37.4866 242.096 37.4372 242.268 37.4372C242.437 37.4372 242.566 37.4866 242.655 37.5855C242.748 37.6844 242.794 37.8057 242.794 37.9492C242.794 38.0864 242.748 38.2044 242.655 38.3033C242.566 38.399 242.437 38.4469 242.268 38.4469C242.096 38.4469 241.965 38.399 241.875 38.3033C241.789 38.2044 241.746 38.0864 241.746 37.9492ZM247.139 43.1271C247.139 42.9995 247.111 42.8814 247.053 42.7729C246.999 42.6613 246.886 42.5608 246.714 42.4715C246.544 42.3789 246.289 42.2992 245.948 42.2322C245.661 42.1716 245.401 42.0998 245.168 42.0168C244.938 41.9339 244.742 41.8334 244.579 41.7154C244.42 41.5973 244.297 41.4585 244.211 41.299C244.125 41.1395 244.082 40.9529 244.082 40.7391C244.082 40.535 244.126 40.3419 244.216 40.1601C244.308 39.9782 244.437 39.8171 244.603 39.6768C244.772 39.5364 244.975 39.4263 245.211 39.3466C245.447 39.2668 245.71 39.2269 246 39.2269C246.415 39.2269 246.769 39.3003 247.063 39.4471C247.356 39.5938 247.581 39.79 247.738 40.0357C247.894 40.2781 247.972 40.5477 247.972 40.8444H247.087C247.087 40.7008 247.044 40.5621 246.958 40.4281C246.875 40.2909 246.752 40.1776 246.589 40.0883C246.43 39.999 246.233 39.9543 246 39.9543C245.755 39.9543 245.555 39.9926 245.402 40.0692C245.252 40.1425 245.142 40.2367 245.072 40.3515C245.005 40.4664 244.972 40.5876 244.972 40.7152C244.972 40.8109 244.988 40.897 245.019 40.9736C245.055 41.047 245.115 41.1156 245.201 41.1794C245.287 41.24 245.409 41.2974 245.565 41.3517C245.721 41.4059 245.921 41.4601 246.163 41.5144C246.588 41.6101 246.937 41.7249 247.211 41.8589C247.486 41.9929 247.69 42.1572 247.824 42.3518C247.958 42.5464 248.025 42.7825 248.025 43.0601C248.025 43.2866 247.977 43.4939 247.881 43.6822C247.789 43.8704 247.653 44.0331 247.474 44.1703C247.299 44.3043 247.088 44.4096 246.843 44.4861C246.6 44.5595 246.328 44.5962 246.024 44.5962C245.568 44.5962 245.182 44.5148 244.866 44.3521C244.551 44.1894 244.311 43.9789 244.149 43.7205C243.986 43.462 243.904 43.1893 243.904 42.9022H244.795C244.807 43.1446 244.878 43.3376 245.005 43.4812C245.133 43.6216 245.289 43.7221 245.474 43.7827C245.659 43.8401 245.843 43.8688 246.024 43.8688C246.267 43.8688 246.469 43.8369 246.632 43.7731C246.798 43.7093 246.924 43.6216 247.01 43.5099C247.096 43.3982 247.139 43.2706 247.139 43.1271ZM250.149 39.3226V44.5005H249.259V39.3226H250.149ZM249.192 37.9492C249.192 37.8057 249.235 37.6844 249.322 37.5855C249.411 37.4866 249.542 37.4372 249.714 37.4372C249.883 37.4372 250.012 37.4866 250.102 37.5855C250.194 37.6844 250.24 37.8057 250.24 37.9492C250.24 38.0864 250.194 38.2044 250.102 38.3033C250.012 38.399 249.883 38.4469 249.714 38.4469C249.542 38.4469 249.411 38.399 249.322 38.3033C249.235 38.2044 249.192 38.0864 249.192 37.9492ZM253.739 39.3226V40.0022H250.939V39.3226H253.739ZM251.887 38.0641H252.772V43.218C252.772 43.3935 252.799 43.5259 252.853 43.6152C252.907 43.7045 252.978 43.7635 253.064 43.7922C253.15 43.821 253.242 43.8353 253.341 43.8353C253.415 43.8353 253.491 43.8289 253.571 43.8162C253.654 43.8002 253.716 43.7875 253.758 43.7779L253.762 44.5005C253.692 44.5228 253.6 44.5436 253.485 44.5627C253.373 44.585 253.238 44.5962 253.078 44.5962C252.861 44.5962 252.662 44.5531 252.48 44.467C252.298 44.3809 252.153 44.2373 252.045 44.0363C251.939 43.8321 251.887 43.5578 251.887 43.2132V38.0641ZM256.926 44.5962C256.565 44.5962 256.238 44.5356 255.945 44.4144C255.654 44.2899 255.404 44.1161 255.193 43.8927C254.986 43.6694 254.826 43.4046 254.715 43.0984C254.603 42.7921 254.547 42.4571 254.547 42.0934V41.8924C254.547 41.4713 254.61 41.0964 254.734 40.7678C254.858 40.4361 255.027 40.1553 255.241 39.9256C255.455 39.6959 255.697 39.522 255.969 39.404C256.24 39.2859 256.52 39.2269 256.811 39.2269C257.181 39.2269 257.5 39.2907 257.768 39.4183C258.039 39.546 258.261 39.7246 258.433 39.9543C258.605 40.1808 258.733 40.4488 258.816 40.7583C258.899 41.0645 258.94 41.3995 258.94 41.7632V42.1604H255.074V41.4378H258.055V41.3708C258.042 41.1411 257.994 40.9178 257.911 40.7008C257.832 40.4839 257.704 40.3052 257.529 40.1649C257.353 40.0245 257.114 39.9543 256.811 39.9543C256.61 39.9543 256.425 39.9974 256.256 40.0835C256.087 40.1665 255.941 40.2909 255.82 40.4568C255.699 40.6227 255.605 40.8253 255.538 41.0645C255.471 41.3038 255.437 41.5798 255.437 41.8924V42.0934C255.437 42.3391 255.471 42.5704 255.538 42.7873C255.608 43.001 255.709 43.1893 255.839 43.352C255.973 43.5147 256.134 43.6423 256.323 43.7348C256.514 43.8273 256.731 43.8736 256.974 43.8736C257.286 43.8736 257.551 43.8098 257.768 43.6822C257.985 43.5546 258.175 43.3839 258.337 43.1701L258.873 43.596C258.762 43.7651 258.62 43.9262 258.447 44.0794C258.275 44.2325 258.063 44.3569 257.811 44.4526C257.562 44.5483 257.267 44.5962 256.926 44.5962ZM263.238 43.4955V37.15H264.128V44.5005H263.314L263.238 43.4955ZM259.754 41.969V41.8685C259.754 41.4729 259.802 41.114 259.897 40.7918C259.996 40.4664 260.135 40.1872 260.314 39.9543C260.496 39.7214 260.711 39.5428 260.96 39.4183C261.212 39.2907 261.493 39.2269 261.802 39.2269C262.127 39.2269 262.411 39.2844 262.654 39.3992C262.899 39.5109 263.107 39.6752 263.276 39.8921C263.448 40.1059 263.584 40.3643 263.683 40.6673C263.782 40.9704 263.85 41.3134 263.888 41.6962V42.1365C263.853 42.5161 263.785 42.8575 263.683 43.1606C263.584 43.4636 263.448 43.7221 263.276 43.9358C263.107 44.1496 262.899 44.3139 262.654 44.4287C262.408 44.5404 262.121 44.5962 261.792 44.5962C261.489 44.5962 261.212 44.5308 260.96 44.4C260.711 44.2692 260.496 44.0857 260.314 43.8497C260.135 43.6136 259.996 43.336 259.897 43.017C259.802 42.6948 259.754 42.3454 259.754 41.969ZM260.644 41.8685V41.969C260.644 42.2274 260.669 42.4699 260.721 42.6964C260.775 42.9229 260.858 43.1223 260.969 43.2946C261.081 43.4668 261.223 43.6024 261.395 43.7013C261.568 43.797 261.773 43.8449 262.013 43.8449C262.306 43.8449 262.547 43.7827 262.735 43.6583C262.927 43.5338 263.08 43.3695 263.195 43.1653C263.309 42.9612 263.399 42.7394 263.463 42.5002V41.3469C263.424 41.1714 263.368 41.0023 263.295 40.8396C263.225 40.6737 263.132 40.527 263.018 40.3994C262.906 40.2686 262.767 40.1649 262.601 40.0883C262.438 40.0117 262.245 39.9735 262.022 39.9735C261.78 39.9735 261.571 40.0245 261.395 40.1266C261.223 40.2255 261.081 40.3627 260.969 40.5381C260.858 40.7104 260.775 40.9114 260.721 41.1411C260.669 41.3676 260.644 41.6101 260.644 41.8685Z" fill="#3D3D3D"/>
<path d="M240.37 177.273L240.173 177.952H236.185L236.382 177.273H240.37ZM238.583 182L236.309 179.344L236.305 178.812H237.354C237.657 178.812 237.908 178.761 238.106 178.661C238.306 178.558 238.457 178.419 238.557 178.244C238.657 178.07 238.707 177.873 238.707 177.656C238.707 177.412 238.66 177.199 238.565 177.015C238.471 176.829 238.322 176.684 238.118 176.581C237.918 176.475 237.654 176.422 237.328 176.422H236.193L236.395 175.743H237.328C237.826 175.743 238.237 175.819 238.561 175.971C238.888 176.12 239.131 176.338 239.292 176.624C239.452 176.911 239.532 177.257 239.532 177.664C239.532 178.014 239.465 178.327 239.33 178.605C239.198 178.88 238.979 179.097 238.673 179.254C238.369 179.412 237.959 179.49 237.444 179.49L239.558 181.948V182H238.583ZM240.37 175.743L240.173 176.422H236.958L237.156 175.743H240.37ZM243.688 175.709V182H242.893V176.702L241.29 177.286V176.568L243.563 175.709H243.688ZM246.833 181.055V181.695C246.833 181.956 246.767 182.231 246.635 182.52C246.504 182.812 246.319 183.056 246.081 183.25L245.63 182.937C245.722 182.811 245.799 182.682 245.862 182.55C245.925 182.421 245.972 182.286 246.004 182.146C246.038 182.009 246.055 181.862 246.055 181.708V181.055H246.833ZM251.689 178.373V179.327C251.689 179.84 251.643 180.273 251.551 180.625C251.46 180.977 251.328 181.261 251.156 181.476C250.984 181.691 250.776 181.847 250.533 181.944C250.292 182.039 250.02 182.086 249.716 182.086C249.476 182.086 249.254 182.056 249.05 181.996C248.847 181.936 248.664 181.84 248.5 181.708C248.34 181.573 248.202 181.398 248.088 181.184C247.973 180.969 247.886 180.708 247.826 180.401C247.766 180.095 247.735 179.737 247.735 179.327V178.373C247.735 177.86 247.781 177.431 247.873 177.084C247.968 176.737 248.101 176.46 248.273 176.25C248.444 176.038 248.651 175.887 248.891 175.795C249.135 175.703 249.407 175.657 249.708 175.657C249.951 175.657 250.175 175.688 250.378 175.748C250.584 175.805 250.768 175.898 250.928 176.027C251.089 176.153 251.225 176.322 251.336 176.534C251.451 176.743 251.538 177 251.599 177.303C251.659 177.607 251.689 177.964 251.689 178.373ZM250.89 179.456V178.24C250.89 177.959 250.872 177.713 250.838 177.501C250.806 177.286 250.759 177.103 250.696 176.951C250.633 176.799 250.553 176.676 250.456 176.581C250.361 176.487 250.251 176.418 250.125 176.375C250.001 176.329 249.863 176.306 249.708 176.306C249.519 176.306 249.351 176.342 249.205 176.414C249.059 176.482 248.936 176.593 248.836 176.745C248.738 176.896 248.664 177.096 248.612 177.342C248.561 177.588 248.535 177.888 248.535 178.24V179.456C248.535 179.737 248.55 179.985 248.582 180.2C248.616 180.414 248.667 180.601 248.732 180.758C248.798 180.913 248.879 181.04 248.973 181.141C249.068 181.241 249.176 181.315 249.3 181.364C249.426 181.41 249.565 181.433 249.716 181.433C249.911 181.433 250.082 181.396 250.228 181.321C250.374 181.247 250.496 181.131 250.593 180.973C250.693 180.813 250.768 180.608 250.817 180.358C250.865 180.106 250.89 179.806 250.89 179.456ZM256.639 178.373V179.327C256.639 179.84 256.593 180.273 256.502 180.625C256.41 180.977 256.278 181.261 256.106 181.476C255.934 181.691 255.727 181.847 255.483 181.944C255.243 182.039 254.97 182.086 254.667 182.086C254.426 182.086 254.204 182.056 254.001 181.996C253.797 181.936 253.614 181.84 253.451 181.708C253.29 181.573 253.153 181.398 253.038 181.184C252.924 180.969 252.836 180.708 252.776 180.401C252.716 180.095 252.686 179.737 252.686 179.327V178.373C252.686 177.86 252.732 177.431 252.823 177.084C252.918 176.737 253.051 176.46 253.223 176.25C253.395 176.038 253.601 175.887 253.842 175.795C254.085 175.703 254.357 175.657 254.658 175.657C254.902 175.657 255.125 175.688 255.329 175.748C255.535 175.805 255.718 175.898 255.879 176.027C256.039 176.153 256.175 176.322 256.287 176.534C256.401 176.743 256.489 177 256.549 177.303C256.609 177.607 256.639 177.964 256.639 178.373ZM255.84 179.456V178.24C255.84 177.959 255.823 177.713 255.788 177.501C255.757 177.286 255.71 177.103 255.646 176.951C255.583 176.799 255.503 176.676 255.406 176.581C255.311 176.487 255.201 176.418 255.075 176.375C254.952 176.329 254.813 176.306 254.658 176.306C254.469 176.306 254.301 176.342 254.155 176.414C254.009 176.482 253.886 176.593 253.786 176.745C253.688 176.896 253.614 177.096 253.562 177.342C253.511 177.588 253.485 177.888 253.485 178.24V179.456C253.485 179.737 253.501 179.985 253.532 180.2C253.567 180.414 253.617 180.601 253.683 180.758C253.749 180.913 253.829 181.04 253.923 181.141C254.018 181.241 254.127 181.315 254.25 181.364C254.376 181.41 254.515 181.433 254.667 181.433C254.862 181.433 255.032 181.396 255.178 181.321C255.324 181.247 255.446 181.131 255.543 180.973C255.644 180.813 255.718 180.608 255.767 180.358C255.816 180.106 255.84 179.806 255.84 179.456ZM258.47 181.055V181.695C258.47 181.956 258.404 182.231 258.272 182.52C258.14 182.812 257.955 183.056 257.718 183.25L257.267 182.937C257.358 182.811 257.436 182.682 257.499 182.55C257.562 182.421 257.609 182.286 257.64 182.146C257.675 182.009 257.692 181.862 257.692 181.708V181.055H258.47ZM263.325 178.373V179.327C263.325 179.84 263.28 180.273 263.188 180.625C263.096 180.977 262.965 181.261 262.793 181.476C262.621 181.691 262.413 181.847 262.17 181.944C261.929 182.039 261.657 182.086 261.353 182.086C261.112 182.086 260.89 182.056 260.687 181.996C260.484 181.936 260.3 181.84 260.137 181.708C259.977 181.573 259.839 181.398 259.724 181.184C259.61 180.969 259.523 180.708 259.462 180.401C259.402 180.095 259.372 179.737 259.372 179.327V178.373C259.372 177.86 259.418 177.431 259.51 177.084C259.604 176.737 259.737 176.46 259.909 176.25C260.081 176.038 260.287 175.887 260.528 175.795C260.772 175.703 261.044 175.657 261.344 175.657C261.588 175.657 261.811 175.688 262.015 175.748C262.221 175.805 262.404 175.898 262.565 176.027C262.725 176.153 262.861 176.322 262.973 176.534C263.088 176.743 263.175 177 263.235 177.303C263.295 177.607 263.325 177.964 263.325 178.373ZM262.526 179.456V178.24C262.526 177.959 262.509 177.713 262.475 177.501C262.443 177.286 262.396 177.103 262.333 176.951C262.27 176.799 262.19 176.676 262.092 176.581C261.998 176.487 261.887 176.418 261.761 176.375C261.638 176.329 261.499 176.306 261.344 176.306C261.155 176.306 260.988 176.342 260.842 176.414C260.696 176.482 260.572 176.593 260.472 176.745C260.375 176.896 260.3 177.096 260.249 177.342C260.197 177.588 260.171 177.888 260.171 178.24V179.456C260.171 179.737 260.187 179.985 260.219 180.2C260.253 180.414 260.303 180.601 260.369 180.758C260.435 180.913 260.515 181.04 260.61 181.141C260.704 181.241 260.813 181.315 260.936 181.364C261.062 181.41 261.201 181.433 261.353 181.433C261.548 181.433 261.718 181.396 261.864 181.321C262.011 181.247 262.132 181.131 262.23 180.973C262.33 180.813 262.404 180.608 262.453 180.358C262.502 180.106 262.526 179.806 262.526 179.456ZM268.276 178.373V179.327C268.276 179.84 268.23 180.273 268.138 180.625C268.047 180.977 267.915 181.261 267.743 181.476C267.571 181.691 267.363 181.847 267.12 181.944C266.879 182.039 266.607 182.086 266.303 182.086C266.063 182.086 265.841 182.056 265.637 181.996C265.434 181.936 265.251 181.84 265.087 181.708C264.927 181.573 264.789 181.398 264.675 181.184C264.56 180.969 264.473 180.708 264.413 180.401C264.352 180.095 264.322 179.737 264.322 179.327V178.373C264.322 177.86 264.368 177.431 264.46 177.084C264.554 176.737 264.688 176.46 264.86 176.25C265.031 176.038 265.238 175.887 265.478 175.795C265.722 175.703 265.994 175.657 266.295 175.657C266.538 175.657 266.762 175.688 266.965 175.748C267.171 175.805 267.355 175.898 267.515 176.027C267.676 176.153 267.812 176.322 267.923 176.534C268.038 176.743 268.125 177 268.186 177.303C268.246 177.607 268.276 177.964 268.276 178.373ZM267.476 179.456V178.24C267.476 177.959 267.459 177.713 267.425 177.501C267.393 177.286 267.346 177.103 267.283 176.951C267.22 176.799 267.14 176.676 267.042 176.581C266.948 176.487 266.838 176.418 266.712 176.375C266.588 176.329 266.449 176.306 266.295 176.306C266.106 176.306 265.938 176.342 265.792 176.414C265.646 176.482 265.523 176.593 265.422 176.745C265.325 176.896 265.251 177.096 265.199 177.342C265.147 177.588 265.122 177.888 265.122 178.24V179.456C265.122 179.737 265.137 179.985 265.169 180.2C265.203 180.414 265.253 180.601 265.319 180.758C265.385 180.913 265.465 181.04 265.56 181.141C265.655 181.241 265.763 181.315 265.887 181.364C266.013 181.41 266.152 181.433 266.303 181.433C266.498 181.433 266.669 181.396 266.815 181.321C266.961 181.247 267.083 181.131 267.18 180.973C267.28 180.813 267.355 180.608 267.403 180.358C267.452 180.106 267.476 179.806 267.476 179.456ZM273.226 178.373V179.327C273.226 179.84 273.18 180.273 273.089 180.625C272.997 180.977 272.865 181.261 272.693 181.476C272.521 181.691 272.314 181.847 272.07 181.944C271.829 182.039 271.557 182.086 271.254 182.086C271.013 182.086 270.791 182.056 270.588 181.996C270.384 181.936 270.201 181.84 270.038 181.708C269.877 181.573 269.74 181.398 269.625 181.184C269.51 180.969 269.423 180.708 269.363 180.401C269.303 180.095 269.273 179.737 269.273 179.327V178.373C269.273 177.86 269.319 177.431 269.41 177.084C269.505 176.737 269.638 176.46 269.81 176.25C269.982 176.038 270.188 175.887 270.429 175.795C270.672 175.703 270.944 175.657 271.245 175.657C271.489 175.657 271.712 175.688 271.915 175.748C272.122 175.805 272.305 175.898 272.465 176.027C272.626 176.153 272.762 176.322 272.874 176.534C272.988 176.743 273.076 177 273.136 177.303C273.196 177.607 273.226 177.964 273.226 178.373ZM272.427 179.456V178.24C272.427 177.959 272.41 177.713 272.375 177.501C272.344 177.286 272.296 177.103 272.233 176.951C272.17 176.799 272.09 176.676 271.993 176.581C271.898 176.487 271.788 176.418 271.662 176.375C271.539 176.329 271.4 176.306 271.245 176.306C271.056 176.306 270.888 176.342 270.742 176.414C270.596 176.482 270.473 176.593 270.373 176.745C270.275 176.896 270.201 177.096 270.149 177.342C270.098 177.588 270.072 177.888 270.072 178.24V179.456C270.072 179.737 270.088 179.985 270.119 180.2C270.154 180.414 270.204 180.601 270.27 180.758C270.336 180.913 270.416 181.04 270.51 181.141C270.605 181.241 270.714 181.315 270.837 181.364C270.963 181.41 271.102 181.433 271.254 181.433C271.448 181.433 271.619 181.396 271.765 181.321C271.911 181.247 272.033 181.131 272.13 180.973C272.231 180.813 272.305 180.608 272.354 180.358C272.402 180.106 272.427 179.806 272.427 179.456Z" fill="black"/>
<path d="M33.3702 82.2732L33.1725 82.9521H29.1848L29.3824 82.2732H33.3702ZM31.5826 87L29.3094 84.3444L29.3051 83.8115H30.3536C30.6573 83.8115 30.9079 83.7614 31.1056 83.6611C31.3061 83.558 31.4565 83.4191 31.5568 83.2443C31.6571 83.0696 31.7072 82.8733 31.7072 82.6556C31.7072 82.4121 31.6599 82.1987 31.5654 82.0153C31.4709 81.8291 31.3219 81.6844 31.1185 81.5813C30.918 81.4753 30.6544 81.4223 30.3278 81.4223H29.1934L29.3953 80.7434H30.3278C30.8263 80.7434 31.2374 80.8193 31.5611 80.9711C31.8877 81.1201 32.1312 81.3378 32.2916 81.6243C32.452 81.9108 32.5322 82.2574 32.5322 82.6642C32.5322 83.0137 32.4649 83.3274 32.3303 83.6053C32.1985 83.8803 31.9793 84.0966 31.6728 84.2541C31.3692 84.4117 30.9595 84.4905 30.4438 84.4905L32.558 86.9484V87H31.5826ZM33.3702 80.7434L33.1725 81.4223H29.9583L30.1559 80.7434H33.3702ZM35.0804 84.0221L34.4445 83.8588L34.7582 80.7434H37.9681V81.4782H35.4328L35.2437 83.1798C35.3583 83.114 35.503 83.0524 35.6777 82.9951C35.8554 82.9378 36.0588 82.9091 36.2879 82.9091C36.5773 82.9091 36.8365 82.9593 37.0657 83.0595C37.2949 83.1569 37.4897 83.2973 37.6501 83.4806C37.8134 83.664 37.938 83.8846 38.024 84.1424C38.1099 84.4002 38.1529 84.6881 38.1529 85.0061C38.1529 85.3069 38.1114 85.5834 38.0283 85.8355C37.9481 86.0876 37.8263 86.3082 37.663 86.4972C37.4997 86.6834 37.2935 86.8281 37.0442 86.9312C36.7979 87.0344 36.5071 87.0859 36.1719 87.0859C35.9198 87.0859 35.6806 87.0516 35.4543 86.9828C35.2308 86.9112 35.0303 86.8038 34.8527 86.6605C34.6779 86.5144 34.5347 86.3339 34.423 86.1191C34.3141 85.9014 34.2454 85.6464 34.2167 85.3542H34.973C35.0074 85.5891 35.0761 85.7868 35.1793 85.9472C35.2824 86.1076 35.4171 86.2294 35.5832 86.3125C35.7522 86.3927 35.9485 86.4328 36.1719 86.4328C36.361 86.4328 36.5286 86.3998 36.6747 86.3339C36.8208 86.2681 36.944 86.1735 37.0442 86.0503C37.1445 85.9271 37.2204 85.7782 37.272 85.6034C37.3264 85.4287 37.3536 85.2324 37.3536 85.0147C37.3536 84.8171 37.3264 84.6337 37.272 84.4647C37.2176 84.2957 37.1359 84.1481 37.027 84.0221C36.921 83.896 36.7907 83.7986 36.636 83.7299C36.4813 83.6583 36.3037 83.6225 36.1032 83.6225C35.8367 83.6225 35.6348 83.6583 35.4973 83.7299C35.3626 83.8015 35.2237 83.8989 35.0804 84.0221ZM42.9528 83.3732V84.3272C42.9528 84.84 42.907 85.2726 42.8153 85.6249C42.7236 85.9773 42.5918 86.2609 42.4199 86.4757C42.2481 86.6906 42.0404 86.8467 41.7969 86.9441C41.5562 87.0387 41.2841 87.0859 40.9804 87.0859C40.7398 87.0859 40.5177 87.0559 40.3144 86.9957C40.111 86.9355 39.9276 86.8396 39.7643 86.7078C39.6039 86.5732 39.4664 86.3984 39.3518 86.1835C39.2372 85.9687 39.1498 85.708 39.0897 85.4015C39.0295 85.0949 38.9994 84.7368 38.9994 84.3272V83.3732C38.9994 82.8604 39.0453 82.4307 39.1369 82.0841C39.2315 81.7374 39.3647 81.4596 39.5366 81.2504C39.7085 81.0384 39.9147 80.8866 40.1554 80.7949C40.3989 80.7033 40.671 80.6574 40.9718 80.6574C41.2153 80.6574 41.4388 80.6875 41.6422 80.7477C41.8484 80.805 42.0318 80.8981 42.1922 81.027C42.3526 81.153 42.4887 81.3221 42.6004 81.534C42.715 81.7432 42.8024 81.9996 42.8626 82.3032C42.9227 82.6069 42.9528 82.9636 42.9528 83.3732ZM42.1535 84.4561V83.24C42.1535 82.9593 42.1363 82.7129 42.102 82.5009C42.0704 82.286 42.0232 82.1027 41.9602 81.9509C41.8971 81.799 41.8169 81.6759 41.7195 81.5813C41.625 81.4868 41.5147 81.418 41.3886 81.3751C41.2655 81.3292 41.1265 81.3063 40.9718 81.3063C40.7827 81.3063 40.6152 81.3421 40.469 81.4137C40.3229 81.4825 40.1998 81.5928 40.0995 81.7446C40.0021 81.8964 39.9276 82.0955 39.876 82.3419C39.8245 82.5883 39.7987 82.8876 39.7987 83.24V84.4561C39.7987 84.7368 39.8145 84.9846 39.846 85.1995C39.8803 85.4144 39.9305 85.6006 39.9964 85.7581C40.0623 85.9128 40.1425 86.0403 40.237 86.1406C40.3315 86.2408 40.4404 86.3153 40.5636 86.364C40.6896 86.4099 40.8286 86.4328 40.9804 86.4328C41.1752 86.4328 41.3457 86.3955 41.4918 86.3211C41.6379 86.2466 41.7596 86.1305 41.857 85.973C41.9573 85.8126 42.0318 85.6077 42.0805 85.3585C42.1292 85.1064 42.1535 84.8056 42.1535 84.4561ZM44.7834 86.0546V86.6949C44.7834 86.9556 44.7175 87.2306 44.5857 87.52C44.4539 87.8122 44.2691 88.0557 44.0314 88.2505L43.5802 87.9368C43.6718 87.8107 43.7492 87.6818 43.8122 87.55C43.8752 87.4211 43.9225 87.2865 43.954 87.1461C43.9884 87.0086 44.0056 86.8625 44.0056 86.7078V86.0546H44.7834ZM49.6391 83.3732V84.3272C49.6391 84.84 49.5933 85.2726 49.5016 85.6249C49.4099 85.9773 49.2782 86.2609 49.1063 86.4757C48.9344 86.6906 48.7267 86.8467 48.4832 86.9441C48.2426 87.0387 47.9704 87.0859 47.6667 87.0859C47.4261 87.0859 47.2041 87.0559 47.0007 86.9957C46.7973 86.9355 46.6139 86.8396 46.4507 86.7078C46.2902 86.5732 46.1527 86.3984 46.0381 86.1835C45.9235 85.9687 45.8362 85.708 45.776 85.4015C45.7158 85.0949 45.6858 84.7368 45.6858 84.3272V83.3732C45.6858 82.8604 45.7316 82.4307 45.8233 82.0841C45.9178 81.7374 46.051 81.4596 46.2229 81.2504C46.3948 81.0384 46.6011 80.8866 46.8417 80.7949C47.0852 80.7033 47.3574 80.6574 47.6582 80.6574C47.9017 80.6574 48.1251 80.6875 48.3285 80.7477C48.5348 80.805 48.7181 80.8981 48.8785 81.027C49.039 81.153 49.175 81.3221 49.2868 81.534C49.4014 81.7432 49.4887 81.9996 49.5489 82.3032C49.609 82.6069 49.6391 82.9636 49.6391 83.3732ZM48.8399 84.4561V83.24C48.8399 82.9593 48.8227 82.7129 48.7883 82.5009C48.7568 82.286 48.7095 82.1027 48.6465 81.9509C48.5835 81.799 48.5033 81.6759 48.4059 81.5813C48.3113 81.4868 48.201 81.418 48.075 81.3751C47.9518 81.3292 47.8128 81.3063 47.6582 81.3063C47.4691 81.3063 47.3015 81.3421 47.1554 81.4137C47.0093 81.4825 46.8861 81.5928 46.7858 81.7446C46.6884 81.8964 46.6139 82.0955 46.5624 82.3419C46.5108 82.5883 46.485 82.8876 46.485 83.24V84.4561C46.485 84.7368 46.5008 84.9846 46.5323 85.1995C46.5667 85.4144 46.6168 85.6006 46.6827 85.7581C46.7486 85.9128 46.8288 86.0403 46.9233 86.1406C47.0179 86.2408 47.1267 86.3153 47.2499 86.364C47.376 86.4099 47.5149 86.4328 47.6667 86.4328C47.8615 86.4328 48.032 86.3955 48.1781 86.3211C48.3242 86.2466 48.446 86.1305 48.5434 85.973C48.6436 85.8126 48.7181 85.6077 48.7668 85.3585C48.8155 85.1064 48.8399 84.8056 48.8399 84.4561ZM54.5894 83.3732V84.3272C54.5894 84.84 54.5436 85.2726 54.4519 85.6249C54.3602 85.9773 54.2285 86.2609 54.0566 86.4757C53.8847 86.6906 53.677 86.8467 53.4335 86.9441C53.1929 87.0387 52.9207 87.0859 52.617 87.0859C52.3764 87.0859 52.1544 87.0559 51.951 86.9957C51.7476 86.9355 51.5642 86.8396 51.401 86.7078C51.2405 86.5732 51.103 86.3984 50.9884 86.1835C50.8738 85.9687 50.7865 85.708 50.7263 85.4015C50.6661 85.0949 50.6361 84.7368 50.6361 84.3272V83.3732C50.6361 82.8604 50.6819 82.4307 50.7736 82.0841C50.8681 81.7374 51.0013 81.4596 51.1732 81.2504C51.3451 81.0384 51.5514 80.8866 51.792 80.7949C52.0355 80.7033 52.3077 80.6574 52.6084 80.6574C52.852 80.6574 53.0754 80.6875 53.2788 80.7477C53.4851 80.805 53.6684 80.8981 53.8288 81.027C53.9893 81.153 54.1253 81.3221 54.2371 81.534C54.3517 81.7432 54.439 81.9996 54.4992 82.3032C54.5593 82.6069 54.5894 82.9636 54.5894 83.3732ZM53.7902 84.4561V83.24C53.7902 82.9593 53.773 82.7129 53.7386 82.5009C53.7071 82.286 53.6598 82.1027 53.5968 81.9509C53.5338 81.799 53.4536 81.6759 53.3562 81.5813C53.2616 81.4868 53.1513 81.418 53.0253 81.3751C52.9021 81.3292 52.7631 81.3063 52.6084 81.3063C52.4194 81.3063 52.2518 81.3421 52.1057 81.4137C51.9596 81.4825 51.8364 81.5928 51.7361 81.7446C51.6387 81.8964 51.5642 82.0955 51.5127 82.3419C51.4611 82.5883 51.4353 82.8876 51.4353 83.24V84.4561C51.4353 84.7368 51.4511 84.9846 51.4826 85.1995C51.517 85.4144 51.5671 85.6006 51.633 85.7581C51.6989 85.9128 51.7791 86.0403 51.8736 86.1406C51.9682 86.2408 52.077 86.3153 52.2002 86.364C52.3263 86.4099 52.4652 86.4328 52.617 86.4328C52.8118 86.4328 52.9823 86.3955 53.1284 86.3211C53.2745 86.2466 53.3963 86.1305 53.4937 85.973C53.5939 85.8126 53.6684 85.6077 53.7171 85.3585C53.7658 85.1064 53.7902 84.8056 53.7902 84.4561ZM59.5397 83.3732V84.3272C59.5397 84.84 59.4939 85.2726 59.4022 85.6249C59.3105 85.9773 59.1788 86.2609 59.0069 86.4757C58.835 86.6906 58.6273 86.8467 58.3838 86.9441C58.1432 87.0387 57.871 87.0859 57.5673 87.0859C57.3267 87.0859 57.1047 87.0559 56.9013 86.9957C56.6979 86.9355 56.5145 86.8396 56.3513 86.7078C56.1908 86.5732 56.0533 86.3984 55.9387 86.1835C55.8241 85.9687 55.7368 85.708 55.6766 85.4015C55.6164 85.0949 55.5864 84.7368 55.5864 84.3272V83.3732C55.5864 82.8604 55.6322 82.4307 55.7239 82.0841C55.8184 81.7374 55.9516 81.4596 56.1235 81.2504C56.2954 81.0384 56.5017 80.8866 56.7423 80.7949C56.9858 80.7033 57.2579 80.6574 57.5587 80.6574C57.8023 80.6574 58.0257 80.6875 58.2291 80.7477C58.4354 80.805 58.6187 80.8981 58.7791 81.027C58.9396 81.153 59.0756 81.3221 59.1874 81.534C59.3019 81.7432 59.3893 81.9996 59.4495 82.3032C59.5096 82.6069 59.5397 82.9636 59.5397 83.3732ZM58.7405 84.4561V83.24C58.7405 82.9593 58.7233 82.7129 58.6889 82.5009C58.6574 82.286 58.6101 82.1027 58.5471 81.9509C58.4841 81.799 58.4038 81.6759 58.3064 81.5813C58.2119 81.4868 58.1016 81.418 57.9756 81.3751C57.8524 81.3292 57.7134 81.3063 57.5587 81.3063C57.3697 81.3063 57.2021 81.3421 57.056 81.4137C56.9099 81.4825 56.7867 81.5928 56.6864 81.7446C56.589 81.8964 56.5145 82.0955 56.463 82.3419C56.4114 82.5883 56.3856 82.8876 56.3856 83.24V84.4561C56.3856 84.7368 56.4014 84.9846 56.4329 85.1995C56.4673 85.4144 56.5174 85.6006 56.5833 85.7581C56.6492 85.9128 56.7294 86.0403 56.8239 86.1406C56.9185 86.2408 57.0273 86.3153 57.1505 86.364C57.2766 86.4099 57.4155 86.4328 57.5673 86.4328C57.7621 86.4328 57.9326 86.3955 58.0787 86.3211C58.2248 86.2466 58.3466 86.1305 58.444 85.973C58.5442 85.8126 58.6187 85.6077 58.6674 85.3585C58.7161 85.1064 58.7405 84.8056 58.7405 84.4561Z" fill="black"/>
<path d="M11.3702 194.273L11.1725 194.952H7.18478L7.38244 194.273H11.3702ZM9.58258 199L7.30939 196.344L7.3051 195.812H8.3536C8.65726 195.812 8.90793 195.761 9.1056 195.661C9.30613 195.558 9.45653 195.419 9.55679 195.244C9.65706 195.07 9.70719 194.873 9.70719 194.656C9.70719 194.412 9.65993 194.199 9.56539 194.015C9.47085 193.829 9.32188 193.684 9.11849 193.581C8.91795 193.475 8.6544 193.422 8.32781 193.422H7.19337L7.39534 192.743H8.32781C8.82628 192.743 9.23737 192.819 9.56109 192.971C9.88767 193.12 10.1312 193.338 10.2916 193.624C10.452 193.911 10.5322 194.257 10.5322 194.664C10.5322 195.014 10.4649 195.327 10.3303 195.605C10.1985 195.88 9.97935 196.097 9.67282 196.254C9.36915 196.412 8.95949 196.49 8.44384 196.49L10.558 198.948V199H9.58258ZM11.3702 192.743L11.1725 193.422H7.95826L8.15593 192.743H11.3702ZM14.6876 192.709V199H13.8926V193.702L12.2898 194.286V193.568L14.563 192.709H14.6876ZM20.9528 195.373V196.327C20.9528 196.84 20.907 197.273 20.8153 197.625C20.7236 197.977 20.5918 198.261 20.4199 198.476C20.2481 198.691 20.0404 198.847 19.7969 198.944C19.5562 199.039 19.2841 199.086 18.9804 199.086C18.7398 199.086 18.5177 199.056 18.3144 198.996C18.111 198.936 17.9276 198.84 17.7643 198.708C17.6039 198.573 17.4664 198.398 17.3518 198.184C17.2372 197.969 17.1498 197.708 17.0897 197.401C17.0295 197.095 16.9994 196.737 16.9994 196.327V195.373C16.9994 194.86 17.0453 194.431 17.1369 194.084C17.2315 193.737 17.3647 193.46 17.5366 193.25C17.7085 193.038 17.9147 192.887 18.1554 192.795C18.3989 192.703 18.671 192.657 18.9718 192.657C19.2153 192.657 19.4388 192.688 19.6422 192.748C19.8484 192.805 20.0318 192.898 20.1922 193.027C20.3526 193.153 20.4887 193.322 20.6004 193.534C20.715 193.743 20.8024 194 20.8626 194.303C20.9227 194.607 20.9528 194.964 20.9528 195.373ZM20.1535 196.456V195.24C20.1535 194.959 20.1363 194.713 20.102 194.501C20.0704 194.286 20.0232 194.103 19.9602 193.951C19.8971 193.799 19.8169 193.676 19.7195 193.581C19.625 193.487 19.5147 193.418 19.3886 193.375C19.2655 193.329 19.1265 193.306 18.9718 193.306C18.7827 193.306 18.6152 193.342 18.469 193.414C18.3229 193.482 18.1998 193.593 18.0995 193.745C18.0021 193.896 17.9276 194.096 17.876 194.342C17.8245 194.588 17.7987 194.888 17.7987 195.24V196.456C17.7987 196.737 17.8145 196.985 17.846 197.2C17.8803 197.414 17.9305 197.601 17.9964 197.758C18.0623 197.913 18.1425 198.04 18.237 198.141C18.3315 198.241 18.4404 198.315 18.5636 198.364C18.6896 198.41 18.8286 198.433 18.9804 198.433C19.1752 198.433 19.3457 198.396 19.4918 198.321C19.6379 198.247 19.7596 198.131 19.857 197.973C19.9573 197.813 20.0318 197.608 20.0805 197.358C20.1292 197.106 20.1535 196.806 20.1535 196.456ZM22.7834 198.055V198.695C22.7834 198.956 22.7175 199.231 22.5857 199.52C22.4539 199.812 22.2691 200.056 22.0314 200.25L21.5802 199.937C21.6718 199.811 21.7492 199.682 21.8122 199.55C21.8752 199.421 21.9225 199.286 21.954 199.146C21.9884 199.009 22.0056 198.862 22.0056 198.708V198.055H22.7834ZM27.6391 195.373V196.327C27.6391 196.84 27.5933 197.273 27.5016 197.625C27.4099 197.977 27.2782 198.261 27.1063 198.476C26.9344 198.691 26.7267 198.847 26.4832 198.944C26.2426 199.039 25.9704 199.086 25.6667 199.086C25.4261 199.086 25.2041 199.056 25.0007 198.996C24.7973 198.936 24.6139 198.84 24.4507 198.708C24.2902 198.573 24.1527 198.398 24.0381 198.184C23.9235 197.969 23.8362 197.708 23.776 197.401C23.7158 197.095 23.6858 196.737 23.6858 196.327V195.373C23.6858 194.86 23.7316 194.431 23.8233 194.084C23.9178 193.737 24.051 193.46 24.2229 193.25C24.3948 193.038 24.6011 192.887 24.8417 192.795C25.0852 192.703 25.3574 192.657 25.6582 192.657C25.9017 192.657 26.1251 192.688 26.3285 192.748C26.5348 192.805 26.7181 192.898 26.8785 193.027C27.039 193.153 27.175 193.322 27.2868 193.534C27.4014 193.743 27.4887 194 27.5489 194.303C27.609 194.607 27.6391 194.964 27.6391 195.373ZM26.8399 196.456V195.24C26.8399 194.959 26.8227 194.713 26.7883 194.501C26.7568 194.286 26.7095 194.103 26.6465 193.951C26.5835 193.799 26.5033 193.676 26.4059 193.581C26.3113 193.487 26.201 193.418 26.075 193.375C25.9518 193.329 25.8128 193.306 25.6582 193.306C25.4691 193.306 25.3015 193.342 25.1554 193.414C25.0093 193.482 24.8861 193.593 24.7858 193.745C24.6884 193.896 24.6139 194.096 24.5624 194.342C24.5108 194.588 24.485 194.888 24.485 195.24V196.456C24.485 196.737 24.5008 196.985 24.5323 197.2C24.5667 197.414 24.6168 197.601 24.6827 197.758C24.7486 197.913 24.8288 198.04 24.9233 198.141C25.0179 198.241 25.1267 198.315 25.2499 198.364C25.376 198.41 25.5149 198.433 25.6667 198.433C25.8615 198.433 26.032 198.396 26.1781 198.321C26.3242 198.247 26.446 198.131 26.5434 197.973C26.6436 197.813 26.7181 197.608 26.7668 197.358C26.8155 197.106 26.8399 196.806 26.8399 196.456ZM32.5894 195.373V196.327C32.5894 196.84 32.5436 197.273 32.4519 197.625C32.3602 197.977 32.2285 198.261 32.0566 198.476C31.8847 198.691 31.677 198.847 31.4335 198.944C31.1929 199.039 30.9207 199.086 30.617 199.086C30.3764 199.086 30.1544 199.056 29.951 198.996C29.7476 198.936 29.5642 198.84 29.401 198.708C29.2405 198.573 29.103 198.398 28.9884 198.184C28.8738 197.969 28.7865 197.708 28.7263 197.401C28.6661 197.095 28.6361 196.737 28.6361 196.327V195.373C28.6361 194.86 28.6819 194.431 28.7736 194.084C28.8681 193.737 29.0013 193.46 29.1732 193.25C29.3451 193.038 29.5514 192.887 29.792 192.795C30.0355 192.703 30.3077 192.657 30.6084 192.657C30.852 192.657 31.0754 192.688 31.2788 192.748C31.4851 192.805 31.6684 192.898 31.8288 193.027C31.9893 193.153 32.1253 193.322 32.2371 193.534C32.3517 193.743 32.439 194 32.4992 194.303C32.5593 194.607 32.5894 194.964 32.5894 195.373ZM31.7902 196.456V195.24C31.7902 194.959 31.773 194.713 31.7386 194.501C31.7071 194.286 31.6598 194.103 31.5968 193.951C31.5338 193.799 31.4536 193.676 31.3562 193.581C31.2616 193.487 31.1513 193.418 31.0253 193.375C30.9021 193.329 30.7631 193.306 30.6084 193.306C30.4194 193.306 30.2518 193.342 30.1057 193.414C29.9596 193.482 29.8364 193.593 29.7361 193.745C29.6387 193.896 29.5642 194.096 29.5127 194.342C29.4611 194.588 29.4353 194.888 29.4353 195.24V196.456C29.4353 196.737 29.4511 196.985 29.4826 197.2C29.517 197.414 29.5671 197.601 29.633 197.758C29.6989 197.913 29.7791 198.04 29.8736 198.141C29.9682 198.241 30.077 198.315 30.2002 198.364C30.3263 198.41 30.4652 198.433 30.617 198.433C30.8118 198.433 30.9823 198.396 31.1284 198.321C31.2745 198.247 31.3963 198.131 31.4937 197.973C31.5939 197.813 31.6684 197.608 31.7171 197.358C31.7658 197.106 31.7902 196.806 31.7902 196.456ZM37.5397 195.373V196.327C37.5397 196.84 37.4939 197.273 37.4022 197.625C37.3105 197.977 37.1788 198.261 37.0069 198.476C36.835 198.691 36.6273 198.847 36.3838 198.944C36.1432 199.039 35.871 199.086 35.5673 199.086C35.3267 199.086 35.1047 199.056 34.9013 198.996C34.6979 198.936 34.5145 198.84 34.3513 198.708C34.1908 198.573 34.0533 198.398 33.9387 198.184C33.8241 197.969 33.7368 197.708 33.6766 197.401C33.6164 197.095 33.5864 196.737 33.5864 196.327V195.373C33.5864 194.86 33.6322 194.431 33.7239 194.084C33.8184 193.737 33.9516 193.46 34.1235 193.25C34.2954 193.038 34.5017 192.887 34.7423 192.795C34.9858 192.703 35.2579 192.657 35.5587 192.657C35.8023 192.657 36.0257 192.688 36.2291 192.748C36.4354 192.805 36.6187 192.898 36.7791 193.027C36.9396 193.153 37.0756 193.322 37.1874 193.534C37.3019 193.743 37.3893 194 37.4495 194.303C37.5096 194.607 37.5397 194.964 37.5397 195.373ZM36.7405 196.456V195.24C36.7405 194.959 36.7233 194.713 36.6889 194.501C36.6574 194.286 36.6101 194.103 36.5471 193.951C36.4841 193.799 36.4038 193.676 36.3064 193.581C36.2119 193.487 36.1016 193.418 35.9756 193.375C35.8524 193.329 35.7134 193.306 35.5587 193.306C35.3697 193.306 35.2021 193.342 35.056 193.414C34.9099 193.482 34.7867 193.593 34.6864 193.745C34.589 193.896 34.5145 194.096 34.463 194.342C34.4114 194.588 34.3856 194.888 34.3856 195.24V196.456C34.3856 196.737 34.4014 196.985 34.4329 197.2C34.4673 197.414 34.5174 197.601 34.5833 197.758C34.6492 197.913 34.7294 198.04 34.8239 198.141C34.9185 198.241 35.0273 198.315 35.1505 198.364C35.2766 198.41 35.4155 198.433 35.5673 198.433C35.7621 198.433 35.9326 198.396 36.0787 198.321C36.2248 198.247 36.3466 198.131 36.444 197.973C36.5442 197.813 36.6187 197.608 36.6674 197.358C36.7161 197.106 36.7405 196.806 36.7405 196.456Z" fill="black"/>
</svg>
