<svg width="11" height="20" viewBox="0 0 11 20" fill="none" xmlns="http://www.w3.org/2000/svg">
<path d="M5.55252 19.3735C4.10868 19.3735 2.88456 18.8713 1.88015 17.8668C0.87574 16.8624 0.373535 15.6383 0.373535 14.1945V4.30731C0.373535 3.27151 0.742342 2.38481 1.47996 1.64719C2.21757 0.909578 3.10427 0.540771 4.14007 0.540771C5.17587 0.540771 6.06258 0.909578 6.80019 1.64719C7.5378 2.38481 7.90661 3.27151 7.90661 4.30731V13.2528C7.90661 13.912 7.67905 14.4691 7.22392 14.9242C6.7688 15.3794 6.21167 15.6069 5.55252 15.6069C4.89338 15.6069 4.33625 15.3794 3.88112 14.9242C3.426 14.4691 3.19844 13.912 3.19844 13.2528V4.30731H4.61089V13.2528C4.61089 13.5196 4.70129 13.7431 4.88208 13.9233C5.06225 14.1041 5.28573 14.1945 5.55252 14.1945C5.81932 14.1945 6.04312 14.1041 6.22391 13.9233C6.40408 13.7431 6.49416 13.5196 6.49416 13.2528V4.30731C6.49416 3.64816 6.2666 3.09103 5.81147 2.63591C5.35635 2.18078 4.79922 1.95322 4.14007 1.95322C3.48093 1.95322 2.92379 2.18078 2.46867 2.63591C2.01355 3.09103 1.78599 3.64816 1.78599 4.30731V14.1945C1.78599 15.2303 2.15479 16.117 2.89241 16.8546C3.63002 17.5922 4.51673 17.961 5.55252 17.961C6.58832 17.961 7.47503 17.5922 8.21264 16.8546C8.95025 16.117 9.31906 15.2303 9.31906 14.1945V4.30731H10.7315V14.1945C10.7315 15.6383 10.2293 16.8624 9.2249 17.8668C8.22049 18.8713 6.99636 19.3735 5.55252 19.3735Z" fill="white"/>
</svg>
