<svg width="281" height="120" viewBox="0 0 281 120" fill="none" xmlns="http://www.w3.org/2000/svg">
<rect width="281" height="120" rx="8" fill="white"/>
<path d="M0 8C0 3.58172 3.58172 0 8 0H273C277.418 0 281 3.58172 281 8V34H0V8Z" fill="#047BD5"/>
<path d="M18.58 16.6576H16.1316L16.1184 15.4499H18.2566C18.6174 15.4499 18.9232 15.3971 19.174 15.2915C19.4291 15.1815 19.6227 15.0253 19.7547 14.8229C19.8867 14.6161 19.9527 14.3676 19.9527 14.0772C19.9527 13.756 19.8911 13.4942 19.7679 13.2919C19.6447 13.0895 19.4555 12.9421 19.2004 12.8497C18.9496 12.7573 18.6284 12.7111 18.2368 12.7111H16.6332V21H14.9767V11.3912H18.2368C18.7648 11.3912 19.2355 11.4418 19.6491 11.543C20.0671 11.6442 20.4212 11.8026 20.7116 12.0182C21.0064 12.2294 21.2286 12.4977 21.3782 12.8233C21.5322 13.1489 21.6091 13.536 21.6091 13.9848C21.6091 14.3808 21.5146 14.7437 21.3254 15.0737C21.1362 15.3993 20.8568 15.6655 20.4872 15.8722C20.1177 16.079 19.6579 16.2022 19.108 16.2418L18.58 16.6576ZM18.5074 21H15.6103L16.356 19.6867H18.5074C18.8814 19.6867 19.1938 19.6251 19.4445 19.5019C19.6953 19.3743 19.8823 19.2006 20.0055 18.9806C20.1331 18.7562 20.1969 18.4944 20.1969 18.1952C20.1969 17.8829 20.1419 17.6123 20.0319 17.3835C19.9219 17.1503 19.7481 16.9721 19.5105 16.849C19.2729 16.7214 18.9628 16.6576 18.58 16.6576H16.719L16.7322 15.4499H19.1542L19.5303 15.9052C20.0583 15.9228 20.4916 16.0394 20.8304 16.255C21.1736 16.4706 21.4288 16.75 21.5959 17.0931C21.7631 17.4363 21.8467 17.8059 21.8467 18.2018C21.8467 18.8134 21.7125 19.3259 21.4442 19.7395C21.1802 20.1531 20.7996 20.4676 20.3025 20.6832C19.8053 20.8944 19.207 21 18.5074 21ZM23.3118 13.3117H26.3409C26.8117 13.3117 27.2341 13.3623 27.608 13.4634C27.982 13.5646 28.2988 13.7142 28.5583 13.9122C28.8223 14.1058 29.0225 14.3478 29.1589 14.6381C29.2997 14.9241 29.3701 15.2563 29.3701 15.6347C29.3701 16.0526 29.2953 16.4112 29.1457 16.7104C28.9961 17.0051 28.7849 17.2493 28.5122 17.4429C28.2394 17.6365 27.9182 17.7927 27.5486 17.9115L27.0405 18.1886H24.3677L24.3545 16.9216H26.3607C26.6775 16.9216 26.9393 16.8732 27.1461 16.7764C27.3529 16.6796 27.509 16.5454 27.6146 16.3738C27.7202 16.1978 27.773 15.9954 27.773 15.7667C27.773 15.5247 27.7202 15.3157 27.6146 15.1397C27.5134 14.9593 27.3551 14.8207 27.1395 14.7239C26.9283 14.6271 26.6621 14.5788 26.3409 14.5788H24.9089V21H23.3118V13.3117ZM27.971 21L26.0704 17.5947L27.7532 17.5815L29.6869 20.9274V21H27.971ZM36.2269 19.7395V21H31.8251V19.7395H36.2269ZM32.3266 13.3117V21H30.7362V13.3117H32.3266ZM35.6593 16.3936V17.6541H31.8251V16.3936H35.6593ZM36.2137 13.3117V14.5788H31.8251V13.3117H36.2137ZM40.4769 14.8889L38.1671 21H36.5569L39.652 13.3117H40.7211L40.4769 14.8889ZM42.6085 21L40.2855 14.8757L40.0414 13.3117H41.1303L44.2188 21H42.6085ZM42.5095 18.149V19.3435H38.1143V18.149H42.5095ZM46.6474 13.3117V21H45.0569V13.3117H46.6474ZM51.5772 13.3117L48.3038 17.1261L46.456 18.9278L46.0864 17.4363L47.3931 15.8392L49.5973 13.3117H51.5772ZM49.8151 21L47.2743 17.4561L48.4358 16.4728L51.7158 21H49.8151Z" fill="white"/>
<path d="M18.7745 50.1675V60H17.4914V50.1675H18.7745ZM21.9349 50.1675V51.2345H14.3377V50.1675H21.9349ZM25.5613 60.1351C25.0526 60.1351 24.5911 60.0495 24.1769 59.8784C23.7673 59.7029 23.4138 59.4575 23.1167 59.1424C22.8241 58.8272 22.599 58.4535 22.4414 58.0213C22.2838 57.5891 22.205 57.1164 22.205 56.6032V56.3196C22.205 55.7253 22.2928 55.1963 22.4684 54.7326C22.644 54.2644 22.8826 53.8682 23.1842 53.544C23.4859 53.2199 23.828 52.9745 24.2107 52.8079C24.5934 52.6414 24.9896 52.5581 25.3993 52.5581C25.9215 52.5581 26.3717 52.6481 26.7499 52.8282C27.1326 53.0083 27.4454 53.2604 27.6886 53.5845C27.9317 53.9042 28.1118 54.2824 28.2288 54.7191C28.3459 55.1513 28.4044 55.624 28.4044 56.1372V56.6977H22.9479V55.678H27.1551V55.5835C27.1371 55.2593 27.0695 54.9442 26.9525 54.638C26.8399 54.3319 26.6598 54.0798 26.4122 53.8817C26.1646 53.6836 25.827 53.5845 25.3993 53.5845C25.1156 53.5845 24.8545 53.6453 24.6159 53.7669C24.3773 53.8839 24.1724 54.0595 24.0014 54.2936C23.8303 54.5277 23.6975 54.8136 23.6029 55.1513C23.5084 55.4889 23.4611 55.8783 23.4611 56.3196V56.6032C23.4611 56.9498 23.5084 57.2762 23.6029 57.5824C23.702 57.884 23.8438 58.1496 24.0284 58.3793C24.2175 58.6089 24.4448 58.7889 24.7104 58.9195C24.9806 59.0501 25.2867 59.1153 25.6289 59.1153C26.0701 59.1153 26.4437 59.0253 26.7499 58.8452C27.056 58.6651 27.3239 58.4243 27.5535 58.1226L28.3098 58.7237C28.1523 58.9623 27.9519 59.1896 27.7088 59.4057C27.4657 59.6218 27.1663 59.7974 26.8107 59.9325C26.4595 60.0675 26.0431 60.1351 25.5613 60.1351ZM34.1716 58.7507V54.9892C34.1716 54.7011 34.113 54.4512 33.996 54.2396C33.8834 54.0235 33.7123 53.8569 33.4827 53.7399C33.2531 53.6228 32.9695 53.5643 32.6318 53.5643C32.3167 53.5643 32.0398 53.6183 31.8012 53.7264C31.5671 53.8344 31.3825 53.9762 31.2475 54.1518C31.1169 54.3274 31.0516 54.5165 31.0516 54.7191H29.8023C29.8023 54.4579 29.8698 54.1991 30.0049 53.9425C30.1399 53.6858 30.3335 53.454 30.5856 53.2469C30.8423 53.0353 31.1484 52.8687 31.5041 52.7472C31.8642 52.6211 32.2649 52.5581 32.7061 52.5581C33.2374 52.5581 33.7056 52.6481 34.1108 52.8282C34.5205 53.0083 34.8401 53.2807 35.0697 53.6453C35.3038 54.0055 35.4209 54.4579 35.4209 55.0027V58.4063C35.4209 58.6494 35.4411 58.9082 35.4817 59.1829C35.5267 59.4575 35.592 59.6939 35.6775 59.892V60H34.3741C34.3111 59.8559 34.2616 59.6646 34.2256 59.426C34.1896 59.1829 34.1716 58.9578 34.1716 58.7507ZM34.3877 55.57L34.4012 56.4479H33.1383C32.7827 56.4479 32.4653 56.4771 32.1861 56.5357C31.907 56.5897 31.6729 56.673 31.4838 56.7855C31.2947 56.8981 31.1507 57.0399 31.0516 57.211C30.9526 57.3775 30.903 57.5734 30.903 57.7985C30.903 58.0281 30.9548 58.2374 31.0584 58.4265C31.1619 58.6156 31.3172 58.7664 31.5243 58.879C31.7359 58.987 31.9948 59.0411 32.3009 59.0411C32.6836 59.0411 33.0213 58.96 33.3139 58.7979C33.6065 58.6359 33.8384 58.4378 34.0095 58.2037C34.1851 57.9696 34.2796 57.7422 34.2931 57.5216L34.8266 58.1226C34.7951 58.3117 34.7095 58.5211 34.57 58.7507C34.4304 58.9803 34.2436 59.2009 34.0095 59.4125C33.7799 59.6196 33.5052 59.7929 33.1856 59.9325C32.8705 60.0675 32.5148 60.1351 32.1186 60.1351C31.6234 60.1351 31.1889 60.0383 30.8153 59.8447C30.4461 59.6511 30.158 59.3922 29.9509 59.0681C29.7483 58.7394 29.647 58.3725 29.647 57.9673C29.647 57.5756 29.7235 57.2312 29.8766 56.9341C30.0296 56.6324 30.2502 56.3826 30.5384 56.1845C30.8265 55.9819 31.1732 55.8288 31.5784 55.7253C31.9835 55.6217 32.436 55.57 32.9357 55.57H34.3877Z" fill="#292B3F"/>
<path d="M25.9277 75.816V98H21.9011V80.5111L16.5679 82.2737V79.0221L25.4719 75.816H25.9277ZM48.3548 94.8395V98H33.373V95.2954L40.56 87.531C41.3096 86.6801 41.9022 85.9406 42.3378 85.3126C42.7733 84.6845 43.0823 84.1173 43.2646 83.6108C43.4571 83.0942 43.5533 82.6029 43.5533 82.1369C43.5533 81.4582 43.4318 80.8657 43.1886 80.3592C42.9455 79.8426 42.591 79.4424 42.125 79.1588C41.6692 78.8752 41.107 78.7334 40.4384 78.7334C39.699 78.7334 39.0659 78.9056 38.5391 79.25C38.0225 79.5843 37.6275 80.0502 37.354 80.6479C37.0906 81.2455 36.9589 81.9293 36.9589 82.6991H32.9324C32.9324 81.3924 33.2362 80.2022 33.844 79.1284C34.4518 78.0446 35.323 77.1785 36.4575 76.5302C37.592 75.8819 38.9392 75.5577 40.4992 75.5577C42.0187 75.5577 43.3051 75.811 44.3586 76.3174C45.4121 76.8138 46.2124 77.5229 46.7594 78.4447C47.3064 79.3665 47.5799 80.4655 47.5799 81.7419C47.5799 82.451 47.4634 83.1499 47.2304 83.8387C46.9974 84.5275 46.6682 85.2113 46.2427 85.89C45.8274 86.5585 45.3311 87.2372 44.7537 87.926C44.1763 88.6149 43.5331 89.3189 42.824 90.0381L38.5087 94.8395H48.3548Z" fill="#333234"/>
<path d="M58.8864 92.9727V98H58.1832V91.6602H58.8571L58.8864 92.9727ZM58.7575 94.4375L58.4176 94.2617C58.4411 93.8867 58.5114 93.5352 58.6286 93.207C58.7497 92.8789 58.9176 92.5898 59.1325 92.3398C59.3473 92.0898 59.6051 91.8945 59.9059 91.7539C60.2067 91.6133 60.5485 91.543 60.9313 91.543C61.2399 91.543 61.5192 91.5859 61.7692 91.6719C62.0231 91.7539 62.2379 91.8848 62.4137 92.0645C62.5934 92.2402 62.7321 92.4707 62.8297 92.7559C62.9274 93.041 62.9762 93.3828 62.9762 93.7812V98H62.2789V93.8047C62.2789 93.3828 62.2125 93.0527 62.0797 92.8145C61.9508 92.5762 61.7692 92.4062 61.5348 92.3047C61.3043 92.2031 61.0368 92.1523 60.7321 92.1523C60.3727 92.1523 60.068 92.2266 59.818 92.375C59.5719 92.5195 59.3707 92.709 59.2145 92.9434C59.0622 93.1738 58.9489 93.4219 58.8747 93.6875C58.8004 93.9492 58.7614 94.1992 58.7575 94.4375ZM62.9704 93.8867L62.5016 93.8984C62.5211 93.5898 62.5914 93.2949 62.7125 93.0137C62.8375 92.7324 63.0075 92.4824 63.2223 92.2637C63.4372 92.041 63.693 91.8652 63.9899 91.7363C64.2907 91.6074 64.6286 91.543 65.0036 91.543C65.3317 91.543 65.6247 91.5879 65.8825 91.6777C66.1403 91.7637 66.3571 91.9023 66.5329 92.0938C66.7125 92.2812 66.8493 92.5215 66.943 92.8145C67.0368 93.1074 67.0836 93.459 67.0836 93.8691V98H66.3805V93.8633C66.3805 93.4141 66.3141 93.0664 66.1813 92.8203C66.0524 92.5703 65.8727 92.3965 65.6422 92.2988C65.4118 92.2012 65.1422 92.1523 64.8336 92.1523C64.5289 92.1562 64.2614 92.2129 64.0309 92.3223C63.8004 92.4277 63.6071 92.5684 63.4508 92.7441C63.2985 92.916 63.1813 93.1016 63.0993 93.3008C63.0211 93.5 62.9782 93.6953 62.9704 93.8867ZM69.6442 91.6602V98H68.9469V91.6602H69.6442ZM68.8239 89.8262C68.8239 89.6934 68.8649 89.582 68.9469 89.4922C69.0329 89.3984 69.15 89.3516 69.2985 89.3516C69.4469 89.3516 69.5641 89.3984 69.65 89.4922C69.7399 89.582 69.7848 89.6934 69.7848 89.8262C69.7848 89.9551 69.7399 90.0664 69.65 90.1602C69.5641 90.25 69.4469 90.2949 69.2985 90.2949C69.15 90.2949 69.0329 90.25 68.9469 90.1602C68.8649 90.0664 68.8239 89.9551 68.8239 89.8262ZM72.2575 93.0137V98H71.5602V91.6602H72.2282L72.2575 93.0137ZM72.0993 94.4375L71.7887 94.2617C71.8122 93.8867 71.8883 93.5352 72.0172 93.207C72.1461 92.8789 72.32 92.5898 72.5387 92.3398C72.7614 92.0898 73.0211 91.8945 73.318 91.7539C73.6188 91.6133 73.9508 91.543 74.3141 91.543C74.6305 91.543 74.9137 91.5859 75.1637 91.6719C75.4137 91.7578 75.6266 91.8945 75.8024 92.082C75.9782 92.2695 76.111 92.5098 76.2008 92.8027C76.2946 93.0957 76.3414 93.4531 76.3414 93.875V98H75.6383V93.8691C75.6383 93.4316 75.5778 93.0898 75.4567 92.8438C75.3356 92.5938 75.1637 92.416 74.9411 92.3105C74.7184 92.2051 74.4547 92.1523 74.15 92.1523C73.8141 92.1523 73.5192 92.2266 73.2653 92.375C73.0153 92.5195 72.8043 92.709 72.6325 92.9434C72.4645 93.1738 72.3356 93.4219 72.2457 93.6875C72.1559 93.9492 72.1071 94.1992 72.0993 94.4375ZM81.9547 96.3828C81.9547 96.2109 81.9118 96.041 81.8258 95.873C81.7399 95.7051 81.5739 95.5508 81.3278 95.4102C81.0856 95.2695 80.7282 95.1504 80.2555 95.0527C79.9039 94.9746 79.5895 94.8867 79.3122 94.7891C79.0387 94.6914 78.8082 94.5742 78.6207 94.4375C78.4332 94.3008 78.2907 94.1367 78.193 93.9453C78.0954 93.7539 78.0465 93.5273 78.0465 93.2656C78.0465 93.0312 78.0973 92.8105 78.1989 92.6035C78.3043 92.3926 78.4528 92.209 78.6442 92.0527C78.8395 91.8926 79.0739 91.7676 79.3473 91.6777C79.6247 91.5879 79.9352 91.543 80.2789 91.543C80.7672 91.543 81.1852 91.627 81.5329 91.7949C81.8844 91.959 82.152 92.1836 82.3356 92.4688C82.5231 92.7539 82.6168 93.0762 82.6168 93.4355H81.9196C81.9196 93.2168 81.8551 93.0098 81.7262 92.8145C81.6012 92.6191 81.4157 92.459 81.1696 92.334C80.9274 92.209 80.6305 92.1465 80.2789 92.1465C79.9157 92.1465 79.6207 92.2012 79.3942 92.3105C79.1676 92.4199 79.0016 92.5586 78.8961 92.7266C78.7946 92.8945 78.7438 93.0684 78.7438 93.248C78.7438 93.3887 78.7653 93.5176 78.8082 93.6348C78.8551 93.748 78.9372 93.8535 79.0543 93.9512C79.1754 94.0488 79.3473 94.1406 79.57 94.2266C79.7926 94.3125 80.0817 94.3965 80.4372 94.4785C80.9489 94.5918 81.3668 94.7305 81.6911 94.8945C82.0192 95.0547 82.2614 95.2539 82.4176 95.4922C82.5739 95.7266 82.652 96.0117 82.652 96.3477C82.652 96.6094 82.5973 96.8496 82.4879 97.0684C82.3786 97.2832 82.2204 97.4688 82.0133 97.625C81.8102 97.7812 81.5641 97.9023 81.275 97.9883C80.9899 98.0742 80.6696 98.1172 80.3141 98.1172C79.7789 98.1172 79.3258 98.0293 78.9547 97.8535C78.5875 97.6738 78.3082 97.4395 78.1168 97.1504C77.9293 96.8574 77.8356 96.5469 77.8356 96.2188H78.5329C78.5563 96.5469 78.6598 96.8066 78.8434 96.998C79.027 97.1855 79.2516 97.3184 79.5172 97.3965C79.7868 97.4746 80.0524 97.5137 80.3141 97.5137C80.6735 97.5137 80.9743 97.4609 81.2164 97.3555C81.4586 97.25 81.6422 97.1113 81.7672 96.9395C81.8922 96.7676 81.9547 96.582 81.9547 96.3828Z" fill="#484848"/>
<path d="M113.104 58.9398V60H108.188V58.9398H113.104ZM108.445 50.1675V60H107.141V50.1675H108.445ZM118.581 58.3117V52.6931H119.837V60H118.642L118.581 58.3117ZM118.817 56.772L119.337 56.7585C119.337 57.2447 119.286 57.6949 119.182 58.1091C119.083 58.5188 118.921 58.8745 118.696 59.1761C118.471 59.4778 118.176 59.7141 117.811 59.8852C117.447 60.0518 117.003 60.1351 116.481 60.1351C116.125 60.1351 115.799 60.0833 115.502 59.9797C115.209 59.8762 114.957 59.7164 114.745 59.5003C114.534 59.2842 114.369 59.0028 114.252 58.6561C114.14 58.3095 114.083 57.893 114.083 57.4068V52.6931H115.333V57.4203C115.333 57.749 115.369 58.0213 115.441 58.2374C115.517 58.449 115.619 58.6179 115.745 58.7439C115.875 58.8655 116.019 58.951 116.177 59.0005C116.339 59.0501 116.506 59.0748 116.677 59.0748C117.208 59.0748 117.629 58.9735 117.94 58.7709C118.25 58.5638 118.473 58.287 118.608 57.9403C118.748 57.5891 118.817 57.1997 118.817 56.772ZM122.991 54.2531V60H121.742V52.6931H122.923L122.991 54.2531ZM122.694 56.0697L122.174 56.0494C122.178 55.5497 122.252 55.0882 122.397 54.665C122.541 54.2373 122.743 53.8659 123.004 53.5508C123.265 53.2356 123.576 52.9925 123.936 52.8214C124.301 52.6459 124.704 52.5581 125.145 52.5581C125.505 52.5581 125.829 52.6076 126.118 52.7066C126.406 52.8012 126.651 52.9543 126.854 53.1658C127.061 53.3774 127.218 53.6521 127.326 53.9897C127.434 54.3229 127.488 54.7303 127.488 55.212V60H126.232V55.1985C126.232 54.8159 126.176 54.5097 126.063 54.2801C125.951 54.046 125.787 53.8772 125.571 53.7736C125.354 53.6656 125.089 53.6116 124.774 53.6116C124.463 53.6116 124.179 53.6768 123.923 53.8074C123.671 53.938 123.452 54.118 123.268 54.3476C123.088 54.5772 122.946 54.8406 122.842 55.1378C122.743 55.4304 122.694 55.741 122.694 56.0697ZM132.31 59.1086C132.607 59.1086 132.882 59.0478 133.134 58.9263C133.386 58.8047 133.593 58.6381 133.755 58.4265C133.917 58.2104 134.01 57.9651 134.032 57.6904H135.221C135.198 58.1226 135.052 58.5256 134.782 58.8992C134.516 59.2684 134.167 59.5678 133.735 59.7974C133.303 60.0225 132.828 60.1351 132.31 60.1351C131.761 60.1351 131.281 60.0383 130.872 59.8447C130.467 59.6511 130.129 59.3855 129.859 59.0478C129.593 58.7102 129.393 58.323 129.258 57.8863C129.127 57.4451 129.062 56.9791 129.062 56.4884V56.2048C129.062 55.714 129.127 55.2503 129.258 54.8136C129.393 54.3724 129.593 53.983 129.859 53.6453C130.129 53.3077 130.467 53.042 130.872 52.8485C131.281 52.6549 131.761 52.5581 132.31 52.5581C132.882 52.5581 133.382 52.6751 133.809 52.9092C134.237 53.1388 134.572 53.454 134.816 53.8547C135.063 54.2508 135.198 54.7011 135.221 55.2053H134.032C134.01 54.9037 133.924 54.6313 133.776 54.3882C133.631 54.1451 133.433 53.9515 133.181 53.8074C132.934 53.6588 132.643 53.5845 132.31 53.5845C131.927 53.5845 131.606 53.6611 131.344 53.8141C131.088 53.9627 130.883 54.1653 130.73 54.4219C130.581 54.674 130.473 54.9554 130.406 55.2661C130.343 55.5722 130.311 55.8851 130.311 56.2048V56.4884C130.311 56.808 130.343 57.1232 130.406 57.4338C130.469 57.7445 130.575 58.0258 130.723 58.278C130.876 58.5301 131.081 58.7327 131.338 58.8857C131.599 59.0343 131.923 59.1086 132.31 59.1086ZM137.875 49.6272V60H136.625V49.6272H137.875ZM137.578 56.0697L137.058 56.0494C137.062 55.5497 137.136 55.0882 137.28 54.665C137.424 54.2373 137.627 53.8659 137.888 53.5508C138.149 53.2356 138.46 52.9925 138.82 52.8214C139.185 52.6459 139.588 52.5581 140.029 52.5581C140.389 52.5581 140.713 52.6076 141.001 52.7066C141.29 52.8012 141.535 52.9543 141.737 53.1658C141.945 53.3774 142.102 53.6521 142.21 53.9897C142.318 54.3229 142.372 54.7303 142.372 55.212V60H141.116V55.1985C141.116 54.8159 141.06 54.5097 140.947 54.2801C140.835 54.046 140.67 53.8772 140.454 53.7736C140.238 53.6656 139.973 53.6116 139.658 53.6116C139.347 53.6116 139.063 53.6768 138.807 53.8074C138.555 53.938 138.336 54.118 138.152 54.3476C137.971 54.5772 137.83 54.8406 137.726 55.1378C137.627 55.4304 137.578 55.741 137.578 56.0697Z" fill="#292B3F"/>
<path d="M111.987 85.1606H114.251C115.051 85.1606 115.709 85.0239 116.226 84.7504C116.753 84.4668 117.143 84.0818 117.396 83.5956C117.659 83.0993 117.791 82.5269 117.791 81.8786C117.791 81.2405 117.674 80.6884 117.441 80.2224C117.208 79.7463 116.854 79.3817 116.378 79.1284C115.912 78.8651 115.314 78.7334 114.585 78.7334C113.997 78.7334 113.455 78.8499 112.959 79.0828C112.473 79.3158 112.083 79.6501 111.789 80.0857C111.505 80.5111 111.364 81.0227 111.364 81.6203H107.337C107.337 80.425 107.651 79.3766 108.279 78.4751C108.917 77.5634 109.778 76.8492 110.862 76.3326C111.946 75.816 113.157 75.5577 114.494 75.5577C115.952 75.5577 117.229 75.8008 118.323 76.2871C119.427 76.7631 120.283 77.4672 120.891 78.3991C121.509 79.331 121.817 80.4858 121.817 81.8634C121.817 82.5219 121.66 83.1803 121.346 83.8387C121.043 84.487 120.592 85.0745 119.994 85.6013C119.407 86.1179 118.682 86.5383 117.821 86.8624C116.97 87.1764 115.993 87.3335 114.889 87.3335H111.987V85.1606ZM111.987 88.2603V86.1179H114.889C116.135 86.1179 117.214 86.2648 118.125 86.5585C119.047 86.8422 119.807 87.2474 120.404 87.7741C121.002 88.2907 121.443 88.8934 121.726 89.5822C122.02 90.2711 122.167 91.0105 122.167 91.8006C122.167 92.8339 121.974 93.7557 121.59 94.566C121.205 95.3663 120.663 96.045 119.964 96.6021C119.275 97.1592 118.465 97.5847 117.533 97.8784C116.601 98.1621 115.593 98.3039 114.509 98.3039C113.567 98.3039 112.65 98.1773 111.759 97.924C110.877 97.6607 110.082 97.2707 109.373 96.7541C108.664 96.2273 108.102 95.5689 107.687 94.7788C107.271 93.9785 107.064 93.0517 107.064 91.9982H111.09C111.09 92.606 111.237 93.1479 111.531 93.624C111.835 94.1001 112.25 94.4749 112.777 94.7484C113.314 95.0117 113.916 95.1434 114.585 95.1434C115.324 95.1434 115.957 95.0117 116.484 94.7484C117.021 94.4749 117.431 94.0899 117.715 93.5936C117.999 93.0871 118.14 92.4844 118.14 91.7854C118.14 90.9548 117.983 90.2812 117.669 89.7646C117.355 89.248 116.905 88.8681 116.317 88.625C115.74 88.3819 115.051 88.2603 114.251 88.2603H111.987ZM140.355 94.8395V98H125.373V95.2954L132.56 87.531C133.31 86.6801 133.902 85.9406 134.338 85.3126C134.773 84.6845 135.082 84.1173 135.265 83.6108C135.457 83.0942 135.553 82.6029 135.553 82.1369C135.553 81.4582 135.432 80.8657 135.189 80.3592C134.946 79.8426 134.591 79.4424 134.125 79.1588C133.669 78.8752 133.107 78.7334 132.438 78.7334C131.699 78.7334 131.066 78.9056 130.539 79.25C130.023 79.5843 129.627 80.0502 129.354 80.6479C129.091 81.2455 128.959 81.9293 128.959 82.6991H124.932C124.932 81.3924 125.236 80.2022 125.844 79.1284C126.452 78.0446 127.323 77.1785 128.457 76.5302C129.592 75.8819 130.939 75.5577 132.499 75.5577C134.019 75.5577 135.305 75.811 136.359 76.3174C137.412 76.8138 138.212 77.5229 138.759 78.4447C139.306 79.3665 139.58 80.4655 139.58 81.7419C139.58 82.451 139.463 83.1499 139.23 83.8387C138.997 84.5275 138.668 85.2113 138.243 85.89C137.827 86.5585 137.331 87.2372 136.754 87.926C136.176 88.6149 135.533 89.3189 134.824 90.0381L130.509 94.8395H140.355Z" fill="#333234"/>
<path d="M150.886 92.9727V98H150.183V91.6602H150.857L150.886 92.9727ZM150.757 94.4375L150.418 94.2617C150.441 93.8867 150.511 93.5352 150.629 93.207C150.75 92.8789 150.918 92.5898 151.132 92.3398C151.347 92.0898 151.605 91.8945 151.906 91.7539C152.207 91.6133 152.548 91.543 152.931 91.543C153.24 91.543 153.519 91.5859 153.769 91.6719C154.023 91.7539 154.238 91.8848 154.414 92.0645C154.593 92.2402 154.732 92.4707 154.83 92.7559C154.927 93.041 154.976 93.3828 154.976 93.7812V98H154.279V93.8047C154.279 93.3828 154.213 93.0527 154.08 92.8145C153.951 92.5762 153.769 92.4062 153.535 92.3047C153.304 92.2031 153.037 92.1523 152.732 92.1523C152.373 92.1523 152.068 92.2266 151.818 92.375C151.572 92.5195 151.371 92.709 151.214 92.9434C151.062 93.1738 150.949 93.4219 150.875 93.6875C150.8 93.9492 150.761 94.1992 150.757 94.4375ZM154.97 93.8867L154.502 93.8984C154.521 93.5898 154.591 93.2949 154.713 93.0137C154.838 92.7324 155.007 92.4824 155.222 92.2637C155.437 92.041 155.693 91.8652 155.99 91.7363C156.291 91.6074 156.629 91.543 157.004 91.543C157.332 91.543 157.625 91.5879 157.882 91.6777C158.14 91.7637 158.357 91.9023 158.533 92.0938C158.713 92.2812 158.849 92.5215 158.943 92.8145C159.037 93.1074 159.084 93.459 159.084 93.8691V98H158.381V93.8633C158.381 93.4141 158.314 93.0664 158.181 92.8203C158.052 92.5703 157.873 92.3965 157.642 92.2988C157.412 92.2012 157.142 92.1523 156.834 92.1523C156.529 92.1562 156.261 92.2129 156.031 92.3223C155.8 92.4277 155.607 92.5684 155.451 92.7441C155.298 92.916 155.181 93.1016 155.099 93.3008C155.021 93.5 154.978 93.6953 154.97 93.8867ZM161.644 91.6602V98H160.947V91.6602H161.644ZM160.824 89.8262C160.824 89.6934 160.865 89.582 160.947 89.4922C161.033 89.3984 161.15 89.3516 161.298 89.3516C161.447 89.3516 161.564 89.3984 161.65 89.4922C161.74 89.582 161.785 89.6934 161.785 89.8262C161.785 89.9551 161.74 90.0664 161.65 90.1602C161.564 90.25 161.447 90.2949 161.298 90.2949C161.15 90.2949 161.033 90.25 160.947 90.1602C160.865 90.0664 160.824 89.9551 160.824 89.8262ZM164.257 93.0137V98H163.56V91.6602H164.228L164.257 93.0137ZM164.099 94.4375L163.789 94.2617C163.812 93.8867 163.888 93.5352 164.017 93.207C164.146 92.8789 164.32 92.5898 164.539 92.3398C164.761 92.0898 165.021 91.8945 165.318 91.7539C165.619 91.6133 165.951 91.543 166.314 91.543C166.631 91.543 166.914 91.5859 167.164 91.6719C167.414 91.7578 167.627 91.8945 167.802 92.082C167.978 92.2695 168.111 92.5098 168.201 92.8027C168.295 93.0957 168.341 93.4531 168.341 93.875V98H167.638V93.8691C167.638 93.4316 167.578 93.0898 167.457 92.8438C167.336 92.5938 167.164 92.416 166.941 92.3105C166.718 92.2051 166.455 92.1523 166.15 92.1523C165.814 92.1523 165.519 92.2266 165.265 92.375C165.015 92.5195 164.804 92.709 164.632 92.9434C164.464 93.1738 164.336 93.4219 164.246 93.6875C164.156 93.9492 164.107 94.1992 164.099 94.4375ZM173.955 96.3828C173.955 96.2109 173.912 96.041 173.826 95.873C173.74 95.7051 173.574 95.5508 173.328 95.4102C173.086 95.2695 172.728 95.1504 172.256 95.0527C171.904 94.9746 171.589 94.8867 171.312 94.7891C171.039 94.6914 170.808 94.5742 170.621 94.4375C170.433 94.3008 170.291 94.1367 170.193 93.9453C170.095 93.7539 170.047 93.5273 170.047 93.2656C170.047 93.0312 170.097 92.8105 170.199 92.6035C170.304 92.3926 170.453 92.209 170.644 92.0527C170.839 91.8926 171.074 91.7676 171.347 91.6777C171.625 91.5879 171.935 91.543 172.279 91.543C172.767 91.543 173.185 91.627 173.533 91.7949C173.884 91.959 174.152 92.1836 174.336 92.4688C174.523 92.7539 174.617 93.0762 174.617 93.4355H173.92C173.92 93.2168 173.855 93.0098 173.726 92.8145C173.601 92.6191 173.416 92.459 173.17 92.334C172.927 92.209 172.631 92.1465 172.279 92.1465C171.916 92.1465 171.621 92.2012 171.394 92.3105C171.168 92.4199 171.002 92.5586 170.896 92.7266C170.795 92.8945 170.744 93.0684 170.744 93.248C170.744 93.3887 170.765 93.5176 170.808 93.6348C170.855 93.748 170.937 93.8535 171.054 93.9512C171.175 94.0488 171.347 94.1406 171.57 94.2266C171.793 94.3125 172.082 94.3965 172.437 94.4785C172.949 94.5918 173.367 94.7305 173.691 94.8945C174.019 95.0547 174.261 95.2539 174.418 95.4922C174.574 95.7266 174.652 96.0117 174.652 96.3477C174.652 96.6094 174.597 96.8496 174.488 97.0684C174.379 97.2832 174.22 97.4688 174.013 97.625C173.81 97.7812 173.564 97.9023 173.275 97.9883C172.99 98.0742 172.67 98.1172 172.314 98.1172C171.779 98.1172 171.326 98.0293 170.955 97.8535C170.588 97.6738 170.308 97.4395 170.117 97.1504C169.929 96.8574 169.836 96.5469 169.836 96.2188H170.533C170.556 96.5469 170.66 96.8066 170.843 96.998C171.027 97.1855 171.252 97.3184 171.517 97.3965C171.787 97.4746 172.052 97.5137 172.314 97.5137C172.673 97.5137 172.974 97.4609 173.216 97.3555C173.459 97.25 173.642 97.1113 173.767 96.9395C173.892 96.7676 173.955 96.582 173.955 96.3828Z" fill="#484848"/>
<path d="M206.712 54.7731V55.3944C206.712 56.1327 206.619 56.7945 206.435 57.3798C206.25 57.9651 205.984 58.4625 205.638 58.8722C205.291 59.2819 204.875 59.5948 204.388 59.8109C203.907 60.027 203.366 60.1351 202.768 60.1351C202.187 60.1351 201.653 60.027 201.167 59.8109C200.685 59.5948 200.267 59.2819 199.911 58.8722C199.56 58.4625 199.288 57.9651 199.094 57.3798C198.9 56.7945 198.804 56.1327 198.804 55.3944V54.7731C198.804 54.0347 198.898 53.3752 199.087 52.7944C199.281 52.2092 199.553 51.7117 199.904 51.302C200.256 50.8878 200.672 50.5727 201.154 50.3566C201.64 50.1405 202.173 50.0324 202.754 50.0324C203.353 50.0324 203.893 50.1405 204.375 50.3566C204.861 50.5727 205.278 50.8878 205.624 51.302C205.975 51.7117 206.243 52.2092 206.428 52.7944C206.617 53.3752 206.712 54.0347 206.712 54.7731ZM205.422 55.3944V54.7596C205.422 54.1743 205.361 53.6566 205.239 53.2064C205.122 52.7562 204.949 52.378 204.719 52.0718C204.49 51.7657 204.208 51.5338 203.875 51.3763C203.547 51.2187 203.173 51.1399 202.754 51.1399C202.349 51.1399 201.982 51.2187 201.653 51.3763C201.329 51.5338 201.05 51.7657 200.816 52.0718C200.586 52.378 200.409 52.7562 200.283 53.2064C200.156 53.6566 200.093 54.1743 200.093 54.7596V55.3944C200.093 55.9841 200.156 56.5064 200.283 56.9611C200.409 57.4113 200.589 57.7917 200.823 58.1024C201.061 58.4085 201.343 58.6404 201.667 58.7979C201.996 58.9555 202.363 59.0343 202.768 59.0343C203.191 59.0343 203.567 58.9555 203.895 58.7979C204.224 58.6404 204.501 58.4085 204.726 58.1024C204.956 57.7917 205.129 57.4113 205.246 56.9611C205.363 56.5064 205.422 55.9841 205.422 55.3944ZM211.533 52.6931V53.6521H207.583V52.6931H211.533ZM208.92 50.9171H210.169V58.1902C210.169 58.4378 210.207 58.6246 210.284 58.7507C210.36 58.8767 210.459 58.96 210.581 59.0005C210.703 59.0411 210.833 59.0613 210.973 59.0613C211.076 59.0613 211.184 59.0523 211.297 59.0343C211.414 59.0118 211.502 58.9938 211.56 58.9803L211.567 60C211.468 60.0315 211.337 60.0608 211.175 60.0878C211.018 60.1193 210.826 60.1351 210.601 60.1351C210.295 60.1351 210.014 60.0743 209.757 59.9527C209.501 59.8312 209.296 59.6286 209.143 59.3449C208.994 59.0568 208.92 58.6696 208.92 58.1834V50.9171ZM214.248 49.6272V60H212.999V49.6272H214.248ZM213.951 56.0697L213.431 56.0494C213.435 55.5497 213.51 55.0882 213.654 54.665C213.798 54.2373 214 53.8659 214.261 53.5508C214.523 53.2356 214.833 52.9925 215.193 52.8214C215.558 52.6459 215.961 52.5581 216.402 52.5581C216.762 52.5581 217.087 52.6076 217.375 52.7066C217.663 52.8012 217.908 52.9543 218.111 53.1658C218.318 53.3774 218.475 53.6521 218.583 53.9897C218.692 54.3229 218.746 54.7303 218.746 55.212V60H217.489V55.1985C217.489 54.8159 217.433 54.5097 217.321 54.2801C217.208 54.046 217.044 53.8772 216.828 53.7736C216.612 53.6656 216.346 53.6116 216.031 53.6116C215.72 53.6116 215.437 53.6768 215.18 53.8074C214.928 53.938 214.709 54.118 214.525 54.3476C214.345 54.5772 214.203 54.8406 214.099 55.1378C214 55.4304 213.951 55.741 213.951 56.0697ZM223.648 60.1351C223.14 60.1351 222.678 60.0495 222.264 59.8784C221.854 59.7029 221.501 59.4575 221.204 59.1424C220.911 58.8272 220.686 58.4535 220.528 58.0213C220.371 57.5891 220.292 57.1164 220.292 56.6032V56.3196C220.292 55.7253 220.38 55.1963 220.555 54.7326C220.731 54.2644 220.97 53.8682 221.271 53.544C221.573 53.2199 221.915 52.9745 222.298 52.8079C222.68 52.6414 223.077 52.5581 223.486 52.5581C224.008 52.5581 224.459 52.6481 224.837 52.8282C225.22 53.0083 225.532 53.2604 225.776 53.5845C226.019 53.9042 226.199 54.2824 226.316 54.7191C226.433 55.1513 226.491 55.624 226.491 56.1372V56.6977H221.035V55.678H225.242V55.5835C225.224 55.2593 225.157 54.9442 225.039 54.638C224.927 54.3319 224.747 54.0798 224.499 53.8817C224.252 53.6836 223.914 53.5845 223.486 53.5845C223.203 53.5845 222.941 53.6453 222.703 53.7669C222.464 53.8839 222.259 54.0595 222.088 54.2936C221.917 54.5277 221.784 54.8136 221.69 55.1513C221.595 55.4889 221.548 55.8783 221.548 56.3196V56.6032C221.548 56.9498 221.595 57.2762 221.69 57.5824C221.789 57.884 221.931 58.1496 222.115 58.3793C222.304 58.6089 222.532 58.7889 222.797 58.9195C223.068 59.0501 223.374 59.1153 223.716 59.1153C224.157 59.1153 224.531 59.0253 224.837 58.8452C225.143 58.6651 225.411 58.4243 225.64 58.1226L226.397 58.7237C226.239 58.9623 226.039 59.1896 225.796 59.4057C225.553 59.6218 225.253 59.7974 224.898 59.9325C224.546 60.0675 224.13 60.1351 223.648 60.1351ZM229.199 53.8412V60H227.95V52.6931H229.166L229.199 53.8412ZM231.482 52.6526L231.475 53.8141C231.372 53.7916 231.273 53.7781 231.178 53.7736C231.088 53.7646 230.984 53.7601 230.867 53.7601C230.579 53.7601 230.325 53.8051 230.104 53.8952C229.884 53.9852 229.697 54.1113 229.544 54.2734C229.391 54.4354 229.269 54.629 229.179 54.8541C229.094 55.0747 229.037 55.3178 229.01 55.5835L228.659 55.7861C228.659 55.3449 228.702 54.9307 228.787 54.5435C228.877 54.1563 229.015 53.8141 229.199 53.517C229.384 53.2154 229.618 52.9813 229.902 52.8147C230.19 52.6436 230.532 52.5581 230.928 52.5581C231.018 52.5581 231.122 52.5693 231.239 52.5918C231.356 52.6098 231.437 52.6301 231.482 52.6526ZM236.891 58.0619C236.891 57.8818 236.851 57.7152 236.77 57.5621C236.693 57.4046 236.533 57.2627 236.29 57.1367C236.052 57.0061 235.691 56.8936 235.21 56.799C234.804 56.7135 234.438 56.6122 234.109 56.4951C233.785 56.3781 233.508 56.2363 233.278 56.0697C233.053 55.9031 232.88 55.7073 232.758 55.4822C232.637 55.2571 232.576 54.9937 232.576 54.6921C232.576 54.4039 232.639 54.1315 232.765 53.8749C232.896 53.6183 233.078 53.391 233.312 53.1929C233.551 52.9948 233.837 52.8394 234.17 52.7269C234.503 52.6143 234.874 52.5581 235.284 52.5581C235.869 52.5581 236.369 52.6616 236.783 52.8687C237.197 53.0758 237.515 53.3527 237.735 53.6993C237.956 54.0415 238.066 54.4219 238.066 54.8406H236.817C236.817 54.638 236.756 54.4422 236.635 54.2531C236.518 54.0595 236.344 53.8997 236.115 53.7736C235.889 53.6476 235.613 53.5845 235.284 53.5845C234.937 53.5845 234.656 53.6386 234.44 53.7466C234.228 53.8502 234.073 53.983 233.974 54.1451C233.879 54.3071 233.832 54.4782 233.832 54.6583C233.832 54.7933 233.855 54.9149 233.9 55.023C233.949 55.1265 234.035 55.2233 234.156 55.3133C234.278 55.3989 234.449 55.4799 234.669 55.5565C234.89 55.633 235.171 55.7095 235.514 55.7861C236.112 55.9211 236.605 56.0832 236.992 56.2723C237.38 56.4614 237.668 56.6932 237.857 56.9679C238.046 57.2425 238.141 57.5756 238.141 57.9673C238.141 58.287 238.073 58.5796 237.938 58.8452C237.807 59.1108 237.616 59.3404 237.364 59.534C237.116 59.7231 236.819 59.8717 236.472 59.9797C236.13 60.0833 235.745 60.1351 235.318 60.1351C234.674 60.1351 234.129 60.0203 233.683 59.7907C233.238 59.561 232.9 59.2639 232.67 58.8992C232.441 58.5346 232.326 58.1496 232.326 57.7445H233.582C233.6 58.0866 233.699 58.359 233.879 58.5616C234.059 58.7597 234.28 58.9015 234.541 58.987C234.802 59.0681 235.061 59.1086 235.318 59.1086C235.66 59.1086 235.946 59.0636 236.175 58.9735C236.409 58.8835 236.587 58.7597 236.709 58.6021C236.83 58.4445 236.891 58.2644 236.891 58.0619Z" fill="#292B3F"/>
<path d="M214.577 94.8395V98H199.595V95.2954L206.782 87.531C207.532 86.6801 208.125 85.9406 208.56 85.3126C208.996 84.6845 209.305 84.1173 209.487 83.6108C209.68 83.0942 209.776 82.6029 209.776 82.1369C209.776 81.4582 209.654 80.8657 209.411 80.3592C209.168 79.8426 208.813 79.4424 208.347 79.1588C207.892 78.8752 207.329 78.7334 206.661 78.7334C205.921 78.7334 205.288 78.9056 204.762 79.25C204.245 79.5843 203.85 80.0502 203.576 80.6479C203.313 81.2455 203.181 81.9293 203.181 82.6991H199.155C199.155 81.3924 199.459 80.2022 200.066 79.1284C200.674 78.0446 201.545 77.1785 202.68 76.5302C203.814 75.8819 205.162 75.5577 206.722 75.5577C208.241 75.5577 209.528 75.811 210.581 76.3174C211.635 76.8138 212.435 77.5229 212.982 78.4447C213.529 79.3665 213.802 80.4655 213.802 81.7419C213.802 82.451 213.686 83.1499 213.453 83.8387C213.22 84.5275 212.891 85.2113 212.465 85.89C212.05 86.5585 211.553 87.2372 210.976 87.926C210.399 88.6149 209.755 89.3189 209.046 90.0381L204.731 94.8395H214.577ZM232.735 89.9317V93.0922H216.796L216.628 90.6611L226.003 75.8768H229.21L225.745 81.7571L220.716 89.9317H232.735ZM230.106 75.8768V98H226.079V75.8768H230.106ZM242.886 92.9727V98H242.183V91.6602H242.857L242.886 92.9727ZM242.757 94.4375L242.418 94.2617C242.441 93.8867 242.511 93.5352 242.629 93.207C242.75 92.8789 242.918 92.5898 243.132 92.3398C243.347 92.0898 243.605 91.8945 243.906 91.7539C244.207 91.6133 244.548 91.543 244.931 91.543C245.24 91.543 245.519 91.5859 245.769 91.6719C246.023 91.7539 246.238 91.8848 246.414 92.0645C246.593 92.2402 246.732 92.4707 246.83 92.7559C246.927 93.041 246.976 93.3828 246.976 93.7812V98H246.279V93.8047C246.279 93.3828 246.213 93.0527 246.08 92.8145C245.951 92.5762 245.769 92.4062 245.535 92.3047C245.304 92.2031 245.037 92.1523 244.732 92.1523C244.373 92.1523 244.068 92.2266 243.818 92.375C243.572 92.5195 243.371 92.709 243.214 92.9434C243.062 93.1738 242.949 93.4219 242.875 93.6875C242.8 93.9492 242.761 94.1992 242.757 94.4375ZM246.97 93.8867L246.502 93.8984C246.521 93.5898 246.591 93.2949 246.713 93.0137C246.838 92.7324 247.007 92.4824 247.222 92.2637C247.437 92.041 247.693 91.8652 247.99 91.7363C248.291 91.6074 248.629 91.543 249.004 91.543C249.332 91.543 249.625 91.5879 249.882 91.6777C250.14 91.7637 250.357 91.9023 250.533 92.0938C250.713 92.2812 250.849 92.5215 250.943 92.8145C251.037 93.1074 251.084 93.459 251.084 93.8691V98H250.381V93.8633C250.381 93.4141 250.314 93.0664 250.181 92.8203C250.052 92.5703 249.873 92.3965 249.642 92.2988C249.412 92.2012 249.142 92.1523 248.834 92.1523C248.529 92.1562 248.261 92.2129 248.031 92.3223C247.8 92.4277 247.607 92.5684 247.451 92.7441C247.298 92.916 247.181 93.1016 247.099 93.3008C247.021 93.5 246.978 93.6953 246.97 93.8867ZM253.644 91.6602V98H252.947V91.6602H253.644ZM252.824 89.8262C252.824 89.6934 252.865 89.582 252.947 89.4922C253.033 89.3984 253.15 89.3516 253.298 89.3516C253.447 89.3516 253.564 89.3984 253.65 89.4922C253.74 89.582 253.785 89.6934 253.785 89.8262C253.785 89.9551 253.74 90.0664 253.65 90.1602C253.564 90.25 253.447 90.2949 253.298 90.2949C253.15 90.2949 253.033 90.25 252.947 90.1602C252.865 90.0664 252.824 89.9551 252.824 89.8262ZM256.257 93.0137V98H255.56V91.6602H256.228L256.257 93.0137ZM256.099 94.4375L255.789 94.2617C255.812 93.8867 255.888 93.5352 256.017 93.207C256.146 92.8789 256.32 92.5898 256.539 92.3398C256.761 92.0898 257.021 91.8945 257.318 91.7539C257.619 91.6133 257.951 91.543 258.314 91.543C258.631 91.543 258.914 91.5859 259.164 91.6719C259.414 91.7578 259.627 91.8945 259.802 92.082C259.978 92.2695 260.111 92.5098 260.201 92.8027C260.295 93.0957 260.341 93.4531 260.341 93.875V98H259.638V93.8691C259.638 93.4316 259.578 93.0898 259.457 92.8438C259.336 92.5938 259.164 92.416 258.941 92.3105C258.718 92.2051 258.455 92.1523 258.15 92.1523C257.814 92.1523 257.519 92.2266 257.265 92.375C257.015 92.5195 256.804 92.709 256.632 92.9434C256.464 93.1738 256.336 93.4219 256.246 93.6875C256.156 93.9492 256.107 94.1992 256.099 94.4375ZM265.955 96.3828C265.955 96.2109 265.912 96.041 265.826 95.873C265.74 95.7051 265.574 95.5508 265.328 95.4102C265.086 95.2695 264.728 95.1504 264.256 95.0527C263.904 94.9746 263.589 94.8867 263.312 94.7891C263.039 94.6914 262.808 94.5742 262.621 94.4375C262.433 94.3008 262.291 94.1367 262.193 93.9453C262.095 93.7539 262.047 93.5273 262.047 93.2656C262.047 93.0312 262.097 92.8105 262.199 92.6035C262.304 92.3926 262.453 92.209 262.644 92.0527C262.839 91.8926 263.074 91.7676 263.347 91.6777C263.625 91.5879 263.935 91.543 264.279 91.543C264.767 91.543 265.185 91.627 265.533 91.7949C265.884 91.959 266.152 92.1836 266.336 92.4688C266.523 92.7539 266.617 93.0762 266.617 93.4355H265.92C265.92 93.2168 265.855 93.0098 265.726 92.8145C265.601 92.6191 265.416 92.459 265.17 92.334C264.927 92.209 264.631 92.1465 264.279 92.1465C263.916 92.1465 263.621 92.2012 263.394 92.3105C263.168 92.4199 263.002 92.5586 262.896 92.7266C262.795 92.8945 262.744 93.0684 262.744 93.248C262.744 93.3887 262.765 93.5176 262.808 93.6348C262.855 93.748 262.937 93.8535 263.054 93.9512C263.175 94.0488 263.347 94.1406 263.57 94.2266C263.793 94.3125 264.082 94.3965 264.437 94.4785C264.949 94.5918 265.367 94.7305 265.691 94.8945C266.019 95.0547 266.261 95.2539 266.418 95.4922C266.574 95.7266 266.652 96.0117 266.652 96.3477C266.652 96.6094 266.597 96.8496 266.488 97.0684C266.379 97.2832 266.22 97.4688 266.013 97.625C265.81 97.7812 265.564 97.9023 265.275 97.9883C264.99 98.0742 264.67 98.1172 264.314 98.1172C263.779 98.1172 263.326 98.0293 262.955 97.8535C262.588 97.6738 262.308 97.4395 262.117 97.1504C261.929 96.8574 261.836 96.5469 261.836 96.2188H262.533C262.556 96.5469 262.66 96.8066 262.843 96.998C263.027 97.1855 263.252 97.3184 263.517 97.3965C263.787 97.4746 264.052 97.5137 264.314 97.5137C264.673 97.5137 264.974 97.4609 265.216 97.3555C265.459 97.25 265.642 97.1113 265.767 96.9395C265.892 96.7676 265.955 96.582 265.955 96.3828Z" fill="#484848"/>
</svg>
