<svg width="39" height="38" viewBox="0 0 39 38" fill="none" xmlns="http://www.w3.org/2000/svg">
<path d="M16.75 27.875L29.9688 14.6562L27.3438 12.0312L16.75 22.625L11.4062 17.2812L8.78125 19.9062L16.75 27.875ZM19.375 38C16.7812 38 14.3438 37.5075 12.0625 36.5225C9.78125 35.5387 7.79688 34.2031 6.10938 32.5156C4.42188 30.8281 3.08625 28.8438 2.1025 26.5625C1.1175 24.2812 0.625 21.8438 0.625 19.25C0.625 16.6562 1.1175 14.2188 2.1025 11.9375C3.08625 9.65625 4.42188 7.67188 6.10938 5.98438C7.79688 4.29688 9.78125 2.96062 12.0625 1.97562C14.3438 0.991875 16.7812 0.5 19.375 0.5C21.9688 0.5 24.4062 0.991875 26.6875 1.97562C28.9688 2.96062 30.9531 4.29688 32.6406 5.98438C34.3281 7.67188 35.6637 9.65625 36.6475 11.9375C37.6325 14.2188 38.125 16.6562 38.125 19.25C38.125 21.8438 37.6325 24.2812 36.6475 26.5625C35.6637 28.8438 34.3281 30.8281 32.6406 32.5156C30.9531 34.2031 28.9688 35.5387 26.6875 36.5225C24.4062 37.5075 21.9688 38 19.375 38Z" fill="#02B2B2"/>
</svg>
