<svg width="28" height="28" viewBox="0 0 28 28" fill="none" xmlns="http://www.w3.org/2000/svg">
<path d="M28 14C28 16.7689 27.1789 19.4757 25.6406 21.778C24.1022 24.0803 21.9157 25.8747 19.3576 26.9343C16.7994 27.9939 13.9845 28.2712 11.2687 27.731C8.55301 27.1908 6.05845 25.8574 4.10051 23.8995C2.14258 21.9416 0.809205 19.447 0.269012 16.7313C-0.271181 14.0155 0.00606597 11.2006 1.06569 8.64243C2.12532 6.08426 3.91973 3.89776 6.22202 2.35942C8.52431 0.821085 11.2311 0 14 0C15.8385 0 17.659 0.362121 19.3576 1.06569C21.0561 1.76925 22.5995 2.80048 23.8995 4.1005C25.1995 5.40052 26.2307 6.94387 26.9343 8.64243C27.6379 10.341 28 12.1615 28 14ZM22.1698 19.4872L17.8833 15.2007C18.8457 13.7464 19.2336 11.9866 18.9718 10.2624C18.71 8.53833 17.8172 6.97293 16.4664 5.86991C15.1157 4.7669 13.4034 4.20492 11.6618 4.293C9.92013 4.38109 8.27328 5.11294 7.04073 6.3466C5.80817 7.58026 5.07778 9.22776 4.99126 10.9695C4.90474 12.7112 5.46824 14.423 6.57246 15.7727C7.67668 17.1225 9.24288 18.0139 10.9672 18.2742C12.6916 18.5345 14.4511 18.145 15.9045 17.1813L20.191 21.466C20.321 21.5959 20.4754 21.6989 20.6453 21.7692C20.8151 21.8395 20.9972 21.8756 21.181 21.8755C21.3648 21.8754 21.5468 21.8391 21.7166 21.7687C21.8864 21.6983 22.0407 21.5951 22.1706 21.4651C22.3006 21.335 22.4036 21.1807 22.4739 21.0108C22.5442 20.8409 22.5803 20.6589 22.5802 20.4751C22.5801 20.2912 22.5438 20.1092 22.4734 19.9394C22.403 19.7696 22.2998 19.6171 22.1698 19.4872ZM16.0035 7.32449C16.9261 8.24702 17.5002 9.46089 17.6281 10.7593C17.756 12.0577 17.4298 13.3602 16.705 14.445C15.9802 15.5298 14.9016 16.3298 13.6531 16.7085C12.4047 17.0873 11.0635 17.0214 9.8581 16.5221C8.65273 16.0229 7.65776 15.1211 7.04272 13.9705C6.42768 12.8199 6.23062 11.4917 6.48513 10.2121C6.73963 8.93246 7.42994 7.78068 8.43845 6.95299C9.44695 6.12529 10.7112 5.67288 12.0159 5.67285C12.7568 5.6707 13.4907 5.81558 14.1752 6.09909C14.8597 6.3826 15.4812 6.79911 16.0035 7.32449Z" fill="#047BD5"/>
</svg>
