<svg width="35" height="35" viewBox="0 0 35 35" fill="none" xmlns="http://www.w3.org/2000/svg">
<g filter="url(#filter0_d_1425_3040)">
<path d="M17.7185 27.23C24.4094 27.23 29.8335 21.8059 29.8335 15.115C29.8335 8.42407 24.4094 3 17.7185 3C11.0276 3 5.60352 8.42407 5.60352 15.115C5.60352 21.8059 11.0276 27.23 17.7185 27.23Z" fill="#A0EBFF"/>
<path d="M23.6977 9.30469H11.7402V22.7136H23.6977V9.30469Z" fill="white"/>
<path d="M11.7402 10.5176V13.3697H23.698V10.5176H11.7402ZM11.7402 17.0938H23.698V14.2417H11.7402V17.0938ZM11.7402 20.8177H23.698V17.9656H11.7402V20.8177Z" fill="#71C6DE"/>
<path d="M13.6953 17.0938H15.1208V14.2417H13.6953V17.0938ZM13.6953 20.8177H15.1208V17.9656H13.6953V20.8177ZM13.6953 13.3697H15.1208V10.5176H13.6953V13.3697ZM17.0061 13.3697H18.4316V10.5176H17.0061V13.3697ZM17.0061 20.8177H18.4316V17.9656H17.0061V20.8177ZM17.0061 17.0938H18.4316V14.2417H17.0061V17.0938ZM20.3172 10.5176V13.3697H21.7426V10.5176H20.3172ZM20.3172 20.8177H21.7426V17.9656H20.3172V20.8177ZM20.3172 17.0938H21.7426V14.2417H20.3172V17.0938Z" fill="#48AFCC"/>
<path d="M19.2014 19.3525H16.2695V22.7132H19.2014V19.3525Z" fill="#48AFCC"/>
<path d="M19.2014 19.3525H16.2695V19.6612H19.2014V19.3525Z" fill="white"/>
<path d="M19.2014 19.6611H16.2695V19.9698H19.2014V19.6611Z" fill="#3194B0"/>
<path d="M23.6977 10.5166H11.7402V10.8805H23.6977V10.5166Z" fill="#3194B0"/>
<path d="M23.6977 14.2188H11.7402V14.5827H23.6977V14.2188Z" fill="#3194B0"/>
<path d="M23.6977 17.9209H11.7402V18.2848H23.6977V17.9209Z" fill="#3194B0"/>
<path d="M17.7176 11.7759C19.0825 11.7759 20.189 10.6694 20.189 9.30447C20.189 7.93952 19.0825 6.83301 17.7176 6.83301C16.3526 6.83301 15.2461 7.93952 15.2461 9.30447C15.2461 10.6694 16.3526 11.7759 17.7176 11.7759Z" fill="white"/>
<path d="M17.7176 6.83301C16.3527 6.83301 15.2461 7.93959 15.2461 9.30447C15.2461 10.6693 16.3527 11.7759 17.7176 11.7759C19.0827 11.7759 20.189 10.6693 20.189 9.30447C20.189 7.93959 19.0827 6.83301 17.7176 6.83301ZM19.1159 9.83436H18.2473V10.703H17.1877V9.83436H16.319V8.77477H17.1877V7.90613H18.2473V8.77477H19.1159V9.83436Z" fill="#FC611F"/>
<path d="M17.7189 6.83301L17.6699 6.83542V11.7735L17.7189 11.7761C19.084 11.7761 20.1903 10.6695 20.1903 9.30466C20.1903 7.93959 19.084 6.83301 17.7189 6.83301Z" fill="#B6F0FF"/>
<path d="M17.7189 6.83301L17.6699 6.83542V7.90613H18.2486V8.77477H19.1172V9.83436H18.2486V10.703H17.6699V11.7737L17.7189 11.7761C19.084 11.7761 20.1903 10.6695 20.1903 9.30466C20.1903 7.93959 19.084 6.83301 17.7189 6.83301Z" fill="#E34E10"/>
</g>
<defs>
<filter id="filter0_d_1425_3040" x="0.603516" y="0" width="34.2305" height="34.2305" filterUnits="userSpaceOnUse" color-interpolation-filters="sRGB">
<feFlood flood-opacity="0" result="BackgroundImageFix"/>
<feColorMatrix in="SourceAlpha" type="matrix" values="0 0 0 0 0 0 0 0 0 0 0 0 0 0 0 0 0 0 127 0" result="hardAlpha"/>
<feOffset dy="2"/>
<feGaussianBlur stdDeviation="2.5"/>
<feComposite in2="hardAlpha" operator="out"/>
<feColorMatrix type="matrix" values="0 0 0 0 0 0 0 0 0 0 0 0 0 0 0 0 0 0 0.25 0"/>
<feBlend mode="normal" in2="BackgroundImageFix" result="effect1_dropShadow_1425_3040"/>
<feBlend mode="normal" in="SourceGraphic" in2="effect1_dropShadow_1425_3040" result="shape"/>
</filter>
</defs>
</svg>
