<svg width="24" height="24" viewBox="0 0 24 24" fill="none" xmlns="http://www.w3.org/2000/svg">
<g clip-path="url(#clip0_1195_2364)">
<path d="M11.9977 23.9978C18.6238 23.9978 23.9953 18.6262 23.9953 12.0001C23.9953 5.37397 18.6238 0.00244141 11.9977 0.00244141C5.37153 0.00244141 0 5.37397 0 12.0001C0 18.6262 5.37153 23.9978 11.9977 23.9978Z" fill="#EAEAED"/>
<path d="M23.9721 11.2924L18.9668 6.28711C17.7155 7.24317 16.4641 8.19924 15.2128 9.1553C13.1039 8.39607 12.2743 9.18811 11.5573 9.73175C11.4636 9.80205 12.8555 10.9409 12.7664 11.0112C12.6633 11.0909 12.5649 11.1658 12.4665 11.2408C10.695 8.56479 5.08043 9.52085 7.77522 14.8729L4.90234 17.8255L11.0371 23.9602C11.3558 23.9837 11.6791 23.9977 12.0025 23.9977C18.6293 23.9977 24.0002 18.6269 24.0002 12.0001C23.9955 11.761 23.9861 11.5267 23.9721 11.2924Z" fill="#D9D9DD"/>
<path d="M16.0424 9.28667C14.6786 7.95568 12.4946 7.98849 11.1636 9.35228C9.83263 10.7161 9.86544 12.9 11.2292 14.231C12.593 15.562 14.777 15.5292 16.108 14.1654C17.439 12.8016 17.4062 10.6177 16.0424 9.28667ZM15.3159 13.3968C14.4114 14.3247 12.9258 14.3435 11.9978 13.439C11.0699 12.5345 11.0511 11.0488 11.9557 10.1209C12.8602 9.19294 14.3458 9.17419 15.2738 10.0787C16.2017 10.9832 16.2204 12.4689 15.3159 13.3968Z" fill="#9EA7DB"/>
<path d="M15.6624 9.67998C14.5142 8.55989 12.6723 8.58332 11.5569 9.73622C10.4368 10.8844 10.4603 12.7263 11.6132 13.8417C12.7614 14.9618 14.6032 14.9383 15.7186 13.7854C16.834 12.6372 16.8106 10.7954 15.6624 9.67998ZM15.3156 13.3964C14.4111 14.3244 12.9254 14.3431 11.9975 13.4386C11.0695 12.5341 11.0508 11.0485 11.9553 10.1205C12.8598 9.19258 14.3455 9.17383 15.2734 10.0783C16.2013 10.9829 16.2201 12.4685 15.3156 13.3964Z" fill="#8C95C9"/>
<path d="M15.5133 9.83013C15.7711 10.0832 16.1882 10.0785 16.4413 9.81607L18.822 7.36967C19.0751 7.11191 19.0704 6.6948 18.808 6.44173C18.5502 6.18865 18.1331 6.19334 17.88 6.45579L15.4992 8.8975C15.2509 9.15995 15.2555 9.57705 15.5133 9.83013Z" fill="#9EA7DB"/>
<path d="M15.5117 9.83C15.7695 10.0831 16.1866 10.0784 16.4397 9.81594L18.8204 7.37423C19.0735 7.11647 19.0688 6.69936 18.8064 6.44629L15.5117 9.83Z" fill="#8C95C9"/>
<path d="M15.8778 6.61023C15.8966 6.24936 16.2106 5.96817 16.5715 5.9916L18.5445 6.09939C18.7085 6.10876 18.8585 6.17906 18.9663 6.28685C19.0788 6.39465 19.1538 6.53993 19.1631 6.70396L19.3225 8.67233C19.3506 9.03319 19.0788 9.35188 18.7226 9.38C18.3617 9.40812 18.043 9.1363 18.0149 8.78012L17.9024 7.37883L16.5012 7.30384C16.1403 7.2851 15.8591 6.9711 15.8778 6.61023Z" fill="#9EA7DB"/>
<path d="M15.8778 6.61035V6.5916C15.9153 6.58691 15.9481 6.58691 15.9856 6.58691L17.9587 6.69471C18.1227 6.70408 18.2727 6.77438 18.3805 6.88217C18.493 6.98996 18.5679 7.13524 18.5773 7.29927L18.7367 9.26764C18.7413 9.30513 18.7413 9.34263 18.7367 9.37543H18.7179C18.357 9.40355 18.0384 9.13173 18.0102 8.77555L17.8978 7.37426L16.4965 7.29927C16.1403 7.28522 15.8591 6.97121 15.8778 6.61035Z" fill="#8C95C9"/>
<path d="M4.89807 17.8254C5.15584 18.0785 5.57294 18.0738 5.82602 17.8114L8.2068 15.3697C8.45988 15.1119 8.45519 14.6948 8.19274 14.4417C7.93498 14.1887 7.51787 14.1933 7.2648 14.4558L4.88401 16.8975C4.63562 17.1553 4.64031 17.5724 4.89807 17.8254Z" fill="#FF8C8A"/>
<path d="M4.89844 17.8256C5.1562 18.0787 5.57331 18.074 5.82638 17.8115L8.20717 15.3698C8.46024 15.1121 8.45556 14.695 8.19311 14.4419L4.89844 17.8256Z" fill="#FA7876"/>
<path d="M8.23843 17.7787C7.98536 18.0364 7.56825 18.0411 7.31049 17.7927L4.86878 15.412C4.61101 15.1589 4.60633 14.7418 4.85472 14.484C5.10779 14.2262 5.5249 14.2216 5.78266 14.47L8.22437 16.8507C8.48682 17.1038 8.49151 17.5209 8.23843 17.7787Z" fill="#FF8C8A"/>
<path d="M8.23843 17.7786C7.98536 18.0363 7.56825 18.041 7.31049 17.7926L4.86878 15.4118C4.61101 15.1588 4.60633 14.7416 4.85472 14.4839L8.23843 17.7786Z" fill="#FA7876"/>
<path d="M12.331 10.191C12.256 10.1207 12.1811 10.0504 12.1014 9.98483H12.0967H12.092H12.0873H12.0826L12.078 9.98951L12.0592 10.0129L12.0545 10.0176L12.0311 10.0411L12.0264 10.0458L12.0123 10.0645L12.0077 10.0692L12.003 10.0739L11.9889 10.0926L11.9842 10.0973L11.9795 10.1067L11.9655 10.1254L11.9608 10.1301L11.942 10.1489L11.9327 10.1582L11.9233 10.1676L11.9186 10.1723L11.9139 10.1817L11.9046 10.191L11.8999 10.1957L11.8952 10.2004L11.8811 10.2192L11.8624 10.2426V10.2473L11.8577 10.2566L11.8483 10.266L11.7171 10.4066L11.7124 10.4113L11.6983 10.4301V10.4347L11.689 10.4488L11.6796 10.4629L11.6702 10.4722L11.6609 10.4863L11.6515 10.5004L11.6421 10.5144L11.6374 10.5238L11.628 10.5378L11.6187 10.5519L11.614 10.5613L11.6046 10.5753L11.5952 10.5894L11.5859 10.6035L11.5765 10.6222L11.5718 10.6269L11.5671 10.6409L11.5624 10.6503L11.5577 10.6644L11.5531 10.6784L11.5484 10.6925L11.539 10.7159V10.7206L11.5343 10.7347L11.5296 10.7441L11.5249 10.7581L11.5203 10.7722L11.5156 10.7862L11.5109 10.7956V10.8003L11.5062 10.8144L11.4968 10.8331V10.8378L11.4921 10.8518L11.4874 10.8659L11.4828 10.88L11.4734 10.9081C11.5109 10.9409 11.5437 10.969 11.5765 11.0018C12.5044 11.9063 12.5232 13.392 11.6187 14.3199C10.7142 15.2479 9.22851 15.2666 8.30057 14.3621C7.37263 13.4576 7.35388 11.9719 8.25839 11.044C8.85827 10.4301 9.71123 10.2145 10.4892 10.3972C10.6392 10.0504 10.8501 9.72706 11.1172 9.4365C9.87995 8.98658 8.44585 9.27247 7.46636 10.2707C6.13537 11.6345 6.16817 13.8185 7.53197 15.1494C8.89577 16.4804 11.0797 16.4476 12.4107 15.0838C13.7276 13.7013 13.6995 11.5173 12.331 10.191Z" fill="#FF8C8A"/>
<path d="M11.9511 10.5798C11.8808 10.5095 11.8058 10.4486 11.7308 10.3876L11.7261 10.397L11.7214 10.4064H11.7167L11.712 10.4158L11.7074 10.4251L11.7027 10.4345L11.698 10.4392V10.4439L11.6933 10.4532L11.6886 10.4626L11.6839 10.472L11.6792 10.4814L11.6745 10.4907L11.6699 10.5001L11.6652 10.5095L11.6605 10.5142L11.6558 10.5235L11.6511 10.5329L11.6464 10.5423L11.6417 10.5517L11.6371 10.561L11.6324 10.5704L11.6277 10.5798L11.623 10.5892L11.6183 10.5985L11.6089 10.6126L11.6042 10.622L11.5996 10.6313L11.5949 10.6407L11.5902 10.6501L11.5855 10.6595L11.5808 10.6688L11.5761 10.6782L11.5714 10.6876L11.5668 10.6969L11.5621 10.7063L11.5574 10.7157L11.5527 10.7251L11.548 10.7344L11.5386 10.7485L11.5339 10.7579L11.5293 10.7672L11.5246 10.7766L11.5199 10.786L11.5152 10.7954L11.5058 10.8188L11.5011 10.8282L11.4965 10.8422L11.4918 10.8516L11.4871 10.861L11.4824 10.8704L11.4777 10.8797L11.4824 10.8282L11.4777 10.8375L11.473 10.8469L11.4683 10.8563L11.4637 10.8657L11.459 10.875L11.4543 10.8844L11.4496 10.8938C11.4871 10.9266 11.5199 10.9547 11.5527 10.9875C12.4806 11.892 12.4994 13.3777 11.5949 14.3056C10.6904 15.2336 9.20472 15.2523 8.27677 14.3478C7.34883 13.4433 7.33008 11.9576 8.23459 11.0297C8.83448 10.4158 9.68743 10.2002 10.4654 10.3829C10.5404 10.2095 10.6341 10.0408 10.7372 9.8768C9.73899 9.58154 8.61421 9.8393 7.83623 10.636C6.71614 11.7842 6.73957 13.6261 7.89247 14.7415C9.04069 15.8616 10.8825 15.8381 11.9979 14.6852C13.1274 13.537 13.104 11.6999 11.9511 10.5798Z" fill="#FA7876"/>
</g>
<defs>
<clipPath id="clip0_1195_2364">
<rect width="24" height="24" fill="white"/>
</clipPath>
</defs>
</svg>
