<svg width="37" height="37" viewBox="0 0 37 37" fill="none" xmlns="http://www.w3.org/2000/svg">
<g filter="url(#filter0_d_560_2159)">
<path d="M18.6033 29.399C25.8935 29.399 31.8033 23.4892 31.8033 16.199C31.8033 8.90886 25.8935 2.99902 18.6033 2.99902C11.3132 2.99902 5.40332 8.90886 5.40332 16.199C5.40332 23.4892 11.3132 29.399 18.6033 29.399Z" fill="#91E0BF"/>
<path d="M18.6031 23.6208C21.8432 23.6208 24.4699 22.9641 24.4699 22.1541C24.4699 21.3441 21.8432 20.6875 18.6031 20.6875C15.363 20.6875 12.7363 21.3441 12.7363 22.1541C12.7363 22.9641 15.363 23.6208 18.6031 23.6208Z" fill="#D0775B"/>
<path d="M18.6038 20.6875C18.5939 20.6875 18.5842 20.6877 18.5742 20.6877V23.6206C18.5842 23.6206 18.5939 23.6208 18.6038 23.6208C21.8439 23.6208 24.4705 22.9642 24.4705 22.1541C24.4705 21.3441 21.8439 20.6875 18.6038 20.6875Z" fill="#DD3500"/>
<path d="M13.6699 12.3328C13.6699 9.60814 15.8787 7.39941 18.6033 7.39941C21.3279 7.39941 23.5366 9.60814 23.5366 12.3328C23.5366 15.0574 18.6033 22.1995 18.6033 22.1995C18.6033 22.1995 13.6699 15.0574 13.6699 12.3328Z" fill="#F75826"/>
<path d="M23.5372 12.3328C23.5372 9.60814 21.3284 7.39941 18.6038 7.39941C18.5939 7.39941 18.5842 7.40014 18.5742 7.40014V22.1563C18.5934 22.1844 18.6038 22.1994 18.6038 22.1994C18.6038 22.1994 23.5372 15.0574 23.5372 12.3328Z" fill="#FF521B"/>
<path d="M18.6033 15.5327C20.2233 15.5327 21.5366 14.2194 21.5366 12.5994C21.5366 10.9793 20.2233 9.66602 18.6033 9.66602C16.9832 9.66602 15.6699 10.9793 15.6699 12.5994C15.6699 14.2194 16.9832 15.5327 18.6033 15.5327Z" fill="#333131"/>
<path d="M18.6038 9.66602C18.5939 9.66602 18.5841 9.66663 18.5742 9.66674V15.5319C18.5841 15.532 18.5939 15.5326 18.6038 15.5326C20.2238 15.5326 21.5372 14.2192 21.5372 12.5993C21.5372 10.9793 20.2238 9.66602 18.6038 9.66602Z" fill="#272525"/>
</g>
<defs>
<filter id="filter0_d_560_2159" x="0.40332" y="-0.000976562" width="36.4004" height="36.4004" filterUnits="userSpaceOnUse" color-interpolation-filters="sRGB">
<feFlood flood-opacity="0" result="BackgroundImageFix"/>
<feColorMatrix in="SourceAlpha" type="matrix" values="0 0 0 0 0 0 0 0 0 0 0 0 0 0 0 0 0 0 127 0" result="hardAlpha"/>
<feOffset dy="2"/>
<feGaussianBlur stdDeviation="2.5"/>
<feComposite in2="hardAlpha" operator="out"/>
<feColorMatrix type="matrix" values="0 0 0 0 0 0 0 0 0 0 0 0 0 0 0 0 0 0 0.25 0"/>
<feBlend mode="normal" in2="BackgroundImageFix" result="effect1_dropShadow_560_2159"/>
<feBlend mode="normal" in="SourceGraphic" in2="effect1_dropShadow_560_2159" result="shape"/>
</filter>
</defs>
</svg>
