<svg width="25" height="24" viewBox="0 0 25 24" fill="none" xmlns="http://www.w3.org/2000/svg">
<g clip-path="url(#clip0_1195_2419)">
<path d="M12.8223 24C19.4497 24 24.8223 18.6274 24.8223 12C24.8223 5.37258 19.4497 0 12.8223 0C6.19485 0 0.822266 5.37258 0.822266 12C0.822266 18.6274 6.19485 24 12.8223 24Z" fill="#4CDBC4"/>
<path d="M16.8851 6.40625H8.74023V7.74798H16.8851V6.40625Z" fill="white"/>
<path d="M17.358 6.40646H8.28711V4.34662C8.28711 3.98757 8.57057 3.7041 8.92963 3.7041H16.7155C17.0745 3.7041 17.358 3.98757 17.358 4.34662V6.40646Z" fill="#324A5E"/>
<path d="M17.2639 20.296H8.38201C7.6828 20.296 7.13477 19.729 7.13477 19.0487V8.59832C7.13477 7.89911 7.70169 7.35107 8.38201 7.35107H17.2639C17.9631 7.35107 18.5111 7.918 18.5111 8.59832V19.0487C18.5111 19.7479 17.9631 20.296 17.2639 20.296Z" fill="white"/>
<path d="M18.5111 10.3936H7.13477V17.4046H18.5111V10.3936Z" fill="#FF7058"/>
<path d="M15.1651 13.2284H13.5021V11.5654H12.1415V13.2284H10.4785V14.5891H12.1415V16.2331H13.5021V14.5891H15.1651V13.2284Z" fill="white"/>
<path d="M9.55294 6.02834C9.42066 6.02834 9.32617 5.93385 9.32617 5.80157V4.28976C9.32617 4.15748 9.42066 4.06299 9.55294 4.06299C9.68523 4.06299 9.77972 4.15748 9.77972 4.28976V5.80157C9.77972 5.91496 9.66633 6.02834 9.55294 6.02834Z" fill="#2B3B4E"/>
<path d="M10.6311 6.02834C10.4988 6.02834 10.4043 5.93385 10.4043 5.80157V4.28976C10.4043 4.15748 10.4988 4.06299 10.6311 4.06299C10.7634 4.06299 10.8578 4.15748 10.8578 4.28976V5.80157C10.8578 5.91496 10.7634 6.02834 10.6311 6.02834Z" fill="#2B3B4E"/>
<path d="M11.7268 6.02834C11.5945 6.02834 11.5 5.93385 11.5 5.80157V4.28976C11.5 4.15748 11.5945 4.06299 11.7268 4.06299C11.8591 4.06299 11.9535 4.15748 11.9535 4.28976V5.80157C11.9535 5.91496 11.8591 6.02834 11.7268 6.02834Z" fill="#2B3B4E"/>
<path d="M12.8225 6.02834C12.6902 6.02834 12.5957 5.93385 12.5957 5.80157V4.28976C12.5957 4.15748 12.6902 4.06299 12.8225 4.06299C12.9548 4.06299 13.0492 4.15748 13.0492 4.28976V5.80157C13.0492 5.91496 12.9548 6.02834 12.8225 6.02834Z" fill="#2B3B4E"/>
<path d="M13.9182 6.02834C13.7859 6.02834 13.6914 5.93385 13.6914 5.80157V4.28976C13.6914 4.15748 13.7859 4.06299 13.9182 4.06299C14.0505 4.06299 14.1449 4.15748 14.1449 4.28976V5.80157C14.1449 5.91496 14.0316 6.02834 13.9182 6.02834Z" fill="#2B3B4E"/>
<path d="M15.0139 6.02834C14.8816 6.02834 14.7871 5.93385 14.7871 5.80157V4.28976C14.7871 4.15748 14.8816 4.06299 15.0139 4.06299C15.1462 4.06299 15.2407 4.15748 15.2407 4.28976V5.80157C15.2218 5.91496 15.1273 6.02834 15.0139 6.02834Z" fill="#2B3B4E"/>
<path d="M16.092 6.02834C15.9597 6.02834 15.8652 5.93385 15.8652 5.80157V4.28976C15.8652 4.15748 15.9597 4.06299 16.092 4.06299C16.2243 4.06299 16.3188 4.15748 16.3188 4.28976V5.80157C16.3188 5.91496 16.2243 6.02834 16.092 6.02834Z" fill="#2B3B4E"/>
</g>
<defs>
<clipPath id="clip0_1195_2419">
<rect width="24" height="24" fill="white" transform="translate(0.822266)"/>
</clipPath>
</defs>
</svg>
