<svg width="25" height="25" viewBox="0 0 25 25" fill="none" xmlns="http://www.w3.org/2000/svg">
<path fill-rule="evenodd" clip-rule="evenodd" d="M12.8091 0.90625C6.19363 0.90625 0.8125 6.28889 0.8125 12.9061C0.8125 15.5305 1.65882 17.9643 3.09751 19.9397L1.6023 24.3981L6.21472 22.9241C8.1118 24.1797 10.3757 24.9063 12.8159 24.9063C19.4314 24.9063 24.8125 19.5234 24.8125 12.9064C24.8125 6.2891 19.4314 0.906448 12.8159 0.906448L12.8091 0.90625ZM9.45892 7.00167C9.22624 6.44439 9.04989 6.42329 8.69739 6.40895C8.57737 6.40199 8.44361 6.39502 8.29532 6.39502C7.83673 6.39502 7.35723 6.52902 7.06802 6.82527C6.71552 7.18504 5.84091 8.02444 5.84091 9.74585C5.84091 11.4673 7.09628 13.1321 7.26547 13.3651C7.44183 13.5976 9.71289 17.1815 13.2391 18.642C15.9967 19.7849 16.8149 19.6789 17.4426 19.5449C18.3594 19.3474 19.509 18.6699 19.7982 17.8517C20.0875 17.0333 20.0875 16.3348 20.0027 16.1867C19.918 16.0386 19.6852 15.9541 19.3326 15.7776C18.9802 15.6011 17.2662 14.7546 16.9418 14.6417C16.6243 14.5218 16.3212 14.5642 16.0815 14.9029C15.7429 15.3756 15.4115 15.8554 15.1434 16.1445C14.9318 16.3703 14.5861 16.3986 14.2971 16.2785C13.9091 16.1164 12.8231 15.7352 11.483 14.5429C10.4462 13.6189 9.74098 12.4691 9.53656 12.1235C9.33194 11.7709 9.51544 11.566 9.67746 11.3757C9.85381 11.1569 10.023 11.0018 10.1994 10.7971C10.3757 10.5926 10.4745 10.4867 10.5873 10.2468C10.7073 10.014 10.6225 9.77412 10.5379 9.59771C10.4533 9.42131 9.74813 7.69991 9.45892 7.00167Z" fill="#67C15E"/>
</svg>
