<svg width="291" height="246" viewBox="0 0 291 246" fill="none" xmlns="http://www.w3.org/2000/svg">
<rect width="291" height="246" rx="8.69173" fill="white"/>
<path d="M0 10.6917C0 5.89142 3.89142 2 8.69173 2H282.308C287.109 2 291 5.89142 291 10.6917V27H0V10.6917Z" fill="#047BD5"/>
<path d="M21.6362 8.39123V18H19.9797L15.6703 11.1168V18H14.0138V8.39123H15.6703L19.9929 15.2876V8.39123H21.6362ZM30.1164 13.9743V14.3439C30.1164 14.9291 30.0328 15.4526 29.8657 15.9146C29.6985 16.3765 29.4609 16.7725 29.1529 17.1025C28.8493 17.428 28.4842 17.6766 28.0574 17.8482C27.6307 18.0198 27.1599 18.1056 26.6451 18.1056C26.1304 18.1056 25.6596 18.0198 25.2329 17.8482C24.8061 17.6766 24.4365 17.428 24.1242 17.1025C23.8118 16.7725 23.5698 16.3765 23.3982 15.9146C23.231 15.4526 23.1474 14.9291 23.1474 14.3439V13.9743C23.1474 13.3892 23.231 12.8656 23.3982 12.4037C23.5698 11.9417 23.8096 11.5458 24.1176 11.2158C24.4255 10.8858 24.7929 10.635 25.2197 10.4634C25.6464 10.2919 26.1172 10.2061 26.6319 10.2061C27.1511 10.2061 27.6219 10.2919 28.0442 10.4634C28.471 10.635 28.8383 10.8858 29.1463 11.2158C29.4587 11.5458 29.6985 11.9417 29.8657 12.4037C30.0328 12.8656 30.1164 13.3892 30.1164 13.9743ZM28.526 14.3439V13.9611C28.526 13.5608 28.4842 13.2066 28.4006 12.8986C28.317 12.5907 28.1916 12.3311 28.0244 12.1199C27.8616 11.9087 27.6637 11.7481 27.4305 11.6381C27.1973 11.5282 26.9311 11.4732 26.6319 11.4732C26.3372 11.4732 26.071 11.5282 25.8334 11.6381C25.6002 11.7481 25.4022 11.9087 25.2395 12.1199C25.0811 12.3311 24.9579 12.5907 24.8699 12.8986C24.7863 13.2066 24.7445 13.5608 24.7445 13.9611V14.3439C24.7445 14.7399 24.7863 15.094 24.8699 15.4064C24.9579 15.7144 25.0833 15.9762 25.2461 16.1918C25.4132 16.4029 25.6134 16.5657 25.8466 16.6801C26.0842 16.7901 26.3504 16.8451 26.6451 16.8451C26.9443 16.8451 27.2083 16.7901 27.4371 16.6801C27.6703 16.5657 27.8682 16.4029 28.031 16.1918C28.1938 15.9762 28.317 15.7144 28.4006 15.4064C28.4842 15.094 28.526 14.7399 28.526 14.3439ZM34.8878 10.3117V18H33.2974V10.3117H34.8878ZM37.4484 10.3117V11.5788H30.7698V10.3117H37.4484ZM40.1872 10.3117V18H38.5901V10.3117H40.1872ZM43.4407 10.3117V18H41.8502V10.3117H43.4407ZM46.7734 13.5784V14.8455H43.0117V13.5784H46.7734ZM47.2024 10.3117V11.5788H43.0117V10.3117H47.2024ZM49.9411 10.3117V18H48.3441V10.3117H49.9411ZM56.4218 15.4394H58.0188C57.9792 15.963 57.8253 16.4249 57.5569 16.8253C57.2929 17.2257 56.9233 17.5402 56.4482 17.769C55.973 17.9934 55.3989 18.1056 54.7257 18.1056C54.2022 18.1056 53.7314 18.0198 53.3134 17.8482C52.8999 17.6766 52.5457 17.4324 52.2509 17.1157C51.9606 16.7945 51.7362 16.4073 51.5778 15.9542C51.4238 15.4966 51.3468 14.9841 51.3468 14.4165V13.9018C51.3468 13.3342 51.426 12.8238 51.5844 12.3707C51.7428 11.9131 51.9716 11.5238 52.2707 11.2026C52.5699 10.877 52.9263 10.6306 53.3398 10.4634C53.7578 10.2919 54.2264 10.2061 54.7455 10.2061C55.4275 10.2061 56.0016 10.3227 56.468 10.5558C56.9343 10.7846 57.2973 11.1036 57.5569 11.5128C57.8165 11.9219 57.9726 12.3905 58.0254 12.9184H56.435C56.4086 12.6325 56.336 12.3817 56.2172 12.1661C56.0984 11.9461 55.9202 11.7745 55.6826 11.6513C55.4451 11.5282 55.1327 11.4666 54.7455 11.4666C54.4463 11.4666 54.1846 11.5194 53.9602 11.6249C53.7358 11.7261 53.5466 11.8801 53.3926 12.0869C53.2431 12.2937 53.1287 12.5489 53.0495 12.8524C52.9747 13.1516 52.9373 13.4992 52.9373 13.8952V14.4165C52.9373 14.8037 52.9703 15.149 53.0363 15.4526C53.1067 15.7518 53.2145 16.0048 53.3596 16.2116C53.5048 16.4183 53.6896 16.5767 53.914 16.6867C54.1428 16.7923 54.4133 16.8451 54.7257 16.8451C55.0997 16.8451 55.4055 16.7945 55.643 16.6933C55.8806 16.5877 56.0632 16.4293 56.1908 16.2182C56.3184 16.007 56.3954 15.7474 56.4218 15.4394ZM62.4009 11.8889L60.0911 18H58.4808L61.5759 10.3117H62.645L62.4009 11.8889ZM64.5325 18L62.2095 11.8757L61.9653 10.3117H63.0542L66.1427 18H64.5325ZM64.4335 15.149V16.3435H60.0383V15.149H64.4335ZM70.142 10.3117V18H68.5515V10.3117H70.142ZM72.7026 10.3117V11.5788H66.024V10.3117H72.7026ZM75.4413 10.3117V18H73.8443V10.3117H75.4413ZM83.8094 13.9743V14.3439C83.8094 14.9291 83.7258 15.4526 83.5586 15.9146C83.3915 16.3765 83.1539 16.7725 82.8459 17.1025C82.5423 17.428 82.1772 17.6766 81.7504 17.8482C81.3236 18.0198 80.8529 18.1056 80.3381 18.1056C79.8234 18.1056 79.3526 18.0198 78.9258 17.8482C78.4991 17.6766 78.1295 17.428 77.8171 17.1025C77.5048 16.7725 77.2628 16.3765 77.0912 15.9146C76.924 15.4526 76.8404 14.9291 76.8404 14.3439V13.9743C76.8404 13.3892 76.924 12.8656 77.0912 12.4037C77.2628 11.9417 77.5026 11.5458 77.8105 11.2158C78.1185 10.8858 78.4859 10.635 78.9126 10.4634C79.3394 10.2919 79.8102 10.2061 80.3249 10.2061C80.8441 10.2061 81.3148 10.2919 81.7372 10.4634C82.164 10.635 82.5313 10.8858 82.8393 11.2158C83.1517 11.5458 83.3915 11.9417 83.5586 12.4037C83.7258 12.8656 83.8094 13.3892 83.8094 13.9743ZM82.219 14.3439V13.9611C82.219 13.5608 82.1772 13.2066 82.0936 12.8986C82.01 12.5907 81.8846 12.3311 81.7174 12.1199C81.5546 11.9087 81.3566 11.7481 81.1235 11.6381C80.8903 11.5282 80.6241 11.4732 80.3249 11.4732C80.0301 11.4732 79.764 11.5282 79.5264 11.6381C79.2932 11.7481 79.0952 11.9087 78.9324 12.1199C78.7741 12.3311 78.6509 12.5907 78.5629 12.8986C78.4793 13.2066 78.4375 13.5608 78.4375 13.9611V14.3439C78.4375 14.7399 78.4793 15.094 78.5629 15.4064C78.6509 15.7144 78.7763 15.9762 78.939 16.1918C79.1062 16.4029 79.3064 16.5657 79.5396 16.6801C79.7772 16.7901 80.0433 16.8451 80.3381 16.8451C80.6373 16.8451 80.9013 16.7901 81.1301 16.6801C81.3632 16.5657 81.5612 16.4029 81.724 16.1918C81.8868 15.9762 82.01 15.7144 82.0936 15.4064C82.1772 15.094 82.219 14.7399 82.219 14.3439ZM91.7749 10.3117V18H90.1779L86.7066 12.7007V18H85.1161V10.3117H86.7066L90.1779 15.611V10.3117H91.7749Z" fill="white"/>
<rect x="8" y="42" width="275" height="55" rx="8" fill="#F4F4F4"/>
<rect x="8" y="102" width="275" height="55" rx="8" fill="#F4F4F4"/>
<rect x="8" y="162" width="275" height="55" rx="8" fill="#F4F4F4"/>
<path d="M214.894 233.08L217.005 227.312H218.312L215.296 235H214.359L214.894 233.08ZM212.452 227.312L214.55 233.073L215.085 235H214.148L211.132 227.312H212.452ZM220.668 227.312V235H219.447V227.312H220.668ZM227.901 233.997V235H223.519V233.997H227.901ZM223.816 227.312V235H222.595V227.312H223.816ZM227.327 230.526V231.522H223.519V230.526H227.327ZM227.862 227.312V228.321H223.519V227.312H227.862ZM231.28 233.165L232.917 227.312H233.768L233.464 228.942L231.696 235H230.864L231.28 233.165ZM229.802 227.312L231.115 233.053L231.392 235H230.554L228.587 227.312H229.802ZM235.787 233.04L237.088 227.312H238.302L236.335 235H235.497L235.787 233.04ZM234.006 227.312L235.616 233.185L236.025 235H235.194L233.478 228.942L233.167 227.312H234.006ZM245.898 228.387L243.278 235H242.031L245.192 227.312H245.99L245.898 228.387ZM248.161 235L245.561 228.361L245.475 227.312H246.281L249.402 235H248.161ZM247.983 232.156V233.159H243.416V232.156H247.983ZM255.526 233.997V235H251.382V233.997H255.526ZM251.679 227.312V235H250.458V227.312H251.679ZM261.796 233.997V235H257.651V233.997H261.796ZM257.948 227.312V235H256.727V227.312H257.948Z" fill="#047BD5"/>
<mask id="mask0_1312_2255" style="mask-type:alpha" maskUnits="userSpaceOnUse" x="268" y="223" width="15" height="16">
<rect x="268" y="223.5" width="15" height="15" fill="#D9D9D9"/>
</mask>
<g mask="url(#mask0_1312_2255)">
<path d="M275.5 236L274.609 235.125L278.109 231.625H270.5V230.375H278.109L274.609 226.875L275.5 226L280.5 231L275.5 236Z" fill="#047BD5"/>
</g>
</svg>
