<svg width="34" height="31" viewBox="0 0 34 31" fill="none" xmlns="http://www.w3.org/2000/svg">
<g filter="url(#filter0_d_1195_2628)">
<circle cx="16.5163" cy="14.735" r="11.735" fill="#E1D8A1"/>
<path d="M10.1701 9.80518C9.39119 9.80518 8.75977 10.4398 8.75977 11.2155V18.2674V18.9726C8.75977 19.7483 9.39119 20.3829 10.1701 20.3829H21.4531H22.8635C23.6427 20.3829 24.2738 19.7483 24.2738 18.9726V18.2674V11.9207V11.2155C24.2738 10.4398 23.6427 9.80518 22.8635 9.80518H21.4531H11.5805H10.1701Z" fill="#95A5A6"/>
<path d="M10.1701 9.09961C9.39119 9.09961 8.75977 9.73428 8.75977 10.51V17.5618V18.267C8.75977 19.0427 9.39119 19.6774 10.1701 19.6774H21.4531H22.8635C23.6427 19.6774 24.2738 19.0427 24.2738 18.267V17.5618V11.2152V10.51C24.2738 9.73428 23.6427 9.09961 22.8635 9.09961H21.4531H11.5805H10.1701Z" fill="#BDC3C7"/>
<path d="M17.2227 11.2153V11.9205H20.0434V11.2153H17.2227ZM17.2227 12.6257V13.3309H22.159V12.6257H17.2227ZM17.2227 14.0361V14.7413H22.159V14.0361H17.2227Z" fill="#7F8C8D"/>
<path d="M10.8751 10.5098C10.4856 10.5098 10.1699 10.8255 10.1699 11.215V17.5616C10.1699 17.9509 10.4856 18.2668 10.8751 18.2668H15.1062C15.4955 18.2668 15.8114 17.9509 15.8114 17.5616V11.215C15.8114 10.8255 15.4955 10.5098 15.1062 10.5098H10.8751Z" fill="#ECF0F1"/>
<path d="M12.9913 11.2856C12.522 11.2856 12.0888 11.5678 11.7696 11.8498C11.4969 12.2024 11.3392 12.555 11.2375 12.9781C10.9402 13.2602 10.976 13.6833 11.196 13.9654C11.4285 14.2475 11.4254 14.6 11.6019 14.9526C11.6754 15.2346 12.0937 15.4463 12.0936 15.7283C12.1987 16.222 11.5931 16.0809 11.3201 16.2219C10.9394 16.363 10.441 16.504 10.1716 16.7861C10.1998 17.2092 10.0944 17.6323 10.2598 17.9849C10.4008 18.267 10.7537 18.267 11.0379 18.267H15.4157C15.7394 18.126 15.8536 17.7028 15.812 17.4207V16.7155C15.3149 16.504 14.8528 16.222 14.3032 16.0809C13.9771 16.0809 13.8363 15.8693 13.8106 15.5873C14.2639 15.2347 14.5039 14.6705 14.6661 14.1064C14.9197 13.8948 15.128 13.3307 14.796 13.0486C14.6333 12.7665 14.6097 12.4139 14.3847 12.0613C14.0871 11.6382 13.5554 11.2856 12.9913 11.2856Z" fill="#34495E"/>
</g>
<defs>
<filter id="filter0_d_1195_2628" x="-0.21875" y="0" width="33.4707" height="33.4702" filterUnits="userSpaceOnUse" color-interpolation-filters="sRGB">
<feFlood flood-opacity="0" result="BackgroundImageFix"/>
<feColorMatrix in="SourceAlpha" type="matrix" values="0 0 0 0 0 0 0 0 0 0 0 0 0 0 0 0 0 0 127 0" result="hardAlpha"/>
<feOffset dy="2"/>
<feGaussianBlur stdDeviation="2.5"/>
<feComposite in2="hardAlpha" operator="out"/>
<feColorMatrix type="matrix" values="0 0 0 0 0 0 0 0 0 0 0 0 0 0 0 0 0 0 0.25 0"/>
<feBlend mode="normal" in2="BackgroundImageFix" result="effect1_dropShadow_1195_2628"/>
<feBlend mode="normal" in="SourceGraphic" in2="effect1_dropShadow_1195_2628" result="shape"/>
</filter>
</defs>
</svg>
