<svg width="296" height="120" viewBox="0 0 296 120" fill="none" xmlns="http://www.w3.org/2000/svg">
<rect width="296" height="120" rx="8" fill="white"/>
<path d="M0 8C0 3.58172 3.58172 0 8 0H288C292.418 0 296 3.58172 296 8V25H0V8Z" fill="#047BD5"/>
<path d="M20.9298 7.39123V17H19.2865V7.39123H20.9298ZM23.9457 7.39123V8.71111H16.297V7.39123H23.9457ZM31.2447 12.9743V13.3439C31.2447 13.9291 31.1611 14.4526 30.9939 14.9146C30.8267 15.3765 30.5891 15.7725 30.2812 16.1025C29.9776 16.428 29.6124 16.6766 29.1857 16.8482C28.7589 17.0198 28.2881 17.1056 27.7734 17.1056C27.2586 17.1056 26.7879 17.0198 26.3611 16.8482C25.9343 16.6766 25.5648 16.428 25.2524 16.1025C24.94 15.7725 24.6981 15.3765 24.5265 14.9146C24.3593 14.4526 24.2757 13.9291 24.2757 13.3439V12.9743C24.2757 12.3892 24.3593 11.8656 24.5265 11.4037C24.6981 10.9417 24.9378 10.5458 25.2458 10.2158C25.5538 9.88581 25.9211 9.63503 26.3479 9.46345C26.7747 9.29186 27.2454 9.20607 27.7602 9.20607C28.2793 9.20607 28.7501 9.29186 29.1725 9.46345C29.5992 9.63503 29.9666 9.88581 30.2746 10.2158C30.5869 10.5458 30.8267 10.9417 30.9939 11.4037C31.1611 11.8656 31.2447 12.3892 31.2447 12.9743ZM29.6542 13.3439V12.9611C29.6542 12.5608 29.6124 12.2066 29.5288 11.8986C29.4452 11.5907 29.3199 11.3311 29.1527 11.1199C28.9899 10.9087 28.7919 10.7481 28.5587 10.6381C28.3255 10.5282 28.0594 10.4732 27.7602 10.4732C27.4654 10.4732 27.1992 10.5282 26.9617 10.6381C26.7285 10.7481 26.5305 10.9087 26.3677 11.1199C26.2093 11.3311 26.0861 11.5907 25.9981 11.8986C25.9145 12.2066 25.8728 12.5608 25.8728 12.9611V13.3439C25.8728 13.7399 25.9145 14.094 25.9981 14.4064C26.0861 14.7144 26.2115 14.9762 26.3743 15.1918C26.5415 15.4029 26.7417 15.5657 26.9749 15.6801C27.2124 15.7901 27.4786 15.8451 27.7734 15.8451C28.0726 15.8451 28.3365 15.7901 28.5653 15.6801C28.7985 15.5657 28.9965 15.4029 29.1593 15.1918C29.3221 14.9762 29.4452 14.7144 29.5288 14.4064C29.6124 14.094 29.6542 13.7399 29.6542 13.3439ZM36.0161 9.31166V17H34.4256V9.31166H36.0161ZM38.5767 9.31166V10.5788H31.898V9.31166H38.5767ZM42.8069 10.8889L40.4971 17H38.8868L41.982 9.31166H43.0511L42.8069 10.8889ZM44.9385 17L42.6155 10.8757L42.3713 9.31166H43.4602L46.5488 17H44.9385ZM44.8395 14.149V15.3435H40.4443V14.149H44.8395ZM52.64 15.7395V17H48.4758V15.7395H52.64ZM48.9774 9.31166V17H47.3869V9.31166H48.9774ZM62.9088 13.8719H64.5586C64.5058 14.501 64.3298 15.062 64.0307 15.5547C63.7315 16.0431 63.3113 16.428 62.7702 16.7096C62.229 16.9912 61.5713 17.132 60.7969 17.132C60.203 17.132 59.6684 17.0264 59.1933 16.8152C58.7181 16.5996 58.3112 16.2961 57.9724 15.9045C57.6336 15.5085 57.374 15.0312 57.1937 14.4724C57.0177 13.9137 56.9297 13.2889 56.9297 12.5982V11.7996C56.9297 11.1089 57.0199 10.4842 57.2003 9.92541C57.385 9.36666 57.649 8.8893 57.9922 8.49333C58.3354 8.09297 58.7467 7.78719 59.2263 7.57601C59.7102 7.36483 60.2536 7.25924 60.8563 7.25924C61.6219 7.25924 62.2686 7.40003 62.7966 7.6816C63.3245 7.96318 63.7337 8.35254 64.0241 8.8497C64.3188 9.34686 64.4992 9.91661 64.5652 10.559H62.9154C62.8714 10.1454 62.7746 9.79122 62.625 9.49645C62.4798 9.20167 62.2642 8.97729 61.9782 8.8233C61.6923 8.66492 61.3183 8.58572 60.8563 8.58572C60.478 8.58572 60.148 8.65612 59.8664 8.79691C59.5849 8.93769 59.3495 9.14448 59.1603 9.41725C58.9711 9.69003 58.8281 10.0266 58.7313 10.427C58.6389 10.8229 58.5927 11.2761 58.5927 11.7864V12.5982C58.5927 13.0821 58.6345 13.5221 58.7181 13.9181C58.8061 14.3096 58.9381 14.6462 59.1141 14.9278C59.2945 15.2094 59.5233 15.4271 59.8004 15.5811C60.0776 15.7351 60.4098 15.8121 60.7969 15.8121C61.2677 15.8121 61.6483 15.7373 61.9386 15.5877C62.2334 15.4381 62.4556 15.2204 62.6052 14.9344C62.7592 14.644 62.8604 14.2898 62.9088 13.8719ZM69.0594 10.8889L66.7496 17H65.1394L68.2345 9.31166H69.3036L69.0594 10.8889ZM71.1911 17L68.8681 10.8757L68.6239 9.31166H69.7128L72.8013 17H71.1911ZM71.0921 14.149V15.3435H66.6968V14.149H71.0921ZM78.8926 15.7395V17H74.7283V15.7395H78.8926ZM75.2299 9.31166V17H73.6394V9.31166H75.2299ZM85.1752 15.7395V17H81.011V15.7395H85.1752ZM81.5126 9.31166V17H79.9221V9.31166H81.5126ZM90.534 14.9872C90.534 14.842 90.5076 14.7122 90.4548 14.5978C90.4064 14.4834 90.3206 14.38 90.1974 14.2876C90.0786 14.1908 89.9136 14.1006 89.7025 14.0171C89.4957 13.9335 89.2339 13.8543 88.9171 13.7795C88.4596 13.6695 88.0548 13.5463 87.7028 13.4099C87.3553 13.2691 87.0627 13.1063 86.8251 12.9216C86.5875 12.7368 86.4071 12.519 86.284 12.2682C86.1652 12.0174 86.1058 11.7249 86.1058 11.3905C86.1058 11.0693 86.1762 10.7767 86.3169 10.5128C86.4577 10.2444 86.6579 10.0134 86.9175 9.81982C87.1771 9.62183 87.485 9.47005 87.8414 9.36446C88.1978 9.25887 88.5894 9.20607 89.0161 9.20607C89.6365 9.20607 90.1754 9.30726 90.633 9.50964C91.0905 9.71203 91.4447 9.9914 91.6955 10.3478C91.9507 10.6997 92.0783 11.1089 92.0783 11.5753H90.4878C90.4878 11.3553 90.4306 11.1573 90.3162 10.9813C90.2062 10.8053 90.0434 10.6645 89.8278 10.559C89.6123 10.4534 89.3417 10.4006 89.0161 10.4006C88.7037 10.4006 88.4464 10.4468 88.244 10.5392C88.0416 10.6271 87.8898 10.7437 87.7886 10.8889C87.6918 11.0297 87.6434 11.1837 87.6434 11.3509C87.6434 11.4829 87.672 11.6017 87.7292 11.7073C87.7908 11.8128 87.8876 11.9096 88.0196 11.9976C88.1516 12.0856 88.3232 12.1692 88.5344 12.2484C88.7455 12.3276 89.0029 12.4046 89.3065 12.4794C89.7597 12.585 90.16 12.7104 90.5076 12.8556C90.8552 13.0007 91.1455 13.1723 91.3787 13.3703C91.6119 13.5639 91.7857 13.7927 91.9001 14.0567C92.0189 14.3162 92.0783 14.6132 92.0783 14.9476C92.0783 15.2863 92.0079 15.5899 91.8671 15.8583C91.7263 16.1223 91.5239 16.3467 91.2599 16.5314C91.0003 16.7162 90.688 16.8592 90.3228 16.9604C89.9576 17.0572 89.5507 17.1056 89.1019 17.1056C88.7059 17.1056 88.3122 17.0572 87.9206 16.9604C87.5334 16.8636 87.1837 16.714 86.8713 16.5116C86.5589 16.3093 86.3081 16.0519 86.119 15.7395C85.9342 15.4227 85.8418 15.051 85.8418 14.6242H87.4389C87.4389 14.853 87.4784 15.051 87.5576 15.2182C87.6412 15.3809 87.7578 15.5151 87.9074 15.6207C88.0614 15.7219 88.244 15.7967 88.4552 15.8451C88.6663 15.8935 88.8995 15.9177 89.1547 15.9177C89.4759 15.9177 89.7377 15.8759 89.94 15.7923C90.1468 15.7043 90.2964 15.5899 90.3888 15.4491C90.4856 15.3083 90.534 15.1544 90.534 14.9872Z" fill="white"/>
<path d="M11.7529 44.721H12.9765V50.9983C12.9765 51.6951 12.8214 52.275 12.5113 52.7382C12.2011 53.2013 11.789 53.5496 11.2749 53.7833C10.7651 54.0127 10.2106 54.1275 9.61159 54.1275C8.98279 54.1275 8.41347 54.0127 7.90363 53.7833C7.39804 53.5496 6.99654 53.2013 6.69914 52.7382C6.40598 52.275 6.2594 51.6951 6.2594 50.9983V44.721H7.47664V50.9983C7.47664 51.4827 7.56586 51.882 7.74431 52.1964C7.92275 52.5108 8.17129 52.7445 8.48994 52.8975C8.81284 53.0504 9.18672 53.1269 9.61159 53.1269C10.0407 53.1269 10.4146 53.0504 10.7332 52.8975C11.0561 52.7445 11.3068 52.5108 11.4852 52.1964C11.6637 51.882 11.7529 51.4827 11.7529 50.9983V44.721ZM15.9081 48.43V56.6512H14.7227V47.1044H15.8061L15.9081 48.43ZM20.554 50.4949V50.6287C20.554 51.13 20.4945 51.5953 20.3755 52.0244C20.2566 52.4492 20.0824 52.8189 19.853 53.1333C19.6278 53.4477 19.3495 53.692 19.0181 53.8662C18.6867 54.0404 18.3064 54.1275 17.8773 54.1275C17.4397 54.1275 17.0531 54.0552 16.7174 53.9108C16.3818 53.7663 16.0971 53.556 15.8635 53.2799C15.6298 53.0037 15.4429 52.6723 15.3027 52.2857C15.1667 51.899 15.0732 51.4636 15.0222 50.9792V50.2654C15.0732 49.7556 15.1688 49.2989 15.309 48.8952C15.4492 48.4916 15.634 48.1475 15.8635 47.8628C16.0971 47.5739 16.3797 47.3551 16.7111 47.2064C17.0425 47.0535 17.4248 46.977 17.8582 46.977C18.2916 46.977 18.6761 47.062 19.0117 47.2319C19.3474 47.3976 19.6299 47.6355 19.8593 47.9457C20.0888 48.2558 20.2608 48.6276 20.3755 49.0609C20.4945 49.4901 20.554 49.968 20.554 50.4949ZM19.3686 50.6287V50.4949C19.3686 50.1507 19.3325 49.8278 19.2603 49.5262C19.188 49.2203 19.0754 48.9526 18.9225 48.7232C18.7738 48.4895 18.5826 48.3068 18.3489 48.1751C18.1153 48.0391 17.837 47.9712 17.5141 47.9712C17.2167 47.9712 16.9575 48.0222 16.7366 48.1241C16.5199 48.2261 16.3351 48.3642 16.1821 48.5384C16.0292 48.7083 15.9038 48.9037 15.8061 49.1247C15.7126 49.3414 15.6425 49.5665 15.5958 49.8002V51.4508C15.6808 51.7482 15.7997 52.0286 15.9527 52.292C16.1056 52.5512 16.3096 52.7615 16.5645 52.923C16.8194 53.0802 17.1402 53.1588 17.5268 53.1588C17.8455 53.1588 18.1195 53.0929 18.3489 52.9612C18.5826 52.8252 18.7738 52.6404 18.9225 52.4068C19.0754 52.1731 19.188 51.9054 19.2603 51.6038C19.3325 51.2979 19.3686 50.9728 19.3686 50.6287ZM23.339 44.2111V54H22.1536V44.2111H23.339ZM24.9195 50.6287V50.4821C24.9195 49.985 24.9917 49.524 25.1361 49.0992C25.2806 48.6701 25.4888 48.2983 25.7607 47.9839C26.0326 47.6653 26.3619 47.4188 26.7485 47.2447C27.1351 47.0662 27.5685 46.977 28.0486 46.977C28.5329 46.977 28.9684 47.0662 29.3551 47.2447C29.7459 47.4188 30.0773 47.6653 30.3492 47.9839C30.6254 48.2983 30.8357 48.6701 30.9802 49.0992C31.1246 49.524 31.1968 49.985 31.1968 50.4821V50.6287C31.1968 51.1258 31.1246 51.5868 30.9802 52.0116C30.8357 52.4365 30.6254 52.8083 30.3492 53.1269C30.0773 53.4413 29.7481 53.6877 29.3614 53.8662C28.979 54.0404 28.5457 54.1275 28.0613 54.1275C27.577 54.1275 27.1415 54.0404 26.7549 53.8662C26.3683 53.6877 26.0369 53.4413 25.7607 53.1269C25.4888 52.8083 25.2806 52.4365 25.1361 52.0116C24.9917 51.5868 24.9195 51.1258 24.9195 50.6287ZM26.0985 50.4821V50.6287C26.0985 50.9728 26.1388 51.2979 26.2196 51.6038C26.3003 51.9054 26.4214 52.1731 26.5828 52.4068C26.7485 52.6404 26.9546 52.8252 27.201 52.9612C27.4474 53.0929 27.7342 53.1588 28.0613 53.1588C28.3842 53.1588 28.6668 53.0929 28.9089 52.9612C29.1554 52.8252 29.3593 52.6404 29.5207 52.4068C29.6822 52.1731 29.8033 51.9054 29.884 51.6038C29.969 51.2979 30.0115 50.9728 30.0115 50.6287V50.4821C30.0115 50.1422 29.969 49.8215 29.884 49.5198C29.8033 49.2139 29.6801 48.9441 29.5144 48.7104C29.3529 48.4725 29.149 48.2856 28.9026 48.1496C28.6604 48.0137 28.3757 47.9457 28.0486 47.9457C27.7257 47.9457 27.441 48.0137 27.1946 48.1496C26.9524 48.2856 26.7485 48.4725 26.5828 48.7104C26.4214 48.9441 26.3003 49.2139 26.2196 49.5198C26.1388 49.8215 26.0985 50.1422 26.0985 50.4821ZM36.7413 52.821V49.2713C36.7413 48.9993 36.6861 48.7635 36.5756 48.5639C36.4694 48.3599 36.308 48.2027 36.0913 48.0923C35.8746 47.9818 35.6069 47.9266 35.2883 47.9266C34.9909 47.9266 34.7296 47.9775 34.5044 48.0795C34.2835 48.1815 34.1093 48.3153 33.9818 48.481C33.8586 48.6467 33.797 48.8251 33.797 49.0163H32.618C32.618 48.7699 32.6817 48.5256 32.8092 48.2834C32.9367 48.0413 33.1194 47.8225 33.3573 47.627C33.5995 47.4273 33.8884 47.2701 34.224 47.1554C34.5639 47.0365 34.942 46.977 35.3584 46.977C35.8597 46.977 36.3016 47.062 36.684 47.2319C37.0706 47.4019 37.3723 47.6589 37.5889 48.003C37.8099 48.3429 37.9203 48.7699 37.9203 49.284V52.496C37.9203 52.7254 37.9394 52.9697 37.9777 53.2289C38.0202 53.488 38.0818 53.7111 38.1625 53.898V54H36.9325C36.873 53.864 36.8263 53.6835 36.7923 53.4583C36.7583 53.2289 36.7413 53.0164 36.7413 52.821ZM36.9453 49.8193L36.958 50.6478H35.7663C35.4306 50.6478 35.1311 50.6754 34.8677 50.7307C34.6043 50.7816 34.3833 50.8602 34.2049 50.9665C34.0264 51.0727 33.8905 51.2065 33.797 51.368C33.7035 51.5252 33.6568 51.71 33.6568 51.9224C33.6568 52.1391 33.7057 52.3367 33.8034 52.5151C33.9011 52.6935 34.0477 52.8359 34.2431 52.9421C34.4428 53.0441 34.6871 53.095 34.976 53.095C35.3371 53.095 35.6558 53.0186 35.932 52.8656C36.2081 52.7127 36.4269 52.5257 36.5884 52.3048C36.7541 52.0839 36.8433 51.8693 36.856 51.6611L37.3595 52.2283C37.3298 52.4068 37.249 52.6043 37.1173 52.821C36.9856 53.0377 36.8093 53.2459 36.5884 53.4456C36.3717 53.641 36.1125 53.8046 35.8109 53.9363C35.5135 54.0637 35.1778 54.1275 34.8039 54.1275C34.3366 54.1275 33.9266 54.0361 33.574 53.8534C33.2256 53.6707 32.9537 53.4264 32.7582 53.1205C32.567 52.8104 32.4714 52.4641 32.4714 52.0817C32.4714 51.7121 32.5437 51.3871 32.6881 51.1067C32.8326 50.822 33.0408 50.5862 33.3127 50.3993C33.5846 50.2081 33.9117 50.0636 34.2941 49.9659C34.6765 49.8682 35.1035 49.8193 35.5751 49.8193H36.9453ZM44.1212 52.6617V44.2111H45.3066V54H44.2232L44.1212 52.6617ZM39.4817 50.6287V50.4949C39.4817 49.968 39.5454 49.4901 39.6729 49.0609C39.8046 48.6276 39.9894 48.2558 40.2273 47.9457C40.4695 47.6355 40.7563 47.3976 41.0877 47.2319C41.4233 47.062 41.7972 46.977 42.2093 46.977C42.6427 46.977 43.0208 47.0535 43.3437 47.2064C43.6709 47.3551 43.947 47.5739 44.1722 47.8628C44.4016 48.1475 44.5822 48.4916 44.7139 48.8952C44.8456 49.2989 44.937 49.7556 44.9879 50.2654V50.8518C44.9412 51.3573 44.8499 51.8119 44.7139 52.2156C44.5822 52.6192 44.4016 52.9633 44.1722 53.248C43.947 53.5326 43.6709 53.7515 43.3437 53.9044C43.0166 54.0531 42.6342 54.1275 42.1966 54.1275C41.793 54.1275 41.4233 54.0404 41.0877 53.8662C40.7563 53.692 40.4695 53.4477 40.2273 53.1333C39.9894 52.8189 39.8046 52.4492 39.6729 52.0244C39.5454 51.5953 39.4817 51.13 39.4817 50.6287ZM40.6671 50.4949V50.6287C40.6671 50.9728 40.7011 51.2957 40.769 51.5974C40.8413 51.899 40.9517 52.1646 41.1004 52.394C41.2491 52.6234 41.4382 52.804 41.6676 52.9357C41.8971 53.0632 42.1711 53.1269 42.4897 53.1269C42.8806 53.1269 43.2014 53.0441 43.4521 52.8784C43.707 52.7127 43.9109 52.4939 44.0639 52.2219C44.2168 51.95 44.3358 51.6547 44.4208 51.3361V49.8002C44.3698 49.5665 44.2954 49.3414 44.1977 49.1247C44.1042 48.9037 43.981 48.7083 43.8281 48.5384C43.6794 48.3642 43.4946 48.2261 43.2736 48.1241C43.0569 48.0222 42.7999 47.9712 42.5025 47.9712C42.1796 47.9712 41.9013 48.0391 41.6676 48.1751C41.4382 48.3068 41.2491 48.4895 41.1004 48.7232C40.9517 48.9526 40.8413 49.2203 40.769 49.5262C40.7011 49.8278 40.6671 50.1507 40.6671 50.4949ZM50.0035 54.1275C49.5234 54.1275 49.0879 54.0467 48.697 53.8853C48.3104 53.7196 47.9769 53.488 47.6965 53.1906C47.4203 52.8932 47.2079 52.5406 47.0592 52.1327C46.9105 51.7248 46.8361 51.2787 46.8361 50.7944V50.5267C46.8361 49.9659 46.919 49.4667 47.0847 49.0291C47.2504 48.5872 47.4755 48.2133 47.7602 47.9074C48.0449 47.6015 48.3678 47.37 48.7289 47.2128C49.09 47.0556 49.4639 46.977 49.8505 46.977C50.3434 46.977 50.7682 47.062 51.1251 47.2319C51.4863 47.4019 51.7815 47.6398 52.011 47.9457C52.2404 48.2473 52.4103 48.6042 52.5208 49.0163C52.6313 49.4242 52.6865 49.8703 52.6865 50.3547V50.8836H47.5371V49.9213H51.5075V49.8321C51.4905 49.5262 51.4268 49.2288 51.3163 48.9399C51.2101 48.651 51.0402 48.413 50.8065 48.2261C50.5728 48.0391 50.2542 47.9457 49.8505 47.9457C49.5829 47.9457 49.3364 48.003 49.1113 48.1177C48.8861 48.2282 48.6928 48.3939 48.5313 48.6148C48.3699 48.8358 48.2445 49.1056 48.1553 49.4242C48.0661 49.7429 48.0215 50.1104 48.0215 50.5267V50.7944C48.0215 51.1215 48.0661 51.4296 48.1553 51.7185C48.2488 52.0031 48.3826 52.2538 48.5568 52.4705C48.7353 52.6872 48.9498 52.8571 49.2005 52.9803C49.4554 53.1035 49.7443 53.1651 50.0672 53.1651C50.4836 53.1651 50.8362 53.0802 51.1251 52.9102C51.414 52.7403 51.6668 52.513 51.8835 52.2283L52.5973 52.7955C52.4486 53.0207 52.2595 53.2352 52.0301 53.4392C51.8007 53.6431 51.5181 53.8088 51.1825 53.9363C50.8511 54.0637 50.4581 54.1275 50.0035 54.1275ZM58.4094 52.6617V44.2111H59.5948V54H58.5114L58.4094 52.6617ZM53.7699 50.6287V50.4949C53.7699 49.968 53.8336 49.4901 53.9611 49.0609C54.0928 48.6276 54.2776 48.2558 54.5155 47.9457C54.7577 47.6355 55.0445 47.3976 55.3759 47.2319C55.7115 47.062 56.0854 46.977 56.4975 46.977C56.9309 46.977 57.309 47.0535 57.6319 47.2064C57.9591 47.3551 58.2352 47.5739 58.4604 47.8628C58.6898 48.1475 58.8704 48.4916 59.0021 48.8952C59.1338 49.2989 59.2252 49.7556 59.2762 50.2654V50.8518C59.2294 51.3573 59.1381 51.8119 59.0021 52.2156C58.8704 52.6192 58.6898 52.9633 58.4604 53.248C58.2352 53.5326 57.9591 53.7515 57.6319 53.9044C57.3048 54.0531 56.9224 54.1275 56.4848 54.1275C56.0812 54.1275 55.7115 54.0404 55.3759 53.8662C55.0445 53.692 54.7577 53.4477 54.5155 53.1333C54.2776 52.8189 54.0928 52.4492 53.9611 52.0244C53.8336 51.5953 53.7699 51.13 53.7699 50.6287ZM54.9553 50.4949V50.6287C54.9553 50.9728 54.9893 51.2957 55.0572 51.5974C55.1295 51.899 55.2399 52.1646 55.3886 52.394C55.5373 52.6234 55.7264 52.804 55.9558 52.9357C56.1853 53.0632 56.4593 53.1269 56.7779 53.1269C57.1688 53.1269 57.4896 53.0441 57.7403 52.8784C57.9952 52.7127 58.1991 52.4939 58.3521 52.2219C58.505 51.95 58.624 51.6547 58.709 51.3361V49.8002C58.658 49.5665 58.5836 49.3414 58.4859 49.1247C58.3924 48.9037 58.2692 48.7083 58.1163 48.5384C57.9676 48.3642 57.7828 48.2261 57.5618 48.1241C57.3451 48.0222 57.0881 47.9712 56.7907 47.9712C56.4678 47.9712 56.1895 48.0391 55.9558 48.1751C55.7264 48.3068 55.5373 48.4895 55.3886 48.7232C55.2399 48.9526 55.1295 49.2203 55.0572 49.5262C54.9893 49.8278 54.9553 50.1507 54.9553 50.4949Z" fill="#292B3F"/>
<path d="M31.6596 86.6811C31.6596 88.018 31.345 89.1485 30.7159 90.0726C30.0965 90.9868 29.2462 91.6798 28.1649 92.1517C27.0934 92.6137 25.8744 92.8447 24.508 92.8447C23.1514 92.8447 21.9276 92.6137 20.8364 92.1517C19.7551 91.6798 18.8949 90.9868 18.2559 90.0726C17.6268 89.1485 17.3122 88.018 17.3122 86.6811C17.3122 85.7866 17.4892 84.9756 17.8431 84.2481C18.2068 83.5207 18.7081 82.8965 19.3471 82.3754C19.9861 81.8446 20.743 81.4416 21.6179 81.1663C22.4928 80.8812 23.4463 80.7387 24.4785 80.7387C25.8548 80.7387 27.0836 80.9894 28.1649 81.4907C29.2561 81.9822 30.1113 82.6753 30.7306 83.5698C31.3499 84.4546 31.6596 85.4917 31.6596 86.6811ZM27.7373 86.4452C27.7373 85.7571 27.5996 85.1623 27.3244 84.661C27.059 84.1498 26.6805 83.7566 26.189 83.4814C25.6975 83.2061 25.1273 83.0685 24.4785 83.0685C23.8199 83.0685 23.2448 83.2061 22.7533 83.4814C22.2716 83.7566 21.8932 84.1498 21.6179 84.661C21.3525 85.1623 21.2198 85.7571 21.2198 86.4452C21.2198 87.1431 21.3525 87.7428 21.6179 88.2441C21.8932 88.7356 22.2765 89.1141 22.7681 89.3795C23.2596 89.645 23.8396 89.7777 24.508 89.7777C25.1765 89.7777 25.7516 89.645 26.2332 89.3795C26.7149 89.1141 27.0836 88.7356 27.3391 88.2441C27.6046 87.7428 27.7373 87.1431 27.7373 86.4452ZM31.1877 76.7427C31.1877 77.824 30.9026 78.7874 30.3325 79.6328C29.7623 80.4684 28.971 81.1221 27.9585 81.5939C26.9558 82.0658 25.8056 82.3017 24.508 82.3017C23.2104 82.3017 22.0504 82.0658 21.0281 81.5939C20.0156 81.1221 19.2193 80.4684 18.6393 79.6328C18.0692 78.7874 17.7841 77.824 17.7841 76.7427C17.7841 75.4647 18.0741 74.3834 18.6541 73.4987C19.2341 72.6041 20.0254 71.9258 21.0281 71.4638C22.0406 71.0018 23.1908 70.7708 24.4785 70.7708C25.786 70.7708 26.9459 71.0018 27.9585 71.4638C28.971 71.9258 29.7623 72.6041 30.3325 73.4987C30.9026 74.3834 31.1877 75.4647 31.1877 76.7427ZM27.2949 76.9049C27.2949 76.2954 27.1819 75.7646 26.9558 75.3124C26.7297 74.8504 26.4053 74.4915 25.9826 74.236C25.5697 73.9804 25.0683 73.8526 24.4785 73.8526C23.9084 73.8526 23.4169 73.9755 23.004 74.2212C22.5911 74.467 22.2716 74.8209 22.0455 75.2829C21.8194 75.7351 21.7064 76.2757 21.7064 76.9049C21.7064 77.5242 21.8194 78.0649 22.0455 78.5269C22.2716 78.9889 22.5911 79.3526 23.004 79.618C23.4267 79.8736 23.928 80.0014 24.508 80.0014C25.088 80.0014 25.5844 79.8736 25.9973 79.618C26.4102 79.3526 26.7297 78.9889 26.9558 78.5269C27.1819 78.0649 27.2949 77.5242 27.2949 76.9049ZM48.8822 79.9719V83.5846C48.8822 85.2361 48.7151 86.6467 48.3809 87.8165C48.0467 88.9863 47.565 89.9448 46.9358 90.6919C46.3067 91.4292 45.5547 91.9747 44.6798 92.3286C43.8049 92.6727 42.8317 92.8447 41.7602 92.8447C40.905 92.8447 40.1087 92.7366 39.3714 92.5203C38.6342 92.2942 37.9706 91.9502 37.3808 91.4881C36.8008 91.0163 36.2995 90.4166 35.8768 89.6892C35.4639 88.9617 35.1444 88.0918 34.9183 87.0792C34.702 86.0667 34.5939 84.9018 34.5939 83.5846V79.9719C34.5939 78.3204 34.761 76.9147 35.0952 75.7547C35.4393 74.5948 35.9259 73.6461 36.555 72.9089C37.1842 72.1716 37.9362 71.6358 38.8111 71.3016C39.686 70.9576 40.6592 70.7855 41.7307 70.7855C42.5958 70.7855 43.392 70.8937 44.1195 71.1099C44.8567 71.3262 45.5154 71.6653 46.0954 72.1274C46.6852 72.5796 47.1865 73.1694 47.5994 73.8968C48.0123 74.6144 48.3268 75.4795 48.5431 76.492C48.7692 77.4947 48.8822 78.6547 48.8822 79.9719ZM44.9894 84.1154V79.4264C44.9894 78.6006 44.9403 77.883 44.842 77.2735C44.7535 76.6542 44.6208 76.1283 44.4439 75.6958C44.2669 75.2632 44.0457 74.9143 43.7803 74.6488C43.5149 74.3736 43.2102 74.1721 42.8661 74.0443C42.522 73.9165 42.1436 73.8526 41.7307 73.8526C41.2195 73.8526 40.7624 73.9558 40.3594 74.1622C39.9563 74.3588 39.6172 74.6734 39.3419 75.1059C39.0667 75.5385 38.8553 76.1135 38.7079 76.8312C38.5703 77.5389 38.5014 78.404 38.5014 79.4264V84.1154C38.5014 84.9412 38.5457 85.6637 38.6342 86.283C38.7325 86.9023 38.8701 87.4331 39.047 87.8755C39.2338 88.3179 39.455 88.6816 39.7106 88.9667C39.976 89.2419 40.2807 89.4483 40.6248 89.586C40.9689 89.7138 41.3473 89.7777 41.7602 89.7777C42.2812 89.7777 42.7383 89.6744 43.1315 89.468C43.5346 89.2616 43.8737 88.9372 44.149 88.4948C44.4242 88.0426 44.6306 87.4577 44.7683 86.7401C44.9157 86.0127 44.9894 85.1378 44.9894 84.1154Z" fill="#3B3B3E"/>
<path d="M73.1937 45.5431L70.1219 54H68.8665L72.4035 44.721H73.2128L73.1937 45.5431ZM75.7684 54L72.6902 45.5431L72.6711 44.721H73.4805L77.0302 54H75.7684ZM75.6091 50.565V51.5719H70.396V50.565H75.6091ZM79.8726 52.9357L81.759 47.1044H82.9635L80.4844 54H79.6941L79.8726 52.9357ZM78.2985 47.1044L80.2422 52.9676L80.376 54H79.5858L77.0876 47.1044H78.2985ZM88.0618 52.821V49.2713C88.0618 48.9993 88.0066 48.7635 87.8961 48.5639C87.7899 48.3599 87.6285 48.2027 87.4118 48.0923C87.1951 47.9818 86.9275 47.9266 86.6088 47.9266C86.3114 47.9266 86.0501 47.9775 85.8249 48.0795C85.604 48.1815 85.4298 48.3153 85.3024 48.481C85.1791 48.6467 85.1175 48.8251 85.1175 49.0163H83.9385C83.9385 48.7699 84.0023 48.5256 84.1297 48.2834C84.2572 48.0413 84.4399 47.8225 84.6778 47.627C84.92 47.4273 85.2089 47.2701 85.5445 47.1554C85.8844 47.0365 86.2625 46.977 86.6789 46.977C87.1803 46.977 87.6221 47.062 88.0045 47.2319C88.3911 47.4019 88.6928 47.6589 88.9095 48.003C89.1304 48.3429 89.2408 48.7699 89.2408 49.284V52.496C89.2408 52.7254 89.26 52.9697 89.2982 53.2289C89.3407 53.488 89.4023 53.7111 89.483 53.898V54H88.253C88.1936 53.864 88.1468 53.6835 88.1128 53.4583C88.0788 53.2289 88.0618 53.0164 88.0618 52.821ZM88.2658 49.8193L88.2785 50.6478H87.0868C86.7511 50.6478 86.4516 50.6754 86.1882 50.7307C85.9248 50.7816 85.7038 50.8602 85.5254 50.9665C85.347 51.0727 85.211 51.2065 85.1175 51.368C85.0241 51.5252 84.9773 51.71 84.9773 51.9224C84.9773 52.1391 85.0262 52.3367 85.1239 52.5151C85.2216 52.6935 85.3682 52.8359 85.5636 52.9421C85.7633 53.0441 86.0076 53.095 86.2965 53.095C86.6577 53.095 86.9763 53.0186 87.2525 52.8656C87.5286 52.7127 87.7474 52.5257 87.9089 52.3048C88.0746 52.0839 88.1638 51.8693 88.1766 51.6611L88.68 52.2283C88.6503 52.4068 88.5696 52.6043 88.4379 52.821C88.3061 53.0377 88.1298 53.2459 87.9089 53.4456C87.6922 53.641 87.433 53.8046 87.1314 53.9363C86.834 54.0637 86.4983 54.1275 86.1245 54.1275C85.6571 54.1275 85.2471 54.0361 84.8945 53.8534C84.5461 53.6707 84.2742 53.4264 84.0787 53.1205C83.8876 52.8104 83.792 52.4641 83.792 52.0817C83.792 51.7121 83.8642 51.3871 84.0086 51.1067C84.1531 50.822 84.3613 50.5862 84.6332 50.3993C84.9051 50.2081 85.2322 50.0636 85.6146 49.9659C85.997 49.8682 86.424 49.8193 86.8956 49.8193H88.2658ZM92.3763 47.1044V54H91.191V47.1044H92.3763ZM91.1018 45.2754C91.1018 45.0842 91.1591 44.9228 91.2738 44.7911C91.3928 44.6593 91.567 44.5935 91.7964 44.5935C92.0216 44.5935 92.1937 44.6593 92.3126 44.7911C92.4358 44.9228 92.4974 45.0842 92.4974 45.2754C92.4974 45.4581 92.4358 45.6153 92.3126 45.747C92.1937 45.8745 92.0216 45.9382 91.7964 45.9382C91.567 45.9382 91.3928 45.8745 91.2738 45.747C91.1591 45.6153 91.1018 45.4581 91.1018 45.2754ZM95.5501 44.2111V54H94.3647V44.2111H95.5501ZM101.509 52.821V49.2713C101.509 48.9993 101.454 48.7635 101.343 48.5639C101.237 48.3599 101.075 48.2027 100.859 48.0923C100.642 47.9818 100.374 47.9266 100.056 47.9266C99.7584 47.9266 99.4971 47.9775 99.2719 48.0795C99.051 48.1815 98.8768 48.3153 98.7493 48.481C98.6261 48.6467 98.5645 48.8251 98.5645 49.0163H97.3855C97.3855 48.7699 97.4492 48.5256 97.5767 48.2834C97.7042 48.0413 97.8868 47.8225 98.1248 47.627C98.3669 47.4273 98.6558 47.2701 98.9915 47.1554C99.3314 47.0365 99.7095 46.977 100.126 46.977C100.627 46.977 101.069 47.062 101.451 47.2319C101.838 47.4019 102.14 47.6589 102.356 48.003C102.577 48.3429 102.688 48.7699 102.688 49.284V52.496C102.688 52.7254 102.707 52.9697 102.745 53.2289C102.788 53.488 102.849 53.7111 102.93 53.898V54H101.7C101.641 53.864 101.594 53.6835 101.56 53.4583C101.526 53.2289 101.509 53.0164 101.509 52.821ZM101.713 49.8193L101.725 50.6478H100.534C100.198 50.6478 99.8986 50.6754 99.6352 50.7307C99.3717 50.7816 99.1508 50.8602 98.9724 50.9665C98.7939 51.0727 98.658 51.2065 98.5645 51.368C98.471 51.5252 98.4243 51.71 98.4243 51.9224C98.4243 52.1391 98.4732 52.3367 98.5709 52.5151C98.6686 52.6935 98.8152 52.8359 99.0106 52.9421C99.2103 53.0441 99.4546 53.095 99.7435 53.095C100.105 53.095 100.423 53.0186 100.699 52.8656C100.976 52.7127 101.194 52.5257 101.356 52.3048C101.522 52.0839 101.611 51.8693 101.624 51.6611L102.127 52.2283C102.097 52.4068 102.017 52.6043 101.885 52.821C101.753 53.0377 101.577 53.2459 101.356 53.4456C101.139 53.641 100.88 53.8046 100.578 53.9363C100.281 54.0637 99.9453 54.1275 99.5714 54.1275C99.1041 54.1275 98.6941 54.0361 98.3414 53.8534C97.9931 53.6707 97.7211 53.4264 97.5257 53.1205C97.3345 52.8104 97.2389 52.4641 97.2389 52.0817C97.2389 51.7121 97.3112 51.3871 97.4556 51.1067C97.6001 50.822 97.8082 50.5862 98.0802 50.3993C98.3521 50.2081 98.6792 50.0636 99.0616 49.9659C99.444 49.8682 99.871 49.8193 100.343 49.8193H101.713ZM104.536 44.2111H105.721V52.6617L105.619 54H104.536V44.2111ZM110.38 50.4949V50.6287C110.38 51.13 110.321 51.5953 110.202 52.0244C110.083 52.4492 109.908 52.8189 109.679 53.1333C109.45 53.4477 109.169 53.692 108.838 53.8662C108.506 54.0404 108.126 54.1275 107.697 54.1275C107.259 54.1275 106.875 54.0531 106.543 53.9044C106.216 53.7515 105.94 53.5326 105.715 53.248C105.49 52.9633 105.309 52.6192 105.173 52.2156C105.042 51.8119 104.95 51.3573 104.899 50.8518V50.2654C104.95 49.7556 105.042 49.2989 105.173 48.8952C105.309 48.4916 105.49 48.1475 105.715 47.8628C105.94 47.5739 106.216 47.3551 106.543 47.2064C106.871 47.0535 107.251 46.977 107.684 46.977C108.118 46.977 108.502 47.062 108.838 47.2319C109.173 47.3976 109.454 47.6355 109.679 47.9457C109.908 48.2558 110.083 48.6276 110.202 49.0609C110.321 49.4901 110.38 49.968 110.38 50.4949ZM109.195 50.6287V50.4949C109.195 50.1507 109.163 49.8278 109.099 49.5262C109.035 49.2203 108.933 48.9526 108.793 48.7232C108.653 48.4895 108.468 48.3068 108.239 48.1751C108.009 48.0391 107.727 47.9712 107.391 47.9712C107.094 47.9712 106.834 48.0222 106.614 48.1241C106.397 48.2261 106.212 48.3642 106.059 48.5384C105.906 48.7083 105.781 48.9037 105.683 49.1247C105.59 49.3414 105.52 49.5665 105.473 49.8002V51.3361C105.541 51.6335 105.651 51.9203 105.804 52.1964C105.961 52.4684 106.17 52.6914 106.429 52.8656C106.692 53.0398 107.017 53.1269 107.404 53.1269C107.722 53.1269 107.994 53.0632 108.22 52.9357C108.449 52.804 108.634 52.6234 108.774 52.394C108.918 52.1646 109.025 51.899 109.093 51.5974C109.161 51.2957 109.195 50.9728 109.195 50.6287ZM113.152 44.2111V54H111.967V44.2111H113.152ZM117.906 54.1275C117.426 54.1275 116.991 54.0467 116.6 53.8853C116.213 53.7196 115.88 53.488 115.599 53.1906C115.323 52.8932 115.111 52.5406 114.962 52.1327C114.813 51.7248 114.739 51.2787 114.739 50.7944V50.5267C114.739 49.9659 114.822 49.4667 114.988 49.0291C115.153 48.5872 115.379 48.2133 115.663 47.9074C115.948 47.6015 116.271 47.37 116.632 47.2128C116.993 47.0556 117.367 46.977 117.754 46.977C118.246 46.977 118.671 47.062 119.028 47.2319C119.389 47.4019 119.685 47.6398 119.914 47.9457C120.143 48.2473 120.313 48.6042 120.424 49.0163C120.534 49.4242 120.589 49.8703 120.589 50.3547V50.8836H115.44V49.9213H119.41V49.8321C119.393 49.5262 119.33 49.2288 119.219 48.9399C119.113 48.651 118.943 48.413 118.709 48.2261C118.476 48.0391 118.157 47.9457 117.754 47.9457C117.486 47.9457 117.239 48.003 117.014 48.1177C116.789 48.2282 116.596 48.3939 116.434 48.6148C116.273 48.8358 116.148 49.1056 116.058 49.4242C115.969 49.7429 115.924 50.1104 115.924 50.5267V50.7944C115.924 51.1215 115.969 51.4296 116.058 51.7185C116.152 52.0031 116.286 52.2538 116.46 52.4705C116.638 52.6872 116.853 52.8571 117.103 52.9803C117.358 53.1035 117.647 53.1651 117.97 53.1651C118.387 53.1651 118.739 53.0802 119.028 52.9102C119.317 52.7403 119.57 52.513 119.786 52.2283L120.5 52.7955C120.352 53.0207 120.163 53.2352 119.933 53.4392C119.704 53.6431 119.421 53.8088 119.085 53.9363C118.754 54.0637 118.361 54.1275 117.906 54.1275Z" fill="#292B3F"/>
<path d="M90.0678 70.9035H90.5987V74.0443H90.348C89.1585 74.0443 88.1116 74.2261 87.2072 74.5899C86.3126 74.9536 85.5655 75.4647 84.9659 76.1234C84.3761 76.7722 83.9288 77.5439 83.6241 78.4384C83.3193 79.3231 83.1669 80.2914 83.1669 81.3433V84.8232C83.1669 85.6391 83.2505 86.3567 83.4176 86.976C83.5946 87.5855 83.8354 88.1016 84.1401 88.5243C84.4547 88.9372 84.8184 89.2468 85.2313 89.4533C85.654 89.6597 86.116 89.7629 86.6174 89.7629C87.1187 89.7629 87.5709 89.6597 87.974 89.4533C88.377 89.2468 88.7211 88.9568 89.0061 88.5833C89.3011 88.1999 89.5222 87.7526 89.6697 87.2414C89.827 86.7303 89.9056 86.1699 89.9056 85.5605C89.9056 84.9608 89.8319 84.4054 89.6844 83.8942C89.537 83.3831 89.3207 82.9358 89.0356 82.5524C88.7506 82.1592 88.3967 81.8594 87.974 81.6529C87.5611 81.4367 87.0892 81.3285 86.5584 81.3285C85.8703 81.3285 85.2559 81.4907 84.7152 81.8151C84.1746 82.1297 83.7469 82.5426 83.4324 83.0537C83.1178 83.5649 82.9458 84.1056 82.9163 84.6757L81.6039 84.0269C81.6531 83.1914 81.83 82.4246 82.1348 81.7266C82.4493 81.0287 82.8671 80.4192 83.3881 79.8982C83.919 79.3772 84.5432 78.9742 85.2608 78.6891C85.9882 78.404 86.7943 78.2615 87.6791 78.2615C88.7014 78.2615 89.596 78.4581 90.3627 78.8513C91.1295 79.2347 91.7635 79.7606 92.2649 80.429C92.7761 81.0975 93.1594 81.8692 93.415 82.7441C93.6706 83.6091 93.7984 84.5234 93.7984 85.4867C93.7984 86.5189 93.6313 87.4823 93.2971 88.3768C92.9727 89.2714 92.5008 90.0529 91.8815 90.7214C91.2622 91.3898 90.5151 91.9108 89.6402 92.2844C88.7653 92.6579 87.7823 92.8447 86.6911 92.8447C85.541 92.8447 84.5088 92.6284 83.5946 92.1959C82.6902 91.7634 81.9136 91.1637 81.2648 90.397C80.616 89.6302 80.1196 88.7356 79.7755 87.7133C79.4314 86.6909 79.2594 85.585 79.2594 84.3956V82.8326C79.2594 81.1516 79.4904 79.5886 79.9524 78.1435C80.4145 76.6984 81.0977 75.4353 82.0021 74.3539C82.9163 73.2628 84.0468 72.4174 85.3935 71.8177C86.7403 71.2082 88.2984 70.9035 90.0678 70.9035ZM110.697 79.9719V83.5846C110.697 85.2361 110.53 86.6467 110.195 87.8165C109.861 88.9863 109.379 89.9448 108.75 90.6919C108.121 91.4292 107.369 91.9747 106.494 92.3286C105.619 92.6727 104.646 92.8447 103.575 92.8447C102.719 92.8447 101.923 92.7366 101.186 92.5203C100.449 92.2942 99.7851 91.9502 99.1952 91.4881C98.6153 91.0163 98.1139 90.4166 97.6912 89.6892C97.2783 88.9617 96.9589 88.0918 96.7328 87.0792C96.5165 86.0667 96.4084 84.9018 96.4084 83.5846V79.9719C96.4084 78.3204 96.5755 76.9147 96.9097 75.7547C97.2538 74.5948 97.7404 73.6461 98.3695 72.9089C98.9986 72.1716 99.7507 71.6358 100.626 71.3016C101.5 70.9576 102.474 70.7855 103.545 70.7855C104.41 70.7855 105.206 70.8937 105.934 71.1099C106.671 71.3262 107.33 71.6653 107.91 72.1274C108.5 72.5796 109.001 73.1694 109.414 73.8968C109.827 74.6144 110.141 75.4795 110.358 76.492C110.584 77.4947 110.697 78.6547 110.697 79.9719ZM106.804 84.1154V79.4264C106.804 78.6006 106.755 77.883 106.656 77.2735C106.568 76.6542 106.435 76.1283 106.258 75.6958C106.081 75.2632 105.86 74.9143 105.595 74.6488C105.329 74.3736 105.025 74.1721 104.681 74.0443C104.336 73.9165 103.958 73.8526 103.545 73.8526C103.034 73.8526 102.577 73.9558 102.174 74.1622C101.771 74.3588 101.432 74.6734 101.156 75.1059C100.881 75.5385 100.67 76.1135 100.522 76.8312C100.385 77.5389 100.316 78.404 100.316 79.4264V84.1154C100.316 84.9412 100.36 85.6637 100.449 86.283C100.547 86.9023 100.685 87.4331 100.861 87.8755C101.048 88.3179 101.269 88.6816 101.525 88.9667C101.79 89.2419 102.095 89.4483 102.439 89.586C102.783 89.7138 103.162 89.7777 103.575 89.7777C104.096 89.7777 104.553 89.6744 104.946 89.468C105.349 89.2616 105.688 88.9372 105.963 88.4948C106.239 88.0426 106.445 87.4577 106.583 86.7401C106.73 86.0127 106.804 85.1378 106.804 84.1154Z" fill="#333234"/>
<path d="M139.333 51.0493H140.557C140.493 51.6356 140.325 52.1603 140.053 52.6234C139.781 53.0865 139.397 53.454 138.9 53.726C138.403 53.9936 137.782 54.1275 137.039 54.1275C136.495 54.1275 136 54.0255 135.554 53.8216C135.112 53.6176 134.732 53.3287 134.413 52.9548C134.095 52.5767 133.848 52.1242 133.674 51.5974C133.504 51.0663 133.419 50.4757 133.419 49.8257V48.9016C133.419 48.2516 133.504 47.6631 133.674 47.1363C133.848 46.6052 134.097 46.1506 134.42 45.7725C134.747 45.3944 135.14 45.1033 135.599 44.8994C136.057 44.6955 136.574 44.5935 137.147 44.5935C137.848 44.5935 138.441 44.7252 138.925 44.9886C139.41 45.252 139.786 45.6174 140.053 46.0848C140.325 46.5479 140.493 47.0853 140.557 47.6971H139.333C139.274 47.2638 139.163 46.892 139.002 46.5819C138.84 46.2675 138.611 46.0253 138.313 45.8553C138.016 45.6854 137.627 45.6004 137.147 45.6004C136.735 45.6004 136.372 45.679 136.057 45.8362C135.747 45.9934 135.486 46.2165 135.274 46.5054C135.065 46.7943 134.908 47.1406 134.802 47.5442C134.696 47.9478 134.643 48.396 134.643 48.8889V49.8257C134.643 50.2803 134.689 50.7073 134.783 51.1067C134.881 51.506 135.027 51.8566 135.223 52.1582C135.418 52.4599 135.667 52.6978 135.968 52.872C136.27 53.0419 136.627 53.1269 137.039 53.1269C137.561 53.1269 137.978 53.0441 138.288 52.8784C138.598 52.7127 138.832 52.4747 138.989 52.1646C139.15 51.8544 139.265 51.4827 139.333 51.0493ZM141.742 50.6287V50.4821C141.742 49.985 141.814 49.524 141.959 49.0992C142.103 48.6701 142.311 48.2983 142.583 47.9839C142.855 47.6653 143.185 47.4188 143.571 47.2447C143.958 47.0662 144.391 46.977 144.871 46.977C145.356 46.977 145.791 47.0662 146.178 47.2447C146.569 47.4188 146.9 47.6653 147.172 47.9839C147.448 48.2983 147.658 48.6701 147.803 49.0992C147.947 49.524 148.02 49.985 148.02 50.4821V50.6287C148.02 51.1258 147.947 51.5868 147.803 52.0116C147.658 52.4365 147.448 52.8083 147.172 53.1269C146.9 53.4413 146.571 53.6877 146.184 53.8662C145.802 54.0404 145.368 54.1275 144.884 54.1275C144.4 54.1275 143.964 54.0404 143.578 53.8662C143.191 53.6877 142.86 53.4413 142.583 53.1269C142.311 52.8083 142.103 52.4365 141.959 52.0116C141.814 51.5868 141.742 51.1258 141.742 50.6287ZM142.921 50.4821V50.6287C142.921 50.9728 142.962 51.2979 143.042 51.6038C143.123 51.9054 143.244 52.1731 143.405 52.4068C143.571 52.6404 143.777 52.8252 144.024 52.9612C144.27 53.0929 144.557 53.1588 144.884 53.1588C145.207 53.1588 145.489 53.0929 145.732 52.9612C145.978 52.8252 146.182 52.6404 146.343 52.4068C146.505 52.1731 146.626 51.9054 146.707 51.6038C146.792 51.2979 146.834 50.9728 146.834 50.6287V50.4821C146.834 50.1422 146.792 49.8215 146.707 49.5198C146.626 49.2139 146.503 48.9441 146.337 48.7104C146.176 48.4725 145.972 48.2856 145.725 48.1496C145.483 48.0137 145.198 47.9457 144.871 47.9457C144.548 47.9457 144.264 48.0137 144.017 48.1496C143.775 48.2856 143.571 48.4725 143.405 48.7104C143.244 48.9441 143.123 49.2139 143.042 49.5198C142.962 49.8215 142.921 50.1422 142.921 50.4821ZM150.677 48.5766V54H149.498V47.1044H150.613L150.677 48.5766ZM150.397 50.2909L149.906 50.2718C149.91 49.8002 149.98 49.3647 150.116 48.9654C150.252 48.5617 150.443 48.2112 150.69 47.9138C150.936 47.6164 151.229 47.387 151.569 47.2255C151.913 47.0598 152.294 46.977 152.71 46.977C153.05 46.977 153.356 47.0237 153.628 47.1172C153.9 47.2064 154.131 47.3509 154.322 47.5506C154.518 47.7502 154.667 48.0094 154.769 48.3281C154.87 48.6425 154.921 49.027 154.921 49.4816V54H153.736V49.4688C153.736 49.1077 153.683 48.8188 153.577 48.6021C153.471 48.3812 153.315 48.2218 153.112 48.1241C152.908 48.0222 152.657 47.9712 152.36 47.9712C152.066 47.9712 151.799 48.0328 151.557 48.156C151.319 48.2792 151.113 48.4491 150.938 48.6658C150.768 48.8825 150.635 49.131 150.537 49.4115C150.443 49.6876 150.397 49.9808 150.397 50.2909ZM159.599 47.1044V48.0094H155.871V47.1044H159.599ZM157.133 45.4284H158.312V52.292C158.312 52.5257 158.348 52.702 158.42 52.821C158.492 52.94 158.586 53.0186 158.701 53.0568C158.815 53.095 158.939 53.1142 159.07 53.1142C159.168 53.1142 159.27 53.1057 159.376 53.0887C159.487 53.0674 159.569 53.0504 159.625 53.0377L159.631 54C159.538 54.0297 159.414 54.0574 159.261 54.0828C159.113 54.1126 158.932 54.1275 158.72 54.1275C158.431 54.1275 158.165 54.0701 157.923 53.9554C157.681 53.8407 157.488 53.6495 157.343 53.3818C157.203 53.1099 157.133 52.7445 157.133 52.2857V45.4284ZM165.048 52.821V49.2713C165.048 48.9993 164.993 48.7635 164.882 48.5639C164.776 48.3599 164.615 48.2027 164.398 48.0923C164.181 47.9818 163.914 47.9266 163.595 47.9266C163.298 47.9266 163.036 47.9775 162.811 48.0795C162.59 48.1815 162.416 48.3153 162.289 48.481C162.165 48.6467 162.104 48.8251 162.104 49.0163H160.925C160.925 48.7699 160.989 48.5256 161.116 48.2834C161.243 48.0413 161.426 47.8225 161.664 47.627C161.906 47.4273 162.195 47.2701 162.531 47.1554C162.871 47.0365 163.249 46.977 163.665 46.977C164.167 46.977 164.608 47.062 164.991 47.2319C165.377 47.4019 165.679 47.6589 165.896 48.003C166.117 48.3429 166.227 48.7699 166.227 49.284V52.496C166.227 52.7254 166.246 52.9697 166.284 53.2289C166.327 53.488 166.389 53.7111 166.469 53.898V54H165.239C165.18 53.864 165.133 53.6835 165.099 53.4583C165.065 53.2289 165.048 53.0164 165.048 52.821ZM165.252 49.8193L165.265 50.6478H164.073C163.737 50.6478 163.438 50.6754 163.174 50.7307C162.911 50.7816 162.69 50.8602 162.512 50.9665C162.333 51.0727 162.197 51.2065 162.104 51.368C162.01 51.5252 161.964 51.71 161.964 51.9224C161.964 52.1391 162.012 52.3367 162.11 52.5151C162.208 52.6935 162.354 52.8359 162.55 52.9421C162.75 53.0441 162.994 53.095 163.283 53.095C163.644 53.095 163.963 53.0186 164.239 52.8656C164.515 52.7127 164.734 52.5257 164.895 52.3048C165.061 52.0839 165.15 51.8693 165.163 51.6611L165.666 52.2283C165.637 52.4068 165.556 52.6043 165.424 52.821C165.292 53.0377 165.116 53.2459 164.895 53.4456C164.678 53.641 164.419 53.8046 164.118 53.9363C163.82 54.0637 163.485 54.1275 163.111 54.1275C162.643 54.1275 162.233 54.0361 161.881 53.8534C161.532 53.6707 161.26 53.4264 161.065 53.1205C160.874 52.8104 160.778 52.4641 160.778 52.0817C160.778 51.7121 160.85 51.3871 160.995 51.1067C161.139 50.822 161.348 50.5862 161.619 50.3993C161.891 50.2081 162.219 50.0636 162.601 49.9659C162.983 49.8682 163.41 49.8193 163.882 49.8193H165.252ZM170.841 53.1588C171.122 53.1588 171.381 53.1014 171.619 52.9867C171.857 52.872 172.052 52.7148 172.205 52.5151C172.358 52.3112 172.445 52.0796 172.466 51.8204H173.588C173.567 52.2283 173.429 52.6086 173.174 52.9612C172.923 53.3096 172.594 53.5921 172.186 53.8088C171.778 54.0212 171.33 54.1275 170.841 54.1275C170.323 54.1275 169.87 54.0361 169.484 53.8534C169.101 53.6707 168.783 53.4201 168.528 53.1014C168.277 52.7828 168.088 52.4174 167.961 52.0053C167.837 51.5889 167.776 51.1492 167.776 50.6861V50.4184C167.776 49.9553 167.837 49.5177 167.961 49.1056C168.088 48.6892 168.277 48.3217 168.528 48.003C168.783 47.6844 169.101 47.4337 169.484 47.251C169.87 47.0683 170.323 46.977 170.841 46.977C171.381 46.977 171.852 47.0875 172.256 47.3084C172.66 47.5251 172.976 47.8225 173.206 48.2006C173.439 48.5745 173.567 48.9993 173.588 49.4752H172.466C172.445 49.1905 172.364 48.9335 172.224 48.7041C172.088 48.4746 171.901 48.2919 171.663 48.156C171.43 48.0158 171.156 47.9457 170.841 47.9457C170.48 47.9457 170.176 48.0179 169.93 48.1624C169.688 48.3026 169.494 48.4938 169.35 48.7359C169.21 48.9738 169.108 49.2394 169.044 49.5325C168.984 49.8215 168.955 50.1167 168.955 50.4184V50.6861C168.955 50.9877 168.984 51.2851 169.044 51.5783C169.103 51.8714 169.203 52.137 169.343 52.3749C169.488 52.6128 169.681 52.804 169.923 52.9485C170.17 53.0887 170.476 53.1588 170.841 53.1588ZM177.8 47.1044V48.0094H174.072V47.1044H177.8ZM175.334 45.4284H176.513V52.292C176.513 52.5257 176.549 52.702 176.621 52.821C176.694 52.94 176.787 53.0186 176.902 53.0568C177.017 53.095 177.14 53.1142 177.271 53.1142C177.369 53.1142 177.471 53.1057 177.577 53.0887C177.688 53.0674 177.771 53.0504 177.826 53.0377L177.832 54C177.739 54.0297 177.616 54.0574 177.463 54.0828C177.314 54.1126 177.133 54.1275 176.921 54.1275C176.632 54.1275 176.367 54.0701 176.124 53.9554C175.882 53.8407 175.689 53.6495 175.544 53.3818C175.404 53.1099 175.334 52.7445 175.334 52.2857V45.4284ZM182.045 54.1275C181.565 54.1275 181.129 54.0467 180.738 53.8853C180.352 53.7196 180.018 53.488 179.738 53.1906C179.462 52.8932 179.249 52.5406 179.101 52.1327C178.952 51.7248 178.877 51.2787 178.877 50.7944V50.5267C178.877 49.9659 178.96 49.4667 179.126 49.0291C179.292 48.5872 179.517 48.2133 179.802 47.9074C180.086 47.6015 180.409 47.37 180.77 47.2128C181.131 47.0556 181.505 46.977 181.892 46.977C182.385 46.977 182.81 47.062 183.166 47.2319C183.528 47.4019 183.823 47.6398 184.052 47.9457C184.282 48.2473 184.452 48.6042 184.562 49.0163C184.673 49.4242 184.728 49.8703 184.728 50.3547V50.8836H179.578V49.9213H183.549V49.8321C183.532 49.5262 183.468 49.2288 183.358 48.9399C183.251 48.651 183.081 48.413 182.848 48.2261C182.614 48.0391 182.295 47.9457 181.892 47.9457C181.624 47.9457 181.378 48.003 181.153 48.1177C180.927 48.2282 180.734 48.3939 180.573 48.6148C180.411 48.8358 180.286 49.1056 180.197 49.4242C180.107 49.7429 180.063 50.1104 180.063 50.5267V50.7944C180.063 51.1215 180.107 51.4296 180.197 51.7185C180.29 52.0031 180.424 52.2538 180.598 52.4705C180.777 52.6872 180.991 52.8571 181.242 52.9803C181.497 53.1035 181.786 53.1651 182.109 53.1651C182.525 53.1651 182.878 53.0802 183.166 52.9102C183.455 52.7403 183.708 52.513 183.925 52.2283L184.639 52.7955C184.49 53.0207 184.301 53.2352 184.071 53.4392C183.842 53.6431 183.559 53.8088 183.224 53.9363C182.892 54.0637 182.499 54.1275 182.045 54.1275ZM190.451 52.6617V44.2111H191.636V54H190.553L190.451 52.6617ZM185.811 50.6287V50.4949C185.811 49.968 185.875 49.4901 186.002 49.0609C186.134 48.6276 186.319 48.2558 186.557 47.9457C186.799 47.6355 187.086 47.3976 187.417 47.2319C187.753 47.062 188.127 46.977 188.539 46.977C188.972 46.977 189.35 47.0535 189.673 47.2064C190 47.3551 190.277 47.5739 190.502 47.8628C190.731 48.1475 190.912 48.4916 191.043 48.8952C191.175 49.2989 191.267 49.7556 191.317 50.2654V50.8518C191.271 51.3573 191.179 51.8119 191.043 52.2156C190.912 52.6192 190.731 52.9633 190.502 53.248C190.277 53.5326 190 53.7515 189.673 53.9044C189.346 54.0531 188.964 54.1275 188.526 54.1275C188.123 54.1275 187.753 54.0404 187.417 53.8662C187.086 53.692 186.799 53.4477 186.557 53.1333C186.319 52.8189 186.134 52.4492 186.002 52.0244C185.875 51.5953 185.811 51.13 185.811 50.6287ZM186.997 50.4949V50.6287C186.997 50.9728 187.031 51.2957 187.099 51.5974C187.171 51.899 187.281 52.1646 187.43 52.394C187.579 52.6234 187.768 52.804 187.997 52.9357C188.227 53.0632 188.501 53.1269 188.819 53.1269C189.21 53.1269 189.531 53.0441 189.782 52.8784C190.037 52.7127 190.24 52.4939 190.393 52.2219C190.546 51.95 190.665 51.6547 190.75 51.3361V49.8002C190.699 49.5665 190.625 49.3414 190.527 49.1247C190.434 48.9037 190.311 48.7083 190.158 48.5384C190.009 48.3642 189.824 48.2261 189.603 48.1241C189.386 48.0222 189.129 47.9712 188.832 47.9712C188.509 47.9712 188.231 48.0391 187.997 48.1751C187.768 48.3068 187.579 48.4895 187.43 48.7232C187.281 48.9526 187.171 49.2203 187.099 49.5262C187.031 49.8278 186.997 50.1507 186.997 50.4949Z" fill="#292B3F"/>
<path d="M156.729 71.0215V92.5498H152.822V75.5778L147.646 77.2883V74.1327L156.287 71.0215H156.729ZM178.494 89.4828V92.5498H163.955V89.9251L170.929 82.3902C171.657 81.5644 172.232 80.8468 172.655 80.2374C173.077 79.6279 173.377 79.0774 173.554 78.5859C173.741 78.0845 173.834 77.6078 173.834 77.1556C173.834 76.4969 173.716 75.9219 173.48 75.4303C173.244 74.929 172.9 74.5407 172.448 74.2655C172.006 73.9902 171.46 73.8526 170.811 73.8526C170.094 73.8526 169.479 74.0197 168.968 74.3539C168.467 74.6783 168.083 75.1305 167.818 75.7105C167.562 76.2905 167.435 76.954 167.435 77.7011H163.527C163.527 76.433 163.822 75.278 164.412 74.236C165.002 73.1841 165.847 72.3436 166.948 71.7145C168.049 71.0853 169.356 70.7708 170.87 70.7708C172.345 70.7708 173.593 71.0165 174.616 71.5081C175.638 71.9897 176.415 72.6779 176.945 73.5724C177.476 74.467 177.742 75.5336 177.742 76.7722C177.742 77.4603 177.629 78.1386 177.403 78.807C177.176 79.4755 176.857 80.1391 176.444 80.7977C176.041 81.4465 175.559 82.1051 174.999 82.7736C174.439 83.442 173.815 84.1252 173.126 84.8232L168.939 89.4828H178.494Z" fill="#333234"/>
<path d="M211.332 44.721V54H210.096L205.424 46.8432V54H204.194V44.721H205.424L210.115 51.8969V44.721H211.332ZM213.021 50.6287V50.4821C213.021 49.985 213.093 49.524 213.237 49.0992C213.382 48.6701 213.59 48.2983 213.862 47.9839C214.134 47.6653 214.463 47.4188 214.85 47.2447C215.236 47.0662 215.67 46.977 216.15 46.977C216.634 46.977 217.07 47.0662 217.456 47.2447C217.847 47.4188 218.179 47.6653 218.451 47.9839C218.727 48.2983 218.937 48.6701 219.081 49.0992C219.226 49.524 219.298 49.985 219.298 50.4821V50.6287C219.298 51.1258 219.226 51.5868 219.081 52.0116C218.937 52.4365 218.727 52.8083 218.451 53.1269C218.179 53.4413 217.849 53.6877 217.463 53.8662C217.08 54.0404 216.647 54.1275 216.163 54.1275C215.678 54.1275 215.243 54.0404 214.856 53.8662C214.47 53.6877 214.138 53.4413 213.862 53.1269C213.59 52.8083 213.382 52.4365 213.237 52.0116C213.093 51.5868 213.021 51.1258 213.021 50.6287ZM214.2 50.4821V50.6287C214.2 50.9728 214.24 51.2979 214.321 51.6038C214.402 51.9054 214.523 52.1731 214.684 52.4068C214.85 52.6404 215.056 52.8252 215.302 52.9612C215.549 53.0929 215.836 53.1588 216.163 53.1588C216.486 53.1588 216.768 53.0929 217.01 52.9612C217.257 52.8252 217.461 52.6404 217.622 52.4068C217.784 52.1731 217.905 51.9054 217.985 51.6038C218.07 51.2979 218.113 50.9728 218.113 50.6287V50.4821C218.113 50.1422 218.07 49.8215 217.985 49.5198C217.905 49.2139 217.781 48.9441 217.616 48.7104C217.454 48.4725 217.25 48.2856 217.004 48.1496C216.762 48.0137 216.477 47.9457 216.15 47.9457C215.827 47.9457 215.542 48.0137 215.296 48.1496C215.054 48.2856 214.85 48.4725 214.684 48.7104C214.523 48.9441 214.402 49.2139 214.321 49.5198C214.24 49.8215 214.2 50.1422 214.2 50.4821ZM221.956 48.5766V54H220.777V47.1044H221.892L221.956 48.5766ZM221.675 50.2909L221.185 50.2718C221.189 49.8002 221.259 49.3647 221.395 48.9654C221.531 48.5617 221.722 48.2112 221.968 47.9138C222.215 47.6164 222.508 47.387 222.848 47.2255C223.192 47.0598 223.572 46.977 223.989 46.977C224.329 46.977 224.634 47.0237 224.906 47.1172C225.178 47.2064 225.41 47.3509 225.601 47.5506C225.796 47.7502 225.945 48.0094 226.047 48.3281C226.149 48.6425 226.2 49.027 226.2 49.4816V54H225.015V49.4688C225.015 49.1077 224.962 48.8188 224.855 48.6021C224.749 48.3812 224.594 48.2218 224.39 48.1241C224.186 48.0222 223.936 47.9712 223.638 47.9712C223.345 47.9712 223.077 48.0328 222.835 48.156C222.597 48.2792 222.391 48.4491 222.217 48.6658C222.047 48.8825 221.913 49.131 221.815 49.4115C221.722 49.6876 221.675 49.9808 221.675 50.2909ZM230.444 49.5708V50.5395H227.334V49.5708H230.444ZM237.378 51.0493H238.602C238.538 51.6356 238.37 52.1603 238.098 52.6234C237.827 53.0865 237.442 53.454 236.945 53.726C236.448 53.9936 235.828 54.1275 235.084 54.1275C234.54 54.1275 234.045 54.0255 233.599 53.8216C233.157 53.6176 232.777 53.3287 232.458 52.9548C232.14 52.5767 231.893 52.1242 231.719 51.5974C231.549 51.0663 231.464 50.4757 231.464 49.8257V48.9016C231.464 48.2516 231.549 47.6631 231.719 47.1363C231.893 46.6052 232.142 46.1506 232.465 45.7725C232.792 45.3944 233.185 45.1033 233.644 44.8994C234.103 44.6955 234.619 44.5935 235.192 44.5935C235.893 44.5935 236.486 44.7252 236.97 44.9886C237.455 45.252 237.831 45.6174 238.098 46.0848C238.37 46.5479 238.538 47.0853 238.602 47.6971H237.378C237.319 47.2638 237.208 46.892 237.047 46.5819C236.885 46.2675 236.656 46.0253 236.359 45.8553C236.061 45.6854 235.672 45.6004 235.192 45.6004C234.78 45.6004 234.417 45.679 234.103 45.8362C233.792 45.9934 233.531 46.2165 233.319 46.5054C233.111 46.7943 232.953 47.1406 232.847 47.5442C232.741 47.9478 232.688 48.396 232.688 48.8889V49.8257C232.688 50.2803 232.735 50.7073 232.828 51.1067C232.926 51.506 233.072 51.8566 233.268 52.1582C233.463 52.4599 233.712 52.6978 234.013 52.872C234.315 53.0419 234.672 53.1269 235.084 53.1269C235.607 53.1269 236.023 53.0441 236.333 52.8784C236.643 52.7127 236.877 52.4747 237.034 52.1646C237.196 51.8544 237.31 51.4827 237.378 51.0493ZM239.787 50.6287V50.4821C239.787 49.985 239.859 49.524 240.004 49.0992C240.148 48.6701 240.357 48.2983 240.628 47.9839C240.9 47.6653 241.23 47.4188 241.616 47.2447C242.003 47.0662 242.436 46.977 242.916 46.977C243.401 46.977 243.836 47.0662 244.223 47.2447C244.614 47.4188 244.945 47.6653 245.217 47.9839C245.493 48.2983 245.704 48.6701 245.848 49.0992C245.992 49.524 246.065 49.985 246.065 50.4821V50.6287C246.065 51.1258 245.992 51.5868 245.848 52.0116C245.704 52.4365 245.493 52.8083 245.217 53.1269C244.945 53.4413 244.616 53.6877 244.229 53.8662C243.847 54.0404 243.413 54.1275 242.929 54.1275C242.445 54.1275 242.009 54.0404 241.623 53.8662C241.236 53.6877 240.905 53.4413 240.628 53.1269C240.357 52.8083 240.148 52.4365 240.004 52.0116C239.859 51.5868 239.787 51.1258 239.787 50.6287ZM240.966 50.4821V50.6287C240.966 50.9728 241.007 51.2979 241.087 51.6038C241.168 51.9054 241.289 52.1731 241.451 52.4068C241.616 52.6404 241.822 52.8252 242.069 52.9612C242.315 53.0929 242.602 53.1588 242.929 53.1588C243.252 53.1588 243.535 53.0929 243.777 52.9612C244.023 52.8252 244.227 52.6404 244.389 52.4068C244.55 52.1731 244.671 51.9054 244.752 51.6038C244.837 51.2979 244.879 50.9728 244.879 50.6287V50.4821C244.879 50.1422 244.837 49.8215 244.752 49.5198C244.671 49.2139 244.548 48.9441 244.382 48.7104C244.221 48.4725 244.017 48.2856 243.77 48.1496C243.528 48.0137 243.244 47.9457 242.916 47.9457C242.593 47.9457 242.309 48.0137 242.062 48.1496C241.82 48.2856 241.616 48.4725 241.451 48.7104C241.289 48.9441 241.168 49.2139 241.087 49.5198C241.007 49.8215 240.966 50.1422 240.966 50.4821ZM248.722 48.5766V54H247.543V47.1044H248.658L248.722 48.5766ZM248.442 50.2909L247.951 50.2718C247.955 49.8002 248.025 49.3647 248.161 48.9654C248.297 48.5617 248.488 48.2112 248.735 47.9138C248.981 47.6164 249.274 47.387 249.614 47.2255C249.959 47.0598 250.339 46.977 250.755 46.977C251.095 46.977 251.401 47.0237 251.673 47.1172C251.945 47.2064 252.176 47.3509 252.368 47.5506C252.563 47.7502 252.712 48.0094 252.814 48.3281C252.916 48.6425 252.967 49.027 252.967 49.4816V54H251.781V49.4688C251.781 49.1077 251.728 48.8188 251.622 48.6021C251.516 48.3812 251.361 48.2218 251.157 48.1241C250.953 48.0222 250.702 47.9712 250.405 47.9712C250.111 47.9712 249.844 48.0328 249.602 48.156C249.364 48.2792 249.158 48.4491 248.983 48.6658C248.814 48.8825 248.68 49.131 248.582 49.4115C248.488 49.6876 248.442 49.9808 248.442 50.2909ZM257.644 47.1044V48.0094H253.916V47.1044H257.644ZM255.178 45.4284H256.357V52.292C256.357 52.5257 256.393 52.702 256.465 52.821C256.538 52.94 256.631 53.0186 256.746 53.0568C256.86 53.095 256.984 53.1142 257.115 53.1142C257.213 53.1142 257.315 53.1057 257.421 53.0887C257.532 53.0674 257.615 53.0504 257.67 53.0377L257.676 54C257.583 54.0297 257.46 54.0574 257.307 54.0828C257.158 54.1126 256.977 54.1275 256.765 54.1275C256.476 54.1275 256.21 54.0701 255.968 53.9554C255.726 53.8407 255.533 53.6495 255.388 53.3818C255.248 53.1099 255.178 52.7445 255.178 52.2857V45.4284ZM263.093 52.821V49.2713C263.093 48.9993 263.038 48.7635 262.928 48.5639C262.821 48.3599 262.66 48.2027 262.443 48.0923C262.226 47.9818 261.959 47.9266 261.64 47.9266C261.343 47.9266 261.081 47.9775 260.856 48.0795C260.635 48.1815 260.461 48.3153 260.334 48.481C260.211 48.6467 260.149 48.8251 260.149 49.0163H258.97C258.97 48.7699 259.034 48.5256 259.161 48.2834C259.289 48.0413 259.471 47.8225 259.709 47.627C259.951 47.4273 260.24 47.2701 260.576 47.1554C260.916 47.0365 261.294 46.977 261.71 46.977C262.212 46.977 262.653 47.062 263.036 47.2319C263.422 47.4019 263.724 47.6589 263.941 48.003C264.162 48.3429 264.272 48.7699 264.272 49.284V52.496C264.272 52.7254 264.291 52.9697 264.33 53.2289C264.372 53.488 264.434 53.7111 264.514 53.898V54H263.284C263.225 53.864 263.178 53.6835 263.144 53.4583C263.11 53.2289 263.093 53.0164 263.093 52.821ZM263.297 49.8193L263.31 50.6478H262.118C261.783 50.6478 261.483 50.6754 261.22 50.7307C260.956 50.7816 260.735 50.8602 260.557 50.9665C260.378 51.0727 260.242 51.2065 260.149 51.368C260.055 51.5252 260.009 51.71 260.009 51.9224C260.009 52.1391 260.058 52.3367 260.155 52.5151C260.253 52.6935 260.4 52.8359 260.595 52.9421C260.795 53.0441 261.039 53.095 261.328 53.095C261.689 53.095 262.008 53.0186 262.284 52.8656C262.56 52.7127 262.779 52.5257 262.94 52.3048C263.106 52.0839 263.195 51.8693 263.208 51.6611L263.711 52.2283C263.682 52.4068 263.601 52.6043 263.469 52.821C263.338 53.0377 263.161 53.2459 262.94 53.4456C262.724 53.641 262.464 53.8046 262.163 53.9363C261.865 54.0637 261.53 54.1275 261.156 54.1275C260.688 54.1275 260.278 54.0361 259.926 53.8534C259.577 53.6707 259.306 53.4264 259.11 53.1205C258.919 52.8104 258.823 52.4641 258.823 52.0817C258.823 51.7121 258.896 51.3871 259.04 51.1067C259.184 50.822 259.393 50.5862 259.665 50.3993C259.936 50.2081 260.264 50.0636 260.646 49.9659C261.028 49.8682 261.455 49.8193 261.927 49.8193H263.297ZM268.886 53.1588C269.167 53.1588 269.426 53.1014 269.664 52.9867C269.902 52.872 270.097 52.7148 270.25 52.5151C270.403 52.3112 270.49 52.0796 270.511 51.8204H271.633C271.612 52.2283 271.474 52.6086 271.219 52.9612C270.968 53.3096 270.639 53.5921 270.231 53.8088C269.823 54.0212 269.375 54.1275 268.886 54.1275C268.368 54.1275 267.915 54.0361 267.529 53.8534C267.146 53.6707 266.828 53.4201 266.573 53.1014C266.322 52.7828 266.133 52.4174 266.006 52.0053C265.882 51.5889 265.821 51.1492 265.821 50.6861V50.4184C265.821 49.9553 265.882 49.5177 266.006 49.1056C266.133 48.6892 266.322 48.3217 266.573 48.003C266.828 47.6844 267.146 47.4337 267.529 47.251C267.915 47.0683 268.368 46.977 268.886 46.977C269.426 46.977 269.897 47.0875 270.301 47.3084C270.705 47.5251 271.021 47.8225 271.251 48.2006C271.484 48.5745 271.612 48.9993 271.633 49.4752H270.511C270.49 49.1905 270.409 48.9335 270.269 48.7041C270.133 48.4746 269.946 48.2919 269.708 48.156C269.475 48.0158 269.201 47.9457 268.886 47.9457C268.525 47.9457 268.221 48.0179 267.975 48.1624C267.733 48.3026 267.539 48.4938 267.395 48.7359C267.255 48.9738 267.153 49.2394 267.089 49.5325C267.03 49.8215 267 50.1167 267 50.4184V50.6861C267 50.9877 267.03 51.2851 267.089 51.5783C267.149 51.8714 267.248 52.137 267.389 52.3749C267.533 52.6128 267.726 52.804 267.969 52.9485C268.215 53.0887 268.521 53.1588 268.886 53.1588ZM275.846 47.1044V48.0094H272.117V47.1044H275.846ZM273.379 45.4284H274.558V52.292C274.558 52.5257 274.594 52.702 274.667 52.821C274.739 52.94 274.832 53.0186 274.947 53.0568C275.062 53.095 275.185 53.1142 275.317 53.1142C275.414 53.1142 275.516 53.1057 275.622 53.0887C275.733 53.0674 275.816 53.0504 275.871 53.0377L275.877 54C275.784 54.0297 275.661 54.0574 275.508 54.0828C275.359 54.1126 275.178 54.1275 274.966 54.1275C274.677 54.1275 274.412 54.0701 274.169 53.9554C273.927 53.8407 273.734 53.6495 273.59 53.3818C273.449 53.1099 273.379 52.7445 273.379 52.2857V45.4284ZM280.09 54.1275C279.61 54.1275 279.174 54.0467 278.783 53.8853C278.397 53.7196 278.063 53.488 277.783 53.1906C277.507 52.8932 277.294 52.5406 277.146 52.1327C276.997 51.7248 276.923 51.2787 276.923 50.7944V50.5267C276.923 49.9659 277.005 49.4667 277.171 49.0291C277.337 48.5872 277.562 48.2133 277.847 47.9074C278.131 47.6015 278.454 47.37 278.815 47.2128C279.176 47.0556 279.55 46.977 279.937 46.977C280.43 46.977 280.855 47.062 281.212 47.2319C281.573 47.4019 281.868 47.6398 282.097 47.9457C282.327 48.2473 282.497 48.6042 282.607 49.0163C282.718 49.4242 282.773 49.8703 282.773 50.3547V50.8836H277.624V49.9213H281.594V49.8321C281.577 49.5262 281.513 49.2288 281.403 48.9399C281.297 48.651 281.127 48.413 280.893 48.2261C280.659 48.0391 280.341 47.9457 279.937 47.9457C279.669 47.9457 279.423 48.003 279.198 48.1177C278.973 48.2282 278.779 48.3939 278.618 48.6148C278.456 48.8358 278.331 49.1056 278.242 49.4242C278.153 49.7429 278.108 50.1104 278.108 50.5267V50.7944C278.108 51.1215 278.153 51.4296 278.242 51.7185C278.335 52.0031 278.469 52.2538 278.643 52.4705C278.822 52.6872 279.036 52.8571 279.287 52.9803C279.542 53.1035 279.831 53.1651 280.154 53.1651C280.57 53.1651 280.923 53.0802 281.212 52.9102C281.5 52.7403 281.753 52.513 281.97 52.2283L282.684 52.7955C282.535 53.0207 282.346 53.2352 282.117 53.4392C281.887 53.6431 281.605 53.8088 281.269 53.9363C280.938 54.0637 280.545 54.1275 280.09 54.1275ZM288.496 52.6617V44.2111H289.681V54H288.598L288.496 52.6617ZM283.856 50.6287V50.4949C283.856 49.968 283.92 49.4901 284.048 49.0609C284.179 48.6276 284.364 48.2558 284.602 47.9457C284.844 47.6355 285.131 47.3976 285.462 47.2319C285.798 47.062 286.172 46.977 286.584 46.977C287.017 46.977 287.395 47.0535 287.718 47.2064C288.046 47.3551 288.322 47.5739 288.547 47.8628C288.776 48.1475 288.957 48.4916 289.089 48.8952C289.22 49.2989 289.312 49.7556 289.363 50.2654V50.8518C289.316 51.3573 289.225 51.8119 289.089 52.2156C288.957 52.6192 288.776 52.9633 288.547 53.248C288.322 53.5326 288.046 53.7515 287.718 53.9044C287.391 54.0531 287.009 54.1275 286.571 54.1275C286.168 54.1275 285.798 54.0404 285.462 53.8662C285.131 53.692 284.844 53.4477 284.602 53.1333C284.364 52.8189 284.179 52.4492 284.048 52.0244C283.92 51.5953 283.856 51.13 283.856 50.6287ZM285.042 50.4949V50.6287C285.042 50.9728 285.076 51.2957 285.144 51.5974C285.216 51.899 285.326 52.1646 285.475 52.394C285.624 52.6234 285.813 52.804 286.042 52.9357C286.272 53.0632 286.546 53.1269 286.864 53.1269C287.255 53.1269 287.576 53.0441 287.827 52.8784C288.082 52.7127 288.286 52.4939 288.439 52.2219C288.591 51.95 288.71 51.6547 288.795 51.3361V49.8002C288.744 49.5665 288.67 49.3414 288.572 49.1247C288.479 48.9037 288.356 48.7083 288.203 48.5384C288.054 48.3642 287.869 48.2261 287.648 48.1241C287.432 48.0222 287.175 47.9712 286.877 47.9712C286.554 47.9712 286.276 48.0391 286.042 48.1751C285.813 48.3068 285.624 48.4895 285.475 48.7232C285.326 48.9526 285.216 49.2203 285.144 49.5262C285.076 49.8278 285.042 50.1507 285.042 50.4949Z" fill="#292B3F"/>
<path d="M253.91 86.6811C253.91 88.018 253.595 89.1485 252.966 90.0726C252.347 90.9868 251.496 91.6798 250.415 92.1517C249.343 92.6137 248.124 92.8447 246.758 92.8447C245.401 92.8447 244.178 92.6137 243.086 92.1517C242.005 91.6798 241.145 90.9868 240.506 90.0726C239.877 89.1485 239.562 88.018 239.562 86.6811C239.562 85.7866 239.739 84.9756 240.093 84.2481C240.457 83.5207 240.958 82.8965 241.597 82.3754C242.236 81.8446 242.993 81.4416 243.868 81.1663C244.743 80.8812 245.696 80.7387 246.729 80.7387C248.105 80.7387 249.334 80.9894 250.415 81.4907C251.506 81.9822 252.361 82.6753 252.981 83.5698C253.6 84.4546 253.91 85.4917 253.91 86.6811ZM249.987 86.4452C249.987 85.7571 249.85 85.1623 249.574 84.661C249.309 84.1498 248.931 83.7566 248.439 83.4814C247.947 83.2061 247.377 83.0685 246.729 83.0685C246.07 83.0685 245.495 83.2061 245.003 83.4814C244.522 83.7566 244.143 84.1498 243.868 84.661C243.602 85.1623 243.47 85.7571 243.47 86.4452C243.47 87.1431 243.602 87.7428 243.868 88.2441C244.143 88.7356 244.527 89.1141 245.018 89.3795C245.51 89.645 246.09 89.7777 246.758 89.7777C247.426 89.7777 248.002 89.645 248.483 89.3795C248.965 89.1141 249.334 88.7356 249.589 88.2441C249.855 87.7428 249.987 87.1431 249.987 86.4452ZM253.438 76.7427C253.438 77.824 253.153 78.7874 252.582 79.6328C252.012 80.4684 251.221 81.1221 250.208 81.5939C249.206 82.0658 248.056 82.3017 246.758 82.3017C245.46 82.3017 244.3 82.0658 243.278 81.5939C242.266 81.1221 241.469 80.4684 240.889 79.6328C240.319 78.7874 240.034 77.824 240.034 76.7427C240.034 75.4647 240.324 74.3834 240.904 73.4987C241.484 72.6041 242.275 71.9258 243.278 71.4638C244.291 71.0018 245.441 70.7708 246.729 70.7708C248.036 70.7708 249.196 71.0018 250.208 71.4638C251.221 71.9258 252.012 72.6041 252.582 73.4987C253.153 74.3834 253.438 75.4647 253.438 76.7427ZM249.545 76.9049C249.545 76.2954 249.432 75.7646 249.206 75.3124C248.98 74.8504 248.655 74.4915 248.233 74.236C247.82 73.9804 247.318 73.8526 246.729 73.8526C246.158 73.8526 245.667 73.9755 245.254 74.2212C244.841 74.467 244.522 74.8209 244.296 75.2829C244.069 75.7351 243.956 76.2757 243.956 76.9049C243.956 77.5242 244.069 78.0649 244.296 78.5269C244.522 78.9889 244.841 79.3526 245.254 79.618C245.677 79.8736 246.178 80.0014 246.758 80.0014C247.338 80.0014 247.834 79.8736 248.247 79.618C248.66 79.3526 248.98 78.9889 249.206 78.5269C249.432 78.0649 249.545 77.5242 249.545 76.9049Z" fill="#333234"/>
</svg>
