<svg width="291" height="247" viewBox="0 0 291 247" fill="none" xmlns="http://www.w3.org/2000/svg">
<rect width="291" height="247" rx="8.69173" fill="white"/>
<path d="M0 10.6917C0 5.89142 3.89142 2 8.69173 2H282.308C287.109 2 291 5.89142 291 10.6917V27H0V10.6917Z" fill="#047BD5"/>
<path d="M21.6362 8.39123V18H19.9797L15.6703 11.1168V18H14.0138V8.39123H15.6703L19.9929 15.2876V8.39123H21.6362ZM30.1164 13.9743V14.3439C30.1164 14.9291 30.0328 15.4526 29.8657 15.9146C29.6985 16.3765 29.4609 16.7725 29.1529 17.1025C28.8493 17.428 28.4842 17.6766 28.0574 17.8482C27.6307 18.0198 27.1599 18.1056 26.6451 18.1056C26.1304 18.1056 25.6596 18.0198 25.2329 17.8482C24.8061 17.6766 24.4365 17.428 24.1242 17.1025C23.8118 16.7725 23.5698 16.3765 23.3982 15.9146C23.231 15.4526 23.1474 14.9291 23.1474 14.3439V13.9743C23.1474 13.3892 23.231 12.8656 23.3982 12.4037C23.5698 11.9417 23.8096 11.5458 24.1176 11.2158C24.4255 10.8858 24.7929 10.635 25.2197 10.4634C25.6464 10.2919 26.1172 10.2061 26.6319 10.2061C27.1511 10.2061 27.6219 10.2919 28.0442 10.4634C28.471 10.635 28.8383 10.8858 29.1463 11.2158C29.4587 11.5458 29.6985 11.9417 29.8657 12.4037C30.0328 12.8656 30.1164 13.3892 30.1164 13.9743ZM28.526 14.3439V13.9611C28.526 13.5608 28.4842 13.2066 28.4006 12.8986C28.317 12.5907 28.1916 12.3311 28.0244 12.1199C27.8616 11.9087 27.6637 11.7481 27.4305 11.6381C27.1973 11.5282 26.9311 11.4732 26.6319 11.4732C26.3372 11.4732 26.071 11.5282 25.8334 11.6381C25.6002 11.7481 25.4022 11.9087 25.2395 12.1199C25.0811 12.3311 24.9579 12.5907 24.8699 12.8986C24.7863 13.2066 24.7445 13.5608 24.7445 13.9611V14.3439C24.7445 14.7399 24.7863 15.094 24.8699 15.4064C24.9579 15.7144 25.0833 15.9762 25.2461 16.1918C25.4132 16.4029 25.6134 16.5657 25.8466 16.6801C26.0842 16.7901 26.3504 16.8451 26.6451 16.8451C26.9443 16.8451 27.2083 16.7901 27.4371 16.6801C27.6703 16.5657 27.8682 16.4029 28.031 16.1918C28.1938 15.9762 28.317 15.7144 28.4006 15.4064C28.4842 15.094 28.526 14.7399 28.526 14.3439ZM38.082 10.3117V18H36.4849L33.0136 12.7007V18H31.4231V10.3117H33.0136L36.4849 15.611V10.3117H38.082ZM42.8731 13.2616V14.5287H39.382V13.2616H42.8731ZM48.1659 9.67152L45.2951 18H43.5595L47.176 8.39123H48.2847L48.1659 9.67152ZM50.5681 18L47.6907 9.67152L47.5653 8.39123H48.6806L52.3103 18H50.5681ZM50.4295 14.4363V15.7496H45.2027V14.4363H50.4295ZM56.3888 10.3117V18H54.7983V10.3117H56.3888ZM58.9494 10.3117V11.5788H52.2707V10.3117H58.9494ZM63.569 10.3117V18H61.9785V10.3117H63.569ZM66.1295 10.3117V11.5788H59.4509V10.3117H66.1295ZM72.6564 16.7395V18H68.2546V16.7395H72.6564ZM68.7561 10.3117V18H67.1657V10.3117H68.7561ZM72.0888 13.3936V14.6541H68.2546V13.3936H72.0888ZM72.6432 10.3117V11.5788H68.2546V10.3117H72.6432ZM74.4184 10.3117H75.7911L78.0151 15.9146L80.2325 10.3117H81.6052L78.5563 18H77.4674L74.4184 10.3117ZM73.7123 10.3117H75.0586L75.3028 15.8882V18H73.7123V10.3117ZM80.9717 10.3117H82.3245V18H80.7341V15.8882L80.9717 10.3117ZM87.0695 15.2876H84.9445V14.0205H87.0695C87.4127 14.0205 87.6921 13.9699 87.9077 13.8688C88.1276 13.7676 88.2882 13.6312 88.3894 13.4596C88.495 13.2836 88.5478 13.0856 88.5478 12.8656C88.5478 12.6369 88.495 12.4257 88.3894 12.2321C88.2882 12.0385 88.1276 11.8823 87.9077 11.7635C87.6921 11.6403 87.4127 11.5788 87.0695 11.5788H85.4791V18H83.8886V10.3117H87.0695C87.7163 10.3117 88.2684 10.4217 88.726 10.6416C89.1836 10.8616 89.5311 11.163 89.7687 11.5458C90.0107 11.9241 90.1317 12.3597 90.1317 12.8524C90.1317 13.222 90.0635 13.5564 89.9271 13.8556C89.7907 14.1547 89.5905 14.4121 89.3265 14.6277C89.0626 14.8389 88.7414 15.0017 88.363 15.116C87.9847 15.2304 87.5535 15.2876 87.0695 15.2876ZM94.9427 10.3117V18H93.3522V10.3117H94.9427ZM97.5032 10.3117V11.5788H90.8246V10.3117H97.5032ZM104.03 16.7395V18H99.6283V16.7395H104.03ZM100.13 10.3117V18H98.5394V10.3117H100.13ZM103.463 13.3936V14.6541H99.6283V13.3936H103.463ZM104.017 10.3117V11.5788H99.6283V10.3117H104.017ZM107.574 18H105.779L105.792 16.7395H107.574C108.08 16.7395 108.493 16.6471 108.815 16.4623C109.136 16.2731 109.371 16.0004 109.521 15.644C109.675 15.2876 109.752 14.8543 109.752 14.3439V13.9611C109.752 13.5784 109.708 13.2396 109.62 12.9448C109.536 12.6457 109.406 12.3949 109.23 12.1925C109.054 11.9901 108.83 11.8383 108.557 11.7371C108.289 11.6315 107.97 11.5788 107.6 11.5788H105.746V10.3117H107.6C108.15 10.3117 108.654 10.3997 109.112 10.5756C109.574 10.7516 109.97 11.0024 110.3 11.328C110.634 11.6491 110.891 12.0341 111.072 12.4829C111.256 12.9316 111.349 13.4288 111.349 13.9743V14.3439C111.349 15.0699 111.188 15.7078 110.867 16.2577C110.55 16.8077 110.108 17.2367 109.541 17.5446C108.977 17.8482 108.322 18 107.574 18ZM106.676 10.3117V18H105.086V10.3117H106.676Z" fill="white"/>
<path d="M144.567 58C161.902 58 179.066 61.5436 195.081 68.4285C211.096 75.3134 225.647 85.4048 237.905 98.1264C250.162 110.848 259.885 125.951 266.518 142.572C273.152 159.194 276.566 177.009 276.566 195L253.489 195C253.489 180.154 250.671 165.454 245.198 151.738C239.724 138.023 231.701 125.56 221.586 115.063C211.472 104.565 199.465 96.2383 186.25 90.5571C173.035 84.8759 158.871 81.9518 144.567 81.9518V58Z" fill="#DEDEDE"/>
<path d="M9 190.113C9 172.779 12.5436 155.614 19.4285 139.6C26.3134 123.585 36.4048 109.033 49.1264 96.7761C61.8481 84.5189 76.9508 74.7959 93.5725 68.1623C110.194 61.5288 128.009 58.1145 146 58.1145L146 82.006C131.265 82.006 116.675 84.8023 103.062 90.2352C89.4486 95.6681 77.0794 103.631 66.6603 113.67C56.2413 123.709 47.9764 135.626 42.3377 148.743C36.6989 161.859 33.7967 175.917 33.7967 190.113H9Z" fill="#5FA2E0"/>
<path d="M262.249 207.258V208H257.596V207.351L259.925 204.758C260.211 204.439 260.433 204.169 260.589 203.947C260.748 203.723 260.859 203.522 260.921 203.347C260.986 203.168 261.019 202.985 261.019 202.8C261.019 202.565 260.97 202.354 260.872 202.165C260.778 201.973 260.638 201.82 260.452 201.706C260.267 201.592 260.042 201.535 259.778 201.535C259.463 201.535 259.199 201.597 258.987 201.721C258.779 201.841 258.623 202.01 258.519 202.229C258.414 202.447 258.362 202.697 258.362 202.98H257.459C257.459 202.58 257.547 202.214 257.723 201.882C257.898 201.55 258.159 201.286 258.504 201.091C258.849 200.892 259.274 200.793 259.778 200.793C260.228 200.793 260.612 200.873 260.931 201.032C261.25 201.188 261.494 201.41 261.663 201.696C261.836 201.979 261.922 202.312 261.922 202.692C261.922 202.901 261.886 203.112 261.814 203.327C261.746 203.539 261.65 203.75 261.526 203.962C261.406 204.174 261.264 204.382 261.102 204.587C260.942 204.792 260.771 204.994 260.589 205.192L258.685 207.258H262.249ZM267.679 203.879V204.963C267.679 205.546 267.627 206.037 267.522 206.438C267.418 206.838 267.269 207.16 267.073 207.404C266.878 207.648 266.642 207.826 266.365 207.937C266.092 208.044 265.783 208.098 265.438 208.098C265.164 208.098 264.912 208.063 264.681 207.995C264.45 207.927 264.241 207.818 264.056 207.668C263.873 207.515 263.717 207.316 263.587 207.072C263.457 206.828 263.357 206.532 263.289 206.184C263.221 205.835 263.187 205.428 263.187 204.963V203.879C263.187 203.296 263.239 202.808 263.343 202.414C263.45 202.02 263.602 201.704 263.797 201.467C263.992 201.226 264.227 201.053 264.5 200.949C264.777 200.845 265.086 200.793 265.428 200.793C265.704 200.793 265.958 200.827 266.189 200.896C266.424 200.961 266.632 201.066 266.814 201.213C266.997 201.356 267.151 201.548 267.278 201.789C267.409 202.027 267.508 202.318 267.576 202.663C267.645 203.008 267.679 203.413 267.679 203.879ZM266.771 205.109V203.728C266.771 203.409 266.751 203.129 266.712 202.888C266.676 202.644 266.622 202.435 266.551 202.263C266.479 202.09 266.388 201.95 266.277 201.843C266.17 201.735 266.045 201.657 265.901 201.608C265.761 201.556 265.604 201.53 265.428 201.53C265.213 201.53 265.022 201.571 264.856 201.652C264.69 201.73 264.55 201.856 264.437 202.028C264.326 202.201 264.241 202.427 264.183 202.707C264.124 202.987 264.095 203.327 264.095 203.728V205.109C264.095 205.428 264.113 205.71 264.148 205.954C264.188 206.198 264.244 206.41 264.319 206.589C264.394 206.765 264.485 206.91 264.593 207.023C264.7 207.137 264.824 207.222 264.964 207.277C265.107 207.329 265.265 207.355 265.438 207.355C265.659 207.355 265.853 207.313 266.019 207.229C266.185 207.144 266.323 207.012 266.434 206.833C266.548 206.651 266.632 206.418 266.688 206.135C266.743 205.848 266.771 205.507 266.771 205.109ZM273.304 203.879V204.963C273.304 205.546 273.252 206.037 273.147 206.438C273.043 206.838 272.894 207.16 272.698 207.404C272.503 207.648 272.267 207.826 271.99 207.937C271.717 208.044 271.408 208.098 271.062 208.098C270.789 208.098 270.537 208.063 270.306 207.995C270.075 207.927 269.866 207.818 269.681 207.668C269.498 207.515 269.342 207.316 269.212 207.072C269.082 206.828 268.982 206.532 268.914 206.184C268.846 205.835 268.812 205.428 268.812 204.963V203.879C268.812 203.296 268.864 202.808 268.968 202.414C269.075 202.02 269.227 201.704 269.422 201.467C269.617 201.226 269.852 201.053 270.125 200.949C270.402 200.845 270.711 200.793 271.053 200.793C271.329 200.793 271.583 200.827 271.814 200.896C272.049 200.961 272.257 201.066 272.439 201.213C272.622 201.356 272.776 201.548 272.903 201.789C273.034 202.027 273.133 202.318 273.201 202.663C273.27 203.008 273.304 203.413 273.304 203.879ZM272.396 205.109V203.728C272.396 203.409 272.376 203.129 272.337 202.888C272.301 202.644 272.247 202.435 272.176 202.263C272.104 202.09 272.013 201.95 271.902 201.843C271.795 201.735 271.67 201.657 271.526 201.608C271.386 201.556 271.229 201.53 271.053 201.53C270.838 201.53 270.647 201.571 270.481 201.652C270.315 201.73 270.175 201.856 270.062 202.028C269.951 202.201 269.866 202.427 269.808 202.707C269.749 202.987 269.72 203.327 269.72 203.728V205.109C269.72 205.428 269.738 205.71 269.773 205.954C269.812 206.198 269.869 206.41 269.944 206.589C270.019 206.765 270.11 206.91 270.218 207.023C270.325 207.137 270.449 207.222 270.589 207.277C270.732 207.329 270.89 207.355 271.062 207.355C271.284 207.355 271.478 207.313 271.644 207.229C271.81 207.144 271.948 207.012 272.059 206.833C272.173 206.651 272.257 206.418 272.312 206.135C272.368 205.848 272.396 205.507 272.396 205.109Z" fill="#9D9D9D"/>
<path d="M22.0537 203.879V204.963C22.0537 205.546 22.0016 206.037 21.8975 206.438C21.7933 206.838 21.6436 207.16 21.4482 207.404C21.2529 207.648 21.0169 207.826 20.7402 207.937C20.4668 208.044 20.1576 208.098 19.8125 208.098C19.5391 208.098 19.2868 208.063 19.0557 207.995C18.8245 207.927 18.6162 207.818 18.4307 207.668C18.2484 207.515 18.0921 207.316 17.9619 207.072C17.8317 206.828 17.7324 206.532 17.6641 206.184C17.5957 205.835 17.5615 205.428 17.5615 204.963V203.879C17.5615 203.296 17.6136 202.808 17.7178 202.414C17.8252 202.02 17.9766 201.704 18.1719 201.467C18.3672 201.226 18.6016 201.053 18.875 200.949C19.1517 200.845 19.4609 200.793 19.8027 200.793C20.0794 200.793 20.3333 200.827 20.5645 200.896C20.7988 200.961 21.0072 201.066 21.1895 201.213C21.3717 201.356 21.5264 201.548 21.6533 201.789C21.7835 202.027 21.8828 202.318 21.9512 202.663C22.0195 203.008 22.0537 203.413 22.0537 203.879ZM21.1455 205.109V203.728C21.1455 203.409 21.126 203.129 21.0869 202.888C21.0511 202.644 20.9974 202.435 20.9258 202.263C20.8542 202.09 20.763 201.95 20.6523 201.843C20.5449 201.735 20.4196 201.657 20.2764 201.608C20.1364 201.556 19.9785 201.53 19.8027 201.53C19.5879 201.53 19.3975 201.571 19.2314 201.652C19.0654 201.73 18.9255 201.856 18.8115 202.028C18.7008 202.201 18.6162 202.427 18.5576 202.707C18.499 202.987 18.4697 203.327 18.4697 203.728V205.109C18.4697 205.428 18.4876 205.71 18.5234 205.954C18.5625 206.198 18.6195 206.41 18.6943 206.589C18.7692 206.765 18.8604 206.91 18.9678 207.023C19.0752 207.137 19.1989 207.222 19.3389 207.277C19.4821 207.329 19.64 207.355 19.8125 207.355C20.0339 207.355 20.2275 207.313 20.3936 207.229C20.5596 207.144 20.6979 207.012 20.8086 206.833C20.9225 206.651 21.0072 206.418 21.0625 206.135C21.1178 205.848 21.1455 205.507 21.1455 205.109Z" fill="#9D9D9D"/>
<path d="M126 203.465V232H121.293V209.051L114.32 211.414V207.527L125.434 203.465H126ZM154.418 215.398V220.047C154.418 222.273 154.197 224.174 153.754 225.75C153.324 227.312 152.699 228.582 151.879 229.559C151.059 230.535 150.076 231.251 148.93 231.707C147.797 232.163 146.527 232.391 145.121 232.391C144.001 232.391 142.96 232.247 141.996 231.961C141.046 231.674 140.186 231.225 139.418 230.613C138.65 230.001 137.992 229.214 137.445 228.25C136.911 227.273 136.495 226.108 136.195 224.754C135.909 223.4 135.766 221.831 135.766 220.047V215.398C135.766 213.159 135.987 211.271 136.43 209.734C136.872 208.185 137.504 206.928 138.324 205.965C139.145 204.988 140.121 204.279 141.254 203.836C142.4 203.393 143.676 203.172 145.082 203.172C146.215 203.172 147.257 203.315 148.207 203.602C149.171 203.875 150.03 204.311 150.785 204.91C151.553 205.509 152.204 206.29 152.738 207.254C153.285 208.204 153.702 209.357 153.988 210.711C154.275 212.052 154.418 213.615 154.418 215.398ZM149.711 220.711V214.695C149.711 213.562 149.646 212.566 149.516 211.707C149.385 210.835 149.19 210.099 148.93 209.5C148.682 208.888 148.37 208.393 147.992 208.016C147.615 207.625 147.185 207.345 146.703 207.176C146.221 206.993 145.681 206.902 145.082 206.902C144.353 206.902 143.702 207.046 143.129 207.332C142.556 207.605 142.074 208.048 141.684 208.66C141.293 209.272 140.993 210.079 140.785 211.082C140.59 212.072 140.492 213.276 140.492 214.695V220.711C140.492 221.857 140.557 222.866 140.688 223.738C140.818 224.611 141.013 225.359 141.273 225.984C141.534 226.596 141.846 227.104 142.211 227.508C142.589 227.898 143.018 228.185 143.5 228.367C143.995 228.549 144.535 228.641 145.121 228.641C145.863 228.641 146.521 228.497 147.094 228.211C147.667 227.924 148.148 227.469 148.539 226.844C148.93 226.206 149.223 225.379 149.418 224.363C149.613 223.348 149.711 222.13 149.711 220.711ZM177.152 215.398V220.047C177.152 222.273 176.931 224.174 176.488 225.75C176.059 227.312 175.434 228.582 174.613 229.559C173.793 230.535 172.81 231.251 171.664 231.707C170.531 232.163 169.262 232.391 167.855 232.391C166.736 232.391 165.694 232.247 164.73 231.961C163.78 231.674 162.921 231.225 162.152 230.613C161.384 230.001 160.727 229.214 160.18 228.25C159.646 227.273 159.229 226.108 158.93 224.754C158.643 223.4 158.5 221.831 158.5 220.047V215.398C158.5 213.159 158.721 211.271 159.164 209.734C159.607 208.185 160.238 206.928 161.059 205.965C161.879 204.988 162.855 204.279 163.988 203.836C165.134 203.393 166.41 203.172 167.816 203.172C168.949 203.172 169.991 203.315 170.941 203.602C171.905 203.875 172.764 204.311 173.52 204.91C174.288 205.509 174.939 206.29 175.473 207.254C176.02 208.204 176.436 209.357 176.723 210.711C177.009 212.052 177.152 213.615 177.152 215.398ZM172.445 220.711V214.695C172.445 213.562 172.38 212.566 172.25 211.707C172.12 210.835 171.924 210.099 171.664 209.5C171.417 208.888 171.104 208.393 170.727 208.016C170.349 207.625 169.919 207.345 169.438 207.176C168.956 206.993 168.415 206.902 167.816 206.902C167.087 206.902 166.436 207.046 165.863 207.332C165.29 207.605 164.809 208.048 164.418 208.66C164.027 209.272 163.728 210.079 163.52 211.082C163.324 212.072 163.227 213.276 163.227 214.695V220.711C163.227 221.857 163.292 222.866 163.422 223.738C163.552 224.611 163.747 225.359 164.008 225.984C164.268 226.596 164.581 227.104 164.945 227.508C165.323 227.898 165.753 228.185 166.234 228.367C166.729 228.549 167.27 228.641 167.855 228.641C168.598 228.641 169.255 228.497 169.828 228.211C170.401 227.924 170.883 227.469 171.273 226.844C171.664 226.206 171.957 225.379 172.152 224.363C172.348 223.348 172.445 222.13 172.445 220.711Z" fill="#353535"/>
<path fill-rule="evenodd" clip-rule="evenodd" d="M146.391 172.783L144.732 68.064L138.535 172.558C137.355 172.877 136.198 173.362 135.096 174.02C128.625 177.885 126.513 186.264 130.378 192.735C134.243 199.205 142.622 201.318 149.093 197.452C155.564 193.587 157.676 185.208 153.811 178.738C152.062 175.811 149.391 173.776 146.391 172.783Z" fill="#474747"/>
</svg>
