<svg width="29" height="29" viewBox="0 0 29 29" fill="none" xmlns="http://www.w3.org/2000/svg">
<path d="M28.2502 14.6441C28.2502 17.3637 27.4437 20.0223 25.9328 22.2835C24.4219 24.5448 22.2743 26.3073 19.7617 27.348C17.2491 28.3888 14.4844 28.6611 11.817 28.1305C9.14965 27.5999 6.69953 26.2903 4.77648 24.3673C2.85343 22.4442 1.54381 19.9941 1.01324 17.3267C0.482674 14.6594 0.754981 11.8946 1.79573 9.38201C2.83648 6.86942 4.59893 4.72188 6.8602 3.21095C9.12147 1.70001 11.78 0.893555 14.4996 0.893555C16.3054 0.893555 18.0934 1.24922 19.7617 1.94026C21.43 2.63129 22.9459 3.64415 24.2227 4.92101C25.4996 6.19787 26.5125 7.71372 27.2035 9.38201C27.8945 11.0503 28.2502 12.8384 28.2502 14.6441ZM22.5238 20.0336L18.3137 15.8234C19.259 14.3951 19.64 12.6666 19.3829 10.9732C19.1257 9.27977 18.2488 7.74225 16.9221 6.65889C15.5954 5.57553 13.9137 5.02357 12.203 5.11008C10.4924 5.19659 8.87491 5.91541 7.66431 7.12709C6.45372 8.33876 5.73634 9.95691 5.65136 11.6676C5.56638 13.3783 6.11985 15.0596 7.20439 16.3853C8.28894 17.711 9.82724 18.5866 11.5209 18.8422C13.2145 19.0978 14.9427 18.7153 16.3702 17.7687L20.5803 21.9771C20.708 22.1047 20.8596 22.2059 21.0265 22.2749C21.1933 22.3439 21.3721 22.3794 21.5527 22.3793C21.7332 22.3793 21.912 22.3436 22.0788 22.2745C22.2456 22.2053 22.3971 22.1039 22.5247 21.9762C22.6523 21.8485 22.7535 21.6969 22.8225 21.53C22.8915 21.3632 22.927 21.1844 22.9269 21.0038C22.9269 20.8233 22.8912 20.6445 22.8221 20.4777C22.7529 20.311 22.6515 20.1612 22.5238 20.0336ZM16.4675 8.08755C17.3736 8.99365 17.9375 10.1859 18.0631 11.4611C18.1887 12.7364 17.8683 14.0158 17.1564 15.0812C16.4445 16.1467 15.3852 16.9324 14.1589 17.3044C12.9327 17.6764 11.6154 17.6117 10.4315 17.1213C9.2476 16.631 8.27036 15.7453 7.66628 14.6152C7.06219 13.4851 6.86865 12.1805 7.11861 10.9237C7.36858 9.66687 8.04659 8.53562 9.03713 7.72267C10.0277 6.90972 11.2694 6.46537 12.5509 6.46534C13.2786 6.46323 13.9994 6.60553 14.6717 6.88399C15.344 7.16245 15.9544 7.57153 16.4675 8.08755Z" fill="#FEFEFE"/>
</svg>
